<svg version="1.1" baseProfile="tiny" id="Camada_1"
	 xmlns="http://www.w3.org/2000/svg" xmlns:xlink="http://www.w3.org/1999/xlink" x="0px" y="0px" viewBox="0 0 32 9"
	 xml:space="preserve">
	<path fill="#A01C2C" d="M5.2,6c0.9-0.9,2.1,0.3,2.1,0.3s1.2,1.2,0.3,2.1C6.7,9.2,5.5,8,5.5,8S4.3,6.9,5.2,6z"/>
	<path fill="#A01C2C" d="M16.8,4.5c0.9-0.9,2.1,0.3,2.1,0.3s1.2,1.2,0.3,2.1c-0.9,0.9-2.1-0.3-2.1-0.3S15.9,5.4,16.8,4.5z"/>
	<path fill="#A01C2C" d="M11,1.7C11.9,0.8,13.1,2,13.1,2s1.2,1.2,0.3,2.1c-0.9,0.9-2.1-0.3-2.1-0.3S10.1,2.6,11,1.7z"/>
	<g>
		<path fill="#4E9B7F" d="M23,9H1C0.4,9,0,8.6,0,8V1c0-0.6,0.4-1,1-1h22c0.6,0,1,0.4,1,1v7C24,8.6,23.6,9,23,9z M2,7h20V2H2V7z"/>
	</g>
</svg>
