<?xml version="1.0" encoding="utf-8"?>
<!-- Generator: Adobe Illustrator 22.0.1, SVG Export Plug-In . SVG Version: 6.00 Build 0)  -->
<svg version="1.1" id="Camada_1" xmlns="http://www.w3.org/2000/svg" xmlns:xlink="http://www.w3.org/1999/xlink" x="0px" y="0px"
	 viewBox="0 0 89.4 55.3" style="enable-background:new 0 0 89.4 55.3;" xml:space="preserve">
<style type="text/css">
	.st0{fill:#4E9B7F;}
	.st1{fill:#6AA88F;}
</style>
<title>Prancheta 10</title>
<g>
	<path class="st0" d="M42.4,46.8c-3.6-0.1-6.4-2.4-6.2-6.1c0.1-3.3,2.4-6.4,5.2-8c2.8-1.6,6.8-2.2,9.5-0.1c2.6,2.1,2.3,6,0.7,8.7
		c-0.9,1.6-2.2,2.9-3.7,3.9C46.1,46.2,44.3,46.6,42.4,46.8z M40.5,40.4c0.1,2.7,3.2,3.2,5.1,2.1c1.7-0.9,2.9-2.9,2.8-4.8
		c-0.1-2.5-2.7-3.2-4.7-2.3C41.8,36.2,40.5,38.3,40.5,40.4z"/>
	<path class="st0" d="M36.3,33.4c-0.4,0.4-0.9,0.8-1.3,1.2c-0.4,0.4-0.8,0.9-1.4,1.1c-1.1,0.4-2-0.6-3.1-0.8c-2-0.3-4.1,1-5.1,2.7
		c-0.9,1.6-1.2,4.1,0.7,5.2c0.9,0.5,2.1,0.5,3.1,0.2c0.4-0.1,1-0.2,1.2-0.6c0.2-0.3,0.5-1.4,0.4-1.7c-1,0-1.9,0-2.9,0
		c0.2-0.8,0.4-1.6,0.6-2.4c0.1-0.4,0.1-0.5,0.5-0.6c0.4-0.1,1,0,1.4,0c0.8,0,1.7,0,2.5,0c0.8,0,1.8-0.1,2.6,0
		c-0.4,1.7-0.9,3.3-1.3,5c-0.2,0.8-0.2,1.6-1,2c-0.7,0.4-1.4,0.8-2.2,1.1c-2.8,1.1-6.4,1.4-8.9-0.6C20.1,43.6,20,40.4,21,38
		c1-2.5,3.1-4.7,5.6-5.8C29.7,30.8,34,30.6,36.3,33.4z"/>
	<path class="st0" d="M73.4,46.5c-0.8,0-1.7,0-2.5,0c-0.6,0-1.7,0.3-1.9-0.4c-0.1-0.5,0-2.1-0.4-2.3c-0.3-0.2-1,0-1.4,0
		c-0.5,0-1,0-1.4,0c-0.4,0-0.9,0-1.3,0c-0.4,0-1.1-0.1-1.4,0c-0.6,0.2-1.2,1.5-1.5,2c-0.2,0.4-0.3,0.6-0.8,0.7c-0.4,0.1-0.8,0-1.2,0
		c-0.9,0-1.9,0.2-2.7,0c0.7-1.4,1.8-2.6,2.7-3.9c0.9-1.3,1.8-2.7,2.8-4c0.9-1.3,1.8-2.7,2.8-4c0.5-0.7,1-1.4,1.5-2.1
		c0.2-0.3,0.4-0.8,0.7-0.9c0.3-0.1,0.7-0.1,1-0.1c1.2,0,2.8-0.3,3.2,1.1c0.4,1.5,0.5,3.1,0.7,4.6C72.5,40.3,73,43.4,73.4,46.5z
		 M68.3,40.6c-0.2-1.4-0.3-2.8-0.5-4.2c-0.2,0-1.2,1.7-1.4,2c-0.5,0.7-1,1.5-1.5,2.2C66.1,40.6,67.2,40.6,68.3,40.6z"/>
	<path class="st0" d="M73.5,44.2c0.5-0.5,1.1-1,1.6-1.5c0.2-0.2,0.5-0.4,0.7-0.6c0.1-0.1,0.3-0.3,0.5-0.4c0.3-0.2,0.1-0.2,0.4,0
		c0.5,0.3,0.9,0.7,1.4,1c0.6,0.3,1.3,0.5,2,0.6c0.9,0.1,2.7,0.1,2.8-1.1c0.1-1.1-2.1-1.4-2.9-1.6c-2.2-0.6-4.4-1.7-3.7-4.3
		c0.5-2,1.9-3.5,3.8-4.3c2.3-1,5.4-1,7.7,0.3c0.3,0.2,1.2,0.7,1.2,1c0,0.2-0.6,0.7-0.8,0.8c-0.3,0.3-0.6,0.6-0.9,0.9
		c-0.4,0.4-0.9,0.8-1.5,0.7c-0.6-0.1-1.1-0.5-1.7-0.7c-1-0.3-2.8-0.6-3.4,0.5c-0.7,1.3,1.5,1.5,2.3,1.8c2.2,0.7,4.8,1.5,4.2,4.4
		C86,47.3,77.1,48.5,73.5,44.2z"/>
	<path class="st0" d="M51.7,46.5c0.9-3.3,1.7-6.5,2.6-9.8c0.2-0.8,0.4-1.7,0.7-2.5c0.2-0.7,0.3-1.5,0.7-2c0.4-0.5,1-0.6,1.7-0.6
		c0.8,0,1.6,0,2.5,0c-0.9,3.3-1.7,6.5-2.6,9.8c-0.2,0.8-0.4,1.6-0.6,2.4c-0.1,0.4-0.2,0.8-0.3,1.3c-0.1,0.3-0.1,1-0.3,1.3
		c-0.4,0.5-1.4,0.3-2,0.3C53.2,46.4,52.4,46.5,51.7,46.5z"/>
	<path class="st0" d="M63,51.2c0.6-0.7,2-1.2,2.4-0.1c0.2,0.5-0.1,1.2-0.2,1.7c-0.1,0.3-0.1,0.8-0.3,1c0,0.3-0.1,0.4-0.3,0.3
		c-0.2,0-0.4,0-0.5,0c0.2-0.7,0.5-1.5,0.6-2.2c0-0.6-0.5-0.9-1-0.6c-0.6,0.4-0.7,1.3-0.8,1.8c-0.2,0.9-0.2,1-1.1,1
		c0.1-0.5,1.3-3.6-0.4-2.9c-0.6,0.3-0.8,1.2-0.9,1.8c-0.1,0.2-0.1,0.9-0.3,1c-0.2,0.2-0.6,0.1-0.8,0.1c0.2-0.8,0.4-1.6,0.6-2.4
		c0.1-0.3,0.1-0.9,0.3-1.1c0.2-0.2,0.5-0.1,0.8-0.1c0,0.2-0.1,0.3-0.1,0.5C61.6,50.4,62.7,50.2,63,51.2z"/>
	<path class="st0" d="M20.2,54.2c-0.2,0-0.4,0-0.6,0c-0.3,0.1-0.4,0-0.3-0.3c-0.1-0.2,0-0.8-0.1-0.9c-0.1-0.1-0.8,0-0.9,0
		c-0.3,0-0.7,0-1,0c-1,0.1-0.8,1.5-2,1.1c0.4-0.8,1.1-1.6,1.7-2.4c0.3-0.4,0.6-0.8,0.9-1.3c0.2-0.3,0.5-0.9,0.8-1.1
		c0.1-0.1,0.2,0,0.4-0.1c0.4-0.1,0.4,0,0.5,0.3c0.1,0.4,0.2,0.9,0.2,1.4C19.9,52.1,20,53.1,20.2,54.2z M19.1,52.3
		c-0.1-0.6-0.2-1.3-0.3-1.9c-0.3,0-1.2,1.6-1.4,1.9C18,52.3,18.5,52.3,19.1,52.3z"/>
	<path class="st0" d="M45.1,54.2c0-0.2,0.1-0.3,0.1-0.5c-1.3,1-2.8,0.3-2.5-1.4c0.2-1.6,2.1-2.4,3.2-1.1c0.1-0.5,0.3-0.9,0.4-1.4
		c0-0.1,0.1-0.6,0.2-0.6c0.1-0.1,0.7,0,0.8,0c-0.3,1.1-0.6,2.2-0.9,3.2c-0.1,0.4-0.2,1.3-0.4,1.6C45.7,54.3,45.5,54.2,45.1,54.2z
		 M45.6,52.1c0-1.6-2.2-0.9-2.2,0.5C43.5,54.2,45.6,53.5,45.6,52.1z"/>
	<path class="st0" d="M69,50.6c0,0.2-0.1,0.3-0.1,0.5c1.3-1,2.8-0.3,2.5,1.4c-0.3,1.6-2.1,2.4-3.2,1.1c-0.1,0.4-0.2,0.9-0.4,1.4
		c-0.2,0.5-0.4,0.4-0.9,0.4c0.3-1,0.5-1.9,0.8-2.9c0.1-0.5,0.2-1,0.4-1.5C68.3,50.4,68.5,50.6,69,50.6z M70.6,52.1
		c0-1.6-2.2-0.8-2.2,0.4C68.4,54.2,70.6,53.5,70.6,52.1z"/>
	<path class="st0" d="M67.6,30.8c0.3-0.5,0.6-0.9,1-1.4c0.2-0.3,0.5-1,0.8-1.2c0.3-0.2,1,0,1.4,0c0.6,0,1.3,0,1.9,0
		c0,0.3-0.6,0.9-0.8,1.2c-0.3,0.4-0.6,0.8-1.1,1.1C69.8,31,68.6,30.8,67.6,30.8z"/>
	<path class="st0" d="M26.4,52.1c0.4-1.1-1.1-0.9-1.7-0.7c-0.1-0.3-0.2-0.5,0-0.7c0.1-0.2,0.8-0.2,1-0.2c0.6,0,1.3,0.1,1.5,0.7
		c0.2,0.6-0.2,1.4-0.3,2c-0.2,0.8-0.2,1-1,1c0-0.1,0.1-0.3,0.1-0.4c-0.7,0.5-2.2,0.9-2.3-0.5C23.6,51.8,25.4,52,26.4,52.1z
		 M26.3,52.6c-0.4,0-2.4-0.1-1.6,0.9C25.2,54.2,26.2,53.2,26.3,52.6z"/>
	<path class="st0" d="M74.5,54.2c-0.3,0-0.5,0-0.8,0c0-0.1,0.1-0.3,0.1-0.4c-0.5,0.4-1.4,0.8-2,0.2c-0.5-0.5-0.3-1.4,0.3-1.7
		c0.3-0.2,0.7-0.3,1.1-0.3c0.3,0,0.9,0.3,1.1,0c0.4-1-1.4-0.6-1.8-0.5c-0.1-0.3-0.2-0.5,0-0.7c0.2-0.1,0.6-0.2,0.8-0.2
		c0.5-0.1,1.2,0,1.5,0.4C75.6,51.6,74.7,53.4,74.5,54.2z M74.1,52.6c-0.4,0-0.9-0.2-1.3,0c-0.4,0.2-0.6,0.6-0.2,0.9
		C73.3,54.1,74,53.2,74.1,52.6z"/>
	<path class="st0" d="M79.8,54.2c0-0.2,0.1-0.3,0.1-0.5c-0.5,0.4-1,0.7-1.6,0.5c-0.6-0.2-0.8-0.9-0.5-1.5c0.3-0.7,1.2-0.8,1.8-0.7
		c0.4,0,0.9,0.3,0.8-0.3c0-0.3-0.2-0.4-0.5-0.5c-0.4-0.1-0.7,0.1-1.1,0c-0.3-0.1-0.2,0.1-0.3-0.2c-0.1-0.2-0.1-0.3,0-0.4
		c0.3-0.5,1.9-0.3,2.3,0.1c0.6,0.5,0.3,1.3,0.1,1.9c-0.1,0.3-0.1,1.1-0.4,1.3C80.4,54.3,80.1,54.2,79.8,54.2z M80.2,52.6
		c-0.5-0.2-2.4,0-1.6,0.8C79.1,54.1,80.2,53.3,80.2,52.6z"/>
	<path class="st0" d="M37.5,52.1c0.5-1.4-1.7-0.7-1.7-0.7c-0.4-0.3-0.1-0.6,0.2-0.8c0.5-0.2,1.5-0.2,2,0.1c0.6,0.4,0.4,1.2,0.2,1.8
		c-0.1,0.3-0.2,1.3-0.4,1.5c-0.2,0.2-0.5,0.1-0.8,0.1c0-0.2,0.1-0.3,0.1-0.5c-0.7,0.6-2.2,0.9-2.3-0.4
		C34.7,51.8,36.5,51.9,37.5,52.1z M37.4,52.6c-0.4,0-0.9-0.2-1.3,0c-0.4,0.2-0.6,0.6-0.2,0.9C36.5,54,37.3,53.2,37.4,52.6z"/>
	<path class="st0" d="M56.6,52.7c0,0.8,0.7,1.1,1.4,0.9c0.2-0.1,0.4-0.3,0.5-0.2c0,0,0.2,0.3,0.3,0.3c0,0.2-0.5,0.4-0.7,0.5
		c-1.4,0.4-2.5-0.7-2.1-2.1c0.3-1.1,1.9-2.2,3-1.3c0.4,0.4,0.8,1.5,0.2,1.9c-0.3,0.2-1,0-1.3,0C57.4,52.7,57,52.7,56.6,52.7z
		 M56.7,52.1c0.4,0,2.6,0.3,1.8-0.7C57.9,50.7,56.9,51.5,56.7,52.1z"/>
	<path class="st0" d="M48.6,54.3c-2.5,0.1-2-3.7,0.3-3.8C51.5,50.4,50.9,54.2,48.6,54.3z M49.9,52.2c0-1.6-2.3-0.9-2.2,0.5
		C47.8,54.2,49.9,53.5,49.9,52.2z"/>
	<path class="st0" d="M27.3,54.2c0.2-0.8,0.4-1.5,0.6-2.3c0.1-0.3,0.1-0.8,0.3-1c0-0.3,0.1-0.4,0.3-0.3c0.2,0,0.3,0,0.5,0
		c0,0.1,0,0.2-0.1,0.3c0.5-0.2,0.9-0.6,1.5-0.4c0.4,0.1,0.7,0.5,0.7,1c0,0.6-0.3,1.4-0.5,1.9c-0.2,0.7-0.2,0.7-1,0.7
		c0.2-0.6,1.3-3.5-0.4-2.9c-0.6,0.2-0.7,0.9-0.9,1.5c-0.1,0.4-0.1,1.1-0.4,1.3C28,54.3,27.6,54.2,27.3,54.2z"/>
	<path class="st0" d="M40.9,54.2c0.2-0.6,1.3-3.4-0.3-2.9c-0.7,0.2-0.8,0.9-0.9,1.4c-0.1,0.3-0.1,1-0.3,1.2c0,0.2-0.1,0.3-0.3,0.2
		c-0.2,0-0.4,0-0.5,0c0.2-0.8,0.4-1.6,0.7-2.4c0.1-0.2,0.1-0.9,0.3-1.1c0.2-0.2,0.5-0.1,0.8-0.1c0,0.1-0.1,0.3-0.1,0.4
		c0.7-0.5,2-0.9,2.2,0.3c0.1,0.5-0.2,1.1-0.3,1.6c-0.1,0.3-0.1,0.7-0.2,0.9c0,0.3-0.1,0.4-0.3,0.3C41.2,54.2,41,54.2,40.9,54.2z"/>
	<path class="st0" d="M34.1,53.2c0.3,0.3,0.5,0.5,0.1,0.7c-0.3,0.2-0.7,0.2-1,0.3c-0.2,0.1-0.4,0.4-0.5,0.6
		c-0.3,0.5-0.4,0.4-0.9,0.1c0.3-0.3,0.5-0.5,0.8-0.8c-0.4-0.4-0.8-0.5-1-1.1c-0.2-0.6,0-1.2,0.3-1.7c0.6-0.9,2.1-1.4,2.9-0.6
		c0.3,0.3,0.4,0.5-0.1,0.7c-0.1,0.2-0.3,0.2-0.3,0c-0.1-0.1-0.2-0.2-0.3-0.3c-0.5-0.3-1.2,0.1-1.5,0.5c-0.3,0.4-0.4,1.2,0.1,1.6
		C33.1,53.8,33.7,53.5,34.1,53.2z"/>
	<path class="st0" d="M55.7,51c0,0.1-0.2,0.4-0.3,0.4c-0.2,0.1-0.4-0.1-0.6-0.2c-0.3-0.1-0.8-0.2-1,0.1c-0.4,0.6,1.2,0.9,1.4,1.4
		c0.3,0.5,0,1.1-0.5,1.4c-0.8,0.4-1.8,0.2-2.4-0.4c0.1-0.1,0.3-0.4,0.4-0.4c0.2,0,0.2,0.1,0.4,0.2c0.3,0.2,0.8,0.3,1.2,0.1
		c0.9-0.5-0.9-1-1.1-1.3c-0.5-0.6-0.1-1.4,0.5-1.6C54.4,50.3,55.2,50.5,55.7,51z"/>
	<path class="st0" d="M20.7,50.6c0.1,0,0.8-0.1,0.8,0c0.1,0.1,0.1,0.8,0.1,0.9c0.1,0.6,0.1,1.2,0.2,1.8c0.4-0.6,0.7-1.2,1.1-1.7
		c0.1-0.2,0.3-0.8,0.6-0.9c0.2-0.1,0.6,0,0.9,0c-0.4,0.7-0.8,1.3-1.3,1.9c-0.3,0.5-0.7,1.5-1.3,1.7c-0.7,0.2-0.6-0.5-0.7-1
		C20.9,52.4,20.8,51.5,20.7,50.6z"/>
	<path class="st0" d="M47.8,28.8c0.1-0.6,0.3-1.1,0.4-1.7c0.1-0.4,0.1-1.2,0.6-1.2c0.6,0,1,1.4,1.2,1.9c0.1-0.5,0.2-1,0.4-1.5
		c0.2-0.4,0.2-0.3,0.7-0.3c-0.1,0.6-0.3,1.1-0.4,1.7c-0.1,0.2-0.2,1.1-0.4,1.2c-0.7,0.4-1.2-1.5-1.4-1.9
		C48.7,27.6,48.7,28.9,47.8,28.8z"/>
	<path class="st0" d="M54.1,27.1c0,1.8-3,2.4-3,0.4C51,25.7,54.1,25.1,54.1,27.1z M52.7,26.4c-1,0-1.6,1.7-0.4,1.8
		C53.4,28.4,54,26.5,52.7,26.4z"/>
	<path class="st0" d="M55.1,28.8c0.1-0.5,0.3-1,0.4-1.6c0.1-0.2,0.1-0.5,0.2-0.7c0.1-0.4,0-0.5,0.4-0.6c0.7-0.1,1.8,0.1,2,0.9
		C58.6,28.5,56.4,29,55.1,28.8z M55.9,28.2c0.4,0,0.9,0.1,1.3-0.2c0.3-0.3,0.6-0.9,0.2-1.3c-0.2-0.2-0.8-0.4-1-0.2
		C56.1,26.7,56,27.9,55.9,28.2z"/>
	<path class="st0" d="M36.8,27.5c0-1.9,3.2-2.4,3-0.3C39.7,29,36.8,29.5,36.8,27.5z M37.4,27.5c0,1.3,1.8,0.8,1.8-0.3
		C39.2,25.9,37.4,26.4,37.4,27.5z"/>
	<path class="st0" d="M47,27.8c0.2,0.3,0.3,0.6,0.5,1c-0.2,0-0.5,0.1-0.7-0.1c-0.2-0.2-0.2-0.8-0.6-0.8c-0.3-0.1-0.4,0.2-0.5,0.5
		c-0.2,0.5-0.2,0.5-0.7,0.5c0.2-0.7,0.4-1.5,0.6-2.2c0.2-0.7,0.5-0.7,1.2-0.6C48.2,26,48.1,27.3,47,27.8z M46,27.3
		c0.3,0,1.8-0.1,1.2-0.8c-0.1-0.1-0.7-0.2-0.9-0.1C46,26.6,46,27.1,46,27.3z"/>
	<path class="st0" d="M36.7,26.3c-0.3,0.3-0.3,0.3-0.7,0.3c-0.3-0.1-0.4-0.2-0.7-0.1c-0.5,0.1-0.9,0.4-1,0.9c-0.1,0.4,0.1,0.8,0.6,1
		c0.5,0.1,0.7-0.2,0.8-0.6c-0.2,0-0.4,0-0.7,0c0.1-0.4,0-0.4,0.4-0.5c0.3-0.1,0.6,0,0.9,0c-0.1,0.3-0.2,1.1-0.4,1.4
		c-0.2,0.3-0.8,0.3-1.1,0.3c-0.8-0.1-1.3-0.6-1.3-1.4C33.8,25.9,35.6,25.5,36.7,26.3z"/>
	<path class="st0" d="M45.3,25.9c0.1,0.5-0.3,0.5-0.6,0.5c-0.8,0-1-0.2-1.2,0.6c0.4,0,0.9,0,1.3,0c-0.2,0.6-0.3,0.5-1,0.5
		c-0.6,0-0.6,0.1-0.7,0.6c0.5,0,1,0,1.5,0c0.1,1-1.7,0.6-2.3,0.6c0.2-0.8,0.3-1.8,0.7-2.6C43.3,25.6,44.7,25.9,45.3,25.9z"/>
	<path class="st0" d="M60.6,27.1c0,0.1-0.1,0.5-0.2,0.6c-0.1,0.1-0.7,0-0.8,0c-0.6,0-0.6,0.1-0.7,0.6c0.5,0,1,0,1.5,0
		c-0.2,0.7-0.4,0.5-1.1,0.5c-0.2,0-1,0.1-1.2,0c-0.1-0.1,0.1-0.6,0.2-0.7c0.1-0.5,0.2-1.6,0.5-2c0.3-0.3,1.7-0.1,2.2-0.1
		c-0.2,0.6-0.3,0.5-1,0.5c-0.6,0-0.7,0-0.8,0.6C59.7,27.1,60.1,27.1,60.6,27.1z"/>
	<path class="st0" d="M78.3,50.5c-0.1,0.5-0.1,0.7-0.6,0.9c-0.4,0.1-0.7,0.3-1,0.6c-0.3,0.4-0.4,0.9-0.5,1.4c-0.2,0.7-0.2,0.8-1,0.8
		c0-0.6,0.4-1.5,0.5-2.1c0.1-0.3,0.1-0.9,0.3-1.2c0-0.3,0.1-0.4,0.3-0.3c0.2,0,0.4,0,0.5,0c-0.1,0.2-0.1,0.5-0.2,0.7
		C77.2,50.9,77.6,50.5,78.3,50.5z"/>
	<path class="st0" d="M82.1,54.2c-0.3,0-0.5,0-0.8,0c0.2-0.8,0.4-1.6,0.6-2.4c0.1-0.2,0.1-0.9,0.3-1.1c0.2-0.2,0.6-0.1,0.8-0.1
		c-0.1,0.2-0.1,0.5-0.2,0.7c0.4-0.4,0.9-0.8,1.5-0.8c-0.1,0.3-0.1,0.7-0.3,0.9c-0.3,0.2-0.7,0.1-1,0.5
		C82.4,52.4,82.3,53.4,82.1,54.2z"/>
	<path class="st0" d="M42.9,25.9c-0.4,0.5-0.7,1.1-1.1,1.6c-0.2,0.3-0.5,1-0.9,1.2c-0.6,0.3-0.6-0.4-0.6-0.8c-0.1-0.7-0.2-1.3-0.3-2
		c0.6,0,0.6-0.1,0.7,0.6c0,0.5,0.1,0.9,0.1,1.4c0.2,0,0.8-1.2,0.9-1.4C42.2,25.9,42.3,25.9,42.9,25.9z"/>
</g>
<path class="st0" d="M32,11C26.2,8.1,10.5,0,10.5,0L8.4,8l23.1,12.3c0.5-1.7,0.9-3.4,1.3-4.7C33.8,12.2,32.8,11.4,32,11z"/>
<path class="st0" d="M13.5,20.2L4.3,24L0,40.3l29.3-11.8c0,0,0,0,0-0.1L13.5,20.2z"/>
<polygon class="st1" points="8.3,7.9 6.2,16.5 29.3,28.3 31.4,20.2 "/>
</svg>
