<svg id="Camada_1" data-name="Camada 1" xmlns="http://www.w3.org/2000/svg" viewBox="0 0 103.33 55.27"><defs><style>.cls-1{fill:#4e9b7f;}</style></defs><title>Prancheta 10</title><path class="cls-1" d="M13.23,47.59A13.25,13.25,0,0,1,0,34.36H5.35a7.89,7.89,0,1,0,7.88-7.89V21.12a13.24,13.24,0,1,1,0,26.47Z"/><path class="cls-1" d="M49.29,46.42a14.2,14.2,0,0,1-6.14,1.33c-5.55,0-8.63-3.37-8.63-7.86,0-4.79,3.57-8.43,9.08-8.43a14.93,14.93,0,0,1,4.8.75V35.6a10.38,10.38,0,0,0-4.51-1.08c-3.61,0-5.44,2.12-5.44,5.18s1.73,5,4.89,5a6.48,6.48,0,0,0,2.26-.34v-4.7h3.69Z"/><path class="cls-1" d="M51.24,39.6a7.79,7.79,0,0,1,8.19-8.14,7.79,7.79,0,0,1,8.2,8.14,7.8,7.8,0,0,1-8.2,8.15A7.8,7.8,0,0,1,51.24,39.6Zm12.46,0c0-3.37-1.76-5.08-4.27-5.08s-4.26,1.71-4.26,5.08,1.76,5.09,4.26,5.09S63.7,43,63.7,39.6Z"/><path class="cls-1" d="M69.78,31.63h3.69V47.51H69.78Z"/><path class="cls-1" d="M81.56,31.55h3l6.58,16h-4l-1.52-3.79H80.55l-1.44,3.79H75.32Zm1.18-4.36H86.6l-2.51,3.54H81.35ZM84.6,40.78l-.75-2.19c-.36-1.08-.55-1.76-.67-2.26h-.05a18.41,18.41,0,0,1-.75,2.29l-.79,2.16Z"/><path class="cls-1" d="M93.47,43.48a6.37,6.37,0,0,0,3.67,1.21c1.08,0,2.26-.36,2.26-1.4,0-2.63-6.75-2.29-6.75-7.18,0-2.44,2-4.65,5.47-4.65a9.57,9.57,0,0,1,4.2.87v3.3a9.08,9.08,0,0,0-4.07-1.11c-.9,0-1.67.31-1.67,1.28,0,2.45,6.75,2.07,6.75,7.18,0,2.94-2.65,4.77-6,4.77a9.13,9.13,0,0,1-5.2-1.5Z"/><path class="cls-1" d="M35.72,51.32h2.33l-.23.76h-1.2v.79h1.22v.76H36.62v.82H38v.76H35.72Z"/><path class="cls-1" d="M39.86,54.22a1.57,1.57,0,0,0,.9.3c.27,0,.55-.09.55-.34,0-.65-1.65-.56-1.65-1.76A1.2,1.2,0,0,1,41,51.28a2.35,2.35,0,0,1,1,.22v.8A2.35,2.35,0,0,0,41,52c-.22,0-.41.08-.41.31,0,.6,1.65.51,1.65,1.76,0,.72-.64,1.17-1.48,1.17a2.28,2.28,0,0,1-1.27-.37Z"/><path class="cls-1" d="M44.94,52.08H43.81v-.76h3.26l-.23.76h-1v3.13h-.91Z"/><path class="cls-1" d="M49.49,51.31h.74l1.61,3.9h-1l-.38-.93H49.24l-.35.93H48Zm.74,2.25L50.05,53a5.66,5.66,0,0,1-.16-.56h0a3.06,3.06,0,0,1-.18.56l-.19.53Z"/><path class="cls-1" d="M53.18,51.32h1.4c1.36,0,2.16.73,2.16,1.91a2,2,0,0,1-2.25,2H53.18Zm1.33,3.13a1.13,1.13,0,0,0,1.27-1.19c0-.75-.45-1.18-1.29-1.18h-.41v2.37Z"/><path class="cls-1" d="M58.22,53.27a2,2,0,1,1,2,2A1.91,1.91,0,0,1,58.22,53.27Zm3,0c0-.82-.43-1.24-1-1.24s-1,.42-1,1.24.43,1.25,1,1.25S61.26,54.1,61.26,53.27Z"/><path class="cls-1" d="M66,51.32h.9v3.89H66Z"/><path class="cls-1" d="M71.46,55.21l-1.57-2.05-.36-.48h0c0,.13,0,.39,0,.55v2h-.9V51.32h.9l1.51,2a5.2,5.2,0,0,1,.35.47h0c0-.2,0-.49,0-.64v-1.8h.9v3.89Z"/><path class="cls-1" d="M74.21,53.27a2,2,0,1,1,2,2A1.91,1.91,0,0,1,74.21,53.27Zm3,0c0-.82-.43-1.24-1-1.24s-1,.42-1,1.24.43,1.25,1,1.25S77.25,54.1,77.25,53.27Z"/><path class="cls-1" d="M79.4,51.32h1l.74,1.94c.11.27.2.53.27.75h0c.08-.22.17-.48.28-.75l.74-1.94h1l-1.59,3.92H81Z"/><path class="cls-1" d="M85.81,51.31h.74l1.61,3.9h-1l-.37-.93H85.56l-.35.93h-.93Zm.74,2.25L86.37,53c-.09-.27-.14-.43-.17-.56h0A4.15,4.15,0,0,1,86,53l-.2.53Z"/><path class="cls-1" d="M89.49,51.32H90.9c1.36,0,2.16.73,2.16,1.91a2,2,0,0,1-2.26,2H89.49Zm1.34,3.13a1.13,1.13,0,0,0,1.27-1.19c0-.75-.46-1.18-1.29-1.18H90.4v2.37Z"/><path class="cls-1" d="M94.53,53.27a2,2,0,1,1,2,2A1.91,1.91,0,0,1,94.53,53.27Zm3,0c0-.82-.43-1.24-1-1.24s-1,.42-1,1.24.43,1.25,1,1.25S97.58,54.1,97.58,53.27Z"/><path class="cls-1" d="M100.16,51.32h1.25a2.23,2.23,0,0,1,.8.13,1,1,0,0,1,.66,1,1,1,0,0,1-.74,1h0a1.78,1.78,0,0,1,.49.65l.61,1.1h-1l-.47-.89c-.2-.37-.33-.51-.42-.53h-.26v1.42h-.9Zm1.18,1.74a.82.82,0,0,0,.36-.07.51.51,0,0,0,0-.88.6.6,0,0,0-.31-.06h-.29v1Z"/><path class="cls-1" d="M26.47,13.23H21.12A13.25,13.25,0,0,1,34.36,0V5.35A7.9,7.9,0,0,0,26.47,13.23Z"/><path class="cls-1" d="M13.23,5.35A7.9,7.9,0,0,1,20.8,11a13.56,13.56,0,0,1,2.67-6.14,13.23,13.23,0,1,0-10.75,21.6V21.1a7.88,7.88,0,0,1,.51-15.75Z"/><path class="cls-1" d="M21.1,13.74a7.89,7.89,0,0,1-5.63,7.06,13.61,13.61,0,0,1,6.14,2.67,13.22,13.22,0,0,0,4.85-9.73Z"/><path class="cls-1" d="M34.87,0V5.36a7.89,7.89,0,1,1-8.08,10.1,13.81,13.81,0,0,1-2.67,6.15A13.23,13.23,0,1,0,34.87,0Z"/></svg>