<svg id="Camada_1" data-name="Camada 1" xmlns="http://www.w3.org/2000/svg" viewBox="0 0 36.28 56.58"><defs><style>.cls-1{fill:#c9c099;}</style></defs><title>Prancheta 11</title><path class="cls-1" d="M35.47,15.75C31.56,20.06,26,19,20.52,17.87c-3.33-.72-4.36-3.12-2.88-6.28C19.83,7,22.36,1.72,27.25.13a4.07,4.07,0,0,1,2.05,0c2.36.51,2.52,2.22.94,4.06a25.21,25.21,0,0,1-5.4,4.35,29.59,29.59,0,0,0-3.58,2.72c-.39.37-.88.79-.57,1.4s.81.48,1.28.48A55.58,55.58,0,0,0,31.5,12,5.52,5.52,0,0,1,34.72,12a2.69,2.69,0,0,1,1.56,1.75,3,3,0,0,1-.81,2.05"/><path class="cls-1" d="M.13,17.39c1.74-3.24,6.48-2,9.86-1.4,2.37.42,3,2,1.89,4.12a15.46,15.46,0,0,1-5.25,6.17c-.79.5-1.84,1.14-2.55.06s.24-1.84,1-2.41c1.51-1.18,3.11-2.23,4.65-3.36.49-.36,1.07-.81.81-1.49s-.93-.45-1.46-.47a20.63,20.63,0,0,0-5.47.7c-1.26.29-2.9.59-3.45-.69a1.51,1.51,0,0,1,0-1.23"/><path class="cls-1" d="M12.44,25.09a12.94,12.94,0,0,1,.31-2.84c.79-3.72,2.8-4.78,6-2.89a24.07,24.07,0,0,1,7.52,6.83c.6.85,1.22,1.85.2,2.75s-2.16.16-2.84-.65c-1.39-1.67-2.55-3.53-3.91-5.23-.77-1-1.49-2.75-2.83-2.19s-.72,2.43-.58,3.71c.24,2.1.71,4.16,1,6.25.19,1.21.17,2.48-1.26,2.87s-2.23-.76-2.65-2a24.4,24.4,0,0,1-1-6.64"/><path class="cls-1" d="M12.87,13.25c.48-1.88-.22-3.8-.45-5.69-.1-.8-.25-1.79.86-2s1.36.78,1.55,1.55a10.36,10.36,0,0,1,.26,5.44c-.55,2-1.34,2.38-3.47,1.57-.15-1.09,1.1-.3,1.25-.88"/><path class="cls-1" d="M12.87,13.25c.48.14-.83.59-1.25.88-2.14-.91-3.51-2.68-4.92-4.4a1,1,0,0,1,0-1.45c.46-.42.9-.16,1.3.09,1.1.66,1.6,1.82,2.35,2.77a5.12,5.12,0,0,0,2.52,2.11"/><polygon class="cls-1" points="0.74 40.62 9.21 40.62 9.21 42.33 2.77 42.33 2.77 47.55 8.72 47.55 8.72 49.23 2.77 49.23 2.77 56.34 0.74 56.34 0.74 40.62"/><path class="cls-1" d="M23.08,55.83a10,10,0,0,1-4.14.75c-4.44,0-7.77-2.8-7.77-8a7.82,7.82,0,0,1,8.21-8.25,8.46,8.46,0,0,1,3.73.7l-.49,1.65a7.45,7.45,0,0,0-3.17-.65c-3.69,0-6.13,2.35-6.13,6.49,0,3.84,2.21,6.31,6,6.31a8,8,0,0,0,3.3-.65Z"/><path class="cls-1" d="M25.35,53.87a7.19,7.19,0,0,0,3.64,1c2.07,0,3.28-1.09,3.28-2.67s-.84-2.32-3-3.13c-2.56-.91-4.15-2.24-4.15-4.46,0-2.44,2-4.26,5.08-4.26a7.24,7.24,0,0,1,3.48.77l-.56,1.65a6.26,6.26,0,0,0-3-.74c-2.14,0-3,1.28-3,2.35,0,1.47,1,2.2,3.13,3,2.65,1,4,2.31,4,4.62s-1.79,4.53-5.49,4.53a8.14,8.14,0,0,1-4-1Z"/></svg>