<svg id="Camada_1" data-name="Camada 1" xmlns="http://www.w3.org/2000/svg" viewBox="0 0 114.04 33.57"><defs><style>.cls-1{fill:#c9c099;}</style></defs><title>Prancheta 16</title><path class="cls-1" d="M0,25.94c.74,0,1.46.06,2.17.14a3.21,3.21,0,0,1,1.06.29A25.07,25.07,0,0,0,11,28.93a25.37,25.37,0,0,0,7.07,0,44.8,44.8,0,0,0,10.56-3.17,45.79,45.79,0,0,1,8-2.58,41.67,41.67,0,0,1,9.32-1,22.37,22.37,0,0,1,6.58,1.26c2.28.77,4.52,1.62,6.78,2.42a30.41,30.41,0,0,0,6.15,1.6,29,29,0,0,0,5.89.22,68.06,68.06,0,0,0,10.7-2,47.17,47.17,0,0,1,8-1.25c2-.09,4.06-.2,6.09-.11a21.88,21.88,0,0,1,12.74,4.24c1.13.86,2.09,1.92,3.15,2.88.6.55,1.24,1.06,1.87,1.6.06.06.16.15.15.2s-.11.22-.18.22a2.3,2.3,0,0,1-1,0,12.5,12.5,0,0,1-2.17-1.15,28,28,0,0,0-7.66-3.91,32.46,32.46,0,0,0-6.54-1.34,60,60,0,0,0-9-.09A50.4,50.4,0,0,0,79,28.37c-2.07.46-4.13,1-6.22,1.35a35.08,35.08,0,0,1-8.06.52A31.26,31.26,0,0,1,55.32,28a72.2,72.2,0,0,0-7.57-2.52,26.21,26.21,0,0,0-8.14-.63A43.72,43.72,0,0,0,25,28.63a37.53,37.53,0,0,1-8,2.46A17.09,17.09,0,0,1,3.35,28.23c-.51-.36-1-.74-1.5-1.11-.3-.21-.59-.45-.9-.65s-.62-.34-.95-.53"/><path class="cls-1" d="M61.75,1.34V.67h.35c1.34,0,2.69,0,4,0a.45.45,0,0,1,.48.27c2,3.74,4,7.46,6,11.19.22.4.39.82.6,1.22a2.61,2.61,0,0,0,.37.44c.26-.48.49-.89.71-1.31q2.75-5,5.47-10a7.75,7.75,0,0,0,.55-1.12.91.91,0,0,1,1-.66h3.91c.05.06.07.08.07.1,0,.61,0,.62-.55.71l-.89.1c-.59.08-.86.32-.91.92a18.44,18.44,0,0,0,0,2c0,1.64.08,3.29.12,4.94l.21,9.18V19l-2.74.57q0-7.83-.1-15.59l-.1,0c-2.42,4.48-5,8.86-7.27,13.47a2.22,2.22,0,0,1-1-.93c-2-3.78-4.12-7.54-6.19-11.31-.13-.24-.28-.47-.43-.7h-.1C65.08,10,65,15.49,64.9,21c-.31-.06-.64-.1-1-.19-.06,0-.11-.21-.11-.33,0-1.22,0-2.43.06-3.65.05-2.24.12-4.47.16-6.7,0-1.86.09-3.71.1-5.56a12.36,12.36,0,0,0-.1-1.93,1.29,1.29,0,0,0-1.3-1.24c-.33-.05-.66-.07-1-.1"/><path class="cls-1" d="M24.32,15.92c-.25,1.3-.51,2.59-.76,3.87a1,1,0,0,1-.78.88c-1.31.33-2.61.69-3.92,1a15.71,15.71,0,0,1-8.35-.54,10.39,10.39,0,0,1-6.86-6.57,13.3,13.3,0,0,1-.52-2.73A9.06,9.06,0,0,1,6.52,3.37,13.3,13.3,0,0,1,16,0a22,22,0,0,1,6.91,1.29l.31.1c.69.2.69.2.73,1,.07,1.17.15,2.35.23,3.6a8.68,8.68,0,0,1-.87,0c-.09,0-.2-.15-.26-.25-.67-1-1.31-2.11-2-3.15A1.79,1.79,0,0,0,20.51,2a7.61,7.61,0,0,0-3.22-.92A11.79,11.79,0,0,0,10.9,2.47,7.84,7.84,0,0,0,7,7.79a11.21,11.21,0,0,0,.78,7.58,10.06,10.06,0,0,0,3.4,3.76,7.89,7.89,0,0,0,5.46,1.6,8.13,8.13,0,0,0,2.09-.53c.9-.33,1.77-.73,2.64-1.13a1.85,1.85,0,0,0,.59-.45,6.16,6.16,0,0,0,1.32-2.35c.19-.61.18-.61.77-.44l.3.09"/><path class="cls-1" d="M41.6,8.15c0-1,0-2,0-2.94,0-.81,0-1.62-.09-2.42a1.39,1.39,0,0,0-1.42-1.36c-.29,0-.59-.06-.91-.09V.7h7.39c.13.63.11.66-.48.75-.36.06-.73.12-1.09.2a.85.85,0,0,0-.7.73,7.76,7.76,0,0,0-.08,1.17q0,6.08,0,12.13c0,.37-.11.48-.46.47-.71,0-1.43,0-2.2,0V13.93c0-1.46,0-2.92,0-4.37,0-.33-.12-.43-.41-.43l-7.82-.06H30.91c0,.26,0,.44,0,.61l-.06,8.83a.55.55,0,0,1-.34.58c-.74.33-1.46.68-2.27,1.06V3.33c0-1.42-.31-1.77-1.71-1.94l-.69,0V.71h7.56v.65l-1.28.21C31.21,1.7,31,1.91,31,2.81c0,1.54,0,3.09,0,4.63v.71Z"/><path class="cls-1" d="M55.81,11.06H53.58c-1.2,0-2.39,0-3.59,0a.43.43,0,0,0-.5.36c-.48,1.43-1,2.84-1.47,4.27-.09.26-.2.36-.48.33s-.64,0-1,0c.35-.86.68-1.67,1-2.49,1.3-3.2,2.58-6.42,3.88-9.63A6.76,6.76,0,0,0,51.92,1,2.14,2.14,0,0,0,53.21.26.8.8,0,0,1,53.6,0c.26-.09.42,0,.55.27q3,7.59,6.08,15.18c.61,1.49,1.31,2.94,2,4.42.07.16.13.32.23.58-1-.35-2-.65-3-1a1.11,1.11,0,0,1-.49-.62c-.88-2.13-1.73-4.27-2.59-6.4l-.56-1.4M52.63,3.27c-.87,2.27-1.71,4.49-2.56,6.74h5.28c-.92-2.26-1.82-4.49-2.72-6.74"/></svg>