<?xml version="1.0" encoding="utf-8"?>
<!-- Generator: Adobe Illustrator 22.0.1, SVG Export Plug-In . SVG Version: 6.00 Build 0)  -->
<svg version="1.1" baseProfile="tiny" id="Camada_1"
	 xmlns="http://www.w3.org/2000/svg" xmlns:xlink="http://www.w3.org/1999/xlink" x="0px" y="0px" viewBox="0 0 50 51.9"
	 xml:space="preserve">
<title>Prancheta 15</title>
<path display="none" fill="#C9C099" d="M50.2,23.1C50.2,23.1,50.2,23.1,50.2,23.1c0.1-0.2,0.1-0.4,0.1-0.6c-0.1-0.4,0.1-0.9-0.3-1.3
	c0,0,0,0-0.1,0c0,0,0,0,0,0c-0.1-0.2-0.1-0.5-0.1-0.7h0c-0.1-0.1-0.2-0.2-0.2-0.4c0-0.3,0.1-0.5,0-0.8c0-0.2-0.1-0.4-0.2-0.5
	c-0.1-0.2-0.1-0.3-0.1-0.5v0c0,0,0,0,0,0c-0.1-0.6-0.2-1.1-0.5-1.6c0,0,0,0,0,0c0,0,0,0,0,0l-0.2-0.5c0,0,0,0,0,0c0,0,0,0,0,0
	l-0.4-0.9c0,0,0-0.1,0-0.1l-1-1.9c0,0,0,0,0,0l0,0c0-0.3-0.2-0.4-0.4-0.5c0,0,0,0,0,0l0,0h0c-0.2-0.2-0.2-0.8-0.7-0.7c0,0,0,0,0,0
	c0.1-0.1,0.1-0.3,0.2-0.4c-0.2-0.2-0.3-0.6-0.7-0.8c-0.1-0.2-0.2-0.4-0.4-0.5v0c0,0,0,0,0,0l-0.2-0.2c0,0,0,0,0,0c0-0.1,0-0.1,0-0.2
	l-0.3-0.5l0,0c0-0.1-0.1-0.1-0.1-0.1c0-0.4-0.3-0.7-0.6-0.9c-0.2-0.1-0.6,0.1-0.7-0.2v0.1c0,0,0,0-0.1,0c0,0,0,0,0.1-0.1
	c0.3-0.5-0.5-0.4-0.5-0.8c-0.1-0.2-0.2-0.3-0.5-0.3c0-0.3-0.1-0.5-0.3-0.7c-0.1,0-0.2,0-0.2-0.1c-0.1,0-0.2,0-0.2,0c0,0,0,0,0,0
	c-0.1-0.3-0.4-0.2-0.6-0.2c0-0.6-0.7-0.7-0.9-1.2v0c0,0-0.1,0-0.1,0l0.1,0c-0.2-0.3-0.4-0.6-0.9-0.5l-0.5-0.2c0,0,0,0,0,0
	c0,0,0,0,0,0c-0.3-0.2-0.3-0.7-0.7-0.8h-0.7c0.1-0.6-0.4-0.6-0.8-0.7v0.1c0,0,0,0,0,0c-0.3-0.3-0.7-0.5-1.2-0.6c0,0-0.1,0-0.1,0
	c-0.2-0.3-0.6-0.4-0.9-0.4c0,0,0,0,0,0c0,0,0,0,0,0c-0.1-0.1-0.2-0.2-0.2-0.2l0,0h-0.5c-0.1-0.1-0.2-0.1-0.2-0.2h-0.2c0,0,0,0,0,0
	c-0.1-0.1-0.1-0.2-0.2-0.3h-0.2l-1.7-0.4v0c-0.2-0.1-0.6,0.1-0.7-0.3c-0.1,0-0.1,0-0.2,0V0.3c-0.6-0.1-1.1-0.1-1.7,0l-0.2,0.1
	l-0.5-0.1c-0.1-0.1-0.2-0.3-0.3-0.5h-0.2c-0.1,0.4-0.5,0.1-0.7,0.3h0c0,0,0,0,0,0H24V0.1c-0.6,0.2-1.2-0.1-1.7,0.3l0,0.1l0,0h-0.5v0
	h-0.4c-0.3,0.4-0.7,0.1-1,0.2c0,0,0,0,0,0l-0.2,0c-0.1,0.1-0.2,0.2-0.2,0.3l-0.2-0.1L19.4,1V0.9L19.1,1v0.2c-0.1,0-0.1,0-0.2,0
	c0,0,0,0,0,0c0,0,0,0,0,0h-0.2l0,0c-0.2-0.1-0.3,0-0.3,0.2c0,0,0,0,0,0.1c0,0,0,0,0-0.1c-0.2,0.1-0.5-0.1-0.6,0.1c0,0,0,0,0,0
	c-0.2,0-0.4,0-0.5,0.1c-0.2,0.1-0.5,0.2-0.7,0.3L15,2.6c0,0,0,0,0,0c-0.4,0-0.7,0.2-1,0.5c-0.7-0.1-0.8,0.8-1.4,0.8h-0.1l-1.2,0.7
	c0,0,0,0,0,0.1c0,0,0,0.1,0,0.1c0,0,0,0.1,0,0.1l-0.4,0.4v0c0,0,0,0,0-0.1l-0.5,0.1c-0.1,0.3-0.3,0.2-0.5,0.2v0
	C9.8,5.8,9.6,5.9,9.6,6.2c0,0,0,0,0,0C9.3,6,9.1,6.2,8.9,6.4c-0.1,0-0.1,0.1-0.2,0c0,0.1,0,0.3,0,0.4C8.3,7.1,8.1,7.4,7.9,7.7
	L7.2,8.4v0C7,8.6,6.9,8.7,6.9,8.9c0,0,0,0,0,0c0,0-0.1,0-0.1,0L6.3,9.4c0,0,0,0,0,0c-0.1,0-0.2,0-0.3,0.1c0.2,0.5-0.5,0.4-0.5,0.7
	c-0.3,0.4-0.6,0.8-0.8,1.2v0c-0.3,0.2-0.7,0.5-0.5,1c0,0.1,0.1,0.1,0.1,0.2l-0.4,0c0,0.3-0.5,0.3-0.3,0.7c0,0,0,0,0,0
	c-0.3,0.7-0.9,1.2-1,2c-0.2,0.5-0.6,0.9-0.6,1.5c0,0.2,0.1,0.5,0.1,0.7l-0.5,0.7h0.1c0,0-0.1,0-0.1,0.1c-0.1,0.2-0.3,0.4-0.2,0.7
	c0,0,0,0,0,0c0,0,0,0,0,0h0c0,0,0,0,0,0c0,0,0,0,0,0c-0.1,0.3-0.4,0.6-0.3,0.9h0c0,0.2,0,0.3,0,0.5c-0.3,0.3-0.4,0.8-0.1,1.2
	c-0.1,0-0.2,0-0.2,0.2c-0.1,0.4-0.7,0.7-0.4,1.3c0,0,0,0,0,0c0,0.6,0,1.1,0,1.7h0.1c0,0.2,0,0.3,0,0.5c0-0.2,0-0.3-0.1-0.5h0
	c0,0.2-0.1,0.3-0.1,0.5c-0.1,1.1-0.1,2.3,0,3.4c0,0.2,0.1,0.3,0.1,0.5c0-0.2,0.1-0.3,0.1-0.5c0,0.2,0,0.3,0,0.5c0,0.4,0,0.7,0,1.1
	l-0.1,0.1c-0.2,0.4,0,0.7,0.2,0.9c0,0,0,0,0,0.1c0,0.1,0,0.2,0,0.3c0.3,0.4,0,0.8,0.2,1.2l0.2,0.2c0,0.7,0.2,1.5,0.5,2.2
	c0,0,0,0,0,0.1c0,0.3,0.1,0.7,0.5,0.8C2,36.5,2.2,37,2.5,37.4h0c0,0,0,0,0,0c0,0,0,0,0,0v0c0,0.2,0.1,0.5,0.1,0.7l0,0
	c0.1,0.3,0.4,0.6,0.7,0.8l0-0.2c0,0,0,0,0,0c0,0,0,0,0,0c0,0.1,0,0.1,0,0.2c0.1,0.4,0.2,0.8,0.5,1.1c0,0,0,0,0,0
	c0,0.1,0.1,0.2,0.2,0.2c0,0,0,0,0,0c0,0,0,0,0,0c0.1,0.3,0.1,0.6,0.5,0.7c0,0,0,0,0,0c0.1,0.1,0.2,0.2,0.2,0.2c0,0,0,0,0,0L5,41.5
	l0,0c0,0,0,0,0,0l0.2,0.2c0,0,0,0,0,0h0L5.4,42c0,0.1,0,0.1,0.1,0.2c0.5,1.1,1.4,1.9,2.4,2.5v0c0,0,0.1,0,0.1,0L8,44.7
	c0,0.1,0,0.1,0,0.2c0.3,0.6,0.9,1,1.4,1.5h0c0,0.1,0,0.1,0.1,0.2c0,0.1,0.1,0.2,0.2,0.2h0.4c0,0,0,0,0,0l0.5,0.5h0.2
	c0,0.1,0,0.2,0.1,0.3c0.2,0.2,0.5,0.3,0.7,0.2l0.9,0.6v0c0,0,0,0,0,0c0,0,0,0,0,0c0.2,0.2,0.4,0.5,0.7,0.4l0,0c0,0,0,0,0,0l0.4,0.2
	c0,0,0,0,0,0c0.3,0.3,0.6,0.5,1,0.5c0,0,0,0,0,0c0,0,0,0,0,0c0,0,0,0,0,0.1c0,0.1,0.1,0.1,0.2,0.1c0,0,0,0,0,0
	c1,0.2,1.7,1.1,2.7,1.2c0.5,0.3,1.1,0.4,1.7,0.5c0,0,0,0,0,0c0.4,0,0.7,0.5,1.2,0.2c0,0,0,0,0,0c0.2,0,0.5,0,0.5,0.3l1.5,0
	c0,0,0,0,0,0H24v0h1.5h2.9h0.5c0.4-0.5,1.1,0,1.4-0.5v0H31c0.2,0.1,0.2,0,0.2-0.1c0,0,0,0,0,0c0.2,0,0.3,0,0.5-0.1l0.5-0.3
	c0,0,0,0,0-0.1c0,0,0,0.1,0,0.1c0.2,0,0.4,0,0.5-0.2c0,0,0,0,0,0c0,0,0,0,0,0h0.5v0c0,0,0,0,0,0c0,0,0,0,0,0l1.2-0.5
	c0.2,0,0.4,0.1,0.5-0.2c0,0,0,0,0-0.1c0,0,0,0,0,0h0.5v-0.1c0.1,0,0.2-0.1,0.3-0.2l0.5-0.5c0,0,0,0,0,0.1l0,0
	c0.5,0.1,0.7-0.5,1.2-0.5l0.7-0.5c0,0,0,0,0,0h0c0-0.1,0.1-0.1,0.1-0.2c0,0,0,0,0,0c0,0,0,0,0,0c0.8,0.2,1-0.8,1.7-0.8h0
	c0-0.1,0-0.2,0-0.2c0.2-0.2,0.3-0.3,0.5-0.4c0,0,0,0,0,0c0.5,0,0.8-0.4,1.1-0.7l0,0l0.3-0.1l0.3-0.4c0,0,0,0,0,0
	c0.3-0.1,0.5-0.4,0.7-0.7c0,0,0,0,0.1,0c0.2-0.1,0.2-0.3,0.2-0.5c0,0,0,0,0,0c0,0,0,0,0,0c0.2-0.2,0.5-0.5,0.7-0.7l0,0l0,0h0
	c0,0,0,0,0,0l0.2,0c0.2-0.4,0.8-0.6,0.8-1.1c0,0,0,0,0,0l0.2,0l0.5-0.9c0,0,0,0,0,0c0,0,0,0,0,0c0,0,0,0,0,0c0.1,0,0.1,0,0.2-0.1v0
	l0.3-0.5v-0.5c0,0,0,0,0,0c0.8-0.5,0.8-1.5,1.4-2c0-0.2,0-0.5,0-0.7c0,0,0,0,0,0l0,0c0.2,0,0.2-0.1,0.2-0.2l0.3-0.5c0,0,0,0,0,0
	c0.1,0,0.1,0,0.2,0c0-0.2,0.1-0.4,0.1-0.6c0,0,0,0,0,0c0.3-0.2,0.5-0.5,0-0.8c0.4-0.2,0.5-0.5,0.7-0.8c0-0.4,0.2-0.7,0.5-1l0,0
	c0,0,0,0,0.1,0c0,0,0-0.1,0-0.2c0-0.2,0-0.5,0-0.7c0.5-0.3,0.1-0.9,0.5-1.2c0.1-0.1,0.1-0.3,0.1-0.5c0-0.1-0.1-0.2-0.1-0.3l0.1-0.5
	l-0.1,0c0-0.1,0-0.2,0-0.2c0-0.1,0-0.1,0-0.2l0,0c0.4-0.2,0.2-0.7,0.3-1c-0.2-0.4,0.2-0.7,0.2-1l-0.1,0c0,0,0,0,0-0.1c0,0,0,0,0,0
	v-1.7h0C50.3,25.2,50.3,24.1,50.2,23.1z M49.3,23.1c0,0,0,0.1,0,0.1c0,0,0,0,0,0L49.3,23.1C49.2,23.2,49.2,23.2,49.3,23.1
	C49.2,23.1,49.2,23.1,49.3,23.1C49.2,23.1,49.3,23.1,49.3,23.1z M49.4,25.3C49.4,25.2,49.4,25.2,49.4,25.3c0-0.1,0-0.1,0-0.1
	C49.5,25.2,49.5,25.2,49.4,25.3C49.5,25.2,49.5,25.2,49.4,25.3C49.5,25.2,49.5,25.2,49.4,25.3z M50,21.3C50,21.4,50,21.4,50,21.3
	C50,21.4,50,21.3,50,21.3C50,21.3,50,21.3,50,21.3z M45.8,12.3C45.8,12.3,45.8,12.3,45.8,12.3L45.8,12.3
	C45.8,12.3,45.8,12.3,45.8,12.3z M24.3,0.9C24.3,0.9,24.3,0.9,24.3,0.9L24.3,0.9C24.3,0.9,24.3,0.9,24.3,0.9z M26.2,0.9
	C26.2,0.9,26.2,0.9,26.2,0.9L26.2,0.9C26.2,0.9,26.2,0.9,26.2,0.9z M26.2,0.4L26.2,0.4C26.1,0.4,26.1,0.4,26.2,0.4
	C26.2,0.4,26.2,0.4,26.2,0.4z M8.7,44.1C8.7,44.1,8.7,44.1,8.7,44.1L8.7,44.1C8.7,44.1,8.7,44.1,8.7,44.1z M44.1,41.7
	C44.1,41.7,44.1,41.7,44.1,41.7C44.1,41.7,44.1,41.7,44.1,41.7C44.1,41.7,44.1,41.7,44.1,41.7z M47.5,35.4
	C47.5,35.4,47.5,35.4,47.5,35.4C47.5,35.4,47.5,35.4,47.5,35.4C47.6,35.4,47.6,35.4,47.5,35.4L47.5,35.4z M47.9,31.9
	c-0.1,0.4-0.6,0.6-0.3,1.1c0.1,0.1,0.1,0.2,0.2,0.3c-0.1,0.3-0.3,0.6-0.2,0.9c0,0-0.1,0.1-0.1,0.1c-0.1,0.1-0.1,0.2-0.1,0.3
	c0,0,0,0.1,0,0.1c-0.3,0.3-0.2,0.7-0.3,1.1h0c0,0,0,0,0,0c-0.6,0.4-0.6,1-0.7,1.6c0,0,0,0,0,0c-0.1,0-0.1,0-0.2,0
	c-0.3,0.3-0.2,0.7-0.5,1c-0.6,0.3-1,1-1,1.7c-0.4,0-0.7,0.3-0.7,0.8c0,0.1,0.1,0.2,0.1,0.3c-0.2,0.1-0.2,0.3-0.2,0.4c0,0,0,0,0,0
	c-0.3,0-0.5,0.1-0.5,0.4c-1,0.2-1.7,0.7-1.4,1.8c0,0,0,0,0,0c-0.1,0-0.2,0.1-0.2,0.2c0,0,0,0,0,0c-0.6,0.1-0.9,0.3-1,0.9
	c-0.1,0-0.2,0-0.3,0c-0.4,0.2-0.9,0.3-1,0.8c0,0,0,0.1,0.1,0.1c-0.2,0.1-0.2,0.2-0.2,0.4c0,0,0,0,0,0l-0.2-0.1H39
	c-0.2,0-0.4,0.2-0.5,0.3c0,0,0,0.1,0,0.1c-0.3,0-0.5,0.3-0.7,0.4c0,0-0.1-0.1-0.2-0.1c-0.1,0-0.2,0-0.3,0c-0.2,0.1-0.2,0.3-0.3,0.5
	c-0.1,0-0.3,0-0.3,0.1c0,0,0,0,0,0c-0.3,0-0.5,0.1-0.7,0.3c0,0,0,0.1,0,0.1c0,0,0,0,0,0c-0.2-0.1-0.3-0.1-0.5,0
	c-0.5,0.2-1.1,0.3-1.3,0.9c0,0,0,0,0,0c0,0,0,0,0,0c0,0,0,0,0-0.1c-0.4-0.1-0.9,0-1.2,0.4c-0.1,0.1-0.1,0.2-0.1,0.2
	c-0.2,0-0.5-0.1-0.7,0.2l0,0c0,0,0,0,0,0c-0.3,0-0.6,0.2-0.9,0.4c-0.2,0-0.3,0-0.5,0c-0.3-0.1-0.5-0.1-0.8,0v0.1h-0.2l0,0
	c-0.2,0.2-0.5,0-0.8,0.2v0.1c0,0,0,0,0,0c0,0-0.1-0.1-0.1-0.2c-0.2-0.1-0.5-0.1-0.8,0c-0.1,0.1-0.2,0.1-0.2,0.2c0,0,0,0.1,0,0.1
	l-0.9,0.1c0,0,0,0,0.1,0c0,0,0,0-0.1,0h-0.3c0,0,0,0,0,0h-2.3c0,0,0-0.1-0.1-0.1c-0.2-0.1-0.5-0.2-0.7-0.1c-0.1,0-0.3,0.1-0.4,0.1
	c-0.1,0-0.2,0-0.3,0.1c-0.1,0-0.2,0.1-0.2,0c0,0,0,0,0,0c0,0,0.1-0.1,0.1-0.1c-0.5-0.7-1.2-0.4-1.8-0.6c-0.1,0-0.2,0.1-0.3,0.2
	c-0.3-0.1-0.6-0.1-0.9-0.2c0-0.1-0.1-0.1-0.1-0.2c-0.2-0.2-0.5-0.3-0.8-0.3c-0.1,0-0.2,0.1-0.3,0.1c0,0,0,0,0,0.1
	c-0.1-0.3-0.4-0.4-0.7-0.3h-0.3l-0.1,0c-0.1-0.1-0.1-0.1-0.2-0.2L17,49.1c-0.1-0.1-0.1-0.1-0.2-0.2c-0.1-0.1-0.2-0.1-0.3-0.2
	c-0.3-0.1-0.5-0.1-0.8-0.1c-0.2-0.5-0.6-0.6-1.1-0.6c-0.1,0-0.2,0-0.3,0c-0.2-0.2-0.4-0.3-0.6-0.4c0,0,0-0.1-0.1-0.1
	c-0.1-0.2-0.3-0.3-0.5-0.2c-0.1-0.3-0.2-0.5-0.5-0.7c-0.4-0.3-0.9-0.4-1.3-0.3c-0.1,0-0.1,0.1-0.2,0.1c0-0.1,0-0.1,0-0.2
	c0,0,0,0,0,0c0-0.6-0.6-0.6-0.9-0.9c0-0.1,0-0.1,0-0.2c-0.2-0.7-0.8-1.2-1.5-1.2c0-0.1,0-0.1,0-0.2c-0.1,0-0.1,0-0.2,0
	c0-0.5-0.4-0.7-0.7-1.1c-0.4-0.5-0.8-0.9-1.2-1.3c-0.1-0.1-0.2-0.1-0.3-0.1c0,0,0,0-0.1,0c-0.1-0.1-0.2-0.1-0.3-0.1c0,0,0,0,0,0
	c0-0.4-0.2-0.8-0.5-1c0-0.1,0-0.1,0-0.2c0-0.2-0.2-0.3-0.4-0.4c0,0,0-0.1,0-0.1c0-0.3-0.2-0.6-0.4-0.8C4.5,38.4,4.4,38,4,38.1
	c0-0.2-0.1-0.3-0.3-0.5c0,0,0,0,0-0.1c0-0.2,0-0.3-0.1-0.5c0,0-0.1,0-0.1,0c0.1-0.4,0-0.8-0.3-1c-0.1-0.1-0.2-0.1-0.3-0.2l-0.3-0.9
	c0,0,0,0,0-0.1c0-0.1,0-0.1,0-0.2H2.6c0,0,0,0,0,0c0-0.2-0.1-0.4-0.2-0.5l-0.1-0.3c0,0,0,0,0,0c0.1-0.1,0.2-0.1,0.2-0.2c0,0,0,0,0,0
	c0.1-0.3-0.1-0.5-0.4-0.6c0.2-0.6,0.2-1.2,0-1.7C2.1,31.1,2,31,2,30.9c-0.2-0.4-0.3-0.9-0.2-1.3c0-0.3,0-0.6-0.1-0.9
	c0,0,0-0.1-0.1-0.1h0v0c0-0.1,0-0.1,0-0.2c0,0,0,0,0,0V25c0-0.1,0.1-0.1,0.1-0.2c0-0.1,0-0.2,0-0.3c0-0.4,0-0.8-0.1-1.2h0
	c0-0.2,0-0.5,0-0.7c0,0,0.1-0.1,0.1-0.1c0-0.1,0.1-0.2,0.1-0.3c0-0.1-0.1-0.1-0.1-0.2c0.4-0.1,0.4-0.4,0.4-0.7c0-0.1,0-0.3-0.1-0.4
	c0,0,0,0,0,0c0.3-0.1,0.3-0.3,0.1-0.6c0,0,0,0,0.1,0c0.3-0.2,0.4-0.5,0.2-0.9c0,0,0,0,0,0c0.2-0.1,0.4-0.2,0.5-0.4
	c0-0.1,0-0.2,0-0.3c0-0.2-0.2-0.3-0.3-0.4C2.9,18,3,17.8,2.9,17.6c0.6-0.4,0.9-1.1,0.9-1.9c0,0,0,0,0,0c0.6-0.1,0.5-0.7,0.7-1.1
	c0-0.1,0-0.2,0-0.3c0,0,0,0,0,0c0.2-0.1,0.3-0.4,0.3-0.6c0.1,0,0.1,0,0.2,0c0,0,0,0,0-0.1c0-0.1,0-0.1-0.1-0.2
	c0-0.1,0.1-0.2,0.1-0.4c0.4-0.1,0.6-0.4,0.8-0.8C5.8,12,5.9,11.9,6,11.8c0.2-0.1,0.3-0.3,0.4-0.5c0-0.1,0-0.3,0-0.4
	c0.2-0.1,0.3-0.2,0.4-0.4c0,0,0,0,0,0C6.9,10.5,7,10.3,7,10.2c0,0,0,0,0,0C7.3,10,7.5,9.8,7.4,9.4v0c0,0,0,0,0-0.1c0,0,0.1,0,0.1,0
	h0.1c0,0,0,0,0,0c0,0,0,0,0,0C8.4,9.2,9,8.9,9,7.9c0,0,0,0,0,0c0,0,0,0,0,0l0,0V7.8c0,0,0,0,0,0c0.7,0.1,1-0.3,1.2-1c0,0,0,0,0,0
	c0,0,0,0,0,0c0.5,0.2,0.8,0,0.8-0.5c0.1,0,0.1,0,0.1,0c0,0,0.1,0,0.2,0C11.6,6.2,12,6,12.1,5.6c0.2,0.1,0.3,0,0.5-0.1l0.1-0.3
	c1.1-0.2,2.1-0.8,2.7-1.7c0,0,0-0.1,0-0.1l0,0c0,0,0,0,0,0c0.4,0.3,0.9,0.2,1.1-0.2c0.1-0.1,0.1-0.2,0-0.3C16.5,3,16.6,3,16.7,3.1
	c0.3,0.1,0.5,0.1,0.8,0c0.4-0.1,0.7-0.3,0.8-0.7h0.1c0.1,0.1,0.3,0.1,0.5,0.1c0.1,0,0.2-0.1,0.2-0.2c0,0,0,0,0,0
	c0.6,0,1.3-0.1,1.8-0.5c0.1-0.1,0.1-0.1,0.2-0.2c0.3,0,0.5,0,0.7-0.2c0,0,0,0.1,0.1,0.1c0.3,0.2,0.7,0.2,1-0.1c0,0,0.1,0.1,0.1,0.1
	c0.3,0.2,0.7,0.2,1,0c0.2,0,0.2-0.2,0.2-0.3l0,0v0.1c0.3,0.1,0.3-0.1,0.5-0.2H25c0.1,0.1,0.2,0,0.2-0.1c0,0,0.1,0.1,0.1,0.1
	c0.4,0,0.9,0.1,1.3-0.1c0,0,0,0,0.1,0c0,0,0,0,0,0c0.2,0.1,0.4,0.1,0.7,0c0,0.1,0,0.1,0.1,0.2h1.1c0,0,0,0.1,0,0.1
	c0.2,0.2,0.5,0.3,0.8,0.3c0.1-0.1,0.3-0.1,0.4-0.1c0.5,0.1,0.9,0.3,1.4,0.1v0.1c0.3,0.2,0.7,0.2,1.1,0.2c0,0,0,0,0,0
	c0.2,0.3,0.5,0.6,0.8,0.8c0.3,0.2,0.6,0.3,0.9,0.3c0.1,0,0.2,0,0.3-0.1c0,0.1,0,0.2,0,0.2c0.3,0.3,0.8,0.2,1.1,0.5
	c0.2,0.2,0.4,0.3,0.6,0.4c0.3,0.1,0.6,0.3,0.9,0.3c0,0,0,0.1,0,0.1c0.1,0.3,0.4,0.5,0.8,0.5c0,0,0,0.1,0,0.1l0.1,0.2
	c0.4,0.2,0.7,0.8,1.2,0.5c0,0.4,0.3,0.7,0.6,0.9c0.1,0,0.2,0,0.4,0c0,0,0,0,0,0c0.1,0.2,0.3,0.3,0.5,0.2c0.1,0.5,0.4,0.9,1,0.9
	c0,0,0,0.1,0,0.1c0,0.4,0.2,0.7,0.5,0.9c0.2,0.1,0.4,0.2,0.6,0.2c0,0.1,0,0.1,0,0.2c0.1,0.3,0.3,0.5,0.5,0.6c0,0.1-0.1,0.2,0,0.3
	c0,0.1,0.1,0.2,0.1,0.3c0.1,0.2,0.4,0.4,0.7,0.5c0.1,0,0.2-0.1,0.3-0.2c0,0.3,0,0.6,0.1,0.9c0,0.1,0.1,0.2,0.2,0.3
	c0.2,0.3,0.6,0.4,0.9,0.5c0,0.2,0,0.3,0.2,0.4c0,0,0,0.1-0.1,0.1c0,0.1,0,0.2,0.1,0.3c0,0,0.1,0.1,0.1,0.1c0,0.2,0.1,0.4,0.2,0.6
	c0,0-0.1,0.1-0.1,0.1c0,0.3,0.2,0.5,0.4,0.5c0.1,0.5,0.4,0.9,0.8,1.2c-0.1,0.1-0.1,0.2-0.1,0.3c0.2,0.5,0.2,1.2,0.8,1.5c0,0,0,0,0,0
	c-0.2,0.2-0.3,0.5-0.2,0.8c0,0.1,0,0.2,0.1,0.3c0.1,0.1,0.1,0.2,0.3,0.2c0,0.2,0,0.5,0.1,0.7c0,0.4,0.1,0.7,0.4,1c0,0,0.1,0,0.1,0.1
	c0,0.3-0.1,0.6,0.1,0.9c0,0.1,0.1,0.2,0.1,0.2c0,0,0,0,0,0c0,0.1,0,0.3,0,0.4c0,0.1-0.1,0.2-0.1,0.4c0,0.1,0,0.2,0,0.3
	c0,0.1,0.1,0.2,0.1,0.2h0c0,0-0.1,0-0.1,0c0,1.4,0,2.8,0,4.2c0,0,0,0.1-0.1,0.1c0,0.1-0.1,0.2-0.1,0.3c0,0.4-0.1,0.8-0.2,1.1
	c0,0.1,0,0.2,0,0.3c0,0,0,0.1,0.1,0.1c0,0,0,0,0,0C48.3,30.1,48,31,47.9,31.9z"/>
<path fill="#C9C099" d="M22.4,51.9c-0.3-0.1-0.7-0.2-1-0.2c-3.7-0.5-7.1-1.9-10.2-4c-3.7-2.4-6.5-5.6-8.6-9.5
	c-0.9-1.7-1.4-3.5-1.8-5.4C0.2,30.7,0,28.6,0,26.4c0-3.6,0.6-7,1.9-10.4c1.1-2.9,2.7-5.5,4.9-7.8c1.9-2.1,4.1-3.8,6.6-5.2
	c1.6-0.9,3.2-1.6,4.9-2c1.1-0.3,2.2-0.7,3.4-0.8C23.2,0,24.7,0,26.1,0c1.3,0,2.7,0.1,4,0.4c2.4,0.5,4.6,1.4,6.7,2.6
	c1.9,1.1,3.7,2.4,5.3,3.9c1.9,1.8,3.5,3.8,4.8,6.1c1.8,3,2.7,6.2,3,9.6c0.2,3.2,0,6.4-0.8,9.6c-1.1,4.6-3.2,8.6-6.5,12.1
	c-2.2,2.3-4.8,4.1-7.7,5.5c-1.9,0.9-3.8,1.4-5.8,1.8c-0.5,0.1-1,0.2-1.5,0.3C25.9,51.9,24.2,51.9,22.4,51.9z M1.1,26.6
	c0,0.4,0.1,1.1,0.1,1.7c0.1,2.3,0.5,4.6,1.3,6.9c0.8,2.3,2.1,4.2,3.6,6.1c3.1,4,7.1,6.8,11.9,8.3c2.9,0.9,5.9,1.3,8.9,1
	c3.2-0.3,6.3-1.2,9.2-2.7c1.8-1,3.4-2.1,4.8-3.5c2-2,3.8-4.3,5-7c1-2,1.8-4.1,2.3-6.3c0.5-2.6,0.8-5.2,0.6-7.9
	c-0.2-3.1-0.9-6-2.4-8.7c-1.6-2.8-3.5-5.4-6-7.5c-2.6-2.3-5.6-4-8.9-4.9c-1.6-0.5-3.3-0.9-5-1C24.8,1,23,1.2,21.3,1.4
	c-2.3,0.3-4.6,1.1-6.7,2.2c-1.5,0.8-2.9,1.8-4.2,2.8c-2.2,1.7-4.1,3.8-5.6,6.2c-1,1.5-1.7,3.2-2.2,4.9C1.6,20.4,1.2,23.4,1.1,26.6z"
	/>
<path fill="#C9C099" d="M19.7,19.6c0.2-0.2,0.2-0.2,0-1c0.2,0.1,0.4,0.3,0.6,0.4c0,0-0.1,0-0.1,0.1c0.1,0.2,0.2,0.5,0.2,0.7
	c0,0.1,0.1,0.2,0.1,0.3c0.2,1.1,0.3,2.3,0.4,3.4c0,0.2,0,0.4,0,0.6c-0.1,1-0.3,2,0.2,3c-0.1,0-0.1,0-0.2,0.1
	c-0.1-0.2-0.3-0.4-0.5-0.7c-0.3,0.4-0.6,0.7-1,1.1c-0.2,0.2-0.4,0.3-0.5,0.4c-0.3,0.3-0.5,0.4-0.7,0c-0.5,0.4-0.9,0.9-1.4,1
	c-0.5,0-1-0.5-1.5-0.8c-0.1,0.1-0.2,0.3-0.4,0.4c-0.6,0.6-1.1,0.5-1.7,0c-0.5-0.5-0.5-0.5-0.9,0c-0.6,0.7-1.3,0.6-1.9-0.1
	c-0.1-0.2-0.4-0.3-0.6-0.4c-0.1-0.1-0.2-0.2-0.3-0.3c-0.1-0.4-0.3-0.7-0.3-1.1c-0.1-0.5-0.1-1.1,0-1.6c0-0.7,0-1.4-0.4-2.1
	c-0.2-0.3-0.2-0.7-0.2-1c0.3,0.3,0.1,1,0.8,1.2c0.1-0.5,0.3-0.9,0.4-1.3c0.4,1,0.8,1.9,1.1,2.8c0,0-0.1,0.1-0.1,0.1
	c-0.1-0.1-0.2-0.2-0.3-0.3c-0.4-0.3-0.6-0.3-0.8,0.2c-0.1,0.2-0.2,0.5-0.2,0.8c0.1,0.9,0.4,1.7,1.1,2.3c0.1,0.1,0.3,0.2,0.5,0.1
	c0.1,0,0.1-0.3,0.1-0.4c0-0.5,0-1.1,0-1.7c0.3,0,0.5,0,0.8,0.1c0.5,0.2,0.9,0.5,1.3,0.8c0.3,0.2,0.3,0.4,0.2,0.7
	c-0.3,0.7-0.1,1,0.7,0.9c1.2-0.2,2.4-0.3,3.6-0.8c0.4-0.2,0.5-0.4,0.5-0.8c0-0.4,0-0.7,0-1.2c-0.9,0.2-1.6,0.4-2.4,0.6
	c-0.2-1.5-0.3-2.9-0.5-4.4c0.5-0.1,1.1-0.2,1.8-0.3c0.4-0.1,0.5-0.2,0.4-0.6c0-0.1-0.1-0.2-0.1-0.3c0-0.1,0-0.3,0.1-0.4
	c0,0,0.2,0,0.2,0c0,0.1,0,0.3,0,0.4c-0.1,0.5,0.1,0.7,0.6,0.6c0.3,0,0.6,0,0.8-0.1c0.2-0.1,0.6-0.2,0.6-0.3
	C20,20.3,19.9,20,19.7,19.6z M11.7,26.1c-0.1,0.2-0.1,0.2-0.1,0.3c0,0.2,0,0.3,0,0.5c0.1,1.2,0.1,1.2,1.3,1.2c0.2,0,0.5-0.1,0.5-0.2
	c0-0.3,0.1-0.7-0.1-0.8C12.9,26.7,12.3,26.4,11.7,26.1z M19.9,25.2c-0.9-0.3-1.3,0.3-0.9,1.4c0.2-0.2,0.5-0.3,0.5-0.5
	c0-0.2-0.1-0.5-0.2-0.8C19.5,25.3,19.7,25.3,19.9,25.2z M20.3,21.3c-0.1,0-0.2,0-0.2,0c0.1,0.6,0.1,1.1,0.2,1.7c0.1,0,0.1,0,0.2,0
	C20.3,22.4,20.3,21.9,20.3,21.3z"/>
<path fill="#C9C099" d="M25.1,2.1c0,8.9,0,17.7,0,26.5c-0.2,0-0.3,0-0.5,0.1c0-8.9,0-17.7,0-26.5C24.8,2.1,24.9,2.1,25.1,2.1z"/>
<path fill="#C9C099" d="M38.5,25.4c-0.4-0.4-0.5-0.9-0.1-1.3c0.2-0.2,0.5-0.4,0.7-0.6c0.5-0.5,0.7-1,0.5-1.7c-0.2-0.7-0.7-1.1-1.4-1
	c-0.3,0-0.4-0.1-0.4-0.4c0-0.4-0.1-0.8-0.1-1.2c0,0,0,0,0,0c0,0.5,0,0.9,0,1.4c-0.2,0-0.3,0-0.5,0c0-0.2,0.1-0.3,0-0.4
	c-0.4-0.6,0-1,0.5-1.3c0.6-0.4,1-1,0.8-1.8c0-0.1,0-0.3,0-0.5c0.5,0.8,0.4,1.5-0.5,2.4c1-0.4,1.4-1.2,1.1-1.9
	c-0.3-0.6-0.7-1.2-0.7-1.9c0-0.1-0.2-0.2-0.3-0.3c-0.6-0.2-1-0.5-1-1.2c0,0-0.1-0.1-0.2-0.1c0,0.3,0,0.5,0,0.8c0,0.2,0,0.5,0,0.7
	c0,0.8,0,0.8-0.8,0.7c-0.6-0.1-1.3-0.2-1.9-0.3c-0.7-0.1-0.8-0.2-0.7-0.8c0-0.2,0.1-0.4,0.2-0.5c0.1-0.1,0.5,0,0.5,0.1
	c0.2,0.5,0.6,0.5,1.1,0.4c0-0.3,0.1-0.6,0.1-0.9c0-0.1,0-0.3-0.1-0.3c-0.4-0.3-0.9-0.6-1.4-0.9c-0.2-0.1-0.5-0.3-0.7-0.4
	c0,0.7,0,1.6,0,2.4c0,0.6,0,0.7-0.7,0.6c-0.4-0.1-0.7-0.1-1.1-0.2c0.7,0.3,1.2,0.7,1.3,1.5c0.1,0.8,0,1.7-0.6,2.3
	c-0.1,0.1-0.2,0.3-0.3,0.5c0.4-0.2,0.6-0.4,1-0.6c-0.2,0.4-0.1,0.8-0.6,0.8c-0.3,0-0.4,0.2-0.2,0.4c0.3,0.4,0.4,0.9,0.2,1.4
	c-0.4-0.7-0.8-1.4-1.1-2.1c0-0.1,0-0.2,0-0.3c-0.1-0.8,0.1-1.7,0-2.6c0,0,0-0.1,0.1-0.1c0.3,0.1,0.6,0.2,0.9,0.3c0-0.1,0-0.1,0-0.2
	c-0.4-0.2-0.8-0.4-1.2-0.6c0,1,0,1.8,0,2.7c0,0-0.1,0-0.1,0c-0.3-0.6-0.6-1.2-1-1.9c-0.3,1,0.3,1.8,0.5,2.7c0,0.1,0.1,0.1,0.1,0.1
	c0.4,0.1,0.5,0.5,0.5,0.8c0,0.6,0,1.2,0,1.7c0,0.1-0.2,0.3-0.3,0.3c-0.4-0.1-0.4,0.2-0.4,0.4c-0.1,0.6-0.1,1.2-0.4,1.7
	c-0.6,1.1-0.7,2.2-0.3,3.4c0.1,0.4,0.4,0.8,0.8,0.9c0.5,0.1,0.9-0.1,1.2-0.6c0.1-0.2,0.3-0.4,0.5-0.7c0.4,0.6,0.6,1.2,1.4,1.2
	c0.7,0,0.9-0.8,1.3-1.2c0.3,0.6,0.6,1.2,1.3,1.3c0.8,0,0.9-0.7,1.3-1.3c0.2,0.3,0.3,0.5,0.4,0.7c0.3,0.4,0.6,0.6,1.1,0.5
	c0.5-0.1,0.8-0.4,0.9-0.9c0-0.4,0-0.8-0.2-1.1C39.1,26.2,38.8,25.7,38.5,25.4z M38.7,23.3c0-0.8-0.1-1.5-0.1-2.3
	C39.1,21.8,39,22.5,38.7,23.3z M31.9,22.7c-0.3-0.1-0.7-0.2-0.7-0.3C31,21.9,31,21.4,31,21c0.1,0,0.1,0,0.2,0
	c0.3,0.5,0.5,1.1,0.8,1.6C32,22.6,31.9,22.7,31.9,22.7z M32.8,26.4c-0.2-0.6-0.3-1.2-0.5-1.8c0.1,0,0.1,0,0.2,0
	c0.2,0.6,0.3,1.2,0.5,1.8C32.9,26.4,32.9,26.4,32.8,26.4z M33.2,12.7c0.5,0.3,0.5,0.7,0.1,1.1C33.3,13.4,33.3,13,33.2,12.7z
	 M37,16.1c0.9,0.5,1,1.7,0,2.3C37,17.6,37,16.9,37,16.1z M35.1,18.2c0.5,0,1,0.1,1.6,0.2c-0.1,0.1-0.1,0.1-0.2,0.2
	c-0.2,0.2-0.3,0.3-0.4,0.4c0,0,0,0,0,0c0,0,0,0,0,0c0.3-0.1,0.6-0.1,0.9-0.2c0.1,0.1,0.1,0.2,0.2,0.2c-0.2,0.1-0.4,0.2-0.5,0.3
	c0.1,0.2,0.1,0.5,0.2,0.8c-0.4,0-0.7-0.1-1.1-0.1c0.1-0.4,0.2-0.7,0.3-1c0,0,0,0,0,0c0,0,0,0,0,0c0,0,0,0,0,0
	c-0.3,0.1-0.7,0.2-1.1,0.2C35.1,18.9,35.1,18.6,35.1,18.2z M36.1,24c0.2-0.8,0.5-1.6,0.7-2.3C37,22.4,36.9,23.5,36.1,24z M34.2,18.8
	c0-0.2,0.1-0.4,0.2-0.5c0.1-0.1,0.3,0,0.4,0c0.1,0.2,0.1,0.4,0.1,0.6c-0.1,0.2-0.3,0.4-0.4,0.6c-0.1,0-0.1,0-0.2-0.1
	C34.3,19.2,34.2,19,34.2,18.8z M33.4,18.8c0-0.1,0.3-0.2,0.6-0.4c0,0.5,0.1,0.8,0.1,1.2c0,0.1-0.1,0.2-0.2,0.3c-0.1,0-0.3,0-0.3,0
	C33.5,19.4,33.4,19.1,33.4,18.8z M34.4,25.1c-0.3-0.5-0.1-1.3-0.9-1.5c0.5,0,0.9,0,1.1,0.5C34.7,24.3,35,24.8,34.4,25.1z M34.4,19.6
	c0.5-0.2,0.9-0.3,1.5-0.5C35.7,20,35.4,20.1,34.4,19.6z M37,25.6c0,0.1-0.2,0.3-0.4,0.3c-0.3,0.1-0.6,0-1,0c0.2-1.4,0.5-1.9,1.3-1.9
	C37,24.5,37,25.1,37,25.6z M36.9,23.6c0.1-0.8,0.2-1.4,0.3-2C37.6,22.1,37.6,23.1,36.9,23.6z M37.4,25.7c-0.1-0.1-0.3-0.2-0.3-0.3
	c0-0.2,0.1-0.4,0.2-0.7c0.1,0.1,0.2,0.3,0.4,0.5C37.6,25.4,37.5,25.6,37.4,25.7z"/>
<path fill="#C9C099" d="M31.9,33.5L31.9,33.5c-0.2,0.6-0.3,1.1-0.5,1.7L30.4,38h2.9l-0.9-2.7C32.1,34.7,32,34.1,31.9,33.5z"/>
<path fill="#C9C099" d="M46.2,28.9c-0.4,0-0.8-0.4-1.3-0.6c-1.1,1.1-1.5,1.1-2.4,0.1c-0.5,0.2-1,0.5-1.5,0.6c-0.6,0.1-1-0.4-1.3-0.9
	c-0.3,0.5-0.7,0.9-1.3,0.9c-0.6,0-1-0.4-1.3-0.9c-0.4,0.5-0.7,0.9-1.4,0.9c-0.7,0-1-0.4-1.3-0.9c-0.3,0.5-0.7,0.9-1.3,0.9
	c-0.6,0-1-0.4-1.3-0.9c-0.3,0.5-0.7,1-1.3,1c-0.7,0-1-0.4-1.3-0.9c-0.3,0.6-0.7,1-1.3,1c-0.6,0.1-1-0.3-1.3-0.6
	c-0.5,0.3-1,0.6-1.5,0.7c-0.6,0.1-1-0.3-1.4-0.9c-0.3,0.7-0.7,0.8-1.3,0.9c-0.7,0-1-0.4-1.3-0.9c-0.7,1.1-1.9,1.3-2.7,0
	c-0.7,1.2-2,1.1-2.7,0c-0.8,1.2-1.8,1.2-2.7,0c-0.3,0.5-0.7,0.9-1.3,0.9c-0.7,0-1-0.4-1.4-0.9c-0.5,1.2-1.9,1.4-2.7,0.2
	c-0.3,0.5-0.7,0.9-1.3,0.9c-0.7,0-1.1-0.4-1.3-1c-0.8,1.2-1.7,1.2-2.8,0.4c0.1,0.4,0.2,0.7,0.3,1c0.5,2.3,1.3,4.4,2.4,6.5
	c1.8,3.5,4.4,6.4,7.7,8.7c2.6,1.8,5.5,3,8.7,3.6c2.1,0.4,4.2,0.5,6.4,0.2c3-0.4,5.8-1.3,8.4-2.8c2.7-1.6,5-3.6,6.9-6.1
	c2.5-3.3,4-7,4.8-11c0-0.2,0-0.4,0-0.5C47.1,28.6,46.7,28.9,46.2,28.9z M17.2,42H16v-9.5h1.2V42z M26.5,42h-1.2l-3-4.8
	c-0.7-1.1-1.3-2.1-1.8-3.2l0,0c0.1,1.2,0.1,2.3,0.1,3.9V42h-1.2v-9.5h1.3l3,4.8c0.7,1.1,1.3,2.1,1.7,3.1l0,0
	c-0.1-1.3-0.1-2.4-0.1-3.9v-4h1.2V42z M34.6,42l-1-3h-3.4l-1,3h-1.3l3.2-9.5h1.5l3.2,9.5H34.6z"/>
</svg>
