<svg id="Camada_1" data-name="Camada 1" xmlns="http://www.w3.org/2000/svg" viewBox="0 0 142.94 51.65"><defs><style>.cls-1,.cls-2{fill:#4e9b7f;}.cls-1{fill-rule:evenodd;}</style></defs><title>Prancheta 2</title><polygon class="cls-1" points="81.71 30.99 85.17 30.99 87.73 30.03 87.95 24.38 77.51 24.38 77.51 30.19 81.71 30.99"/><polygon class="cls-2" points="81.71 30.99 85.17 30.99 87.73 30.03 87.95 24.38 77.51 24.38 77.51 30.19 81.71 30.99"/><path class="cls-1" d="M78.31,31h4c-.12,0-4-.09-4-5.66V0H71.7V25.24C71.7,30.89,78.31,31,78.31,31Z"/><path class="cls-2" d="M78.31,31h4c-.12,0-4-.09-4-5.66V0H71.7V25.24C71.7,30.89,78.31,31,78.31,31Z"/><path class="cls-1" d="M87.87,31h-4c.12,0,4-.09,4-5.66V0h6.61V25.24C94.47,30.89,87.87,31,87.87,31Z"/><path class="cls-2" d="M87.87,31h-4c.12,0,4-.09,4-5.66V0h6.61V25.24C94.47,30.89,87.87,31,87.87,31Z"/><path class="cls-1" d="M52.17,25.26V31h3.61q6.88,0,10.5-4A12.38,12.38,0,0,0,69,22.1a22.47,22.47,0,0,0,.87-6.56,23,23,0,0,0-.83-6.39,13.16,13.16,0,0,0-2.58-4.89,11.51,11.51,0,0,0-4.42-3.15A16.82,16.82,0,0,0,55.69,0l-3,.48-.48,5.26h3.5c2.55,0,4.44.8,5.66,2.42a8.37,8.37,0,0,1,1.4,3,16.8,16.8,0,0,1,.48,4.27,20.51,20.51,0,0,1-.33,3.77,9,9,0,0,1-1.19,3.13,6.07,6.07,0,0,1-2.33,2.13,8.21,8.21,0,0,1-3.77.77Z"/><path class="cls-2" d="M52.17,25.26V31h3.61q6.88,0,10.5-4A12.38,12.38,0,0,0,69,22.1a22.47,22.47,0,0,0,.87-6.56,23,23,0,0,0-.83-6.39,13.16,13.16,0,0,0-2.58-4.89,11.51,11.51,0,0,0-4.42-3.15A16.82,16.82,0,0,0,55.69,0l-3,.48-.48,5.26h3.5c2.55,0,4.44.8,5.66,2.42a8.37,8.37,0,0,1,1.4,3,16.8,16.8,0,0,1,.48,4.27,20.51,20.51,0,0,1-.33,3.77,9,9,0,0,1-1.19,3.13,6.07,6.07,0,0,1-2.33,2.13,8.21,8.21,0,0,1-3.77.77Z"/><path class="cls-1" d="M46,31h6.61V5.67C52.62,0,57.13,0,57.13,0h0C52.81,0,46-.5,46,5.76Z"/><path class="cls-2" d="M46,31h6.61V5.67C52.62,0,57.13,0,57.13,0h0C52.81,0,46-.5,46,5.76Z"/><rect class="cls-2" x="29.56" y="25.25" width="14.65" height="5.74"/><rect class="cls-2" x="29.56" y="25.25" width="14.65" height="5.74"/><polygon class="cls-1" points="41.58 17.65 41.58 12 29.56 12 29.56 17.7 41.58 17.65"/><polygon class="cls-2" points="41.58 17.65 41.58 12 29.56 12 29.56 17.7 41.58 17.65"/><path class="cls-1" d="M29.56,5.74H44.21V0H34.62c-1.69,0-3.38.32-5.06.32Z"/><path class="cls-2" d="M29.56,5.74H44.21V0H34.62c-1.69,0-3.38.32-5.06.32Z"/><path class="cls-1" d="M23.68,31h6.61V5.67C30.29,0,34.8,0,34.8,0h0C30.48,0,23.68-.5,23.68,5.76Z"/><path class="cls-2" d="M23.68,31h6.61V5.67C30.29,0,34.8,0,34.8,0h0C30.48,0,23.68-.5,23.68,5.76Z"/><path class="cls-1" d="M18.79,26.43h0l2.44-4.06c0-2.51-.47-4.48-2.15-5.91-.22-.18-.47-.37-.72-.55C16.66,14.64,2.85,10.53,2.85,5L.28,8.62c0,2.52.6,4.49,2.28,5.91l.12.1h0l.51.39C4.94,16.34,18.79,21.36,18.79,26.43Z"/><path class="cls-2" d="M18.79,26.43h0l2.44-4.06c0-2.51-.47-4.48-2.15-5.91-.22-.18-.47-.37-.72-.55C16.66,14.64,2.85,10.53,2.85,5L.28,8.62c0,2.52.6,4.49,2.28,5.91l.12.1h0l.51.39C4.94,16.34,18.79,21.36,18.79,26.43Z"/><path class="cls-1" d="M0,8.61v0a7.37,7.37,0,0,0,2.52,5.9,4.11,4.11,0,0,1-.8-5c2.26-4.33,8.52-4,8.52-4a6.3,6.3,0,0,1,5.44,3.94l5.88-1.8A14.73,14.73,0,0,0,19.55,4.1,10.34,10.34,0,0,0,17,1.83,12.44,12.44,0,0,0,10.32,0,11.14,11.14,0,0,0,3,2.46,7.7,7.7,0,0,0,0,8.61Zm2.52,5.92Z"/><path class="cls-2" d="M0,8.61v0a7.37,7.37,0,0,0,2.52,5.9,4.11,4.11,0,0,1-.8-5c2.26-4.33,8.52-4,8.52-4a6.3,6.3,0,0,1,5.44,3.94l5.88-1.8A14.73,14.73,0,0,0,19.55,4.1,10.34,10.34,0,0,0,17,1.83,12.44,12.44,0,0,0,10.32,0,11.14,11.14,0,0,0,3,2.46,7.7,7.7,0,0,0,0,8.61Zm2.52,5.92Z"/><path class="cls-1" d="M21.56,22.38v0A7.37,7.37,0,0,0,19,16.46a4.11,4.11,0,0,1,.8,5c-2.26,4.34-8.52,4-8.52,4a6.31,6.31,0,0,1-5.44-3.94L0,23.37a14.65,14.65,0,0,0,2.05,3.52,10,10,0,0,0,2.6,2.27A12.36,12.36,0,0,0,11.28,31a11.14,11.14,0,0,0,7.34-2.43A7.68,7.68,0,0,0,21.56,22.38ZM19,16.46Z"/><path class="cls-2" d="M21.56,22.38v0A7.37,7.37,0,0,0,19,16.46a4.11,4.11,0,0,1,.8,5c-2.26,4.34-8.52,4-8.52,4a6.31,6.31,0,0,1-5.44-3.94L0,23.37a14.65,14.65,0,0,0,2.05,3.52,10,10,0,0,0,2.6,2.27A12.36,12.36,0,0,0,11.28,31a11.14,11.14,0,0,0,7.34-2.43A7.68,7.68,0,0,0,21.56,22.38ZM19,16.46Z"/><rect class="cls-2" x="128.28" y="25.25" width="14.65" height="5.74"/><rect class="cls-2" x="128.28" y="25.25" width="14.65" height="5.74"/><polygon class="cls-1" points="140.31 17.65 140.31 12 128.28 12 128.28 17.7 140.31 17.65"/><polygon class="cls-2" points="140.31 17.65 140.31 12 128.28 12 128.28 17.7 140.31 17.65"/><path class="cls-1" d="M128.28,5.74h14.66V0h-9.6c-1.69,0-3.37.32-5.06.32Z"/><path class="cls-2" d="M128.28,5.74h14.66V0h-9.6c-1.69,0-3.37.32-5.06.32Z"/><path class="cls-1" d="M122.4,31H129V5.67C129,0,133.52,0,133.52,0h0C129.2,0,122.4-.5,122.4,5.76Z"/><path class="cls-2" d="M122.4,31H129V5.67C129,0,133.52,0,133.52,0h0C129.2,0,122.4-.5,122.4,5.76Z"/><path class="cls-1" d="M96.28,15.5v0h0a26.06,26.06,0,0,1,.63-5.64,15.11,15.11,0,0,1,2-5,10.47,10.47,0,0,1,3.79-3.5,12.9,12.9,0,0,1,6-1.06l2.4,2.66a7.21,7.21,0,0,0-7.12,3.75c-.93,1.62-1.27,5.67-1.29,8.87s.36,7.26,1.29,8.88a7.21,7.21,0,0,0,7.12,3.75l-2.4,2.65a12.9,12.9,0,0,1-6-1.05A10.55,10.55,0,0,1,99,26.29a15.11,15.11,0,0,1-2-5,26.06,26.06,0,0,1-.63-5.64h0V15.5Z"/><path class="cls-2" d="M96.28,15.5v0h0a26.06,26.06,0,0,1,.63-5.64,15.11,15.11,0,0,1,2-5,10.47,10.47,0,0,1,3.79-3.5,12.9,12.9,0,0,1,6-1.06l2.4,2.66a7.21,7.21,0,0,0-7.12,3.75c-.93,1.62-1.27,5.67-1.29,8.87s.36,7.26,1.29,8.88a7.21,7.21,0,0,0,7.12,3.75l-2.4,2.65a12.9,12.9,0,0,1-6-1.05A10.55,10.55,0,0,1,99,26.29a15.11,15.11,0,0,1-2-5,26.06,26.06,0,0,1-.63-5.64h0V15.5Z"/><path class="cls-1" d="M102.74,29.79h0c6.49,2.71,11-8.13,11.31-8.79l6.14,1.6a17.94,17.94,0,0,1-2,3.88,10.41,10.41,0,0,1-2.51,2.57,13.49,13.49,0,0,1-13,.74Z"/><path class="cls-2" d="M102.74,29.79h0c6.49,2.71,11-8.13,11.31-8.79l6.14,1.6a17.94,17.94,0,0,1-2,3.88,10.41,10.41,0,0,1-2.51,2.57,13.49,13.49,0,0,1-13,.74Z"/><path class="cls-1" d="M102.74,1.34h0c6.49-2.71,11,8.13,11.31,8.78l6.14-1.59a17.94,17.94,0,0,0-2-3.88,10.46,10.46,0,0,0-2.51-2.58,13.53,13.53,0,0,0-13-.73Z"/><path class="cls-2" d="M102.74,1.34h0c6.49-2.71,11,8.13,11.31,8.78l6.14-1.59a17.94,17.94,0,0,0-2-3.88,10.46,10.46,0,0,0-2.51-2.58,13.53,13.53,0,0,0-13-.73Z"/><path class="cls-2" d="M5.25,35.53l-.59.53a2.63,2.63,0,0,0-.43-.41,1,1,0,0,0-.56-.13,1,1,0,0,0-.64.2.64.64,0,0,0-.24.52.66.66,0,0,0,.21.48,3,3,0,0,0,.73.46,5.39,5.39,0,0,1,.81.46,2.42,2.42,0,0,1,.48.48,2,2,0,0,1,.27.55,2,2,0,0,1,.09.61,1.83,1.83,0,0,1-.48,1.28,1.57,1.57,0,0,1-1.18.53,1.9,1.9,0,0,1-1.2-.41,2.6,2.6,0,0,1-.79-1.25l.73-.23q.41,1,1.23,1a.91.91,0,0,0,.93-.95.92.92,0,0,0-.14-.49,1.25,1.25,0,0,0-.34-.41A3.59,3.59,0,0,0,3.48,38a4.24,4.24,0,0,1-.7-.38,1.81,1.81,0,0,1-.42-.41,1.62,1.62,0,0,1-.26-.48,1.35,1.35,0,0,1-.08-.5,1.51,1.51,0,0,1,.46-1.11,1.57,1.57,0,0,1,1.13-.45,2.1,2.1,0,0,1,.89.21A1.87,1.87,0,0,1,5.25,35.53Z"/><path class="cls-2" d="M6.23,34.86h3v.82H7v1.51H9.22V38H7v2.07H9.22v.82h-3Z"/><path class="cls-2" d="M14.44,35.06V36a3.38,3.38,0,0,0-1.61-.48,2.11,2.11,0,0,0-1.58.68,2.36,2.36,0,0,0-.64,1.66,2.31,2.31,0,0,0,.66,1.69,2.21,2.21,0,0,0,1.65.67,2.89,2.89,0,0,0,1.52-.51v.95a3.06,3.06,0,0,1-1.59.43,2.82,2.82,0,0,1-2.14-1,3.38,3.38,0,0,1,0-4.54,2.77,2.77,0,0,1,2.1-.93A3.93,3.93,0,0,1,14.44,35.06Z"/><path class="cls-2" d="M15.43,34.86h1.16a2.09,2.09,0,0,1,1.42.48,1.57,1.57,0,0,1,.55,1.24,1.69,1.69,0,0,1-.36,1.07,1.91,1.91,0,0,1-1.1.66l1.56,2.58h-.84l-1.49-2.48h-.17v2.48h-.73Zm.73.73v2.1c1.09,0,1.63-.33,1.63-1.06A1.07,1.07,0,0,0,17.6,36a1,1,0,0,0-.51-.33A3.7,3.7,0,0,0,16.16,35.59Z"/><path class="cls-2" d="M19.58,34.86h3v.82H20.31v1.51h2.25V38H20.31v2.07h2.25v.82h-3Z"/><path class="cls-2" d="M23.1,34.86h3.29v.82H25.11v5.21h-.73V35.68H23.1Z"/><path class="cls-2" d="M29.06,34.62l2.54,6.27h-.77l-.63-1.55H27.92l-.62,1.55h-.76Zm0,1.89-.86,2.15h1.73Z"/><path class="cls-2" d="M32.39,34.86h1.16a2.05,2.05,0,0,1,1.42.48,1.57,1.57,0,0,1,.55,1.24,1.74,1.74,0,0,1-.35,1.07,2,2,0,0,1-1.11.66l1.56,2.58h-.84l-1.49-2.48h-.17v2.48h-.73Zm.73.73v2.1c1.09,0,1.63-.33,1.63-1.06a1,1,0,0,0-.19-.63,1,1,0,0,0-.51-.33A3.7,3.7,0,0,0,33.12,35.59Z"/><path class="cls-2" d="M36.59,34.86h.73v6h-.73Z"/><path class="cls-2" d="M40.51,34.62l2.54,6.27h-.77l-.63-1.55H39.37l-.62,1.55H38Zm0,1.89-.87,2.15h1.74Z"/><path class="cls-2" d="M46.12,34.86h1.31a2.8,2.8,0,0,1,2.3.91,3.21,3.21,0,0,1,.76,2.1,3.13,3.13,0,0,1-.78,2.1,2.82,2.82,0,0,1-2.27.92H46.12Zm.74.8v4.41h0A6.32,6.32,0,0,0,48.13,40a1.82,1.82,0,0,0,.79-.36,2.06,2.06,0,0,0,.59-.74,2.31,2.31,0,0,0,.22-1,2.39,2.39,0,0,0-.35-1.26,1.71,1.71,0,0,0-.84-.75,3.57,3.57,0,0,0-1.31-.2Z"/><path class="cls-2" d="M51.28,34.86h3v.82H52v1.51h2.26V38H52v2.07h2.26v.82h-3Z"/><path class="cls-2" d="M57.46,34.86h3v.82H58.19v1.51h2.25V38H58.19v2.07h2.25v.82h-3Z"/><path class="cls-2" d="M64.6,35.53l-.6.53a3.11,3.11,0,0,0-.42-.41,1,1,0,0,0-.56-.13,1,1,0,0,0-.64.2.63.63,0,0,0-.25.52.64.64,0,0,0,.22.48,2.8,2.8,0,0,0,.73.46,5.39,5.39,0,0,1,.81.46,2.36,2.36,0,0,1,.47.48,1.79,1.79,0,0,1,.28.55,2,2,0,0,1,.09.61,1.8,1.8,0,0,1-.49,1.28,1.55,1.55,0,0,1-1.18.53,1.87,1.87,0,0,1-1.19-.41,2.61,2.61,0,0,1-.8-1.25l.74-.23q.39,1,1.23,1A.9.9,0,0,0,63.7,40a.91.91,0,0,0,.27-.68,1,1,0,0,0-.14-.49,1.27,1.27,0,0,0-.35-.41,3.59,3.59,0,0,0-.66-.37,4.08,4.08,0,0,1-.69-.38,1.68,1.68,0,0,1-.43-.41,2.27,2.27,0,0,1-.26-.48,1.59,1.59,0,0,1-.08-.5,1.52,1.52,0,0,1,.47-1.11A1.55,1.55,0,0,1,63,34.67a2.15,2.15,0,0,1,.9.21A1.87,1.87,0,0,1,64.6,35.53Z"/><path class="cls-2" d="M65.31,34.86H68.6v.82H67.32v5.21h-.73V35.68H65.31Z"/><path class="cls-2" d="M71.26,34.62l2.54,6.27H73l-.62-1.55H70.12l-.61,1.55h-.77Zm0,1.89-.86,2.15h1.73Z"/><path class="cls-2" d="M74.49,34.86H75.8a2.8,2.8,0,0,1,2.3.91,3.21,3.21,0,0,1,.76,2.1,3.13,3.13,0,0,1-.78,2.1,2.83,2.83,0,0,1-2.28.92H74.49Zm.74.8v4.41h0A6.39,6.39,0,0,0,76.5,40a1.82,1.82,0,0,0,.79-.36,2.06,2.06,0,0,0,.59-.74,2.31,2.31,0,0,0,.22-1,2.39,2.39,0,0,0-.35-1.26,1.75,1.75,0,0,0-.84-.75,3.61,3.61,0,0,0-1.31-.2Z"/><path class="cls-2" d="M79.49,37.84a3.17,3.17,0,0,1,.87-2.24,2.81,2.81,0,0,1,2.12-.93,2.72,2.72,0,0,1,2.07.94,3.16,3.16,0,0,1,.87,2.23,3.28,3.28,0,0,1-.86,2.31,2.72,2.72,0,0,1-2.11.94,2.76,2.76,0,0,1-2.1-1A3.27,3.27,0,0,1,79.49,37.84Zm5.15,0A2.37,2.37,0,0,0,84,36.19a2.11,2.11,0,0,0-1.58-.68,2,2,0,0,0-1.53.69,2.42,2.42,0,0,0-.64,1.67,2.34,2.34,0,0,0,.66,1.68,2.14,2.14,0,0,0,1.6.68,1.94,1.94,0,0,0,1.5-.7A2.39,2.39,0,0,0,84.64,37.87Z"/><path class="cls-2" d="M88.78,34.86h1.3a2.81,2.81,0,0,1,2.31.91,3.21,3.21,0,0,1,.76,2.1,3.13,3.13,0,0,1-.78,2.1,2.85,2.85,0,0,1-2.28.92H88.78Zm.73.8v4.41h0A6.45,6.45,0,0,0,90.79,40a1.82,1.82,0,0,0,.79-.36,2.17,2.17,0,0,0,.59-.74,2.45,2.45,0,0,0,.22-1A2.39,2.39,0,0,0,92,36.61a1.8,1.8,0,0,0-.84-.75,3.66,3.66,0,0,0-1.32-.2Z"/><path class="cls-2" d="M93.94,34.86h3v.82H94.67v1.51h2.25V38H94.67v2.07h2.25v.82h-3Z"/><path class="cls-2" d="M100.12,34.86h3v.82h-2.26v1.51h2.26V38h-2.26v2.07h2.26v.82h-3Z"/><path class="cls-2" d="M104,34.86h1.3a2.84,2.84,0,0,1,2.31.91,3.27,3.27,0,0,1,.76,2.1,3.13,3.13,0,0,1-.79,2.1,2.82,2.82,0,0,1-2.27.92H104Zm.73.8v4.41h0A6.51,6.51,0,0,0,106,40a1.84,1.84,0,0,0,.78-.36,2,2,0,0,0,.59-.74,2.46,2.46,0,0,0-.13-2.28,1.71,1.71,0,0,0-.84-.75,3.57,3.57,0,0,0-1.31-.2Z"/><path class="cls-2" d="M109.17,34.87h.73v3.7a2,2,0,0,0,.36,1.28,1.18,1.18,0,0,0,1,.45,1.22,1.22,0,0,0,1-.42,1.71,1.71,0,0,0,.36-1.17V34.87h.74v3.79a2.61,2.61,0,0,1-.57,1.77,1.86,1.86,0,0,1-1.5.66,1.9,1.9,0,0,1-1.53-.67,2.94,2.94,0,0,1-.58-2Z"/><path class="cls-2" d="M118.77,35.06V36a3.35,3.35,0,0,0-1.6-.48,2.11,2.11,0,0,0-1.58.68,2.48,2.48,0,0,0,0,3.35,2.17,2.17,0,0,0,1.64.67,2.84,2.84,0,0,0,1.52-.51v.95a3,3,0,0,1-1.58.43,2.79,2.79,0,0,1-2.14-1,3.22,3.22,0,0,1-.89-2.28A3.18,3.18,0,0,1,115,35.6a2.77,2.77,0,0,1,2.1-.93A3.88,3.88,0,0,1,118.77,35.06Z"/><path class="cls-2" d="M121.66,34.62l2.54,6.27h-.77l-.63-1.55h-2.28l-.62,1.55h-.76Zm0,1.89-.87,2.15h1.74Z"/><path class="cls-2" d="M126.4,41.62l.2-.73a3,3,0,0,1-1.45-1.2,3.37,3.37,0,0,1-.53-1.83,3.22,3.22,0,0,1,.87-2.26,2.77,2.77,0,0,1,2.1-.93,3.89,3.89,0,0,1,1.64.39V36a3.38,3.38,0,0,0-1.6-.48,2.08,2.08,0,0,0-1.58.68,2.47,2.47,0,0,0,0,3.35,2.21,2.21,0,0,0,1.65.67,2.87,2.87,0,0,0,1.52-.51v.95a3.06,3.06,0,0,1-1.59.43,2.46,2.46,0,0,1-.52-.05l-.07.25a.93.93,0,0,1,.53.23.66.66,0,0,1,.19.46.81.81,0,0,1-.34.66,1.59,1.59,0,0,1-.92.25,3.25,3.25,0,0,1-.57-.06l0-.55h.33c.5,0,.76-.12.76-.36s-.2-.31-.6-.31Z"/><path class="cls-2" d="M132.11,34.62l2.54,6.27h-.77l-.62-1.55H131l-.62,1.55h-.77Zm-.81-.48h-.56v-.06a1.06,1.06,0,0,1,.25-.73.78.78,0,0,1,.62-.29,1.51,1.51,0,0,1,.58.2,1.55,1.55,0,0,0,.53.2.23.23,0,0,0,.21-.1.82.82,0,0,0,.09-.31h.55a1.36,1.36,0,0,1-.23.8.73.73,0,0,1-.59.28,1.19,1.19,0,0,1-.63-.23,1.14,1.14,0,0,0-.5-.21.28.28,0,0,0-.23.12.44.44,0,0,0-.09.29Zm.81,2.37-.86,2.15H133Z"/><path class="cls-2" d="M135.11,37.84A3.13,3.13,0,0,1,136,35.6a2.79,2.79,0,0,1,2.11-.93,2.72,2.72,0,0,1,2.07.94,3.16,3.16,0,0,1,.87,2.23,3.28,3.28,0,0,1-.86,2.31,2.72,2.72,0,0,1-2.11.94,2.76,2.76,0,0,1-2.1-1A3.32,3.32,0,0,1,135.11,37.84Zm5.15,0a2.37,2.37,0,0,0-.64-1.68,2.1,2.1,0,0,0-1.58-.68,2,2,0,0,0-1.53.69,2.41,2.41,0,0,0-.63,1.67,2.33,2.33,0,0,0,.65,1.68,2.14,2.14,0,0,0,1.6.68,1.94,1.94,0,0,0,1.5-.7A2.39,2.39,0,0,0,140.26,37.87Z"/><path class="cls-2" d="M141.78,39.69l.91.4-1,2.43-.65-.29Z"/><path class="cls-2" d="M41.18,45.62v.93a3.47,3.47,0,0,0-1.6-.47,2.09,2.09,0,0,0-1.58.67,2.34,2.34,0,0,0-.64,1.67A2.3,2.3,0,0,0,38,50.1a2.22,2.22,0,0,0,1.65.68,2.87,2.87,0,0,0,1.52-.51v.94a3.06,3.06,0,0,1-1.58.44,2.83,2.83,0,0,1-2.14-.95,3.37,3.37,0,0,1,0-4.54,2.78,2.78,0,0,1,2.1-.94A3.91,3.91,0,0,1,41.18,45.62Z"/><path class="cls-2" d="M42,45.42h.73v3.71a2,2,0,0,0,.36,1.27,1.18,1.18,0,0,0,1,.45,1.27,1.27,0,0,0,1-.41,1.79,1.79,0,0,0,.35-1.17V45.42h.74v3.8A2.65,2.65,0,0,1,45.64,51a1.86,1.86,0,0,1-1.5.66A1.93,1.93,0,0,1,42.61,51,3,3,0,0,1,42,49Z"/><path class="cls-2" d="M47.39,45.41h.72v5.22h1.76v.82H47.39Z"/><path class="cls-2" d="M50,45.41h3.3v.83H52v5.21h-.72V46.24H50Z"/><path class="cls-2" d="M54.12,45.42h.73v3.71a2,2,0,0,0,.36,1.27,1.19,1.19,0,0,0,1,.45,1.27,1.27,0,0,0,1-.41,1.79,1.79,0,0,0,.35-1.17V45.42h.74v3.8A2.65,2.65,0,0,1,57.73,51a1.86,1.86,0,0,1-1.5.66A1.93,1.93,0,0,1,54.7,51a3,3,0,0,1-.58-2Z"/><path class="cls-2" d="M59.49,45.41h1.16a2,2,0,0,1,1.42.49,1.6,1.6,0,0,1,.55,1.24,1.71,1.71,0,0,1-.36,1.07,1.85,1.85,0,0,1-1.1.65l1.56,2.59h-.84L60.39,49h-.17v2.49h-.73Zm.73.73v2.1c1.09,0,1.63-.32,1.63-1.05a1,1,0,0,0-.19-.63,1,1,0,0,0-.51-.33A3.61,3.61,0,0,0,60.22,46.14Z"/><path class="cls-2" d="M65.71,45.18l2.54,6.27h-.77l-.63-1.55H64.57L64,51.45h-.76Zm0,1.88-.86,2.16h1.73Z"/><path class="cls-2" d="M71.26,45.41h3v.83H72v1.5h2.26v.82H72v2.07h2.26v.82h-3Z"/><path class="cls-2" d="M77.43,45.41h3v.83H78.16v1.5h2.26v.82H78.16v2.07h2.26v.82h-3Z"/><path class="cls-2" d="M84.57,46.09l-.59.53a3.1,3.1,0,0,0-.43-.41,1,1,0,0,0-.56-.13.94.94,0,0,0-.64.2.63.63,0,0,0-.25.51.68.68,0,0,0,.22.49,3,3,0,0,0,.73.46,4.64,4.64,0,0,1,.81.46,2.42,2.42,0,0,1,.48.48,1.88,1.88,0,0,1,.27.55,2,2,0,0,1,.09.61,1.8,1.8,0,0,1-.49,1.28,1.54,1.54,0,0,1-1.18.53,1.82,1.82,0,0,1-1.19-.42A2.58,2.58,0,0,1,81,50l.74-.23c.27.68.67,1,1.23,1a.9.9,0,0,0,.67-.27,1,1,0,0,0,.26-.68,1,1,0,0,0-.14-.49,1.18,1.18,0,0,0-.35-.41,3,3,0,0,0-.66-.37,4.94,4.94,0,0,1-.69-.38,2,2,0,0,1-.42-.41,1.62,1.62,0,0,1-.26-.48,1.43,1.43,0,0,1-.09-.5,1.49,1.49,0,0,1,.47-1.11,1.56,1.56,0,0,1,1.13-.46,2.12,2.12,0,0,1,.89.22A1.87,1.87,0,0,1,84.57,46.09Z"/><path class="cls-2" d="M85.78,45.41h1.09a2.12,2.12,0,0,1,1.47.49,1.56,1.56,0,0,1,.57,1.25,1.65,1.65,0,0,1-.6,1.3,2.58,2.58,0,0,1-1.8.51v2.49h-.73Zm.73.72v2.11A2.35,2.35,0,0,0,87.74,48a.9.9,0,0,0,.4-.81,1,1,0,0,0-.3-.73A2,2,0,0,0,86.51,46.13Z"/><path class="cls-2" d="M89.71,48.39a3.15,3.15,0,0,1,.88-2.23,2.79,2.79,0,0,1,2.12-.94,2.75,2.75,0,0,1,2.07.94,3.18,3.18,0,0,1,.87,2.23,3.29,3.29,0,0,1-.86,2.31,2.81,2.81,0,0,1-4.21,0A3.3,3.3,0,0,1,89.71,48.39Zm5.16,0a2.41,2.41,0,0,0-.64-1.68,2.08,2.08,0,0,0-1.58-.68,2,2,0,0,0-1.53.69,2.38,2.38,0,0,0-.64,1.67,2.3,2.3,0,0,0,.66,1.67,2.09,2.09,0,0,0,1.59.69,2,2,0,0,0,1.51-.7A2.4,2.4,0,0,0,94.87,48.43Z"/><path class="cls-2" d="M96.72,45.41h1.17a2,2,0,0,1,1.42.49,1.6,1.6,0,0,1,.55,1.24,1.71,1.71,0,0,1-.36,1.07,1.85,1.85,0,0,1-1.1.65L100,51.45h-.84L97.63,49h-.17v2.49h-.74Zm.74.73v2.1c1.09,0,1.63-.32,1.63-1.05a1,1,0,0,0-.19-.63,1,1,0,0,0-.51-.33A3.61,3.61,0,0,0,97.46,46.14Z"/><path class="cls-2" d="M100.61,45.41h3.29v.83h-1.28v5.21h-.73V46.24h-1.28Z"/><path class="cls-2" d="M104.67,45.41h3v.83H105.4v1.5h2.25v.82H105.4v2.07h2.25v.82h-3Z"/></svg>