<svg id="Camada_1" data-name="Camada 1" xmlns="http://www.w3.org/2000/svg" viewBox="0 0 161.52 27.55"><defs><style>.cls-1{fill:#c9c099;}</style></defs><title>Prancheta 13</title><path class="cls-1" d="M45.41,24.28a4,4,0,0,1-.69,2.13c-.64,1.24-1.71,1.42-2.56.33a16,16,0,0,1-1.83-3.19c-1.85-4.13-3.57-8.31-5.5-12.4A17.39,17.39,0,0,0,32,6.9a3,3,0,0,0-5.08.49,21.24,21.24,0,0,0-1.45,3.22C23.66,14.75,21.92,18.91,20,23a10.86,10.86,0,0,1-2.38,3c-1.87,1.8-3.55,1.7-5-.42-2.44-3.54-4.84-7.12-7-10.83C3.85,11.83,2.4,8.69.89,5.61A9.89,9.89,0,0,1,0,2.84,2.18,2.18,0,0,1,1.39.2a2.27,2.27,0,0,1,3,.92,27.68,27.68,0,0,1,2.25,5,45.19,45.19,0,0,0,6,13c.76,1.08,1.69,2.86,3,2.69s1.68-2.15,2.27-3.34c2.21-4.43,4.19-9,6.52-13.32a9.81,9.81,0,0,1,3.49-3.4,3.06,3.06,0,0,1,4.19.89c1.59,2,3.19,4.07,4.61,6.21,2.39,3.59,4.73,7.21,6.91,10.92a10.41,10.41,0,0,1,1.76,4.58"/><path class="cls-1" d="M33.77,17.64a3.43,3.43,0,0,1-3.65,3.14,2.63,2.63,0,0,1-2.8-2.71,3.61,3.61,0,0,1,3.26-3.4,3,3,0,0,1,3.19,3"/><path class="cls-1" d="M17.39,8.85c0,2.14-.95,3.37-2.61,3.33S11.92,10.66,12,8.56c0-1.51,1.16-2.34,3.21-2.34,1.6,0,2.21.74,2.23,2.63"/><path class="cls-1" d="M53.63,25.75l2.74-.36V5.17l-2.56-.42v-2h9.77A17.63,17.63,0,0,1,68,3.23,7.43,7.43,0,0,1,70.85,4.6a4.77,4.77,0,0,1,1.52,2.21,9,9,0,0,1,.45,3,8.63,8.63,0,0,1-.72,3.62,7.92,7.92,0,0,1-2,2.69A9,9,0,0,1,67,17.75a12.66,12.66,0,0,1-3.87.57H61.32q-.41,0-.72,0a1.59,1.59,0,0,1-.41-.05v7.15l4.4.36v1.78h-11Zm6.55-9.46a5,5,0,0,0,1.13.12h1.85a7.28,7.28,0,0,0,2.08-.32A4.3,4.3,0,0,0,67,15a5.57,5.57,0,0,0,1.24-2.06,9.87,9.87,0,0,0,.47-3.24,7.16,7.16,0,0,0-.37-2.42,3.67,3.67,0,0,0-1-1.63,4.34,4.34,0,0,0-1.76-.92,9.1,9.1,0,0,0-2.47-.29c-.38,0-.71,0-1,0l-.75.06-.61.08a3.64,3.64,0,0,1-.57,0Z"/><path class="cls-1" d="M75.25,25.75,78,25.39V5.17l-2.55-.42v-2h9.76a17.63,17.63,0,0,1,4.42.47A7.55,7.55,0,0,1,92.47,4.6,4.92,4.92,0,0,1,94,6.81a9.31,9.31,0,0,1,.44,3,8.63,8.63,0,0,1-.72,3.62,7.79,7.79,0,0,1-2,2.69,9,9,0,0,1-3.06,1.67,12.61,12.61,0,0,1-3.87.57H82.94q-.42,0-.72,0a1.52,1.52,0,0,1-.41-.05v7.15l4.39.36v1.78h-11Zm6.54-9.46a5,5,0,0,0,1.14.12h1.84a7.23,7.23,0,0,0,2.08-.32A4.33,4.33,0,0,0,88.64,15a5.43,5.43,0,0,0,1.23-2.06,9.87,9.87,0,0,0,.47-3.24A7.18,7.18,0,0,0,90,7.28a3.87,3.87,0,0,0-1-1.63,4.37,4.37,0,0,0-1.75-.92,9.23,9.23,0,0,0-2.48-.29c-.38,0-.71,0-1,0L83,4.53l-.61.08a3.64,3.64,0,0,1-.57,0Z"/><path class="cls-1" d="M96.68,15.46a13.75,13.75,0,0,1,1-5.37,11.34,11.34,0,0,1,6.71-6.49,14.29,14.29,0,0,1,5-.86c.87,0,1.71,0,2.52.13s1.57.18,2.25.3,1.3.22,1.82.34.92.22,1.22.28l-.32,5.48h-2.51l-.89-3.62a2.4,2.4,0,0,0-.44-.32,3.5,3.5,0,0,0-.82-.32,10.18,10.18,0,0,0-1.27-.25,13.72,13.72,0,0,0-1.83-.11,8.11,8.11,0,0,0-3.22.63,6.5,6.5,0,0,0-2.54,1.87,8.77,8.77,0,0,0-1.65,3.11,14,14,0,0,0-.6,4.35,18.42,18.42,0,0,0,.2,2.79A14,14,0,0,0,101.9,20,11.54,11.54,0,0,0,103,22.24,7.66,7.66,0,0,0,104.47,24a6.31,6.31,0,0,0,2,1.17,6.55,6.55,0,0,0,2.44.42,12.77,12.77,0,0,0,1.38-.08,8.82,8.82,0,0,0,1.32-.25,5.64,5.64,0,0,0,1.14-.43,3.33,3.33,0,0,0,.9-.62V17.1l-4-.37V14.62h9.72v2.11l-1.9.34v8.79a5.31,5.31,0,0,0-1.49.26c-.57.19-1.22.38-2,.6s-1.54.4-2.44.57a16.27,16.27,0,0,1-3,.26,13,13,0,0,1-5-.92,10.69,10.69,0,0,1-3.73-2.54,10.84,10.84,0,0,1-2.33-3.83,13.86,13.86,0,0,1-.8-4.8"/><path class="cls-1" d="M119.48,25.75l2.07-.38,8-22.61h3.87l8.09,22.61,2.07.38v1.78h-8.93V25.75l2.65-.39-1.55-4.75H126.2l-1.48,4.75,2.78.39v1.78h-8Zm15.62-7.2L131.62,8l-.72-2.69-.71,2.72-3.34,10.5Z"/><path class="cls-1" d="M145.27,20.18h2.27l.65,4a2.78,2.78,0,0,0,.71.52,5.15,5.15,0,0,0,1,.44,7.75,7.75,0,0,0,1.28.3,8.54,8.54,0,0,0,1.46.12,5.36,5.36,0,0,0,3.67-1.08,3.7,3.7,0,0,0,1.21-2.91,3.36,3.36,0,0,0-.41-1.67A4.46,4.46,0,0,0,156,18.61a10.83,10.83,0,0,0-1.81-1.11c-.69-.35-1.46-.71-2.32-1.07-.67-.3-1.39-.66-2.15-1.07a11.09,11.09,0,0,1-2.13-1.5A7.36,7.36,0,0,1,146,11.79,5.59,5.59,0,0,1,145.29,9a5.57,5.57,0,0,1,.57-2.51,5.8,5.8,0,0,1,1.62-2A7.89,7.89,0,0,1,150,3.22a11.45,11.45,0,0,1,3.38-.48,14.09,14.09,0,0,1,2.22.17c.69.1,1.31.24,1.87.37s1,.28,1.46.41a7.55,7.55,0,0,0,1,.25l-.21,5.43h-2.18l-.75-3.83a1.41,1.41,0,0,0-.47-.32,3.79,3.79,0,0,0-.79-.28,7.05,7.05,0,0,0-1-.21,8.8,8.8,0,0,0-1.16-.08,5.24,5.24,0,0,0-3.33.88A3.15,3.15,0,0,0,149,8.1a3.27,3.27,0,0,0,.4,1.66,4.3,4.3,0,0,0,1.14,1.29,11,11,0,0,0,1.82,1.15c.69.36,1.48.76,2.35,1.16s1.58.79,2.38,1.21a13,13,0,0,1,2.21,1.49,7.33,7.33,0,0,1,1.62,2,5,5,0,0,1,.63,2.55,6.24,6.24,0,0,1-.55,2.5,6.74,6.74,0,0,1-1.64,2.24,8.58,8.58,0,0,1-2.77,1.62,11.08,11.08,0,0,1-3.92.63,14.91,14.91,0,0,1-2.68-.22,21.45,21.45,0,0,1-2.2-.5q-1-.27-1.68-.51A4.28,4.28,0,0,0,145,26Z"/></svg>