<svg id="Camada_1" data-name="Camada 1" xmlns="http://www.w3.org/2000/svg" viewBox="0 0 176.13 47.77"><defs><style>.cls-1{fill:#c9c099;}</style></defs><title>Prancheta 17</title><path class="cls-1" d="M106.58,14h6.3v.71c0,6.69,0,13.39,0,20.08,0,.57-.12.79-.74.77-1.71,0-3.42,0-5.12,0a1,1,0,0,1-1-.57c-2-3.51-3.92-7-5.87-10.51a1.49,1.49,0,0,0-.49-.56V35.5H93.5V14h3c1,0,2.08,0,3.11,0a.9.9,0,0,1,1,.56c1.86,3.44,3.73,6.86,5.6,10.29a1.41,1.41,0,0,0,.43.55Z"/><path class="cls-1" d="M174.73,22.21v5.08H164.65V30h11.48v5.5c-.17,0-.36,0-.54,0-5.66,0-11.32,0-17,0-.52,0-.66-.15-.65-.66q0-10.17,0-20.35c0-.16,0-.34,0-.54h17.74v5.47H164.61c0,.85,0,1.64,0,2.43,0,.11.37.3.56.3,1.49,0,3,0,4.47,0h5.06"/><path class="cls-1" d="M84.77,14h6.58c0,.2,0,.39,0,.58,0,4.32,0,8.63,0,13a9.72,9.72,0,0,1-1,4.39,6.73,6.73,0,0,1-4.23,3.47,15.62,15.62,0,0,1-9.06,0,6.92,6.92,0,0,1-5.26-6.56c-.16-2.91-.12-5.83-.14-8.74,0-2,0-4.06,0-6.13H78.4v.78q0,6.23,0,12.44a5.49,5.49,0,0,0,.19,1.34,2.83,2.83,0,0,0,3.15,2.11,2.65,2.65,0,0,0,2.78-2.31,15.5,15.5,0,0,0,.21-2.64c0-3.64,0-7.29,0-10.94Z"/><path class="cls-1" d="M113.63,35.32c1-1.51,1.9-3,2.82-4.42q5.2-8.16,10.41-16.33a1.07,1.07,0,0,1,1-.58q3.47,0,6.93,0c.58,0,.73.18.73.74q0,10,0,20c0,.56-.15.75-.73.75-1.83,0-3.67,0-5.51,0-.51,0-.7-.17-.66-.67s0-1,0-1.56-.15-.53-.54-.53c-1.4,0-2.81,0-4.21,0a1,1,0,0,0-.66.38c-.46.64-.84,1.32-1.29,2a.86.86,0,0,1-.6.37c-2.49,0-5,0-7.45,0a1.29,1.29,0,0,1-.3-.09m12.15-7.6h1.92c1,0,1-.06,1.1-1,.1-1.38.25-2.74.37-4.11,0-.45.07-.88.11-1.32h-.12l-3.38,6.49"/><path class="cls-1" d="M137.65,14h11.86a6.76,6.76,0,0,1,1.34.19,7,7,0,0,1,5.79,7c0,3.07-1,5.53-3.94,6.91a9.33,9.33,0,0,1-4,.84c-1.45,0-2.89,0-4.42,0v6.49a3.14,3.14,0,0,1-.5.08c-1.88,0-3.76,0-5.64,0-.4,0-.58-.09-.58-.54,0-6.89,0-13.77,0-20.66a2.81,2.81,0,0,1,0-.36m6.65,9.86c1.16,0,2.22,0,3.29,0a5.91,5.91,0,0,0,1.82-.38c.89-.35,1-1.18,1-2s-.21-1.44-1-1.68c-1.66-.51-3.36-.2-5-.27Z"/><path class="cls-1" d="M53.47,14H70.05v5.5H60c0,.85,0,1.62,0,2.39,0,.12.39.32.61.32,2.38,0,4.76,0,7.13,0h.82v5.08H67.9c-2.42,0-4.84,0-7.26,0-.47,0-.62.13-.62.62,0,2.29,0,4.58,0,6.87v.73H53.47Z"/><path class="cls-1" d="M36.92,30.92l1.42-.23a1.54,1.54,0,0,0,1.24-2.27c-.48-1.1-1.06-2.17-1.56-3.27-.33-.72-.6-1.47-.86-2.23a4.12,4.12,0,0,1,.05-3.14,6.31,6.31,0,0,0-.05-4,46.48,46.48,0,0,0-1.41-5.17,12.78,12.78,0,0,0-7.71-8,22.62,22.62,0,0,0-16.7-.21c-5.26,2-8.16,5.91-9,11.44a23.07,23.07,0,0,0,2.43,14c.58,1.18,1.11,2.38,1.71,3.55a15.59,15.59,0,0,1,.7,12.44c-.32,1-.8,1.95-1.22,2.92a3.07,3.07,0,0,1-.23.39c-.23.39-.55.58-1,.33s-.32-.58-.12-.94a15.19,15.19,0,0,0,1.85-7.32,15.64,15.64,0,0,0-2.22-8.33A35.33,35.33,0,0,1,.74,23,22.6,22.6,0,0,1,1,10.61,12.89,12.89,0,0,1,9,2.14c6.74-2.69,13.57-3,20.35-.1A14.12,14.12,0,0,1,36.7,8.75,44.62,44.62,0,0,1,38.87,15a11.72,11.72,0,0,1,.36,2,5.09,5.09,0,0,1-.34,3.1,2.71,2.71,0,0,0,0,2.26c.59,1.48,1.24,2.94,1.88,4.39.32.71.72,1.39,1,2.1a1.77,1.77,0,0,1-1.2,2.45c-.56.16-1.12.3-1.77.47a7.22,7.22,0,0,0,.06.92,2,2,0,0,1-.61,2.1.67.67,0,0,0-.06,1.11,1,1,0,0,1,.09,1.49A2.5,2.5,0,0,0,38,40a3.45,3.45,0,0,1,.33,1.11,2.49,2.49,0,0,1-2,2.95,13.74,13.74,0,0,1-2.88.33c-1.27.06-2.54,0-3.82,0-.83,0-.94.15-.83,1,.08.58.18,1.16.22,1.73,0,.17-.18.33-.28.49-.15-.13-.42-.24-.45-.39-.16-.92-.26-1.84-.39-2.76-.08-.56.26-.65.7-.65,1.51,0,3,0,4.54,0a6.52,6.52,0,0,0,1.46-.22,2.49,2.49,0,0,0,1.81-3.61,3,3,0,0,1,.14-2.89,1.46,1.46,0,0,0,.05-.95,1.68,1.68,0,0,1,.22-1.53,2.1,2.1,0,0,0,.34-1.84c-.13-.58-.16-1.18-.24-1.81"/><path class="cls-1" d="M34.64,13.14c-1.19-.61-1.4.36-1.86,1A7.32,7.32,0,0,1,27.85,17a16,16,0,0,1-8-.48A3.64,3.64,0,0,1,18.71,16a.83.83,0,0,1-.27-.73,1,1,0,0,1,.75-.4c.6,0,1.17.26,1.77.35a9,9,0,0,0,5.86-1.07,7.18,7.18,0,0,0,1.94-1.75c.52-.64.37-.85-.41-1.09l-.62-.21,1.44-.83,2.67-1.46c.24-.14.46-.24.64.1.7,1.32,1.42,2.65,2.13,4,0,.05,0,.12,0,.3"/><path class="cls-1" d="M28.92,18.65l4.45,2.71-2.62,4.41c-.06,0-.11-.06-.11-.09-.14-.4-.16-1-.44-1.16s-.82,0-1.24,0A8.84,8.84,0,0,1,21,20.64,7,7,0,0,1,20.2,19,.79.79,0,0,1,20.54,18c.46-.24.73,0,1,.37a6.71,6.71,0,0,0,6.74,2.28c1-.22,1-.32.76-1.29a5.9,5.9,0,0,1-.15-.67"/><path class="cls-1" d="M9.18,21.52,7.3,20.76C6.2,20.31,5.1,19.88,4,19.4c-.17-.08-.39-.4-.35-.52.67-1.77,1.38-3.52,2.15-5.43.2.45.37.76.48,1.1a.6.6,0,0,0,.76.48,15.1,15.1,0,0,1,5.67.58c.6.14,1.19.38,1.78.57a.77.77,0,0,1,.62.85c0,.53-.45.51-.78.6l-4.12,1.05a1.7,1.7,0,0,0-.24.09c-1.48.63-1.55.81-1,2.28a4.69,4.69,0,0,1,.16.47"/><path class="cls-1" d="M12.32,7.81c-.09.11-.1.13-.12.14-1,.79-1,.79-.34,1.92a8.61,8.61,0,0,0,4.62,3.75c.33.11.75.25.58.68a1,1,0,0,1-.72.57,14.16,14.16,0,0,1-2.69-.22,11.41,11.41,0,0,1-6.48-3.26c-.12-.13-.43-.12-.65-.11s-.27.13-.4.2l-.46.22c.07-.3.1-.49.16-.69.41-1.26.83-2.53,1.24-3.8.1-.33.25-.56.63-.46,1.53.34,3.05.69,4.63,1.06"/><path class="cls-1" d="M8,26.09l3.3-4.34c.14.52.24,1,.4,1.61a14.4,14.4,0,0,0,2-1.15,6.51,6.51,0,0,0,2.58-4.88c0-.21.34-.59.47-.57s.66.3.68.48a15,15,0,0,1,0,2.76,9.91,9.91,0,0,1-1.66,4.77A6.1,6.1,0,0,1,12.94,27c-.65.25-.77.59-.59,1.17a4,4,0,0,1,.07.78L8,26.09"/><path class="cls-1" d="M13,6c1.18-.9,2.35-1.81,3.55-2.7a.56.56,0,0,1,.53,0c1,1,2.06,2,3.08,3.06-.05.05-.08.1-.11.1-1.22.06-1.25.06-1.19,1.25.12,2.08.76,3.89,2.75,5a.87.87,0,0,1,.31.77c-.09.37-.45.48-.84.34a10.22,10.22,0,0,1-6.66-6.65C14.2,6.41,13.93,6,13,6"/><path class="cls-1" d="M28.5,5.19c-1,.19-1.09.79-1,1.66A3.92,3.92,0,0,1,26.2,9.74a19.92,19.92,0,0,1-2.12,1.88,1.81,1.81,0,0,1-1,.32.84.84,0,0,1-.66-.35c-.07-.13.09-.48.24-.64a3.37,3.37,0,0,0,.85-3.28c-.14-.59-.41-.75-.95-.51a5.34,5.34,0,0,1-.65.17C22.68,6,23.35,4.82,24,3.63a.51.51,0,0,1,.46-.18c1.34.57,2.67,1.16,4,1.74"/><path class="cls-1" d="M99.25,46.15c.64-1.66,1.28-3.33,2-5a.68.68,0,0,1,.5-.27.57.57,0,0,1,.46.22c.68,1.67,1.32,3.34,2,5-.53.22-.77.06-.93-.41-.38-1.12-.4-1.12-1.59-1.12s-1.09,0-1.47,1c-.15.44-.32.77-.9.5M102.59,44c-.3-.83-.57-1.58-.9-2.54-.35,1-.62,1.72-.92,2.54Z"/><path class="cls-1" d="M143,42.6l.82-.33v5.42c-.4.14-.62.08-.59-.4s0-.89,0-1.37c-1.23.6-2.06.52-2.63-.2a2.52,2.52,0,0,1,0-2.85c.53-.69,1.36-.75,2.4-.27m-2.16,1.67c0,.89.45,1.5,1.16,1.53s1.25-.61,1.25-1.51a1.29,1.29,0,0,0-1.21-1.46c-.76,0-1.19.5-1.2,1.44"/><path class="cls-1" d="M104.68,42.29l.83.28a1.83,1.83,0,0,1,2.36.28,2.51,2.51,0,0,1,0,2.9c-.56.7-1.35.76-2.6.16v1.8l-.59,0Zm3,2c0-.88-.46-1.47-1.19-1.49s-1.2.54-1.21,1.44.47,1.52,1.21,1.53,1.18-.58,1.19-1.48"/><path class="cls-1" d="M176.13,42.27c-.33.08-.57.12-.73-.33a1,1,0,0,0-.77-.6,1.06,1.06,0,0,0-.84.53,5.22,5.22,0,0,0,0,3.36,1.17,1.17,0,0,0,.82.57.72.72,0,0,0,.83-.65c.07-.36.11-.71.17-1.12l-1-.07c0-.54.19-.6,1.53-.43v2.84l-.58-.54a1.34,1.34,0,0,1-1.61.42,1.54,1.54,0,0,1-1-1.49,13.16,13.16,0,0,1,0-2.51,1.53,1.53,0,0,1,1.72-1.47c.91,0,1.37.51,1.41,1.49"/><path class="cls-1" d="M92,42.73V41c.35-.09.61-.15.61.35,0,1.61,0,3.23,0,5l-.86-.22a1.76,1.76,0,0,1-2.31-.28,2.54,2.54,0,0,1,0-3c.55-.65,1.45-.71,2.57-.09m0,1.55c0-.89-.46-1.45-1.21-1.45s-1.2.54-1.19,1.51A1.31,1.31,0,0,0,90.8,45.8c.7,0,1.18-.63,1.17-1.52"/><path class="cls-1" d="M68.85,42.67V41c.35-.1.64-.2.64.3v5L68.66,46a1.78,1.78,0,0,1-2.29-.19,2.55,2.55,0,0,1-.15-2.89c.55-.75,1.35-.84,2.63-.27M66.5,44.3c0,.86.47,1.48,1.18,1.5s1.21-.58,1.22-1.47-.45-1.5-1.22-1.5-1.18.55-1.18,1.47"/><path class="cls-1" d="M127.82,40.94c1,0,2-.07,2.9,0a1.57,1.57,0,0,1-.21,3c-.63,0-1.28,0-2,0v2.14c-.43.13-.7.16-.69-.35V40.94m.66,2.56c.7,0,1.29,0,1.89-.12a.95.95,0,0,0,0-1.84c-.61-.08-1.23-.07-1.86-.1,0,.29,0,.46,0,.62V43.5"/><path class="cls-1" d="M168.37,40.82c.13.17.36.32.37.49,0,1.19,0,2.38,0,3.56a1.41,1.41,0,0,1-1.48,1.47c-1,0-1.57-.38-1.63-1.35-.06-1.25,0-2.5,0-3.76,0-.13.26-.27.4-.4l.2.12c0,.77,0,1.54,0,2.31,0,.56,0,1.12,0,1.68a.84.84,0,0,0,.91.89.82.82,0,0,0,.89-.89c0-.87,0-1.73,0-2.6,0-.44,0-.9,0-1.35l.24-.17"/><path class="cls-1" d="M78.61,43.65a1.11,1.11,0,0,1,.92-1.28,3.69,3.69,0,0,1,1.15,0c.72.09,1,.38,1,1.1,0,.52,0,1,0,1.55,0,.28.23.54.28.82s-.12.34-.19.52L81,46a8.06,8.06,0,0,1-1.57.28.92.92,0,0,1-1-.91,1,1,0,0,1,.75-1.18c.44-.12.9-.15,1.32-.31.21-.08.35-.35.53-.53-.2-.18-.36-.46-.58-.5a1,1,0,0,0-1.26.5c-.07.14-.35.17-.59.28M81,44.3a7.68,7.68,0,0,0-1.43.32.76.76,0,0,0-.42.6.75.75,0,0,0,.52.52c.88.25,1.48-.4,1.33-1.44"/><path class="cls-1" d="M121.51,43.72c0-.85.36-1.23.9-1.34a4.11,4.11,0,0,1,1.4,0,.83.83,0,0,1,.76.9c0,.53,0,1.07,0,1.61,0,.34-.18.76.33.93-.08.17-.19.5-.23.49a5,5,0,0,1-.76-.29,9.59,9.59,0,0,1-1.47.3,1,1,0,0,1-1.09-.88,1,1,0,0,1,.82-1.25c.42-.12.86-.14,1.26-.28.21-.07.51-.36.48-.48a.85.85,0,0,0-.51-.55,1,1,0,0,0-1.28.46c-.08.15-.32.21-.62.39m2.39.57a10.23,10.23,0,0,0-1.47.34.79.79,0,0,0-.39.64c0,.16.29.41.5.47.87.26,1.47-.36,1.36-1.45"/><path class="cls-1" d="M96.89,44.5H94.07a1.09,1.09,0,0,0,.76,1.21,1.11,1.11,0,0,0,1.37-.43c.11-.15.34-.21.59-.34A1.46,1.46,0,0,1,95,46.32a1.91,1.91,0,0,1-1.59-2.27,1.85,1.85,0,0,1,1.92-1.78c1,.07,1.7.95,1.59,2.23m-2.78-.62h2.13c-.15-.74-.51-1.07-1.12-1.05s-.91.34-1,1.05"/><path class="cls-1" d="M135.87,44.9a1.65,1.65,0,0,1-2.17,1.37,2,2,0,0,1-1.29-2.43,1.79,1.79,0,0,1,2-1.55c1,.13,1.58.88,1.51,2.18h-2.83a1.12,1.12,0,0,0,.74,1.23,1.09,1.09,0,0,0,1.37-.4c.13-.16.38-.22.7-.4m-.64-1c-.13-.78-.54-1.13-1.18-1.08a1,1,0,0,0-.91,1.08Z"/><path class="cls-1" d="M70.48,43.72c.13-1,.41-1.28,1.3-1.42,1.27-.19,1.76.22,1.76,1.5,0,.47,0,.94,0,1.42a2.81,2.81,0,0,0,.12.48l.15.56a4.32,4.32,0,0,1-.72-.11C73,46.13,73,46,73,46a10.23,10.23,0,0,1-1.57.33,1,1,0,0,1-1.11-.93,1,1,0,0,1,.84-1.2c.41-.11.85-.14,1.26-.28.2-.07.49-.34.46-.47a.79.79,0,0,0-.47-.55,1,1,0,0,0-1.29.44c-.07.15-.32.21-.63.4m2.36.6a7.73,7.73,0,0,0-1.37.27.87.87,0,0,0-.46.64c0,.2.36.48.59.53.87.19,1.41-.45,1.24-1.44"/><path class="cls-1" d="M157,46a11.43,11.43,0,0,1-1.72.29.94.94,0,0,1-1-.92,1,1,0,0,1,.79-1.19c.42-.12.89-.15,1.31-.29.2-.07.51-.36.48-.47a.88.88,0,0,0-.5-.56,1,1,0,0,0-1.28.46c-.07.15-.33.2-.58.35a1.06,1.06,0,0,1,.88-1.3,3.75,3.75,0,0,1,1.21-.05.9.9,0,0,1,.91,1c0,.61,0,1.21,0,1.81a2,2,0,0,0,.14.54l.18.54a3.4,3.4,0,0,1-.71-.05c-.1,0-.15-.19-.14-.18m-.18-1.71a9.71,9.71,0,0,0-1.41.32.78.78,0,0,0-.4.61.81.81,0,0,0,.52.52c.87.24,1.46-.39,1.29-1.45"/><path class="cls-1" d="M77.69,43.69c-.2-.13-.38-.28-.59-.39a2.56,2.56,0,0,0-1-.44c-.68,0-1.08.58-1.08,1.47s.41,1.48,1.06,1.43c.37,0,.71-.37,1.06-.58a2.05,2.05,0,0,1,.6-.33c0,1.1-.78,1.38-1.64,1.65.54.14,1,.32.75.92-.14.41-.82.49-1.49.09a3.59,3.59,0,0,0,.46,0c.17,0,.34-.1.5-.15,0-.06,0-.12,0-.19l-.71-.21c.08-.17.15-.33.23-.49-1.36-.76-1.77-1.62-1.39-2.9a1.75,1.75,0,0,1,1.82-1.26c.92.06,1.39.45,1.4,1.43"/><path class="cls-1" d="M118.66,44.28a1.81,1.81,0,0,1-1.82,2,1.85,1.85,0,0,1-2-2,1.88,1.88,0,0,1,1.91-2.06,1.84,1.84,0,0,1,1.86,2m-.65,0c0-.89-.47-1.48-1.19-1.5a1.32,1.32,0,0,0-1.27,1.49,1.36,1.36,0,0,0,1.24,1.48A1.33,1.33,0,0,0,118,44.33"/><path class="cls-1" d="M86.22,44.3a1.8,1.8,0,0,1-1.83,2,1.82,1.82,0,0,1-1.91-2,1.86,1.86,0,0,1,1.9-2.05,1.84,1.84,0,0,1,1.84,2m-.64,0c0-.89-.5-1.52-1.23-1.51a1.34,1.34,0,0,0-1.24,1.47,1.38,1.38,0,0,0,1.22,1.49,1.32,1.32,0,0,0,1.25-1.45"/><path class="cls-1" d="M108.92,44.29a1.82,1.82,0,0,1,1.84-2,1.87,1.87,0,0,1,1.9,2.06,1.83,1.83,0,0,1-1.93,2,1.8,1.8,0,0,1-1.81-2m.63,0a1.33,1.33,0,0,0,1.2,1.49A1.36,1.36,0,0,0,112,44.28a1.34,1.34,0,0,0-1.25-1.45c-.71,0-1.21.6-1.22,1.47"/><path class="cls-1" d="M139.44,43.57l-.66-.38c-.2-.11-.4-.34-.58-.33-.35,0-.91.14-1,.35-.17.49.35.58.72.69s.67.17,1,.27a.91.91,0,0,1,.72.93,1.06,1.06,0,0,1-.75,1.09,1.88,1.88,0,0,1-2.42-.69,3.28,3.28,0,0,1-.11-.56,2.63,2.63,0,0,1,.69.37,1.32,1.32,0,0,0,1.62.34.56.56,0,0,0,.28-.43.7.7,0,0,0-.34-.49,9.24,9.24,0,0,0-1.17-.34c-.56-.16-1-.42-1-1.1s.52-.88,1.08-1c1-.16,2,.23,1.85,1.26"/><path class="cls-1" d="M150.58,44.94a2.66,2.66,0,0,1,.62.4,1.33,1.33,0,0,0,1.63.3.59.59,0,0,0,.27-.45.76.76,0,0,0-.37-.47c-.37-.15-.78-.22-1.18-.34s-1-.43-.94-1.05.48-.91,1.07-1a1.47,1.47,0,0,1,2,1.29l-.76-.42c-.16-.1-.3-.28-.48-.31-.41-.07-1-.17-1.09.36s.4.57.76.67.68.17,1,.28a.89.89,0,0,1,.71.89,1,1,0,0,1-.66,1.07c-1,.47-2.64.09-2.55-1.2"/><path class="cls-1" d="M53.46,46.16V40.89c1.08,0,2.14,0,3.22,0,.07,0,.22.21.21.3a.39.39,0,0,1-.3.22c-.62,0-1.25,0-1.88,0s-.67.16-.62.63a4.7,4.7,0,0,1,0,.65c0,.36.12.51.48.5a13.53,13.53,0,0,1,1.56,0c.16,0,.3.18.46.28-.15.08-.29.22-.43.23a13.71,13.71,0,0,1-1.57,0c-.4,0-.52.16-.51.53s0,1,0,1.5-.22.54-.64.39"/><path class="cls-1" d="M65.06,46.16c-.45.15-.63.05-.62-.38,0-.63,0-1.26,0-1.88s-.25-1-.83-1.07a1,1,0,0,0-1.12,1.08c0,.75,0,1.51,0,2.24-.42.15-.63.11-.63-.35,0-1,0-1.94,0-2.91v-.63l.77.39a4.19,4.19,0,0,1,.82-.33,1.18,1.18,0,0,1,1.6,1.17c0,.88,0,1.76,0,2.67"/><path class="cls-1" d="M147.65,42.27c.14.14.41.27.41.42,0,1.16,0,2.32,0,3.68l-.75-.47a2.57,2.57,0,0,1-.37.26,1.32,1.32,0,0,1-2.05-1,18.21,18.21,0,0,1,0-2.45c0-.15.27-.28.41-.42l.19.13v2.24c0,.79.27,1.15.83,1.16a1.11,1.11,0,0,0,1.14-1.16c0-.73,0-1.46,0-2.19l.19-.18"/><path class="cls-1" d="M169.63,46.15V40.89c.81,0,1.62,0,2.43,0,.08,0,.2.18.24.29s-.16.2-.25.21a6.42,6.42,0,0,1-1.16,0c-.56-.06-.73.18-.67.7a7.65,7.65,0,0,1,0,1c.7.08,1.35.15,2,.24a2.5,2.5,0,0,1,0,.41h-2c0,.71,0,1.36,0,2,0,.49,0,.49-.59.41"/><path class="cls-1" d="M60.83,42.42c0,1.17,0,2.31,0,3.45,0,.12-.17.24-.25.36l-.41-.4c-.11.08-.24.2-.38.29a1.31,1.31,0,0,1-2.1-1.1c0-.74,0-1.48,0-2.21,0-.15.18-.3.27-.45.09.16.25.31.26.47,0,.65,0,1.3,0,2s.3,1,.83,1a1.06,1.06,0,0,0,1.11-1c0-.67,0-1.33,0-2,0-.43.15-.55.62-.4"/><path class="cls-1" d="M149.16,42.39h.58c0,1.19,0,2.39,0,3.58,0,.11-.28.22-.55.43Z"/><path class="cls-1" d="M113.86,46.31c-.13-.16-.37-.31-.37-.47,0-1.13,0-2.27,0-3.44h.59v3.73l-.2.18"/><path class="cls-1" d="M79,41.51a.65.65,0,0,1,.82-.56c.52.11,1,.5,1.54-.18,0,.79-.31,1-.89.9L79,41.51"/><path class="cls-1" d="M161.66,44.42a5.72,5.72,0,0,1-.83,0c-.1,0-.21-.17-.24-.28s.15-.21.23-.21q.84,0,1.68,0a.35.35,0,0,1,.2.24.32.32,0,0,1-.2.25,7.85,7.85,0,0,1-.84,0Z"/><path class="cls-1" d="M123.45,41.8c-.68,0-.83-.6-1.24-.92.71-.22.76-.18,1.24.92"/><path class="cls-1" d="M149.15,41.71v-.83c.2,0,.46,0,.52.11a.6.6,0,0,1,0,.54c-.07.11-.32.11-.55.18"/><path class="cls-1" d="M113.47,41c.73-.21.63.22.59.66l-.56,0c0-.25,0-.46,0-.7"/></svg>