<svg id="Camada_1" data-name="Camada 1" xmlns="http://www.w3.org/2000/svg" viewBox="0 0 150.84 75.55"><defs><style>.cls-1,.cls-2{fill:#4e9b7f;}.cls-1{fill-rule:evenodd;}</style></defs><title>Prancheta 1</title><path class="cls-1" d="M52.36,61.1s-.09-.08-.08-.12c0-.31-.24-.36-.41-.51L51.39,60c-.27-.29-.29-.75-.65-.92a.45.45,0,0,1-.31-.5.57.57,0,0,0-.2-.5c-.41-.29-.64-.78-1.13-1H49L47.58,55.4c0-.16.33-.36.06-.47-.53-.21-.69-.4-.62-1-.12-.09-.25.22-.39,0a10,10,0,0,1-1-1.75,6.27,6.27,0,0,0-1-1.51c-.23-.17-.29-.49-.45-.65h0c-.49-1.27-1.18-2.42-1.6-3.69-.29-.87-.62-1.7-.89-2.57s-.43-1.94-.75-2.87h0a12.54,12.54,0,0,1-.34-2.8,10.22,10.22,0,0,0-.24-2.86,0,0,0,0,1,0,0l0,0c.15-.13.06-.31.09-.47.18-1.12.06-2.27.3-3.4a6.9,6.9,0,0,0,.34-1.81,3.59,3.59,0,0,1,.6-1.73,17.47,17.47,0,0,1,1.41-3.23c.1-.25.13-.6.31-.72a2.06,2.06,0,0,0,.79-1.19c.16-.44.67-.7.63-1.24l.92-1.62a4.73,4.73,0,0,0,.79-1.33,2.45,2.45,0,0,0,.65-1.19h0c.38-.28.4-.79.68-1.13.59-1.13,1-2.31,1.65-3.43a2.3,2.3,0,0,0,.37-1.24,4,4,0,0,1,.43-1.78,4.08,4.08,0,0,0-.13-2.78,15.44,15.44,0,0,1-.94-2.32A6.43,6.43,0,0,0,47.2,2h0a.77.77,0,0,0-.64-.44,6.81,6.81,0,0,0-.74-.41h0c-.16-.32-.62-.46-1-.6A3.09,3.09,0,0,0,43,.08a.43.43,0,0,0-.13,0,12.68,12.68,0,0,0-3.79.34c-.3.07-.8,0-.86.55a.17.17,0,0,0,0,.1h0c-.19.16-.53,0-.66.31h0l-.14.19c-.38-.36-.62-.15-.83.2h0c-.24.37-.74.37-1,.72l-.23.38h0L35.12,3c-.31,0-.42.23-.49.46a1.13,1.13,0,0,1-.33.5h0c-.09.17-.33.06-.29.16.17.47-.26.56-.47.79s-.27.18-.15.42-.08.33-.24.38-.12-.22-.24-.29c-.14.14-.24.33-.44.41-.33-.22-.38-.23-.41-.08-.07.56-.53,1-.62,1.5a6.8,6.8,0,0,1-.45,1c-.28.76-.69,1.47-.95,2.25s-.71,1.69-1,2.56a13.43,13.43,0,0,0-.77,3A8.67,8.67,0,0,0,28,18.2h0a13,13,0,0,1-.12,1.51,34.62,34.62,0,0,0,.4,12.87,25,25,0,0,0,1.39,4.84c.58,1.2.72,2.55,1.2,3.79a.39.39,0,0,0,.21.4,19.58,19.58,0,0,0,1.19,2.49c.64,1.1,1.31,2.18,2,3.27,0,.15-.05.32.07.43.29.29.42.72.72,1s.26.63.62.87a1.63,1.63,0,0,1,.73,1.19.41.41,0,0,0,.21.27,3.81,3.81,0,0,1,.87.67h0a2.17,2.17,0,0,0,.77,1,9.77,9.77,0,0,1,1.19,1.13c.33.39.62.89,1.22,1a9.87,9.87,0,0,0,1.09.84h0a1.18,1.18,0,0,0,.4.4,11.35,11.35,0,0,0,2,1.62L46,59.13h0c0,.14,0,.28.15.34.92.29,1.53,1.19,2.53,1.34.19,0,.35.2.53.27a11.13,11.13,0,0,0,2.06.91c.21.13.44.21.65.34s.57.2.7-.14a2.93,2.93,0,0,0,.16-.93C52.75,61,52.46,61.24,52.36,61.1Z"/><path class="cls-1" d="M58.08,66.24c0-.23-.32-.18-.52-.21L57,65.94a4,4,0,0,1-1.4-.49A6.07,6.07,0,0,0,53,64.57v0h0a2.12,2.12,0,0,0-.68-.26,17.35,17.35,0,0,0-2.74-1.25c-.68-.36-1.36-.73-2-1.08a1,1,0,0,0-.9-.54c-.15-.3-.44-.34-.71-.41a1.68,1.68,0,0,0-1-.52l0,0h0l0,0c0-.06-.08-.16-.15-.18a2.92,2.92,0,0,1-1.09-.6.44.44,0,0,0-.42-.09,13.44,13.44,0,0,1-1.51-.91c-.11-.33-.46-.37-.7-.54h0a21.48,21.48,0,0,0-2.91-2.13A10.88,10.88,0,0,1,36,54.28a6.19,6.19,0,0,0-1.31-1.2c-.44-.26-.62-.73-1-1-.17-.11-.3-.38-.57-.44-.11-.16-.22-.33-.32-.5s-.33-.34-.5-.51h0c-.36-.3-.42-.83-.83-1.11-.22-.14,0-.33.14-.5-.29.12-.57,0-.58-.19,0-.45-.36-.63-.63-.86-.48-.4-.46-1.09-.95-1.5h0a1.75,1.75,0,0,0-.17-.69c-.23-.53-.73-.9-.79-1.54,0-.23,0-.59-.28-.79a1.36,1.36,0,0,1-.49-1.11,3.2,3.2,0,0,0-.58-1.56h0a7.88,7.88,0,0,0-.42-2.16,17.46,17.46,0,0,1-.62-3.19c0-.36-.11-.73-.18-1.08a13.8,13.8,0,0,1-.53-2.91,3.6,3.6,0,0,0-.46-2.07.84.84,0,0,1-.11-.62,9.53,9.53,0,0,0-.51-3.3s-.06-.08-.1-.1a1.49,1.49,0,0,1-.57-1c-.06-.21-.13-.35-.38-.32a.26.26,0,0,1-.2-.2l-.3-.64a.17.17,0,0,0,0,.05h0l0,0a.65.65,0,0,0-.52-.92c-.2-.05-.25-.17-.41-.24v0h-.08a1.13,1.13,0,0,0-.28-.32,18.64,18.64,0,0,0-2.74-1.5c-.46-.3-1-.14-1.47-.23a3.22,3.22,0,0,0-2.17.24,20.16,20.16,0,0,0-2,.89,7.9,7.9,0,0,0-1.27,1.1c-.3.32-.32.8-.67,1.06a.73.73,0,0,0-.33.53v.19c-.28.15-.22.5-.41.7h0a2.65,2.65,0,0,0-.33,1.1c-.27.4,0,.83-.08,1.24.27.57,0,1.19.17,1.76h0c0,.36,0,.72,0,1.08h0c0,.21-.07.42.1.6a.08.08,0,0,1,0,.08c0,.12,0,.27-.14.34a3.17,3.17,0,0,0-.59-1.12c0-.06-.06-.13-.11-.16s-.12,0-.11.09,0,.34.12.47a36.07,36.07,0,0,0,.88,4A20.32,20.32,0,0,0,11,36.52l.12,0a.24.24,0,0,1-.12,0,14.54,14.54,0,0,0,.7,2.24,3.31,3.31,0,0,0,.49,1l.21.42,0,.18a.19.19,0,0,0,.08.21c0,.16-.06.38.22.38-.1.44.26.69.39,1a2.51,2.51,0,0,0,.54,1.29c.66.91.95,2,1.69,2.87,0,.08,0,.19.05.24.42.48.71,1.05,1.09,1.56s.35.94.88,1.15A7.56,7.56,0,0,0,19,51.25h0a2.65,2.65,0,0,0,1.62,1.52,6.14,6.14,0,0,0,1.84,2h0c.46.41.74,1.05,1.41,1.21.27.18.48.46.82.52l1.62,1.33.22.36a1.88,1.88,0,0,0,1.22,1l.4.29a.65.65,0,0,0,.28.35,13.81,13.81,0,0,0,2,1.35A21.15,21.15,0,0,0,33,62.6a5.81,5.81,0,0,0,1,.53c.41.14.72.55,1.2.52h0a19.5,19.5,0,0,0,3.67,1.57c.35.12.61.4,1,.42a11.67,11.67,0,0,1,2.18.5,4,4,0,0,0,1.28.21h.09a5.39,5.39,0,0,0,1.42.31,1,1,0,0,0,.51.19c1.53.2,3,.48,4.59.57a7.44,7.44,0,0,0,2.26,0A6.74,6.74,0,0,1,55,67.39a3.67,3.67,0,0,0,2.68-.63C57.87,66.64,58.14,66.51,58.08,66.24Z"/><path class="cls-1" d="M64.22,68.78a.35.35,0,0,0-.3,0,22.46,22.46,0,0,1-2.84.09,36.34,36.34,0,0,0-3.76-.13,2.05,2.05,0,0,0-1.31.15c-.18.07-.34-.21-.52,0H54.7a3.06,3.06,0,0,0-1.56,0,.26.26,0,0,1-.43,0h0c-.25,0-.5,0-.75,0-1,0-2,0-3,0h0c-.12-.16-.3-.1-.46-.11-1.3-.11-2.6-.14-3.89-.33-.6.08-1-.53-1.65-.44a4.63,4.63,0,0,1-1.3-.18c-1.34-.2-2.67-.44-4-.7-.25,0-.52-.09-.77-.12-.52-.07-.91-.41-1.39-.51a8.74,8.74,0,0,1-2.37-.52,10.13,10.13,0,0,0-1.75-.62c-.29-.09-.64.06-.84-.13a8.12,8.12,0,0,0-1.8-1.1,3.11,3.11,0,0,0-1.61-.45c-.08,0-.15,0-.2-.08s-.15-.38-.27-.39c-.62,0-.9-.62-1.4-.84-.66-.29-1.15-.9-1.91-1a.32.32,0,0,1-.17-.11,1.8,1.8,0,0,0-1.19-.63h0s0,0,0,0h0l0,0c-.2-.59-.49-1.07-1.22-1l0,0h0l0,0a4.69,4.69,0,0,0-1.43-1.41,8.75,8.75,0,0,1-1.23-1.2,11.81,11.81,0,0,0-1.13-1.31c-.36-.31-.51-.9-1.1-.95h0v0h0c-.07-.28-.38-.34-.5-.58h0a3.07,3.07,0,0,0-.6-1c-.46-.37-1-.69-1.44-1-.35-.19-.78-.21-1.06-.54.17-.11.14-.21.06-.37h-.06v0c-.16-.18-.47-.2-.6-.47l-.06-.11c.24-.58,0-.83-.54-1.07s-1-.32-1.52-.52a3.27,3.27,0,0,0-1.68-.44,11.64,11.64,0,0,0-3.12,0,2.52,2.52,0,0,0-1.54.72l-1,.6c-.18,0-.27.11-.38.21a4.11,4.11,0,0,0-.85,1.1c-.05,0-.12,0-.14,0A7.58,7.58,0,0,0,0,54.05a12.5,12.5,0,0,0,.46,3,1.92,1.92,0,0,0,.78,1.5l.21.22s.06,0,.06,0v0H1.44c.11.23.21.45.31.68s.17.65.52.8a2.5,2.5,0,0,0,1.09,1.44c.31.37.5.85,1,1a.47.47,0,0,0,.31.3c.28.23.55.48.83.7a5,5,0,0,0,2,1.26c.11.15.14.38.39.39l.43.28,2.43,1.65c.2.65.89.68,1.35.87a13.45,13.45,0,0,1,2,1.14,3.67,3.67,0,0,0,1.78.81l.81.38a4.48,4.48,0,0,0,2.64,1.14l1.08.36a8.67,8.67,0,0,0,1.55.55l1.82.61a.57.57,0,0,0,.62.2.25.25,0,0,0,.4.11c.31.23.61.47,1,.3l.19.13a1.23,1.23,0,0,0,.51.29c.81.09,1.59.37,2.41.46,1,.12,2,.2,3,.23l-.15,0a.24.24,0,0,1,.15,0,13.39,13.39,0,0,1,1.8.2c.11.16.29.16.45.21a3.17,3.17,0,0,0,1.44,0,15.34,15.34,0,0,1,2.59.25,15.83,15.83,0,0,0,2.58-.16c.49-.08,1-.21,1.45-.32.87-.22,1.78,0,2.65-.2.48.11,1,0,1.46.12a1.75,1.75,0,0,0,1.39-.22l0,0h0v0a6.39,6.39,0,0,0,1.23-.07c.42-.07.8-.25,1.2-.31.77-.12,1.55-.3,2.31-.36.45,0,.82-.27,1.28-.27a1.1,1.1,0,0,0,1-.42.17.17,0,0,0,0-.07c.75-.17,1.5-.37,2.27-.49a23.77,23.77,0,0,0,3.39-1.06,20.73,20.73,0,0,0,2.74-1.39,2.75,2.75,0,0,0,1.24-1.12C64.42,69,64.48,68.86,64.22,68.78Z"/><path class="cls-2" d="M59.22,1.75H64l-.29,1.48h-3l-.37,1.9h2.82l-.29,1.46H60l-.61,3.26H57.69Z"/><path class="cls-2" d="M67.06,1.75l-.89,4.66a4.61,4.61,0,0,0-.09,1,1.09,1.09,0,0,0,1.18,1.16c.9,0,1.5-.6,1.79-2.11l.89-4.67h1.73l-.88,4.6C70.32,8.8,69.24,10,67,10A2.38,2.38,0,0,1,64.35,7.4a6.49,6.49,0,0,1,.12-1.13l.86-4.52Z"/><path class="cls-2" d="M71.69,9.85l1.54-8.1h2l1.07,3.09a27.26,27.26,0,0,1,.73,2.76h0a19.88,19.88,0,0,1,.37-2.91L78,1.75h1.61l-1.53,8.1H76.32L75.19,6.62a24.46,24.46,0,0,1-.79-2.83h0c-.09.79-.29,1.94-.53,3.21L73.3,9.85Z"/><path class="cls-2" d="M81.22,1.87a13.2,13.2,0,0,1,2.24-.18,4.42,4.42,0,0,1,3,.88A3.12,3.12,0,0,1,87.48,5.1a4.75,4.75,0,0,1-1.67,3.73A5.92,5.92,0,0,1,81.93,9.9a14.55,14.55,0,0,1-2.21-.15Zm.48,6.58a4.2,4.2,0,0,0,.76.05,3,3,0,0,0,2.29-1,3.55,3.55,0,0,0,.84-2.44,1.87,1.87,0,0,0-2.13-2,4.67,4.67,0,0,0-.74,0Z"/><path class="cls-2" d="M95.94,5A5.42,5.42,0,0,1,94.5,8.81a4.18,4.18,0,0,1-3,1.17A3.14,3.14,0,0,1,88.23,6.6a5.39,5.39,0,0,1,1.49-3.83,4.23,4.23,0,0,1,3-1.15A3.09,3.09,0,0,1,95.94,5ZM91.07,3.67a4.4,4.4,0,0,0-1,2.87c0,1.15.52,2,1.7,2A2,2,0,0,0,93.12,8,4.66,4.66,0,0,0,94.1,5c0-1-.36-2-1.63-2A2,2,0,0,0,91.07,3.67Z"/><path class="cls-2" d="M99.68,4.12A9,9,0,0,1,101.27,4a3.15,3.15,0,0,1,2.1.62,2.24,2.24,0,0,1,.76,1.8,3.36,3.36,0,0,1-1.19,2.65,4.16,4.16,0,0,1-2.75.76,9,9,0,0,1-1.57-.11ZM100,8.79a2.83,2.83,0,0,0,.54,0,2.09,2.09,0,0,0,1.63-.68,2.51,2.51,0,0,0,.6-1.73A1.33,1.33,0,0,0,101.27,5a3.64,3.64,0,0,0-.52,0Z"/><path class="cls-2" d="M108.15,7.34H106.1l-.26,1.39h2.29l-.19,1h-3.53L105.5,4h3.41l-.2,1h-2.17l-.24,1.23h2Z"/><path class="cls-2" d="M62.49,24.38l-1.82,4H57.2L64.65,13h4.2l1.8,15.32H67.22l-.32-4Zm4.27-2.5-.29-3.29c-.07-.84-.16-2.07-.23-3h0c-.38.93-.82,2.11-1.22,3l-1.53,3.29Z"/><path class="cls-2" d="M75.74,13.34a18.71,18.71,0,0,1,4.09-.41,7.9,7.9,0,0,1,4,.89,3.31,3.31,0,0,1,1.7,3,4.48,4.48,0,0,1-3.47,4.31v.09c.9.39,1.29,1.41,1.45,2.8a26.74,26.74,0,0,0,.59,4.34H80.76a24.23,24.23,0,0,1-.46-3.61c-.13-1.87-.77-2.44-2.06-2.44h-1L76.1,28.36H72.85Zm2,6.52h1.37c1.77,0,3.06-1.07,3.06-2.57,0-1.22-1-1.77-2.34-1.77a5.86,5.86,0,0,0-1.27.11Z"/><path class="cls-2" d="M91.48,15.91h-4L88,13H99.39l-.55,2.87H94.75L92.41,28.36H89.14Z"/><path class="cls-2" d="M108.82,21.86h-5.45l-.71,3.7h6.11l-.52,2.8H98.87L101.77,13h9.07l-.54,2.8h-5.78l-.63,3.27h5.45Z"/><path class="cls-2" d="M69.39,46.54a10.62,10.62,0,0,1-4,.65c-4,0-6.77-2.45-6.77-6.49A8.94,8.94,0,0,1,62.43,33a9.61,9.61,0,0,1,5.64-1.64,7.29,7.29,0,0,1,3.34.66l-.89,2.66a6.68,6.68,0,0,0-2.77-.5,5.48,5.48,0,0,0-3.5,1.18,6.23,6.23,0,0,0-2.11,4.93A3.72,3.72,0,0,0,66.2,44.4a8,8,0,0,0,2.91-.5Z"/><path class="cls-2" d="M77.79,31.65l-1.68,8.82A9,9,0,0,0,76,42.29a2.05,2.05,0,0,0,2.23,2.18c1.7,0,2.84-1.14,3.38-4l1.69-8.84h3.27l-1.66,8.71C84,45,81.93,47.22,77.77,47.22c-3.16,0-5.09-1.62-5.09-4.89a11.54,11.54,0,0,1,.23-2.13l1.61-8.55Z"/><path class="cls-2" d="M90,31.65h3.27L90.93,44.1h5.88L96.27,47H87.11Z"/><path class="cls-2" d="M101.63,34.52h-4l.57-2.87h11.38L109,34.52H104.9L102.56,47H99.29Z"/><path class="cls-2" d="M115.12,31.65l-1.68,8.82a9,9,0,0,0-.16,1.82,2.05,2.05,0,0,0,2.23,2.18c1.7,0,2.84-1.14,3.39-4l1.68-8.84h3.27l-1.66,8.71c-.88,4.63-2.93,6.86-7.09,6.86-3.16,0-5.09-1.62-5.09-4.89a11.54,11.54,0,0,1,.23-2.13l1.61-8.55Z"/><path class="cls-2" d="M127.33,32a18.68,18.68,0,0,1,4.08-.41,7.92,7.92,0,0,1,4,.89,3.31,3.31,0,0,1,1.7,3,4.48,4.48,0,0,1-3.48,4.31v.09c.91.39,1.3,1.41,1.46,2.8a26.74,26.74,0,0,0,.59,4.34h-3.36a24.23,24.23,0,0,1-.46-3.62c-.13-1.86-.77-2.43-2.07-2.43h-1l-1.14,6h-3.25Zm2,6.52h1.37c1.77,0,3.06-1.07,3.06-2.57,0-1.22-1-1.77-2.34-1.77a5.86,5.86,0,0,0-1.27.11Z"/><path class="cls-2" d="M142.68,43l-1.81,4h-3.48l7.45-15.32h4.21L150.84,47h-3.43l-.32-4Zm4.28-2.5-.3-3.29c-.07-.84-.16-2.07-.23-3h0c-.39.93-.82,2.11-1.23,3l-1.52,3.29Z"/><path class="cls-2" d="M123.06,23.54h-4.18l-.54,2.84H123l-.4,2.15h-7.2l2.23-11.75h7l-.42,2.15h-4.42l-.49,2.5h4.18Z"/><path class="cls-2" d="M87.12,62.85a12.34,12.34,0,0,1-3.7.64,5.53,5.53,0,0,1-3.82-1.25,4.58,4.58,0,0,1-1.44-3.51,6.69,6.69,0,0,1,2.34-5.21,7.81,7.81,0,0,1,5-1.66,7.71,7.71,0,0,1,3,.51l-.73,2.06A6.17,6.17,0,0,0,85.42,54a4.32,4.32,0,0,0-4.57,4.6,2.64,2.64,0,0,0,2.94,2.87,3.15,3.15,0,0,0,1.24-.2l.46-2.4H83.72l.38-1.95h4.15Z"/><path class="cls-2" d="M101,56.54a7.59,7.59,0,0,1-2,5.38,6,6,0,0,1-4.22,1.64,4.44,4.44,0,0,1-4.64-4.75,7.57,7.57,0,0,1,2.11-5.39,6,6,0,0,1,4.17-1.63C99.36,51.79,101,53.82,101,56.54Zm-6.87-1.86a6.19,6.19,0,0,0-1.43,4c0,1.6.73,2.8,2.39,2.8A2.77,2.77,0,0,0,97,60.7a6.46,6.46,0,0,0,1.39-4.09c0-1.42-.51-2.79-2.3-2.79A2.7,2.7,0,0,0,94.08,54.68Z"/><path class="cls-2" d="M106.57,52l-2.17,11.4H102L104.13,52Z"/><path class="cls-2" d="M110.29,60.42l-1.36,3h-2.6L111.9,52H115l1.34,11.4h-2.56l-.24-3Zm3.19-1.86-.22-2.46c-.05-.62-.12-1.53-.17-2.23h0c-.29.7-.61,1.58-.91,2.23L111,58.56Zm3.12-9.32-2.24,2.13h-2.07l1.59-2.13Z"/><path class="cls-2" d="M118.59,60.74a5.44,5.44,0,0,0,2.7.73c.95,0,1.81-.44,1.81-1.34,0-.64-.49-1.07-1.54-1.61-1.23-.66-2.38-1.54-2.38-3,0-2.3,2-3.71,4.52-3.71a5.38,5.38,0,0,1,2.69.58l-.76,2a4.44,4.44,0,0,0-2.14-.51c-1.13,0-1.73.57-1.73,1.2s.7,1.07,1.67,1.61c1.39.72,2.27,1.65,2.27,3,0,2.53-2.11,3.84-4.65,3.84a5.73,5.73,0,0,1-3.28-.82Z"/><path class="cls-2" d="M59.5,54a15.3,15.3,0,0,1,2.6-.21,5.19,5.19,0,0,1,3.44,1,3.67,3.67,0,0,1,1.25,2.95,5.51,5.51,0,0,1-2,4.34,6.81,6.81,0,0,1-4.51,1.25,17.24,17.24,0,0,1-2.58-.17Zm.56,7.67a5.57,5.57,0,0,0,.88,0,3.46,3.46,0,0,0,2.67-1.1,4.17,4.17,0,0,0,1-2.84,2.19,2.19,0,0,0-2.49-2.37,4.8,4.8,0,0,0-.85.06Z"/><path class="cls-2" d="M73.71,59.25H70.35l-.43,2.28h3.76l-.32,1.72H67.59l1.79-9.43H75l-.34,1.72H71.07l-.39,2H74Z"/></svg>