<svg id="Camada_1" data-name="Camada 1" xmlns="http://www.w3.org/2000/svg" viewBox="0 0 111.03 58.8"><defs><style>.cls-1{fill:#c9c099;}</style></defs><title>Prancheta 12</title><polygon class="cls-1" points="48.56 0 42.53 0 22.85 33.31 28.89 33.31 48.56 0"/><polygon class="cls-1" points="58.08 0 52.05 0 32.38 33.31 38.4 33.31 58.08 0"/><polygon class="cls-1" points="83.46 33.31 62.52 0 41.9 33.31 47.92 33.31 62.68 8.33 77.43 33.31 83.46 33.31"/><polygon class="cls-1" points="73.94 33.63 62.52 16.18 51.52 33.42 57.55 33.42 62.68 24.51 67.91 33.63 73.94 33.63"/><polygon class="cls-1" points="0 47.29 1.38 40.25 3.63 45.34 5.95 40.25 7.19 47.29 6.18 47.29 5.54 43.34 3.61 47.59 1.73 43.34 1.02 47.29 0 47.29"/><path class="cls-1" d="M9.56,40.75v3.94a2.11,2.11,0,0,0,.28,1.23,1.34,1.34,0,0,0,1.16.57,1.34,1.34,0,0,0,1.15-.57,2.07,2.07,0,0,0,.28-1.23V40.75h1V45A2.39,2.39,0,0,1,11,47.41a2.36,2.36,0,0,1-1.78-.75A2.34,2.34,0,0,1,8.57,45V40.75Z"/><path class="cls-1" d="M18.69,41.72l-.8.47a1.4,1.4,0,0,0-.43-.5.92.92,0,0,0-.55-.14,1,1,0,0,0-.68.24.71.71,0,0,0-.27.57c0,.32.23.58.71.77l.65.27a2.79,2.79,0,0,1,1.17.79,1.74,1.74,0,0,1,.37,1.14,2,2,0,0,1-.61,1.48,2.2,2.2,0,0,1-2.91.1,2.35,2.35,0,0,1-.68-1.43l1-.22a1.8,1.8,0,0,0,.24.8,1.11,1.11,0,0,0,1.66.11,1.09,1.09,0,0,0,.3-.78A1,1,0,0,0,17.8,45a.65.65,0,0,0-.16-.29,1.22,1.22,0,0,0-.29-.25,2.73,2.73,0,0,0-.42-.22L16.3,44A1.81,1.81,0,0,1,15,42.35a1.59,1.59,0,0,1,.56-1.23,2.08,2.08,0,0,1,1.41-.5,2,2,0,0,1,1.77,1.1"/><polygon class="cls-1" points="23.66 41.68 21.03 41.68 21.03 43.25 23.58 43.25 23.58 44.17 21.03 44.17 21.03 46.36 23.66 46.36 23.66 47.29 20.05 47.29 20.05 40.75 23.66 40.75 23.66 41.68"/><path class="cls-1" d="M25.94,40.75v3.94a2.19,2.19,0,0,0,.28,1.23,1.34,1.34,0,0,0,1.16.57,1.32,1.32,0,0,0,1.15-.57,2.07,2.07,0,0,0,.28-1.23V40.75h1V45a2.39,2.39,0,0,1-2.42,2.45,2.36,2.36,0,0,1-1.78-.75A2.34,2.34,0,0,1,25,45V40.75Z"/><path class="cls-1" d="M37.89,45.7h-2.8l-.73,1.59H33.3l3.24-7,3.11,7H38.58Zm-.4-.93-1-2.23-1,2.23Z"/><polygon class="cls-1" points="40.48 47.29 40.48 40.3 45.25 45.29 45.25 40.75 46.23 40.75 46.23 47.69 41.47 42.71 41.47 47.29 40.48 47.29"/><polygon class="cls-1" points="49.61 41.68 49.61 47.29 48.62 47.29 48.62 41.68 47.12 41.68 47.12 40.75 51.11 40.75 51.11 41.68 49.61 41.68"/><path class="cls-1" d="M54.21,44.5l2,2.79H55l-1.87-2.68H53v2.68H52V40.75h1.16a2.85,2.85,0,0,1,1.87.49,1.73,1.73,0,0,1,.63,1.42,1.82,1.82,0,0,1-.39,1.2,1.77,1.77,0,0,1-1,.64M53,43.75h.31c.94,0,1.4-.36,1.4-1.07s-.45-1-1.36-1H53Z"/><path class="cls-1" d="M56.74,44a3.22,3.22,0,0,1,1-2.38,3.37,3.37,0,0,1,2.42-1A3.43,3.43,0,0,1,63.59,44a3.18,3.18,0,0,1-1,2.39,3.45,3.45,0,0,1-4.72.11A3.2,3.2,0,0,1,56.74,44m1,0a2.46,2.46,0,0,0,2.41,2.49,2.34,2.34,0,0,0,1.74-.72A2.41,2.41,0,0,0,62.59,44a2.45,2.45,0,0,0-.7-1.76,2.45,2.45,0,0,0-3.45,0A2.38,2.38,0,0,0,57.73,44"/><path class="cls-1" d="M65.81,44.64v2.65h-1V40.75H66a5.24,5.24,0,0,1,1.23.11,1.66,1.66,0,0,1,.75.43,1.86,1.86,0,0,1,.57,1.4,1.78,1.78,0,0,1-.61,1.42,2.43,2.43,0,0,1-1.62.53Zm0-.92h.37c.91,0,1.36-.35,1.36-1s-.46-1-1.4-1h-.33Z"/><path class="cls-1" d="M69.19,44a3.21,3.21,0,0,1,1-2.38,3.37,3.37,0,0,1,2.42-1A3.43,3.43,0,0,1,76,44a3.21,3.21,0,0,1-1,2.39,3.38,3.38,0,0,1-2.45,1,3.34,3.34,0,0,1-2.27-.88A3.2,3.2,0,0,1,69.19,44m1,0a2.42,2.42,0,0,0,4.14,1.77,2.54,2.54,0,0,0,0-3.51,2.31,2.31,0,0,0-1.72-.71,2.34,2.34,0,0,0-1.72.71A2.38,2.38,0,0,0,70.18,44"/><polygon class="cls-1" points="78.26 40.75 78.26 46.36 80.18 46.36 80.18 47.29 77.27 47.29 77.27 40.75 78.26 40.75"/><path class="cls-1" d="M80.53,44a3.21,3.21,0,0,1,1-2.38,3.42,3.42,0,0,1,4.82,0,3.28,3.28,0,0,1,1,2.41,3.2,3.2,0,0,1-1,2.39,3.38,3.38,0,0,1-2.45,1,3.34,3.34,0,0,1-2.27-.88A3.2,3.2,0,0,1,80.53,44m1,0a2.44,2.44,0,0,0,2.41,2.49,2.33,2.33,0,0,0,1.73-.72,2.54,2.54,0,0,0,0-3.51A2.32,2.32,0,0,0,84,41.55,2.41,2.41,0,0,0,81.52,44m3.93-5-1.73,1.17-.47-.39,1.36-1.37Z"/><path class="cls-1" d="M92,43.88h2.71v.22a4.37,4.37,0,0,1-.18,1.31,2.82,2.82,0,0,1-.57,1,3,3,0,0,1-2.32,1,3.19,3.19,0,0,1-2.35-1,3.41,3.41,0,0,1,2.44-5.8,3.36,3.36,0,0,1,1.44.31,4.19,4.19,0,0,1,1.25,1l-.71.67a2.4,2.4,0,0,0-2-1.07,2.34,2.34,0,0,0-1.74.72A2.4,2.4,0,0,0,89.27,44a2.32,2.32,0,0,0,.78,1.8,2.36,2.36,0,0,0,1.6.66A2,2,0,0,0,93,46a1.81,1.81,0,0,0,.65-1.19H92Z"/><rect class="cls-1" x="95.92" y="40.75" width="0.98" height="6.54"/><path class="cls-1" d="M103.31,41.1v1.17a2.73,2.73,0,0,0-1.77-.72,2.24,2.24,0,0,0-1.7.73,2.43,2.43,0,0,0-.7,1.76,2.38,2.38,0,0,0,.7,1.73,2.3,2.3,0,0,0,1.71.72,2.12,2.12,0,0,0,.88-.17,2.25,2.25,0,0,0,.42-.24,3.18,3.18,0,0,0,.46-.34v1.19a3.54,3.54,0,0,1-1.77.48,3.3,3.3,0,0,1-2.4-1,3.24,3.24,0,0,1-1-2.38A3.35,3.35,0,0,1,99,41.82a3.39,3.39,0,0,1,4.33-.72"/><path class="cls-1" d="M104.19,44a3.25,3.25,0,0,1,1-2.38,3.38,3.38,0,0,1,2.43-1A3.43,3.43,0,0,1,111,44a3.17,3.17,0,0,1-1,2.39,3.45,3.45,0,0,1-4.72.11A3.2,3.2,0,0,1,104.19,44m1,0a2.46,2.46,0,0,0,2.41,2.49,2.34,2.34,0,0,0,1.74-.72A2.41,2.41,0,0,0,110,44a2.45,2.45,0,0,0-.7-1.76,2.45,2.45,0,0,0-3.45,0,2.38,2.38,0,0,0-.71,1.74"/><path class="cls-1" d="M.78,53.5v3A1.64,1.64,0,0,0,1,57.4a1,1,0,0,0,.87.42,1,1,0,0,0,.88-.42,1.6,1.6,0,0,0,.2-.93v-3h.75v3.17A1.72,1.72,0,0,1,3.2,58a1.78,1.78,0,0,1-1.34.57A1.79,1.79,0,0,1,.52,58,1.75,1.75,0,0,1,0,56.67V53.5Z"/><polygon class="cls-1" points="4.87 58.43 4.87 53.16 8.47 56.92 8.47 53.5 9.22 53.5 9.22 58.73 5.62 54.98 5.62 58.43 4.87 58.43"/><rect class="cls-1" x="10.4" y="53.5" width="0.74" height="4.93"/><polygon class="cls-1" points="12.58 53.5 13.95 56.91 15.33 53.5 16.14 53.5 13.93 58.8 11.76 53.5 12.58 53.5"/><polygon class="cls-1" points="19.48 54.2 17.5 54.2 17.5 55.38 19.43 55.38 19.43 56.09 17.5 56.09 17.5 57.73 19.48 57.73 19.48 58.43 16.75 58.43 16.75 53.5 19.48 53.5 19.48 54.2"/><path class="cls-1" d="M22.13,56.33l1.53,2.1h-.91l-1.41-2H21.2v2h-.74V53.5h.88a2.11,2.11,0,0,1,1.4.37,1.33,1.33,0,0,1,.49,1.07,1.38,1.38,0,0,1-.31.9,1.34,1.34,0,0,1-.79.49m-.93-.57h.24c.71,0,1.06-.27,1.06-.81s-.34-.75-1-.75H21.2Z"/><path class="cls-1" d="M27.19,54.23l-.6.36a1.13,1.13,0,0,0-.32-.39.87.87,0,0,0-.42-.1.72.72,0,0,0-.51.18.52.52,0,0,0-.2.43c0,.24.17.44.53.59l.49.2a2.08,2.08,0,0,1,.88.59,1.31,1.31,0,0,1,.28.86,1.52,1.52,0,0,1-.45,1.13,1.61,1.61,0,0,1-1.14.44,1.55,1.55,0,0,1-1.06-.38,1.72,1.72,0,0,1-.51-1.07l.75-.17a1.29,1.29,0,0,0,.18.61.77.77,0,0,0,.67.31.8.8,0,0,0,.58-.23.82.82,0,0,0,.23-.59.77.77,0,0,0,0-.27.72.72,0,0,0-.12-.21,1.07,1.07,0,0,0-.22-.2,1.91,1.91,0,0,0-.32-.16l-.48-.2c-.67-.29-1-.71-1-1.25a1.21,1.21,0,0,1,.43-.93,1.5,1.5,0,0,1,1.06-.38,1.48,1.48,0,0,1,1.33.83"/><rect class="cls-1" x="28.22" y="53.5" width="0.75" height="4.93"/><path class="cls-1" d="M30.15,58.43V53.5h1a3.73,3.73,0,0,1,1.17.14,2.24,2.24,0,0,1,.84.49,2.54,2.54,0,0,1,0,3.67,2.2,2.2,0,0,1-.84.49,3.54,3.54,0,0,1-1.16.14Zm.74-.7h.34a2.81,2.81,0,0,0,.83-.1,1.79,1.79,0,0,0,.61-.36A1.7,1.7,0,0,0,33.21,56a1.66,1.66,0,0,0-.54-1.31,2,2,0,0,0-1.44-.45h-.34Z"/><path class="cls-1" d="M37.56,57.23H35.45l-.55,1.2h-.81l2.45-5.24,2.35,5.24h-.81Zm-.3-.7-.74-1.68-.76,1.68Z"/><path class="cls-1" d="M39.51,58.43V53.5h1a3.72,3.72,0,0,1,1.18.14,2.24,2.24,0,0,1,.84.49,2.54,2.54,0,0,1,0,3.67,2.24,2.24,0,0,1-.83.49,3.65,3.65,0,0,1-1.17.14Zm.75-.7h.33a2.81,2.81,0,0,0,.83-.1,1.66,1.66,0,0,0,.6-.36A1.68,1.68,0,0,0,42.58,56,1.7,1.7,0,0,0,42,54.65a2,2,0,0,0-1.44-.45h-.33Z"/><polygon class="cls-1" points="46.99 54.2 45.01 54.2 45.01 55.38 46.93 55.38 46.93 56.09 45.01 56.09 45.01 57.73 46.99 57.73 46.99 58.43 44.27 58.43 44.27 53.5 46.99 53.5 46.99 54.2"/><polygon class="cls-1" points="52.45 54.2 50.73 54.2 50.73 55.38 52.39 55.38 52.39 56.09 50.73 56.09 50.73 58.43 49.99 58.43 49.99 53.5 52.45 53.5 52.45 54.2"/><polygon class="cls-1" points="56.03 54.2 54.06 54.2 54.06 55.38 55.98 55.38 55.98 56.09 54.06 56.09 54.06 57.73 56.03 57.73 56.03 58.43 53.31 58.43 53.31 53.5 56.03 53.5 56.03 54.2"/><path class="cls-1" d="M57,58.43V53.5h1a3.65,3.65,0,0,1,1.17.14,2.28,2.28,0,0,1,.85.49,2.56,2.56,0,0,1,0,3.67,2.28,2.28,0,0,1-.84.49,3.54,3.54,0,0,1-1.16.14Zm.75-.7h.34a2.81,2.81,0,0,0,.83-.1,1.85,1.85,0,0,0,.6-.36A1.67,1.67,0,0,0,60.08,56a1.7,1.7,0,0,0-.54-1.31,2.07,2.07,0,0,0-1.44-.45h-.34Z"/><polygon class="cls-1" points="64.49 54.2 62.52 54.2 62.52 55.38 64.43 55.38 64.43 56.09 62.52 56.09 62.52 57.73 64.49 57.73 64.49 58.43 61.77 58.43 61.77 53.5 64.49 53.5 64.49 54.2"/><path class="cls-1" d="M67.14,56.33l1.53,2.1h-.91l-1.41-2h-.14v2h-.74V53.5h.87a2.15,2.15,0,0,1,1.41.37,1.33,1.33,0,0,1,.49,1.07,1.38,1.38,0,0,1-.3.9,1.4,1.4,0,0,1-.8.49m-.93-.57h.24c.7,0,1.06-.27,1.06-.81s-.35-.75-1-.75h-.27Z"/><path class="cls-1" d="M72.31,57.23H70.2l-.55,1.2h-.81l2.45-5.24,2.36,5.24h-.82Zm-.3-.7-.73-1.68-.77,1.68Z"/><polygon class="cls-1" points="75.01 53.5 75.01 57.73 76.46 57.73 76.46 58.43 74.26 58.43 74.26 53.5 75.01 53.5"/><path class="cls-1" d="M79.18,58.43V53.5h1a3.8,3.8,0,0,1,1.18.14,2.28,2.28,0,0,1,.83.49,2.54,2.54,0,0,1,0,3.67,2.17,2.17,0,0,1-.83.49,3.58,3.58,0,0,1-1.16.14Zm.75-.7h.34a2.86,2.86,0,0,0,.83-.1,1.85,1.85,0,0,0,.6-.36A1.7,1.7,0,0,0,82.25,56a1.67,1.67,0,0,0-.55-1.31,2,2,0,0,0-1.43-.45h-.34Z"/><polygon class="cls-1" points="86.66 54.2 84.68 54.2 84.68 55.38 86.6 55.38 86.6 56.09 84.68 56.09 84.68 57.73 86.66 57.73 86.66 58.43 83.94 58.43 83.94 53.5 86.66 53.5 86.66 54.2"/><path class="cls-1" d="M92.2,55.86h2V56a3.33,3.33,0,0,1-.14,1,2,2,0,0,1-.42.74,2.25,2.25,0,0,1-1.75.77,2.39,2.39,0,0,1-1.78-.75,2.6,2.6,0,0,1,0-3.62A2.52,2.52,0,0,1,92,53.4a2.58,2.58,0,0,1,1.08.23,3.25,3.25,0,0,1,1,.77l-.53.52A1.81,1.81,0,0,0,92,54.1a1.77,1.77,0,0,0-1.31.54A1.82,1.82,0,0,0,90.16,56a1.76,1.76,0,0,0,.59,1.36,1.78,1.78,0,0,0,1.2.5,1.5,1.5,0,0,0,1-.38,1.3,1.3,0,0,0,.49-.89H92.2Z"/><path class="cls-1" d="M94.93,55.94a2.42,2.42,0,0,1,.76-1.79,2.51,2.51,0,0,1,1.83-.74A2.58,2.58,0,0,1,100.09,56a2.4,2.4,0,0,1-.77,1.8,2.51,2.51,0,0,1-1.84.75,2.56,2.56,0,0,1-1.72-.66,2.45,2.45,0,0,1-.83-1.92m.75,0a1.77,1.77,0,0,0,.55,1.35,1.75,1.75,0,0,0,1.26.52,1.72,1.72,0,0,0,1.31-.54,1.9,1.9,0,0,0,0-2.64A1.83,1.83,0,0,0,95.68,56"/><rect class="cls-1" x="101.02" y="53.5" width="0.75" height="4.93"/><path class="cls-1" d="M105.85,57.23h-2.11l-.55,1.2h-.8l2.44-5.24,2.36,5.24h-.82Zm-.3-.7-.73-1.68-.77,1.68Zm.41-4.36-1.3.88-.35-.3,1-1Z"/><path class="cls-1" d="M110.6,54.23l-.61.36a1,1,0,0,0-.32-.39.87.87,0,0,0-.42-.1.76.76,0,0,0-.51.18.52.52,0,0,0-.2.43c0,.24.17.44.53.59l.5.2a2.11,2.11,0,0,1,.87.59,1.31,1.31,0,0,1,.28.86,1.52,1.52,0,0,1-.45,1.13,1.59,1.59,0,0,1-1.14.44,1.53,1.53,0,0,1-1.06-.38,1.84,1.84,0,0,1-.52-1.07l.76-.17a1.29,1.29,0,0,0,.18.61.77.77,0,0,0,.67.31.8.8,0,0,0,.58-.23A.78.78,0,0,0,110,57a.77.77,0,0,0,0-.27.55.55,0,0,0-.12-.21,1.42,1.42,0,0,0-.22-.2,1.91,1.91,0,0,0-.32-.16l-.48-.2c-.67-.29-1-.71-1-1.25a1.2,1.2,0,0,1,.42-.93,1.52,1.52,0,0,1,1.06-.38,1.49,1.49,0,0,1,1.34.83"/></svg>