<svg id="Camada_1" data-name="Camada 1" xmlns="http://www.w3.org/2000/svg" viewBox="0 0 180.24 34.05"><defs><style>.cls-1,.cls-2{fill:#c9c099;}.cls-1{fill-rule:evenodd;}</style></defs><title>Prancheta 18</title><polygon class="cls-1" points="113.84 13.64 118.11 16.07 118.15 20.97 113.91 23.46 109.64 21.03 109.61 16.13 113.84 13.64 113.84 13.64"/><polygon class="cls-1" points="109.18 34.05 114.24 31.08 114.2 25.21 109.1 22.31 104.03 25.28 104.08 31.16 109.18 34.05 109.18 34.05"/><polygon class="cls-1" points="99.9 23.79 103.2 25.66 103.23 29.46 99.95 31.38 96.65 29.5 96.62 25.71 99.9 23.79 99.9 23.79"/><polygon class="cls-1" points="91.89 13.67 96.96 16.54 96.99 22.37 91.98 25.32 86.91 22.44 86.87 16.62 91.89 13.67 91.89 13.67"/><polygon class="cls-1" points="97.02 5.86 101.12 8.19 101.15 12.9 97.09 15.29 92.99 12.95 92.96 8.25 97.02 5.86 97.02 5.86"/><polygon class="cls-1" points="109.5 15.23 116.06 11.38 116.01 3.76 109.39 0 102.81 3.85 102.87 11.47 109.5 15.23 109.5 15.23"/><path class="cls-2" d="M127.2,5.86V18.54c0,3.83,1.47,5.76,4,5.76s4.06-1.83,4.06-5.76V5.86h5V18.24c0,6.82-3.44,10.06-9.21,10.06-5.57,0-8.81-3.12-8.81-10.12V5.86Z"/><path class="cls-2" d="M144.58,5.86H158V10h-8.48v5h7.92v4.06h-7.92v8.88h-5Z"/><path class="cls-2" d="M180.24,26.92a24.82,24.82,0,0,1-7.36,1.24c-4,0-6.95-1-9-2.94a11,11,0,0,1-3.11-8.06c0-7.33,5.37-11.53,12.61-11.53a15.89,15.89,0,0,1,6.12,1l-1.05,4a11.5,11.5,0,0,0-5.11-1c-4.15,0-7.33,2.36-7.33,7.14,0,4.59,2.88,7.23,7,7.23a7.91,7.91,0,0,0,2.42-.28V19.19H172v-3.9h8.21Z"/><path class="cls-2" d="M16.81,27.38a14.37,14.37,0,0,1-5.67,1C4.21,28.35,0,24,0,17.34,0,10.15,5,5.81,11.69,5.81a12.4,12.4,0,0,1,5.28,1L16.12,10a10.6,10.6,0,0,0-4.27-.85c-4.44,0-7.64,2.78-7.64,8C4.21,22,7,25,11.82,25a12.2,12.2,0,0,0,4.34-.78Z"/><path class="cls-2" d="M27.43,6.17V28h-4V6.17Z"/><path class="cls-2" d="M39.61,21.81,37.73,28H33.62l7-21.82H45.7L52.79,28H48.48l-2-6.18Zm6.25-3-1.72-5.38c-.42-1.33-.77-2.81-1.1-4.08H43c-.33,1.27-.69,2.78-1,4.08L40.26,18.8Z"/><path class="cls-2" d="M59.07,6.49a34.28,34.28,0,0,1,6-.49c3.14,0,5.25.52,6.74,1.75a5.56,5.56,0,0,1,1.88,4.41,5.74,5.74,0,0,1-4,5.44v.1c1.58.58,2.52,2.1,3,4.21A54.36,54.36,0,0,0,74.49,28H70.41A27.65,27.65,0,0,1,69,22.84C68.3,20,67.3,19.09,65,19H63v9h-4Zm4,9.62h2.37c2.68,0,4.34-1.43,4.34-3.6,0-2.36-1.66-3.5-4.25-3.5a11.16,11.16,0,0,0-2.46.2Z"/></svg>