<svg id="Camada_1" data-name="Camada 1" xmlns="http://www.w3.org/2000/svg" viewBox="0 0 208.2 43.26"><defs><style>.cls-1{fill:#c9c099;}</style></defs><title>Prancheta 14</title><path class="cls-1" d="M50.53,8.33a.58.58,0,0,1-.05.26.64.64,0,0,1-.13.19.7.7,0,0,1-.21.11.91.91,0,0,1-.23,0h-.72a1.48,1.48,0,0,1-.38,0,.87.87,0,0,1-.3-.16,1.44,1.44,0,0,1-.26-.32A5.45,5.45,0,0,1,48,7.88L45.92,4c-.12-.23-.24-.47-.36-.74a7.13,7.13,0,0,1-.33-.77h0c0,.3,0,.61,0,.91s0,.62,0,.94V8.67a.21.21,0,0,1,0,.12.31.31,0,0,1-.12.09l-.23,0L44.5,9l-.36,0a.89.89,0,0,1-.23,0,.31.31,0,0,1-.12-.09.21.21,0,0,1,0-.12V1.29a.54.54,0,0,1,.17-.44A.64.64,0,0,1,44.36.7h.9a1.49,1.49,0,0,1,.4,0,.81.81,0,0,1,.3.13,1.05,1.05,0,0,1,.24.27,3,3,0,0,1,.24.41l1.6,3,.27.53c.1.18.18.35.27.53l.25.52.23.5h0c0-.29,0-.6,0-.92s0-.63,0-.92V.94a.15.15,0,0,1,0-.11.41.41,0,0,1,.12-.09.72.72,0,0,1,.24-.05l.37,0,.37,0a.6.6,0,0,1,.22.05.35.35,0,0,1,.11.09.2.2,0,0,1,0,.11Z"/><path class="cls-1" d="M57.29,8.75a.13.13,0,0,1,0,.09.18.18,0,0,1-.08.06l-.15,0h-.46l-.15,0a.22.22,0,0,1-.07-.06.24.24,0,0,1,0-.09V8a3.43,3.43,0,0,1-1,.78,2,2,0,0,1-1,.25,2.13,2.13,0,0,1-1-.19,1.7,1.7,0,0,1-.63-.52,2.12,2.12,0,0,1-.35-.76,4.59,4.59,0,0,1-.1-1.06V3a.24.24,0,0,1,0-.09.23.23,0,0,1,.09-.06l.16,0h.51a.53.53,0,0,1,.16,0L53.4,3a.24.24,0,0,1,0,.09V6.36a4.19,4.19,0,0,0,.07.81,1.5,1.5,0,0,0,.23.51,1.06,1.06,0,0,0,.37.33,1.16,1.16,0,0,0,.54.12,1.31,1.31,0,0,0,.78-.28A4.53,4.53,0,0,0,56.24,7V3a.24.24,0,0,1,0-.09l.09-.06.16,0H57l.16,0,.09.06a.24.24,0,0,1,0,.09ZM55.36.25l.09-.12.13-.07.18,0H56l.29,0a.35.35,0,0,1,.15.07.11.11,0,0,1,0,.09.15.15,0,0,1-.06.11L55.29,1.78a.45.45,0,0,1-.09.1.24.24,0,0,1-.09.06L55,2h-.44l-.12-.05a.1.1,0,0,1,0-.09.51.51,0,0,1,0-.12Z"/><path class="cls-1" d="M63.34,7.88c0,.07,0,.14,0,.19a.44.44,0,0,1,0,.13.3.3,0,0,1,0,.1.44.44,0,0,1-.1.12,1.19,1.19,0,0,1-.27.19,2.46,2.46,0,0,1-.43.21A2.1,2.1,0,0,1,62,9a2.69,2.69,0,0,1-.57.06,2.88,2.88,0,0,1-1.1-.2,2.13,2.13,0,0,1-.79-.6,2.6,2.6,0,0,1-.49-1A4.75,4.75,0,0,1,58.83,6,4.48,4.48,0,0,1,59,4.51a2.64,2.64,0,0,1,.56-1A2.13,2.13,0,0,1,60.45,3a2.76,2.76,0,0,1,1-.19,3.17,3.17,0,0,1,.53.05,3.22,3.22,0,0,1,.47.13,2.69,2.69,0,0,1,.38.19,2.58,2.58,0,0,1,.25.19l.1.12a.31.31,0,0,1,.05.1l0,.14v.19a.73.73,0,0,1-.06.35.15.15,0,0,1-.14.09.33.33,0,0,1-.21-.1A3.38,3.38,0,0,0,62.58,4a2.19,2.19,0,0,0-.46-.23,1.75,1.75,0,0,0-.64-.11,1.3,1.3,0,0,0-1.15.58,3,3,0,0,0-.41,1.69,4,4,0,0,0,.11,1,2.18,2.18,0,0,0,.3.69,1.33,1.33,0,0,0,.5.42,1.62,1.62,0,0,0,.68.13A1.73,1.73,0,0,0,62.14,8a3.05,3.05,0,0,0,.48-.25L63,7.51a.41.41,0,0,1,.22-.11l.07,0a.35.35,0,0,1,.06.09s0,.09,0,.15S63.34,7.8,63.34,7.88Z"/><path class="cls-1" d="M65.77,8.75a.13.13,0,0,1,0,.09l-.08.06-.16,0H65l-.16,0a.18.18,0,0,1-.08-.06.13.13,0,0,1,0-.09V.27a.15.15,0,0,1,0-.09.18.18,0,0,1,.08-.06l.16,0h.52l.16,0,.08.06a.15.15,0,0,1,0,.09Z"/><path class="cls-1" d="M72.59,5.65a.45.45,0,0,1-.13.35.42.42,0,0,1-.28.1H68.41a3.69,3.69,0,0,0,.1.86,1.69,1.69,0,0,0,.32.66,1.36,1.36,0,0,0,.58.41,2.26,2.26,0,0,0,.87.15A3.17,3.17,0,0,0,71,8.11,3.08,3.08,0,0,0,71.56,8,2.68,2.68,0,0,0,72,7.81a.66.66,0,0,1,.22-.06l.08,0,.06.07a.37.37,0,0,1,0,.12,1.09,1.09,0,0,1,0,.19V8.3s0,.07,0,.11a.11.11,0,0,1,0,.08.13.13,0,0,1-.06.07.81.81,0,0,1-.2.12,3.92,3.92,0,0,1-.45.15A6.07,6.07,0,0,1,71,9a4.59,4.59,0,0,1-.76.06A3.58,3.58,0,0,1,69,8.83a2.26,2.26,0,0,1-.89-.58,2.62,2.62,0,0,1-.55-1,4.62,4.62,0,0,1-.18-1.36,4.17,4.17,0,0,1,.19-1.32,2.84,2.84,0,0,1,.55-1A2.5,2.5,0,0,1,68.94,3a2.88,2.88,0,0,1,1.13-.22A2.68,2.68,0,0,1,71.22,3a2.2,2.2,0,0,1,1.22,1.44,3.51,3.51,0,0,1,.15,1Zm-1.06-.31A1.92,1.92,0,0,0,71.16,4,1.39,1.39,0,0,0,70,3.57a1.52,1.52,0,0,0-.69.15,1.41,1.41,0,0,0-.49.38,1.82,1.82,0,0,0-.3.57,2.1,2.1,0,0,0-.13.67Z"/><path class="cls-1" d="M79.49,5.83a4.37,4.37,0,0,1-.18,1.29,3,3,0,0,1-.55,1,2.5,2.5,0,0,1-.92.66A3.13,3.13,0,0,1,76.57,9a3.3,3.3,0,0,1-1.23-.21,2.18,2.18,0,0,1-.87-.61,2.51,2.51,0,0,1-.52-1A4.63,4.63,0,0,1,73.78,6,4.37,4.37,0,0,1,74,4.66a2.67,2.67,0,0,1,.55-1A2.26,2.26,0,0,1,75.42,3a3.13,3.13,0,0,1,1.27-.24A3.3,3.3,0,0,1,77.92,3a2.18,2.18,0,0,1,.87.61,2.6,2.6,0,0,1,.53,1A4.63,4.63,0,0,1,79.49,5.83Zm-1.08.07A4,4,0,0,0,78.32,5,2.07,2.07,0,0,0,78,4.3a1.39,1.39,0,0,0-.53-.49,1.81,1.81,0,0,0-.85-.18,1.78,1.78,0,0,0-.8.16,1.5,1.5,0,0,0-.56.47A2.2,2.2,0,0,0,75,5a3.72,3.72,0,0,0-.11.91,4.17,4.17,0,0,0,.09.88,2.1,2.1,0,0,0,.29.72,1.42,1.42,0,0,0,.54.49,1.81,1.81,0,0,0,.85.18,1.85,1.85,0,0,0,.8-.17A1.45,1.45,0,0,0,78,7.52a1.84,1.84,0,0,0,.32-.71A3.72,3.72,0,0,0,78.41,5.9Z"/><path class="cls-1" d="M88.87,8.75a.14.14,0,0,1,0,.09.11.11,0,0,1-.07.06l-.14,0h-.44L88,8.9A.12.12,0,0,1,88,8.84a.14.14,0,0,1,0-.09V8a4,4,0,0,1-.93.76A2.18,2.18,0,0,1,85.93,9a2.25,2.25,0,0,1-1.07-.24,2.28,2.28,0,0,1-.72-.66,3,3,0,0,1-.4-1A5.11,5.11,0,0,1,83.61,6a5,5,0,0,1,.16-1.33,3,3,0,0,1,.47-1A2.07,2.07,0,0,1,85,3a2.39,2.39,0,0,1,1.06-.23A2,2,0,0,1,87,3a3.16,3.16,0,0,1,.82.65V.3a.16.16,0,0,1,0-.09.1.1,0,0,1,.08-.06.62.62,0,0,1,.16,0l.25,0,.26,0,.16,0a.15.15,0,0,1,.09.06.16.16,0,0,1,0,.09Zm-1.06-4a3.81,3.81,0,0,0-.82-.8,1.45,1.45,0,0,0-.83-.28,1.26,1.26,0,0,0-.68.19,1.59,1.59,0,0,0-.45.51,2.15,2.15,0,0,0-.25.7,3.56,3.56,0,0,0-.08.8,5.73,5.73,0,0,0,.06.84,3.06,3.06,0,0,0,.23.74,1.46,1.46,0,0,0,.44.51,1.17,1.17,0,0,0,.69.2,1.34,1.34,0,0,0,.4-.06,1.6,1.6,0,0,0,.4-.19,3.11,3.11,0,0,0,.42-.35A4.14,4.14,0,0,0,87.81,7Z"/><path class="cls-1" d="M95.68,5.65a.42.42,0,0,1-.13.35.4.4,0,0,1-.28.1H91.51A3.72,3.72,0,0,0,91.6,7a1.84,1.84,0,0,0,.32.66A1.36,1.36,0,0,0,92.5,8a2.28,2.28,0,0,0,.88.15,3.14,3.14,0,0,0,.72-.07A3.21,3.21,0,0,0,94.66,8,3,3,0,0,0,95,7.81a.66.66,0,0,1,.22-.06l.08,0a.13.13,0,0,1,.06.07l0,.12s0,.12,0,.19,0,.11,0,.15a.43.43,0,0,1,0,.11.11.11,0,0,1,0,.08.18.18,0,0,1,0,.07,1.33,1.33,0,0,1-.21.12,3.16,3.16,0,0,1-.44.15c-.19.05-.4.1-.64.14a4.59,4.59,0,0,1-.76.06A3.62,3.62,0,0,1,92,8.83a2.26,2.26,0,0,1-.89-.58,2.47,2.47,0,0,1-.54-1,4.3,4.3,0,0,1-.19-1.36,4.47,4.47,0,0,1,.19-1.32,2.84,2.84,0,0,1,.55-1A2.5,2.5,0,0,1,92,3a3,3,0,0,1,1.13-.22A2.68,2.68,0,0,1,94.31,3a2.19,2.19,0,0,1,.78.58,2.43,2.43,0,0,1,.45.86,3.86,3.86,0,0,1,.14,1Zm-1.06-.31A1.92,1.92,0,0,0,94.26,4a1.41,1.41,0,0,0-1.15-.47,1.45,1.45,0,0,0-.68.15,1.32,1.32,0,0,0-.49.38,1.66,1.66,0,0,0-.31.57,2.41,2.41,0,0,0-.12.67Z"/><path class="cls-1" d="M105,8.26a2.63,2.63,0,0,1,0,.3.72.72,0,0,1,0,.2.36.36,0,0,1-.08.12.19.19,0,0,1-.1,0h-4.13a.47.47,0,0,1-.5-.53V1.22a.49.49,0,0,1,.15-.4.51.51,0,0,1,.35-.12h4.1a.17.17,0,0,1,.1,0,.24.24,0,0,1,.08.11.88.88,0,0,1,0,.2,1.47,1.47,0,0,1,0,.32,1.37,1.37,0,0,1,0,.3.88.88,0,0,1,0,.2.24.24,0,0,1-.08.11.17.17,0,0,1-.1,0H101.8V4h2.48a.17.17,0,0,1,.1,0,.23.23,0,0,1,.08.11.83.83,0,0,1,.05.2,2.36,2.36,0,0,1,0,.3,2.54,2.54,0,0,1,0,.31.74.74,0,0,1-.05.19.16.16,0,0,1-.08.1.18.18,0,0,1-.1,0H101.8V7.6h3a.14.14,0,0,1,.1,0,.24.24,0,0,1,.08.11.83.83,0,0,1,0,.2A2.73,2.73,0,0,1,105,8.26Z"/><path class="cls-1" d="M110.14,7.2A1.94,1.94,0,0,1,110,8a1.61,1.61,0,0,1-.46.57,2.07,2.07,0,0,1-.71.36,3.28,3.28,0,0,1-.91.12,3.48,3.48,0,0,1-.58,0,3.06,3.06,0,0,1-.5-.12l-.37-.15a.93.93,0,0,1-.22-.14.35.35,0,0,1-.1-.18,1.23,1.23,0,0,1,0-.31,1,1,0,0,1,0-.2c0-.06,0-.1,0-.14a.13.13,0,0,1,0-.07.12.12,0,0,1,.08,0,.51.51,0,0,1,.21.08l.33.19a3.69,3.69,0,0,0,.48.19,2.35,2.35,0,0,0,.63.08,2.44,2.44,0,0,0,.48,0,1.26,1.26,0,0,0,.37-.17.78.78,0,0,0,.25-.29,1,1,0,0,0,.08-.4.69.69,0,0,0-.12-.41,1.18,1.18,0,0,0-.33-.29,3.14,3.14,0,0,0-.45-.23l-.53-.2a4.22,4.22,0,0,1-.53-.25,2.15,2.15,0,0,1-.46-.33,1.56,1.56,0,0,1-.32-.47,1.6,1.6,0,0,1-.13-.65,1.79,1.79,0,0,1,.13-.65,1.69,1.69,0,0,1,.39-.54,2.19,2.19,0,0,1,.66-.37,2.76,2.76,0,0,1,.91-.14,3.42,3.42,0,0,1,.45,0l.42.1a1.83,1.83,0,0,1,.31.12.87.87,0,0,1,.2.12l.09.09,0,.08a.74.74,0,0,0,0,.12c0,.05,0,.1,0,.17s0,.13,0,.19l0,.13a.22.22,0,0,1-.06.07.08.08,0,0,1-.07,0,.3.3,0,0,1-.16-.07l-.28-.15-.41-.15a2.09,2.09,0,0,0-.53-.06,1.41,1.41,0,0,0-.47.06.86.86,0,0,0-.33.17.73.73,0,0,0-.2.26.88.88,0,0,0-.06.33.72.72,0,0,0,.12.42,1.32,1.32,0,0,0,.33.29,2.57,2.57,0,0,0,.47.23l.53.21a5.05,5.05,0,0,1,.53.24,2.29,2.29,0,0,1,.47.32,1.52,1.52,0,0,1,.32.46A1.41,1.41,0,0,1,110.14,7.2Z"/><path class="cls-1" d="M114.46,8.33a2,2,0,0,1,0,.29.34.34,0,0,1-.08.16.44.44,0,0,1-.15.1L114,9,113.7,9l-.29,0a2.13,2.13,0,0,1-.76-.12,1.25,1.25,0,0,1-.53-.36,1.4,1.4,0,0,1-.29-.6,3.6,3.6,0,0,1-.09-.86V3.74h-.8a.15.15,0,0,1-.15-.1.69.69,0,0,1-.06-.33,1.15,1.15,0,0,1,0-.2.46.46,0,0,1,.05-.14.11.11,0,0,1,.06-.07.16.16,0,0,1,.09,0h.8V1.51a.13.13,0,0,1,0-.08.13.13,0,0,1,.08-.06l.16-.05h.52a.5.5,0,0,1,.16.05.17.17,0,0,1,.08.06.16.16,0,0,1,0,.08V2.87h1.46a.14.14,0,0,1,.09,0,.16.16,0,0,1,.07.07.47.47,0,0,1,0,.14,1.15,1.15,0,0,1,0,.2.69.69,0,0,1-.06.33.16.16,0,0,1-.15.1h-1.46V6.93a1.78,1.78,0,0,0,.17.89.66.66,0,0,0,.62.3,1.12,1.12,0,0,0,.27,0,.66.66,0,0,0,.2-.06L114.2,8a.23.23,0,0,1,.11,0h.07a.15.15,0,0,1,0,.06,1,1,0,0,1,0,.12A1.09,1.09,0,0,1,114.46,8.33Z"/><path class="cls-1" d="M120.74,8.75a.24.24,0,0,1,0,.09.28.28,0,0,1-.08.06l-.15,0H120l-.14,0a.14.14,0,0,1-.07-.06.13.13,0,0,1,0-.09V8a3.46,3.46,0,0,1-1,.78,2,2,0,0,1-1,.25,2.21,2.21,0,0,1-1-.19,1.78,1.78,0,0,1-.63-.52,2.11,2.11,0,0,1-.34-.76,4.54,4.54,0,0,1-.11-1.06V3a.14.14,0,0,1,0-.09.18.18,0,0,1,.08-.06.61.61,0,0,1,.17,0h.5a.61.61,0,0,1,.17,0l.08.06a.14.14,0,0,1,0,.09V6.36a3.52,3.52,0,0,0,.07.81,1.49,1.49,0,0,0,.22.51,1.1,1.1,0,0,0,.38.33,1.12,1.12,0,0,0,.53.12,1.34,1.34,0,0,0,.79-.28,4.51,4.51,0,0,0,.82-.82V3a.14.14,0,0,1,0-.09.18.18,0,0,1,.08-.06l.16,0h.52a.46.46,0,0,1,.15,0l.09.06a.14.14,0,0,1,0,.09Z"/><path class="cls-1" d="M127.57,8.75a.24.24,0,0,1,0,.09.12.12,0,0,1-.08.06l-.14,0h-.44l-.15,0a.16.16,0,0,1-.08-.06.13.13,0,0,1,0-.09V8a4,4,0,0,1-.94.76,2.14,2.14,0,0,1-1.06.27,2,2,0,0,1-1.8-.9,3,3,0,0,1-.4-1A5.71,5.71,0,0,1,122.31,6a5.45,5.45,0,0,1,.16-1.33,3,3,0,0,1,.47-1,2.15,2.15,0,0,1,.77-.64,2.41,2.41,0,0,1,1.07-.23,2,2,0,0,1,.91.22,3.37,3.37,0,0,1,.83.65V.3a.15.15,0,0,1,0-.09.1.1,0,0,1,.08-.06l.16,0,.26,0,.26,0a.46.46,0,0,1,.15,0,.15.15,0,0,1,.09.06.16.16,0,0,1,0,.09Zm-1-4a4.07,4.07,0,0,0-.83-.8,1.45,1.45,0,0,0-.83-.28,1.2,1.2,0,0,0-.67.19,1.51,1.51,0,0,0-.46.51,2.41,2.41,0,0,0-.25.7,3.56,3.56,0,0,0-.08.8,4.61,4.61,0,0,0,.07.84,2.38,2.38,0,0,0,.23.74,1.43,1.43,0,0,0,.43.51,1.19,1.19,0,0,0,.69.2,1.34,1.34,0,0,0,.4-.06,1.6,1.6,0,0,0,.4-.19,3.15,3.15,0,0,0,.43-.35,6.6,6.6,0,0,0,.47-.52Z"/><path class="cls-1" d="M134.82,5.83a4.06,4.06,0,0,1-.19,1.29,2.67,2.67,0,0,1-.55,1,2.46,2.46,0,0,1-.91.66A3.16,3.16,0,0,1,131.9,9a3.3,3.3,0,0,1-1.23-.21,2.18,2.18,0,0,1-.87-.61,2.39,2.39,0,0,1-.52-1A4.28,4.28,0,0,1,129.1,6a4.37,4.37,0,0,1,.19-1.29,2.8,2.8,0,0,1,.54-1,2.4,2.4,0,0,1,.91-.66A3.18,3.18,0,0,1,132,2.75a3.3,3.3,0,0,1,1.23.21,2.18,2.18,0,0,1,.87.61,2.59,2.59,0,0,1,.52,1A4.28,4.28,0,0,1,134.82,5.83Zm-1.09.07a4.77,4.77,0,0,0-.08-.87,2.28,2.28,0,0,0-.29-.73,1.35,1.35,0,0,0-.54-.49,1.77,1.77,0,0,0-.84-.18,1.86,1.86,0,0,0-.81.16,1.47,1.47,0,0,0-.55.47,2,2,0,0,0-.32.71,3.72,3.72,0,0,0-.11.91,4.17,4.17,0,0,0,.09.88,2.08,2.08,0,0,0,.28.72,1.53,1.53,0,0,0,.55.49,1.74,1.74,0,0,0,.84.18,1.78,1.78,0,0,0,.8-.17,1.48,1.48,0,0,0,.56-.46,2.2,2.2,0,0,0,.32-.71A3.73,3.73,0,0,0,133.73,5.9Z"/><path class="cls-1" d="M140,7.2a1.79,1.79,0,0,1-.17.78,1.42,1.42,0,0,1-.46.57,1.9,1.9,0,0,1-.71.36,3.16,3.16,0,0,1-.9.12,3.48,3.48,0,0,1-.58,0,3.06,3.06,0,0,1-.5-.12,2.81,2.81,0,0,1-.37-.15.93.93,0,0,1-.22-.14.46.46,0,0,1-.11-.18,1.3,1.3,0,0,1,0-.31,1,1,0,0,1,0-.2.29.29,0,0,1,0-.14.13.13,0,0,1,.05-.07.11.11,0,0,1,.08,0,.51.51,0,0,1,.21.08l.33.19a3.2,3.2,0,0,0,.48.19,2.33,2.33,0,0,0,.62.08,2.46,2.46,0,0,0,.49,0,1.26,1.26,0,0,0,.37-.17.78.78,0,0,0,.25-.29,1,1,0,0,0,.08-.4.69.69,0,0,0-.12-.41,1.18,1.18,0,0,0-.33-.29,3.28,3.28,0,0,0-.46-.23l-.52-.2A4.22,4.22,0,0,1,137,5.9a2.15,2.15,0,0,1-.46-.33,1.56,1.56,0,0,1-.32-.47,1.45,1.45,0,0,1-.13-.65,1.79,1.79,0,0,1,.13-.65,1.69,1.69,0,0,1,.39-.54,2.26,2.26,0,0,1,.65-.37,2.81,2.81,0,0,1,.91-.14,3.42,3.42,0,0,1,.46,0,3.52,3.52,0,0,1,.41.1,1.66,1.66,0,0,1,.32.12.87.87,0,0,1,.2.12.22.22,0,0,1,.08.09.2.2,0,0,1,0,.08s0,.07,0,.12a.86.86,0,0,1,0,.17,1.15,1.15,0,0,1,0,.19.28.28,0,0,1,0,.13.13.13,0,0,1-.05.07.08.08,0,0,1-.07,0,.35.35,0,0,1-.17-.07l-.27-.15-.41-.15a2.09,2.09,0,0,0-.53-.06,1.38,1.38,0,0,0-.47.06.86.86,0,0,0-.33.17.73.73,0,0,0-.2.26.88.88,0,0,0-.06.33.72.72,0,0,0,.12.42,1.32,1.32,0,0,0,.33.29,2.57,2.57,0,0,0,.47.23l.53.21c.18.07.35.15.53.24a2.59,2.59,0,0,1,.47.32,1.52,1.52,0,0,1,.32.46A1.41,1.41,0,0,1,140,7.2Z"/><path class="cls-1" d="M149.28,8.75a.24.24,0,0,1,0,.09.12.12,0,0,1-.08.06l-.14,0h-.44l-.15,0a.12.12,0,0,1-.08-.06.14.14,0,0,1,0-.09V8a4,4,0,0,1-.93.76,2.17,2.17,0,0,1-1.06.27,2,2,0,0,1-1.8-.9,3,3,0,0,1-.4-1A5.11,5.11,0,0,1,144,6a5,5,0,0,1,.16-1.33,3,3,0,0,1,.47-1,2.07,2.07,0,0,1,.77-.64,2.39,2.39,0,0,1,1.06-.23,2,2,0,0,1,.92.22,3.16,3.16,0,0,1,.82.65V.3a.16.16,0,0,1,0-.09.1.1,0,0,1,.08-.06.62.62,0,0,1,.16,0l.25,0,.26,0a.46.46,0,0,1,.16,0,.15.15,0,0,1,.09.06.16.16,0,0,1,0,.09Zm-1.06-4a3.81,3.81,0,0,0-.82-.8,1.45,1.45,0,0,0-.83-.28,1.26,1.26,0,0,0-.68.19,1.59,1.59,0,0,0-.45.51,2.15,2.15,0,0,0-.25.7,3.56,3.56,0,0,0-.08.8,5.73,5.73,0,0,0,.06.84,2.68,2.68,0,0,0,.24.74,1.43,1.43,0,0,0,.43.51,1.17,1.17,0,0,0,.69.2,1.34,1.34,0,0,0,.4-.06,1.6,1.6,0,0,0,.4-.19,3.11,3.11,0,0,0,.42-.35,4.14,4.14,0,0,0,.47-.52Z"/><path class="cls-1" d="M156.09,5.65A.42.42,0,0,1,156,6a.4.4,0,0,1-.28.1h-3.76A3.72,3.72,0,0,0,152,7a1.84,1.84,0,0,0,.32.66,1.43,1.43,0,0,0,.58.41,2.28,2.28,0,0,0,.88.15,3.14,3.14,0,0,0,.72-.07,3.21,3.21,0,0,0,.56-.15,3,3,0,0,0,.38-.15.65.65,0,0,1,.23-.06l.07,0a.13.13,0,0,1,.06.07,1,1,0,0,1,0,.12s0,.12,0,.19a.66.66,0,0,1,0,.15s0,.07,0,.11a.2.2,0,0,1,0,.08.18.18,0,0,1,0,.07,1.33,1.33,0,0,1-.21.12,3.16,3.16,0,0,1-.44.15c-.19.05-.4.1-.64.14a4.51,4.51,0,0,1-.76.06,3.62,3.62,0,0,1-1.24-.2,2.26,2.26,0,0,1-.89-.58,2.47,2.47,0,0,1-.54-1,4.3,4.3,0,0,1-.19-1.36A4.47,4.47,0,0,1,151,4.6a2.84,2.84,0,0,1,.55-1,2.5,2.5,0,0,1,.87-.63,3,3,0,0,1,1.14-.22,2.64,2.64,0,0,1,1.14.22,2.1,2.1,0,0,1,.78.58,2.43,2.43,0,0,1,.45.86,3.86,3.86,0,0,1,.14,1ZM155,5.34a1.92,1.92,0,0,0-.37-1.3,1.41,1.41,0,0,0-1.15-.47,1.45,1.45,0,0,0-.68.15,1.32,1.32,0,0,0-.49.38,1.66,1.66,0,0,0-.31.57,2.41,2.41,0,0,0-.12.67Z"/><path class="cls-1" d="M50.49,23.89a1.86,1.86,0,0,1,.09.36.19.19,0,0,1,0,.2.42.42,0,0,1-.24.08l-.49,0h-.51a1.3,1.3,0,0,1-.27,0,.24.24,0,0,1-.14-.08.81.81,0,0,1-.06-.13l-.55-1.65H45.18l-.52,1.6a1.16,1.16,0,0,1-.06.15.39.39,0,0,1-.14.1,1.2,1.2,0,0,1-.26.05h-.44l-.46,0a.3.3,0,0,1-.22-.09.24.24,0,0,1,0-.21,1.76,1.76,0,0,1,.1-.35l2.53-7.29a.51.51,0,0,1,.09-.18.32.32,0,0,1,.16-.1,1.17,1.17,0,0,1,.31,0h1.11a1.46,1.46,0,0,1,.35,0,.33.33,0,0,1,.18.11.85.85,0,0,1,.09.19Zm-3.77-6h0l-1.16,3.5h2.33Z"/><path class="cls-1" d="M56.63,24.35a.13.13,0,0,1,0,.09l-.08.06-.16,0h-.52l-.16,0-.08-.06a.13.13,0,0,1,0-.09V21a3.31,3.31,0,0,0-.08-.79,1.49,1.49,0,0,0-.22-.51.92.92,0,0,0-.38-.33,1.13,1.13,0,0,0-.54-.12,1.31,1.31,0,0,0-.78.28,4.23,4.23,0,0,0-.83.82v4a.24.24,0,0,1,0,.09l-.09.06-.16,0H52l-.16,0a.18.18,0,0,1-.08-.06.14.14,0,0,1,0-.09V18.64a.24.24,0,0,1,0-.09l.08-.06.15,0h.46a.39.39,0,0,1,.14,0l.08.06a.24.24,0,0,1,0,.09v.75a3.52,3.52,0,0,1,1-.79,2.15,2.15,0,0,1,1-.25,2.13,2.13,0,0,1,1,.2,1.77,1.77,0,0,1,.63.51,2.12,2.12,0,0,1,.35.76,4.56,4.56,0,0,1,.1,1.05Z"/><path class="cls-1" d="M61.39,23.93a1.15,1.15,0,0,1,0,.29.27.27,0,0,1-.08.16.36.36,0,0,1-.15.1l-.23.07-.28.05-.29,0a2.13,2.13,0,0,1-.76-.12,1.29,1.29,0,0,1-.52-.35,1.4,1.4,0,0,1-.3-.61,3.6,3.6,0,0,1-.09-.86V19.34h-.8a.17.17,0,0,1-.15-.1.69.69,0,0,1-.06-.33,1,1,0,0,1,0-.2.47.47,0,0,1,0-.14.16.16,0,0,1,.07-.07.12.12,0,0,1,.09,0h.79V17.12a.29.29,0,0,1,0-.09.2.2,0,0,1,.09-.06.5.5,0,0,1,.16,0h.51a.5.5,0,0,1,.16,0,.13.13,0,0,1,.08.06.16.16,0,0,1,0,.09v1.35h1.46a.12.12,0,0,1,.09,0,.16.16,0,0,1,.07.07.47.47,0,0,1,0,.14,1.15,1.15,0,0,1,0,.2.71.71,0,0,1,0,.33.17.17,0,0,1-.16.1H59.72v3.19a1.9,1.9,0,0,0,.17.89.67.67,0,0,0,.63.3,1,1,0,0,0,.26,0,.66.66,0,0,0,.2-.06l.15-.06a.3.3,0,0,1,.12,0l.06,0a.09.09,0,0,1,0,.06l0,.12A1.09,1.09,0,0,1,61.39,23.93Z"/><path class="cls-1" d="M66.12,19a1.7,1.7,0,0,1,0,.24.61.61,0,0,1,0,.15.56.56,0,0,1,0,.08.11.11,0,0,1-.08,0l-.13,0-.16-.06-.21-.05a.93.93,0,0,0-.24,0,.74.74,0,0,0-.32.07,1.24,1.24,0,0,0-.32.21,2.21,2.21,0,0,0-.35.38c-.12.16-.26.36-.4.59v3.76a.14.14,0,0,1,0,.09.28.28,0,0,1-.08.06l-.16,0H63l-.16,0-.08-.06a.24.24,0,0,1,0-.09V18.64a.13.13,0,0,1,0-.09.22.22,0,0,1,.07-.06l.15,0h.47a.39.39,0,0,1,.14,0,.22.22,0,0,1,.07.06.13.13,0,0,1,0,.09v.83a5,5,0,0,1,.45-.56,2,2,0,0,1,.39-.34,1.18,1.18,0,0,1,.36-.17,1.5,1.5,0,0,1,.37,0h.18l.22,0,.21.05.13.07,0,.06a.14.14,0,0,1,0,.07.45.45,0,0,1,0,.13A1.55,1.55,0,0,1,66.12,19Z"/><path class="cls-1" d="M72.41,21.43a4.37,4.37,0,0,1-.18,1.29,2.82,2.82,0,0,1-.55,1,2.54,2.54,0,0,1-.91.66,3.18,3.18,0,0,1-1.28.24,3.25,3.25,0,0,1-1.22-.21,2.29,2.29,0,0,1-.88-.61,2.74,2.74,0,0,1-.52-1,4.63,4.63,0,0,1-.17-1.29,4.37,4.37,0,0,1,.18-1.29,2.67,2.67,0,0,1,.55-1,2.26,2.26,0,0,1,.91-.66,3.13,3.13,0,0,1,1.27-.24,3.3,3.3,0,0,1,1.23.21,2.4,2.4,0,0,1,.88.61,2.74,2.74,0,0,1,.52,1A4.29,4.29,0,0,1,72.41,21.43Zm-1.08.07a4.17,4.17,0,0,0-.09-.88A2.3,2.3,0,0,0,71,19.9a1.42,1.42,0,0,0-.54-.49,1.81,1.81,0,0,0-.85-.18,1.78,1.78,0,0,0-.8.16,1.47,1.47,0,0,0-.55.47,2,2,0,0,0-.33.71,3.73,3.73,0,0,0-.1.91,5,5,0,0,0,.08.88,2.31,2.31,0,0,0,.29.72,1.59,1.59,0,0,0,.54.49,2,2,0,0,0,1.65,0,1.56,1.56,0,0,0,.56-.46,2.2,2.2,0,0,0,.32-.71A4.3,4.3,0,0,0,71.33,21.5Z"/><path class="cls-1" d="M79.21,21.41a5,5,0,0,1-.16,1.34,2.87,2.87,0,0,1-.48,1,2.11,2.11,0,0,1-.77.65,2.42,2.42,0,0,1-1.06.22,2.26,2.26,0,0,1-.47-.05,1.72,1.72,0,0,1-.43-.16,2.35,2.35,0,0,1-.4-.27c-.14-.11-.28-.24-.44-.39v2.86a.15.15,0,0,1,0,.09l-.08.06-.16,0h-.52a.62.62,0,0,1-.16,0,.18.18,0,0,1-.08-.06.15.15,0,0,1,0-.09v-8s0-.07,0-.09a.09.09,0,0,1,.07-.06l.15,0h.43l.15,0a.11.11,0,0,1,.07.06.12.12,0,0,1,0,.09v.77a5.3,5.3,0,0,1,.5-.47,2.67,2.67,0,0,1,.48-.32,2,2,0,0,1,.51-.2,2.35,2.35,0,0,1,.54-.07,2.18,2.18,0,0,1,1.06.24,2,2,0,0,1,.71.66,3,3,0,0,1,.41,1A5.55,5.55,0,0,1,79.21,21.41Zm-1.08.12a5.73,5.73,0,0,0-.07-.85,2.32,2.32,0,0,0-.23-.73,1.36,1.36,0,0,0-.44-.51,1.21,1.21,0,0,0-.68-.19,1.34,1.34,0,0,0-.4.06,1.88,1.88,0,0,0-.41.19,3.88,3.88,0,0,0-.42.35,5.07,5.07,0,0,0-.48.52v2.27a4.43,4.43,0,0,0,.83.81,1.36,1.36,0,0,0,.82.28,1.18,1.18,0,0,0,.68-.19,1.62,1.62,0,0,0,.46-.51,2.59,2.59,0,0,0,.25-.71A3.55,3.55,0,0,0,78.13,21.53Z"/><path class="cls-1" d="M86.1,21.43a4.37,4.37,0,0,1-.18,1.29,3,3,0,0,1-.55,1,2.58,2.58,0,0,1-.92.66,3.13,3.13,0,0,1-1.27.24A3.3,3.3,0,0,1,82,24.42a2.18,2.18,0,0,1-.87-.61,2.59,2.59,0,0,1-.52-1,4.29,4.29,0,0,1-.17-1.29,4.37,4.37,0,0,1,.18-1.29,2.8,2.8,0,0,1,.54-1,2.4,2.4,0,0,1,.91-.66,3.18,3.18,0,0,1,1.28-.24,3.3,3.3,0,0,1,1.23.21,2.28,2.28,0,0,1,.87.61,2.59,2.59,0,0,1,.52,1A4.28,4.28,0,0,1,86.1,21.43ZM85,21.5a4.18,4.18,0,0,0-.08-.88,2.31,2.31,0,0,0-.29-.72,1.35,1.35,0,0,0-.54-.49,1.74,1.74,0,0,0-.84-.18,1.86,1.86,0,0,0-.81.16,1.55,1.55,0,0,0-.55.47,2.2,2.2,0,0,0-.32.71,3.72,3.72,0,0,0-.11.91,4.17,4.17,0,0,0,.09.88,2.1,2.1,0,0,0,.29.72,1.42,1.42,0,0,0,.54.49,2,2,0,0,0,1.64,0,1.41,1.41,0,0,0,.56-.46,2,2,0,0,0,.32-.71A3.73,3.73,0,0,0,85,21.5Z"/><path class="cls-1" d="M88.69,24.35a.14.14,0,0,1,0,.09.18.18,0,0,1-.08.06l-.16,0h-.51l-.16,0-.09-.06a.24.24,0,0,1,0-.09V15.87a.29.29,0,0,1,0-.09l.09-.06.16,0h.51a.53.53,0,0,1,.16,0,.18.18,0,0,1,.08.06.16.16,0,0,1,0,.09Z"/><path class="cls-1" d="M95.94,21.43a4.06,4.06,0,0,1-.19,1.29,2.67,2.67,0,0,1-.55,1,2.46,2.46,0,0,1-.91.66,3.13,3.13,0,0,1-1.27.24,3.3,3.3,0,0,1-1.23-.21,2.18,2.18,0,0,1-.87-.61,2.45,2.45,0,0,1-.52-1,4.29,4.29,0,0,1-.17-1.29,4.37,4.37,0,0,1,.18-1.29,2.8,2.8,0,0,1,.54-1,2.4,2.4,0,0,1,.91-.66,3.18,3.18,0,0,1,1.28-.24,3.3,3.3,0,0,1,1.23.21,2.28,2.28,0,0,1,.87.61,2.59,2.59,0,0,1,.52,1A4.28,4.28,0,0,1,95.94,21.43Zm-1.09.07a5,5,0,0,0-.08-.88,2.31,2.31,0,0,0-.29-.72,1.35,1.35,0,0,0-.54-.49,1.74,1.74,0,0,0-.84-.18,1.86,1.86,0,0,0-.81.16,1.55,1.55,0,0,0-.55.47,2,2,0,0,0-.32.71,3.72,3.72,0,0,0-.11.91,4.17,4.17,0,0,0,.09.88,1.92,1.92,0,0,0,.29.72,1.42,1.42,0,0,0,.54.49,1.74,1.74,0,0,0,.84.18,1.78,1.78,0,0,0,.8-.17,1.41,1.41,0,0,0,.56-.46,2,2,0,0,0,.32-.71A3.73,3.73,0,0,0,94.85,21.5Z"/><path class="cls-1" d="M102.25,18.9a.65.65,0,0,1-.06.32.17.17,0,0,1-.15.1h-.82a1.27,1.27,0,0,1,.31.5,1.9,1.9,0,0,1,.09.58,2.14,2.14,0,0,1-.16.87,1.89,1.89,0,0,1-.45.65,2.1,2.1,0,0,1-.7.4,2.94,2.94,0,0,1-.91.14,2.39,2.39,0,0,1-.66-.09,1.34,1.34,0,0,1-.48-.23.83.83,0,0,0-.19.26.7.7,0,0,0-.08.33.44.44,0,0,0,.21.37,1,1,0,0,0,.55.16l1.49.06a3,3,0,0,1,.78.12,1.88,1.88,0,0,1,.62.3,1.38,1.38,0,0,1,.4.47,1.4,1.4,0,0,1,.15.66,1.78,1.78,0,0,1-.16.75,1.69,1.69,0,0,1-.51.63,2.43,2.43,0,0,1-.87.42,4.15,4.15,0,0,1-1.24.16,5,5,0,0,1-1.18-.12,2.65,2.65,0,0,1-.79-.32A1.23,1.23,0,0,1,97,25.9a1.27,1.27,0,0,1-.14-.61,1.44,1.44,0,0,1,.05-.41,1.31,1.31,0,0,1,.15-.37,2,2,0,0,1,.26-.34c.11-.11.23-.21.36-.32a1.14,1.14,0,0,1-.46-.4,1,1,0,0,1-.15-.52,1.41,1.41,0,0,1,.16-.69,2.47,2.47,0,0,1,.39-.55,1.85,1.85,0,0,1-.31-.53,2.12,2.12,0,0,1-.11-.71,2.23,2.23,0,0,1,.16-.88,1.92,1.92,0,0,1,.46-.65,2,2,0,0,1,.7-.41,2.6,2.6,0,0,1,.89-.14l.49,0,.42.08H102a.18.18,0,0,1,.16.11A.67.67,0,0,1,102.25,18.9Zm-1.11,6a.64.64,0,0,0-.3-.57,1.56,1.56,0,0,0-.81-.21l-1.48,0a2.07,2.07,0,0,0-.34.3,1.56,1.56,0,0,0-.2.27,1,1,0,0,0-.11.26,1.09,1.09,0,0,0,0,.26.67.67,0,0,0,.42.62,2.51,2.51,0,0,0,1.17.22,3,3,0,0,0,.8-.09,1.94,1.94,0,0,0,.52-.25.93.93,0,0,0,.28-.35A1,1,0,0,0,101.14,24.93Zm-.52-4.53a1.26,1.26,0,0,0-.32-.91,1.45,1.45,0,0,0-1.44-.22.9.9,0,0,0-.38.28,1.08,1.08,0,0,0-.22.41,1.51,1.51,0,0,0-.07.48,1.19,1.19,0,0,0,.32.89,1.17,1.17,0,0,0,.89.32,1.45,1.45,0,0,0,.54-.09,1,1,0,0,0,.38-.28,1.11,1.11,0,0,0,.22-.4A1.51,1.51,0,0,0,100.62,20.4Z"/><path class="cls-1" d="M104.77,16.71a.71.71,0,0,1-.14.5.76.76,0,0,1-.52.13.71.71,0,0,1-.5-.13.67.67,0,0,1-.14-.49.71.71,0,0,1,.14-.5.78.78,0,0,1,.52-.13.71.71,0,0,1,.5.13A.67.67,0,0,1,104.77,16.71Zm-.12,7.64a.14.14,0,0,1,0,.09l-.08.06-.16,0h-.51l-.17,0a.28.28,0,0,1-.08-.06.24.24,0,0,1,0-.09V18.64a.19.19,0,0,1,0-.08.19.19,0,0,1,.08-.07l.17,0h.51l.16,0a.19.19,0,0,1,.08.07.11.11,0,0,1,0,.08Z"/><path class="cls-1" d="M110.89,24.36a.13.13,0,0,1,0,.11.3.3,0,0,1-.14.06l-.26,0-.27,0a.26.26,0,0,1-.14-.06.12.12,0,0,1,0-.11v-.57a3,3,0,0,1-.84.62,2.19,2.19,0,0,1-1,.22,2.62,2.62,0,0,1-.82-.12,1.77,1.77,0,0,1-.62-.34,1.44,1.44,0,0,1-.4-.54,2,2,0,0,1,0-1.58,1.69,1.69,0,0,1,.57-.59,2.87,2.87,0,0,1,.9-.35,5.41,5.41,0,0,1,1.2-.12h.79v-.44a2.58,2.58,0,0,0-.07-.59,1.22,1.22,0,0,0-.23-.42,1,1,0,0,0-.4-.25,1.82,1.82,0,0,0-.61-.09,2.19,2.19,0,0,0-.7.1,3.39,3.39,0,0,0-.54.2l-.38.2a.55.55,0,0,1-.24.09.11.11,0,0,1-.08,0,.19.19,0,0,1-.07-.08.33.33,0,0,1,0-.13.91.91,0,0,1,0-.17.86.86,0,0,1,0-.25.35.35,0,0,1,.11-.18,1.19,1.19,0,0,1,.29-.19,2.66,2.66,0,0,1,.48-.2,3.51,3.51,0,0,1,.6-.16,3.82,3.82,0,0,1,1.7.08,1.78,1.78,0,0,1,.7.41,1.54,1.54,0,0,1,.39.67,3.28,3.28,0,0,1,.12.93Zm-1-2.61H109a3.3,3.3,0,0,0-.75.07,1.38,1.38,0,0,0-.52.22.83.83,0,0,0-.31.34,1,1,0,0,0-.1.46.92.92,0,0,0,.28.71,1.14,1.14,0,0,0,.79.26,1.49,1.49,0,0,0,.77-.21,3.39,3.39,0,0,0,.74-.64Z"/><path class="cls-1" d="M114.19,23.6c0,.13,0,.25,0,.36a3,3,0,0,1-.07.32,1.69,1.69,0,0,1-.12.28,1.45,1.45,0,0,1-.18.31l-.87,1.3a.27.27,0,0,1-.07.08l-.1.06-.14,0h-.38l-.11,0a.09.09,0,0,1,0-.06.15.15,0,0,1,0-.09l.85-1.74V23.6a1,1,0,0,1,0-.27.25.25,0,0,1,.11-.15.4.4,0,0,1,.19-.07,1.19,1.19,0,0,1,.28,0,1.06,1.06,0,0,1,.27,0,.36.36,0,0,1,.19.07.25.25,0,0,1,.11.15A1,1,0,0,1,114.19,23.6Z"/><path class="cls-1" d="M124.54,18.79a3.37,3.37,0,0,1-.21,1.23,2.48,2.48,0,0,1-.63.89,2.8,2.8,0,0,1-1,.56,4.58,4.58,0,0,1-1.41.19h-.68v2.62a.28.28,0,0,1,0,.12.37.37,0,0,1-.14.08,1.2,1.2,0,0,1-.26.05l-.4,0-.4,0a1.2,1.2,0,0,1-.26-.05.3.3,0,0,1-.14-.08.27.27,0,0,1,0-.12V16.89a.52.52,0,0,1,.56-.59h1.94a4.87,4.87,0,0,1,.55,0,6.33,6.33,0,0,1,.63.09,2.83,2.83,0,0,1,.75.27,2.12,2.12,0,0,1,.64.5,2,2,0,0,1,.41.71A2.83,2.83,0,0,1,124.54,18.79Zm-1.74.12a1.49,1.49,0,0,0-.16-.71,1,1,0,0,0-.37-.41,1.22,1.22,0,0,0-.47-.17,4,4,0,0,0-.5,0h-.71v2.79h.75a1.68,1.68,0,0,0,.67-.11,1.23,1.23,0,0,0,.44-.3,1.38,1.38,0,0,0,.26-.46A1.87,1.87,0,0,0,122.8,18.91Z"/><path class="cls-1" d="M130.22,24.36a.11.11,0,0,1-.06.11.26.26,0,0,1-.13.06l-.26,0-.27,0a.26.26,0,0,1-.14-.06.13.13,0,0,1-.05-.11v-.57a2.91,2.91,0,0,1-.83.62,2.19,2.19,0,0,1-1,.22,2.57,2.57,0,0,1-.82-.12,1.77,1.77,0,0,1-.62-.34,1.44,1.44,0,0,1-.4-.54,1.88,1.88,0,0,1,0-1.58,1.69,1.69,0,0,1,.57-.59,2.87,2.87,0,0,1,.9-.35,5.41,5.41,0,0,1,1.2-.12h.78v-.44a2.12,2.12,0,0,0-.07-.59,1.06,1.06,0,0,0-.22-.42,1,1,0,0,0-.4-.25,1.82,1.82,0,0,0-.61-.09,2.19,2.19,0,0,0-.7.1,3.39,3.39,0,0,0-.54.2l-.38.2a.6.6,0,0,1-.24.09.15.15,0,0,1-.09,0,.28.28,0,0,1-.06-.08.33.33,0,0,1,0-.13.88.88,0,0,1,0-.17.81.81,0,0,1,0-.25.41.41,0,0,1,.1-.18,1.58,1.58,0,0,1,.3-.19,2.66,2.66,0,0,1,.48-.2,3.27,3.27,0,0,1,.6-.16,3.49,3.49,0,0,1,.65-.06,3.56,3.56,0,0,1,1,.14,1.78,1.78,0,0,1,.7.41,1.65,1.65,0,0,1,.39.67,3.28,3.28,0,0,1,.12.93Zm-1.05-2.61h-.89a3.3,3.3,0,0,0-.75.07A1.51,1.51,0,0,0,127,22a.81.81,0,0,0-.3.34,1,1,0,0,0-.1.46.92.92,0,0,0,.28.71,1.14,1.14,0,0,0,.79.26,1.43,1.43,0,0,0,.76-.21,3,3,0,0,0,.74-.64Z"/><path class="cls-1" d="M135,23.93a1.07,1.07,0,0,1,0,.29.27.27,0,0,1-.07.16.56.56,0,0,1-.15.1l-.24.07-.27.05-.29,0a2.22,2.22,0,0,1-.77-.12,1.37,1.37,0,0,1-.52-.35,1.51,1.51,0,0,1-.29-.61,3.6,3.6,0,0,1-.09-.86V19.34h-.8a.17.17,0,0,1-.16-.1.87.87,0,0,1-.05-.33,1.15,1.15,0,0,1,0-.2,1.27,1.27,0,0,1,0-.14.16.16,0,0,1,.07-.07.16.16,0,0,1,.09,0h.8V17.12a.15.15,0,0,1,0-.09.13.13,0,0,1,.08-.06.5.5,0,0,1,.16,0h.52l.16,0a.24.24,0,0,1,.08.06.15.15,0,0,1,0,.09v1.35h1.47a.16.16,0,0,1,.09,0,.14.14,0,0,1,.06.07.46.46,0,0,1,0,.14c0,.05,0,.12,0,.2a.69.69,0,0,1-.06.33.17.17,0,0,1-.15.1h-1.47v3.19a1.77,1.77,0,0,0,.18.89.65.65,0,0,0,.62.3,1,1,0,0,0,.26,0,.65.65,0,0,0,.21-.06l.15-.06.11,0,.06,0a.1.1,0,0,1,0,.06,1,1,0,0,1,0,.12C135,23.79,135,23.86,135,23.93Z"/><path class="cls-1" d="M139.71,19v.24l0,.15a.22.22,0,0,1-.05.08.1.1,0,0,1-.08,0l-.12,0-.17-.06-.2-.05a1,1,0,0,0-.25,0,.67.67,0,0,0-.31.07,1.09,1.09,0,0,0-.32.21,2.21,2.21,0,0,0-.35.38c-.13.16-.26.36-.41.59v3.76a.14.14,0,0,1,0,.09.18.18,0,0,1-.08.06l-.16,0h-.51l-.16,0-.09-.06a.24.24,0,0,1,0-.09V18.64a.24.24,0,0,1,0-.09.18.18,0,0,1,.08-.06l.14,0h.47a.39.39,0,0,1,.14,0l.08.06a.24.24,0,0,1,0,.09v.83a5,5,0,0,1,.44-.56,2.77,2.77,0,0,1,.39-.34,1.12,1.12,0,0,1,.37-.17,1.49,1.49,0,0,1,.36,0h.19l.22,0,.2.05.13.07s0,0,0,.06l0,.07s0,.07,0,.13Z"/><path class="cls-1" d="M142.07,16.71a.67.67,0,0,1-.14.5.73.73,0,0,1-.51.13.74.74,0,0,1-.51-.13.67.67,0,0,1-.13-.49.67.67,0,0,1,.14-.5,1.07,1.07,0,0,1,1,0A.67.67,0,0,1,142.07,16.71ZM142,24.35a.24.24,0,0,1,0,.09l-.09.06-.15,0h-.52l-.16,0a.18.18,0,0,1-.08-.06.13.13,0,0,1,0-.09V18.64a.11.11,0,0,1,0-.08s0,0,.08-.07l.16,0h.52l.15,0a.22.22,0,0,1,.09.07.19.19,0,0,1,0,.08Z"/><path class="cls-1" d="M152.36,24.35a.24.24,0,0,1,0,.09l-.09.06-.15,0h-.52l-.16,0-.09-.06a.24.24,0,0,1,0-.09V20.88a3.37,3.37,0,0,0-.06-.66,1.48,1.48,0,0,0-.21-.51.85.85,0,0,0-.35-.33,1.07,1.07,0,0,0-.51-.12,1.2,1.2,0,0,0-.73.28,5.24,5.24,0,0,0-.8.82v4a.14.14,0,0,1,0,.09.18.18,0,0,1-.08.06l-.16,0h-.51l-.16,0-.09-.06a.24.24,0,0,1,0-.09V20.88a2.73,2.73,0,0,0-.07-.66,1.31,1.31,0,0,0-.21-.51.85.85,0,0,0-.35-.33,1,1,0,0,0-.5-.12,1.16,1.16,0,0,0-.73.28,4.48,4.48,0,0,0-.8.82v4a.14.14,0,0,1,0,.09.28.28,0,0,1-.08.06l-.16,0h-.51l-.17,0a.28.28,0,0,1-.08-.06.24.24,0,0,1,0-.09V18.64a.13.13,0,0,1,0-.09.22.22,0,0,1,.07-.06l.15,0h.47a.39.39,0,0,1,.14,0,.22.22,0,0,1,.07.06.13.13,0,0,1,0,.09v.75a4,4,0,0,1,.94-.79,2,2,0,0,1,.92-.25,2.15,2.15,0,0,1,.64.09,1.58,1.58,0,0,1,.49.23,1.38,1.38,0,0,1,.37.35,2.28,2.28,0,0,1,.26.46A6.37,6.37,0,0,1,149,19a3.24,3.24,0,0,1,.49-.35,2.07,2.07,0,0,1,.47-.2,1.74,1.74,0,0,1,.45-.06,2,2,0,0,1,.93.2,1.67,1.67,0,0,1,.6.51,1.93,1.93,0,0,1,.33.76,3.93,3.93,0,0,1,.1.92Z"/><path class="cls-1" d="M159.59,21.43a4.37,4.37,0,0,1-.19,1.29,2.67,2.67,0,0,1-.55,1,2.46,2.46,0,0,1-.91.66,3.16,3.16,0,0,1-1.27.24,3.3,3.3,0,0,1-1.23-.21,2.18,2.18,0,0,1-.87-.61,2.6,2.6,0,0,1-.53-1,4.63,4.63,0,0,1-.17-1.29,4.37,4.37,0,0,1,.18-1.29,3,3,0,0,1,.55-1,2.33,2.33,0,0,1,.91-.66,3.14,3.14,0,0,1,1.28-.24,3.3,3.3,0,0,1,1.23.21,2.36,2.36,0,0,1,.87.61,2.59,2.59,0,0,1,.52,1A4.28,4.28,0,0,1,159.59,21.43Zm-1.09.07a4.17,4.17,0,0,0-.09-.88,2.08,2.08,0,0,0-.28-.72,1.35,1.35,0,0,0-.54-.49,1.77,1.77,0,0,0-.84-.18,1.83,1.83,0,0,0-.81.16,1.47,1.47,0,0,0-.55.47,2.21,2.21,0,0,0-.33.71,3.73,3.73,0,0,0-.1.91,4.17,4.17,0,0,0,.09.88,2.08,2.08,0,0,0,.28.72,1.59,1.59,0,0,0,.54.49,2,2,0,0,0,1.65,0,1.48,1.48,0,0,0,.56-.46,2.2,2.2,0,0,0,.32-.71A3.73,3.73,0,0,0,158.5,21.5Zm-2.59-4.11a.29.29,0,0,1-.08.1.2.2,0,0,1-.09.06l-.13,0h-.2a1,1,0,0,1-.27,0,.17.17,0,0,1-.12-.06.13.13,0,0,1,0-.11.79.79,0,0,1,.1-.16l1-1.45a.2.2,0,0,1,.08-.08.28.28,0,0,1,.11,0l.16,0H157l.16,0,.1,0a.27.27,0,0,1,.07.08l1,1.45a.79.79,0,0,1,.1.16.13.13,0,0,1,0,.11.17.17,0,0,1-.12.06.94.94,0,0,1-.26,0h-.21l-.13,0-.09-.06-.07-.1-.83-1.14Z"/><path class="cls-1" d="M166.05,24.35a.14.14,0,0,1,0,.09.18.18,0,0,1-.08.06l-.16,0h-.51l-.16,0a.18.18,0,0,1-.08-.06.14.14,0,0,1,0-.09V21a2.86,2.86,0,0,0-.08-.79,1.49,1.49,0,0,0-.22-.51.81.81,0,0,0-.38-.33,1.12,1.12,0,0,0-.53-.12,1.34,1.34,0,0,0-.79.28,4.21,4.21,0,0,0-.82.82v4a.14.14,0,0,1,0,.09.28.28,0,0,1-.08.06l-.16,0h-.51l-.17,0a.28.28,0,0,1-.08-.06.24.24,0,0,1,0-.09V18.64a.24.24,0,0,1,0-.09.22.22,0,0,1,.07-.06l.15,0h.47a.39.39,0,0,1,.14,0,.22.22,0,0,1,.07.06.13.13,0,0,1,0,.09v.75a3.7,3.7,0,0,1,1-.79,2.18,2.18,0,0,1,1.93-.05,1.77,1.77,0,0,1,.63.51,2.11,2.11,0,0,1,.34.76,4.51,4.51,0,0,1,.11,1.05Z"/><path class="cls-1" d="M169.13,16.71a.71.71,0,0,1-.14.5.78.78,0,0,1-.52.13.71.71,0,0,1-.5-.13.67.67,0,0,1-.14-.49.71.71,0,0,1,.14-.5.76.76,0,0,1,.52-.13.71.71,0,0,1,.5.13A.67.67,0,0,1,169.13,16.71ZM169,24.35a.14.14,0,0,1,0,.09.28.28,0,0,1-.08.06l-.16,0h-.51l-.17,0-.08-.06a.24.24,0,0,1,0-.09V18.64a.19.19,0,0,1,0-.08.19.19,0,0,1,.08-.07l.17,0h.51l.16,0a.19.19,0,0,1,.08.07.11.11,0,0,1,0,.08Z"/><path class="cls-1" d="M176.26,21.43a4.37,4.37,0,0,1-.19,1.29,2.67,2.67,0,0,1-.55,1,2.54,2.54,0,0,1-.91.66,3.16,3.16,0,0,1-1.27.24,3.3,3.3,0,0,1-1.23-.21,2.29,2.29,0,0,1-.88-.61,2.74,2.74,0,0,1-.52-1,4.63,4.63,0,0,1-.17-1.29,4.37,4.37,0,0,1,.18-1.29,2.82,2.82,0,0,1,.55-1,2.33,2.33,0,0,1,.91-.66,3.14,3.14,0,0,1,1.28-.24,3.21,3.21,0,0,1,1.22.21,2.4,2.4,0,0,1,.88.61,2.74,2.74,0,0,1,.52,1A4.28,4.28,0,0,1,176.26,21.43Zm-1.09.07a4.17,4.17,0,0,0-.09-.88,2.08,2.08,0,0,0-.28-.72,1.35,1.35,0,0,0-.54-.49,1.81,1.81,0,0,0-.85-.18,1.78,1.78,0,0,0-.8.16,1.47,1.47,0,0,0-.55.47,2,2,0,0,0-.33.71,3.73,3.73,0,0,0-.1.91,5,5,0,0,0,.08.88,2.31,2.31,0,0,0,.29.72,1.59,1.59,0,0,0,.54.49,2,2,0,0,0,1.65,0,1.48,1.48,0,0,0,.56-.46,2.2,2.2,0,0,0,.32-.71A3.73,3.73,0,0,0,175.17,21.5Z"/><path class="cls-1" d="M179,23.6c0,.13,0,.25,0,.36a3,3,0,0,1-.07.32,1.62,1.62,0,0,1-.11.28,3.49,3.49,0,0,1-.18.31l-.87,1.3a.3.3,0,0,1-.08.08l-.1.06-.14,0H177l-.1,0s0,0,0-.06a.29.29,0,0,1,0-.09l.85-1.74V23.6a1,1,0,0,1,0-.27.3.3,0,0,1,.11-.15.4.4,0,0,1,.19-.07,2,2,0,0,1,.56,0,.33.33,0,0,1,.18.07.25.25,0,0,1,.11.15A1,1,0,0,1,179,23.6Z"/><path class="cls-1" d="M52.89,39.94a.12.12,0,0,1,0,.09s0,0-.09.06a.61.61,0,0,1-.17,0l-.26,0-.26,0a.61.61,0,0,1-.17,0,.15.15,0,0,1-.09-.06.2.2,0,0,1,0-.09V32.79h0L48.89,40a.18.18,0,0,1,0,.07l-.11.06-.15,0h-.45l-.16,0a.23.23,0,0,1-.1-.05l0-.07-2.76-7.19h0v7.15A.12.12,0,0,1,45,40s-.05,0-.09.06a.61.61,0,0,1-.17,0l-.27,0-.26,0-.16,0A.12.12,0,0,1,44,40s0-.05,0-.09V32.39A.45.45,0,0,1,44.1,32a.45.45,0,0,1,.31-.11h.68a2,2,0,0,1,.36,0,1.11,1.11,0,0,1,.27.12,1,1,0,0,1,.19.21,2.09,2.09,0,0,1,.14.3l2.34,5.95h0l2.44-5.93a2.44,2.44,0,0,1,.15-.32,1,1,0,0,1,.19-.22.65.65,0,0,1,.22-.11,1.2,1.2,0,0,1,.28,0h.71l.18,0a.38.38,0,0,1,.15.09.49.49,0,0,1,.1.16.48.48,0,0,1,0,.22Z"/><path class="cls-1" d="M59.83,36.85a.4.4,0,0,1-.41.45H55.66a3.72,3.72,0,0,0,.09.86,1.65,1.65,0,0,0,.32.65,1.3,1.3,0,0,0,.58.42,2.26,2.26,0,0,0,.87.15,3.17,3.17,0,0,0,.73-.07,3.08,3.08,0,0,0,.55-.15,2.68,2.68,0,0,0,.39-.15.66.66,0,0,1,.22-.06l.08,0a.2.2,0,0,1,.06.07,1,1,0,0,1,0,.12c0,.05,0,.12,0,.19s0,.11,0,.15,0,.07,0,.11a.11.11,0,0,1,0,.08.13.13,0,0,1-.06.07.58.58,0,0,1-.2.12,3.36,3.36,0,0,1-.45.15,6.07,6.07,0,0,1-.63.14,4.59,4.59,0,0,1-.76.06,3.4,3.4,0,0,1-1.24-.2,2.26,2.26,0,0,1-.89-.58,2.62,2.62,0,0,1-.55-1,4.62,4.62,0,0,1-.18-1.36,4.17,4.17,0,0,1,.19-1.32,2.84,2.84,0,0,1,.55-1,2.5,2.5,0,0,1,.87-.63A2.92,2.92,0,0,1,57.31,34a2.68,2.68,0,0,1,1.15.22,2.13,2.13,0,0,1,1.22,1.44,3.51,3.51,0,0,1,.15,1Zm-1.06-.31a1.92,1.92,0,0,0-.36-1.3,1.41,1.41,0,0,0-1.15-.47,1.54,1.54,0,0,0-1.18.53,1.82,1.82,0,0,0-.3.57,1.85,1.85,0,0,0-.12.67Z"/><path class="cls-1" d="M69.89,40a.13.13,0,0,1,0,.09l-.08.06-.16,0h-.52l-.16,0a.18.18,0,0,1-.08-.06.14.14,0,0,1,0-.09V36.48a3.37,3.37,0,0,0-.06-.66,1.62,1.62,0,0,0-.21-.52,1,1,0,0,0-.35-.33,1.16,1.16,0,0,0-.51-.11,1.2,1.2,0,0,0-.73.28,5.24,5.24,0,0,0-.8.82v4a.24.24,0,0,1,0,.09l-.09.06-.16,0H65.4l-.16,0a.18.18,0,0,1-.08-.06.14.14,0,0,1,0-.09V36.48a2.73,2.73,0,0,0-.07-.66,1.42,1.42,0,0,0-.21-.52A1,1,0,0,0,64.5,35a1.12,1.12,0,0,0-.5-.11,1.18,1.18,0,0,0-.73.28,4.48,4.48,0,0,0-.8.82v4a.14.14,0,0,1,0,.09l-.08.06-.16,0h-.51l-.17,0L61.44,40a.24.24,0,0,1,0-.09V34.24a.24.24,0,0,1,0-.09.18.18,0,0,1,.08-.06.39.39,0,0,1,.14,0h.47a.39.39,0,0,1,.14,0,.22.22,0,0,1,.07.06.14.14,0,0,1,0,.09V35a3.76,3.76,0,0,1,.93-.79,2,2,0,0,1,.92-.25,2.11,2.11,0,0,1,.64.09,1.64,1.64,0,0,1,.5.23,1.5,1.5,0,0,1,.36.35,1.89,1.89,0,0,1,.26.46,6.37,6.37,0,0,1,.54-.52,2.86,2.86,0,0,1,.5-.35,1.84,1.84,0,0,1,.46-.2,1.74,1.74,0,0,1,.45-.06,2,2,0,0,1,.93.2,1.79,1.79,0,0,1,.61.51,2.28,2.28,0,0,1,.33.76,4.56,4.56,0,0,1,.09.92Z"/><path class="cls-1" d="M77.12,37a4.06,4.06,0,0,1-.19,1.29,2.67,2.67,0,0,1-.55,1,2.46,2.46,0,0,1-.91.66,3.16,3.16,0,0,1-1.27.24A3.3,3.3,0,0,1,73,40a2.18,2.18,0,0,1-.87-.61,2.39,2.39,0,0,1-.52-1,4.28,4.28,0,0,1-.18-1.29,4.37,4.37,0,0,1,.19-1.29,2.8,2.8,0,0,1,.54-1,2.33,2.33,0,0,1,.91-.66A3.18,3.18,0,0,1,74.32,34a3.3,3.3,0,0,1,1.23.21,2.18,2.18,0,0,1,.87.61,2.59,2.59,0,0,1,.52,1A4.28,4.28,0,0,1,77.12,37ZM76,37.1a4.77,4.77,0,0,0-.08-.87,2.28,2.28,0,0,0-.29-.73,1.35,1.35,0,0,0-.54-.49,1.77,1.77,0,0,0-.84-.18,1.86,1.86,0,0,0-.81.16,1.47,1.47,0,0,0-.55.47,2,2,0,0,0-.32.71,3.72,3.72,0,0,0-.11.91,4.17,4.17,0,0,0,.09.88,2.08,2.08,0,0,0,.28.72,1.53,1.53,0,0,0,.55.49,1.74,1.74,0,0,0,.84.18,1.78,1.78,0,0,0,.8-.17,1.48,1.48,0,0,0,.56-.46,2.2,2.2,0,0,0,.32-.71A3.73,3.73,0,0,0,76,37.1Zm-1.25-5.65a.62.62,0,0,1,.09-.12.47.47,0,0,1,.12-.07l.19,0h.26l.28,0a.34.34,0,0,1,.16.07.11.11,0,0,1,0,.09.3.3,0,0,1-.06.11L74.71,33a.45.45,0,0,1-.09.1.21.21,0,0,1-.1.06.25.25,0,0,1-.13,0H74a.27.27,0,0,1-.12-.06.07.07,0,0,1,0-.08.28.28,0,0,1,0-.12Z"/><path class="cls-1" d="M82,34.61a1.7,1.7,0,0,1,0,.24A.61.61,0,0,1,82,35a.56.56,0,0,1,0,.08.11.11,0,0,1-.08,0l-.12,0L81.55,35l-.2-.05a1,1,0,0,0-.25,0,.67.67,0,0,0-.31.07,1,1,0,0,0-.32.21,2.23,2.23,0,0,0-.36.38c-.12.16-.25.36-.4.59V40a.14.14,0,0,1,0,.09l-.08.06-.16,0h-.51l-.16,0a.23.23,0,0,1-.09-.06.24.24,0,0,1,0-.09V34.24a.24.24,0,0,1,0-.09.18.18,0,0,1,.08-.06.39.39,0,0,1,.14,0h.47a.39.39,0,0,1,.14,0,.22.22,0,0,1,.07.06.14.14,0,0,1,0,.09v.83a4.05,4.05,0,0,1,.44-.56,2,2,0,0,1,.39-.34A1.18,1.18,0,0,1,80.8,34a1.5,1.5,0,0,1,.37,0h.18l.22,0,.21,0,.13.07a.13.13,0,0,1,0,.06.14.14,0,0,1,0,.07,1.23,1.23,0,0,1,0,.13Z"/><path class="cls-1" d="M84.36,32.31a.71.71,0,0,1-.14.5,1.07,1.07,0,0,1-1,0,.67.67,0,0,1-.13-.49.71.71,0,0,1,.13-.5.78.78,0,0,1,.52-.13.71.71,0,0,1,.5.13A.67.67,0,0,1,84.36,32.31ZM84.24,40a.14.14,0,0,1,0,.09.18.18,0,0,1-.08.06l-.16,0h-.51l-.16,0L83.21,40a.24.24,0,0,1,0-.09V34.24a.19.19,0,0,1,0-.08.22.22,0,0,1,.09-.07l.16,0H84l.16,0s.07,0,.08.07a.11.11,0,0,1,0,.08Z"/><path class="cls-1" d="M90.48,40a.13.13,0,0,1,0,.11.3.3,0,0,1-.14.06l-.26,0-.26,0a.26.26,0,0,1-.15-.06.12.12,0,0,1,0-.11v-.57a3,3,0,0,1-.84.62,2.15,2.15,0,0,1-1,.22,2.66,2.66,0,0,1-.82-.12,1.77,1.77,0,0,1-.62-.34,1.65,1.65,0,0,1-.4-.54,1.91,1.91,0,0,1-.14-.74,1.63,1.63,0,0,1,.2-.84,1.66,1.66,0,0,1,.56-.59,3.07,3.07,0,0,1,.9-.35,5.54,5.54,0,0,1,1.2-.12h.79v-.44a2.58,2.58,0,0,0-.07-.59,1,1,0,0,0-.23-.42,1,1,0,0,0-.4-.25,1.78,1.78,0,0,0-.61-.09,2.09,2.09,0,0,0-.69.1,2.79,2.79,0,0,0-.54.2,3.43,3.43,0,0,0-.39.2.52.52,0,0,1-.23.09l-.09,0a.19.19,0,0,1-.07-.08.4.4,0,0,1,0-.13.91.91,0,0,1,0-.17,1.47,1.47,0,0,1,0-.25.35.35,0,0,1,.11-.18,1.44,1.44,0,0,1,.29-.19,2.5,2.5,0,0,1,.49-.2,3.39,3.39,0,0,1,.59-.16,3.68,3.68,0,0,1,.66-.06,3.44,3.44,0,0,1,1,.14,1.78,1.78,0,0,1,.7.41,1.54,1.54,0,0,1,.39.67,3.28,3.28,0,0,1,.12.93Zm-1-2.61h-.9a3.42,3.42,0,0,0-.75.07,1.46,1.46,0,0,0-.52.22A.91.91,0,0,0,87,38a1,1,0,0,0-.1.46,1,1,0,0,0,.28.71,1.16,1.16,0,0,0,.79.26,1.49,1.49,0,0,0,.77-.21,3.39,3.39,0,0,0,.74-.64Z"/><path class="cls-1" d="M100.22,36.85a.4.4,0,0,1-.41.45H96.05a3.72,3.72,0,0,0,.09.86,1.65,1.65,0,0,0,.32.65,1.3,1.3,0,0,0,.58.42,2.26,2.26,0,0,0,.87.15,3.17,3.17,0,0,0,.73-.07,3.08,3.08,0,0,0,.55-.15,2.68,2.68,0,0,0,.39-.15A.66.66,0,0,1,99.8,39l.08,0a.2.2,0,0,1,.06.07,1,1,0,0,1,0,.12c0,.05,0,.12,0,.19s0,.11,0,.15,0,.07,0,.11a.11.11,0,0,1,0,.08.13.13,0,0,1-.06.07.58.58,0,0,1-.2.12,3.36,3.36,0,0,1-.45.15,6.07,6.07,0,0,1-.63.14,4.59,4.59,0,0,1-.76.06,3.4,3.4,0,0,1-1.24-.2,2.26,2.26,0,0,1-.89-.58,2.62,2.62,0,0,1-.55-1A4.62,4.62,0,0,1,95,37.12a4.17,4.17,0,0,1,.19-1.32,2.84,2.84,0,0,1,.55-1,2.5,2.5,0,0,1,.87-.63A2.92,2.92,0,0,1,97.7,34a2.68,2.68,0,0,1,1.15.22,2.13,2.13,0,0,1,1.22,1.44,3.51,3.51,0,0,1,.15,1Zm-1.06-.31a1.92,1.92,0,0,0-.36-1.3,1.41,1.41,0,0,0-1.15-.47,1.54,1.54,0,0,0-1.18.53,1.82,1.82,0,0,0-.3.57,2.09,2.09,0,0,0-.12.67Z"/><path class="cls-1" d="M109.44,39.66a1.21,1.21,0,0,1,0,.2.46.46,0,0,1-.05.14s0,.07-.07.08a.16.16,0,0,1-.09,0h-3.94A.44.44,0,0,1,105,40a.39.39,0,0,1-.13-.34V32.34A.42.42,0,0,1,105,32a.49.49,0,0,1,.28-.09h3.89a.16.16,0,0,1,.1,0l.06.08a.54.54,0,0,1,0,.15,1.06,1.06,0,0,1,0,.21,1.12,1.12,0,0,1,0,.2.47.47,0,0,1,0,.14l-.06.08-.1,0H106v2.58h2.76l.09,0a.27.27,0,0,1,.07.08.39.39,0,0,1,0,.14,1.34,1.34,0,0,1,0,.21,1.09,1.09,0,0,1,0,.19.47.47,0,0,1,0,.14.16.16,0,0,1-.07.07.15.15,0,0,1-.09,0H106V39.2h3.26l.09,0s0,0,.07.08a.38.38,0,0,1,.05.14A1.22,1.22,0,0,1,109.44,39.66Z"/><path class="cls-1" d="M115.43,39.83a.37.37,0,0,1,0,.15.12.12,0,0,1-.06.1.64.64,0,0,1-.19.05l-.32,0h-.3l-.18,0-.1-.06-.06-.08L112.9,37.7,111.53,40a.16.16,0,0,1-.06.08.29.29,0,0,1-.1.06l-.17,0h-.29l-.3,0a.49.49,0,0,1-.17-.05.11.11,0,0,1,0-.1.29.29,0,0,1,.06-.15L112.23,37l-1.69-2.68a.37.37,0,0,1-.05-.15.12.12,0,0,1,.06-.1.38.38,0,0,1,.18-.06h.62l.18,0a.19.19,0,0,1,.09.05l.06.08,1.3,2.12,1.32-2.12.06-.07.08-.06.16,0h.57a.43.43,0,0,1,.17.05.09.09,0,0,1,0,.1.32.32,0,0,1-.06.16L113.66,37Z"/><path class="cls-1" d="M122,37a5.08,5.08,0,0,1-.16,1.34,2.87,2.87,0,0,1-.48,1,2,2,0,0,1-.77.64,2.45,2.45,0,0,1-1.53.18,1.52,1.52,0,0,1-.42-.16,2.07,2.07,0,0,1-.41-.27c-.14-.11-.28-.24-.44-.39v2.86a.15.15,0,0,1,0,.09l-.08.06a.53.53,0,0,1-.16,0H117a.62.62,0,0,1-.16,0,.18.18,0,0,1-.08-.06.15.15,0,0,1,0-.09v-8s0-.07,0-.09a.09.09,0,0,1,.07-.06l.15,0h.43l.15,0a.11.11,0,0,1,.07.06.12.12,0,0,1,0,.09V35a5.3,5.3,0,0,1,.5-.47,2.67,2.67,0,0,1,.48-.32,2,2,0,0,1,.51-.2,1.9,1.9,0,0,1,.54-.07,2.18,2.18,0,0,1,1.06.24,2,2,0,0,1,.71.66,3,3,0,0,1,.41,1A5.55,5.55,0,0,1,122,37Zm-1.08.12a5.73,5.73,0,0,0-.07-.85,2.32,2.32,0,0,0-.23-.73,1.36,1.36,0,0,0-.44-.51,1.21,1.21,0,0,0-.68-.19,1.34,1.34,0,0,0-.4.06,2.12,2.12,0,0,0-.41.19,3.88,3.88,0,0,0-.42.35,5.07,5.07,0,0,0-.48.52v2.27a4.77,4.77,0,0,0,.83.81,1.36,1.36,0,0,0,.82.28,1.18,1.18,0,0,0,.68-.19,1.51,1.51,0,0,0,.46-.51,2.59,2.59,0,0,0,.25-.71A3.55,3.55,0,0,0,120.9,37.13Z"/><path class="cls-1" d="M126.9,34.61c0,.1,0,.17,0,.24a.33.33,0,0,1,0,.15.2.2,0,0,1,0,.08.11.11,0,0,1-.08,0l-.13,0-.16-.06-.21-.05a1,1,0,0,0-.25,0,.73.73,0,0,0-.31.07,1.09,1.09,0,0,0-.32.21,2.21,2.21,0,0,0-.35.38c-.12.16-.26.36-.41.59V40a.13.13,0,0,1,0,.09l-.08.06-.16,0h-.52l-.16,0a.18.18,0,0,1-.08-.06.13.13,0,0,1,0-.09V34.24a.13.13,0,0,1,0-.09.14.14,0,0,1,.07-.06l.15,0h.46l.15,0a.22.22,0,0,1,.07.06.13.13,0,0,1,0,.09v.83a6.5,6.5,0,0,1,.44-.56,2.77,2.77,0,0,1,.39-.34,1.34,1.34,0,0,1,.37-.17,1.49,1.49,0,0,1,.36,0h.19l.22,0,.21,0,.13.07,0,.06a.64.64,0,0,1,0,.07.45.45,0,0,1,0,.13C126.89,34.44,126.9,34.52,126.9,34.61Z"/><path class="cls-1" d="M132.79,36.85a.45.45,0,0,1-.12.35.43.43,0,0,1-.29.1h-3.76a3.22,3.22,0,0,0,.1.86,1.53,1.53,0,0,0,.32.65,1.3,1.3,0,0,0,.58.42,2.26,2.26,0,0,0,.87.15,3.23,3.23,0,0,0,.73-.07,3.08,3.08,0,0,0,.55-.15,2.5,2.5,0,0,0,.38-.15.7.7,0,0,1,.23-.06l.08,0a.18.18,0,0,1,0,.07.21.21,0,0,1,0,.12,1.09,1.09,0,0,1,0,.19v.15s0,.07,0,.11l0,.08-.06.07a.56.56,0,0,1-.21.12,3.16,3.16,0,0,1-.44.15,6.07,6.07,0,0,1-.63.14,4.72,4.72,0,0,1-.77.06,3.31,3.31,0,0,1-1.23-.2,2.26,2.26,0,0,1-.89-.58,2.49,2.49,0,0,1-.55-1,4.62,4.62,0,0,1-.18-1.36,4.17,4.17,0,0,1,.19-1.32,2.69,2.69,0,0,1,.55-1,2.46,2.46,0,0,1,.86-.63,3,3,0,0,1,1.14-.22,2.68,2.68,0,0,1,1.15.22,2.2,2.2,0,0,1,1.22,1.44,3.51,3.51,0,0,1,.14,1Zm-1-.31a1.92,1.92,0,0,0-.37-1.3,1.41,1.41,0,0,0-1.14-.47,1.52,1.52,0,0,0-.69.15,1.41,1.41,0,0,0-.49.38,2.08,2.08,0,0,0-.31.57,2.41,2.41,0,0,0-.12.67Z"/><path class="cls-1" d="M138,38.4a1.78,1.78,0,0,1-.16.78,1.51,1.51,0,0,1-.46.57,2.07,2.07,0,0,1-.71.36,3.28,3.28,0,0,1-.91.12,3.58,3.58,0,0,1-.58,0,2.93,2.93,0,0,1-.49-.12l-.38-.15a1.21,1.21,0,0,1-.22-.14.45.45,0,0,1-.1-.18,1.3,1.3,0,0,1,0-.31,1.15,1.15,0,0,1,0-.2c0-.06,0-.1,0-.14s0-.06.06-.07a.11.11,0,0,1,.08,0,.53.53,0,0,1,.2.08l.34.19a3.05,3.05,0,0,0,.47.19,2.35,2.35,0,0,0,.63.08,2.28,2.28,0,0,0,.48,0,1.33,1.33,0,0,0,.38-.17.84.84,0,0,0,.33-.69.63.63,0,0,0-.13-.41,1.29,1.29,0,0,0-.32-.29,3.94,3.94,0,0,0-.46-.23l-.52-.2a3.65,3.65,0,0,1-.53-.25,1.92,1.92,0,0,1-.46-.33A1.64,1.64,0,0,1,134.2,35a1.69,1.69,0,0,1,.39-.54,2.13,2.13,0,0,1,.65-.37,2.76,2.76,0,0,1,.91-.14,3.57,3.57,0,0,1,.46,0,3.52,3.52,0,0,1,.41.1,1.55,1.55,0,0,1,.31.12.7.7,0,0,1,.2.12.19.19,0,0,1,.09.09.11.11,0,0,1,0,.08s0,.07,0,.12a.86.86,0,0,1,0,.17,1.15,1.15,0,0,1,0,.19l0,.13s0,.06,0,.07a.11.11,0,0,1-.07,0,.32.32,0,0,1-.17-.07l-.28-.15-.4-.15a2.15,2.15,0,0,0-.53-.06,1.63,1.63,0,0,0-.47.06.84.84,0,0,0-.34.17.7.7,0,0,0-.19.26.72.72,0,0,0-.07.33.66.66,0,0,0,.13.42,1,1,0,0,0,.33.29,2.47,2.47,0,0,0,.46.23l.53.21.54.24a2.21,2.21,0,0,1,.46.32,1.39,1.39,0,0,1,.33.46A1.56,1.56,0,0,1,138,38.4Z"/><path class="cls-1" d="M143.06,38.4a1.79,1.79,0,0,1-.17.78,1.42,1.42,0,0,1-.46.57,1.9,1.9,0,0,1-.71.36,3.16,3.16,0,0,1-.9.12,3.48,3.48,0,0,1-.58,0,3.06,3.06,0,0,1-.5-.12,2.81,2.81,0,0,1-.37-.15.93.93,0,0,1-.22-.14.35.35,0,0,1-.1-.18.9.9,0,0,1,0-.31,1,1,0,0,1,0-.2.49.49,0,0,1,0-.14.13.13,0,0,1,.05-.07.12.12,0,0,1,.08,0,.51.51,0,0,1,.21.08l.33.19a3.2,3.2,0,0,0,.48.19,2.35,2.35,0,0,0,.63.08,2.44,2.44,0,0,0,.48,0,1.26,1.26,0,0,0,.37-.17.78.78,0,0,0,.25-.29,1,1,0,0,0,.08-.4.69.69,0,0,0-.12-.41,1.18,1.18,0,0,0-.33-.29,3.28,3.28,0,0,0-.46-.23l-.52-.2a4.22,4.22,0,0,1-.53-.25,2.15,2.15,0,0,1-.46-.33,1.56,1.56,0,0,1-.32-.47,1.45,1.45,0,0,1-.13-.65,1.79,1.79,0,0,1,.13-.65,1.69,1.69,0,0,1,.39-.54,2.26,2.26,0,0,1,.65-.37,2.82,2.82,0,0,1,.92-.14,3.42,3.42,0,0,1,.45,0,3.52,3.52,0,0,1,.41.1,1.66,1.66,0,0,1,.32.12.87.87,0,0,1,.2.12.22.22,0,0,1,.08.09.2.2,0,0,1,0,.08.74.74,0,0,0,0,.12c0,.05,0,.1,0,.17s0,.13,0,.19a.5.5,0,0,1,0,.13.13.13,0,0,1-.05.07.08.08,0,0,1-.07,0,.35.35,0,0,1-.17-.07l-.27-.15-.41-.15a2.09,2.09,0,0,0-.53-.06,1.68,1.68,0,0,0-.47.06.86.86,0,0,0-.33.17.73.73,0,0,0-.2.26.88.88,0,0,0-.06.33.72.72,0,0,0,.12.42,1.32,1.32,0,0,0,.33.29,2.57,2.57,0,0,0,.47.23l.53.21c.18.07.35.15.53.24a2.29,2.29,0,0,1,.47.32,1.52,1.52,0,0,1,.32.46A1.41,1.41,0,0,1,143.06,38.4Z"/><path class="cls-1" d="M149.87,37a4.06,4.06,0,0,1-.19,1.29,2.67,2.67,0,0,1-.55,1,2.46,2.46,0,0,1-.91.66,3.16,3.16,0,0,1-1.27.24,3.3,3.3,0,0,1-1.23-.21,2.18,2.18,0,0,1-.87-.61,2.39,2.39,0,0,1-.52-1,4.29,4.29,0,0,1-.17-1.29,4.37,4.37,0,0,1,.18-1.29,2.8,2.8,0,0,1,.54-1,2.4,2.4,0,0,1,.91-.66,3.18,3.18,0,0,1,1.28-.24,3.3,3.3,0,0,1,1.23.21,2.18,2.18,0,0,1,.87.61,2.59,2.59,0,0,1,.52,1A4.28,4.28,0,0,1,149.87,37Zm-.74-5.26a1.47,1.47,0,0,1-.33,1,1.19,1.19,0,0,1-.9.35,1.33,1.33,0,0,1-.42-.06,2.07,2.07,0,0,1-.34-.15,1.94,1.94,0,0,1-.27-.21l-.25-.2-.25-.15a.48.48,0,0,0-.26-.07.39.39,0,0,0-.36.19,1.09,1.09,0,0,0-.1.49.22.22,0,0,1,0,.08.12.12,0,0,1,0,0l-.12,0h-.38a.35.35,0,0,1-.11,0l-.06-.09a.44.44,0,0,1,0-.13,1.53,1.53,0,0,1,.32-1,1.13,1.13,0,0,1,.91-.37,1.22,1.22,0,0,1,.59.13,4.92,4.92,0,0,1,.45.28l.37.29a.62.62,0,0,0,.38.14.41.41,0,0,0,.35-.17,1,1,0,0,0,.11-.5.16.16,0,0,1,.07-.14.85.85,0,0,1,.29,0,.58.58,0,0,1,.31,0A.23.23,0,0,1,149.13,31.77Zm-.35,5.33a4.77,4.77,0,0,0-.08-.87,2.28,2.28,0,0,0-.29-.73,1.35,1.35,0,0,0-.54-.49,1.74,1.74,0,0,0-.84-.18,1.86,1.86,0,0,0-.81.16,1.47,1.47,0,0,0-.55.47,2,2,0,0,0-.32.71,3.72,3.72,0,0,0-.11.91,4.17,4.17,0,0,0,.09.88,1.92,1.92,0,0,0,.29.72,1.42,1.42,0,0,0,.54.49,1.74,1.74,0,0,0,.84.18,1.78,1.78,0,0,0,.8-.17,1.48,1.48,0,0,0,.56-.46,2.2,2.2,0,0,0,.32-.71A3.73,3.73,0,0,0,148.78,37.1Z"/><path class="cls-1" d="M156.29,36.85a.45.45,0,0,1-.13.35.42.42,0,0,1-.28.1h-3.76a3.72,3.72,0,0,0,.09.86,1.53,1.53,0,0,0,.32.65,1.3,1.3,0,0,0,.58.42,2.26,2.26,0,0,0,.87.15,3.17,3.17,0,0,0,.73-.07,3.08,3.08,0,0,0,.55-.15,2.68,2.68,0,0,0,.39-.15.66.66,0,0,1,.22-.06l.08,0L156,39a.37.37,0,0,1,0,.12,1.09,1.09,0,0,1,0,.19v.15s0,.07,0,.11a.11.11,0,0,1,0,.08.13.13,0,0,1-.06.07.58.58,0,0,1-.2.12,3.92,3.92,0,0,1-.45.15,6.07,6.07,0,0,1-.63.14,4.59,4.59,0,0,1-.76.06,3.36,3.36,0,0,1-1.24-.2,2.26,2.26,0,0,1-.89-.58,2.62,2.62,0,0,1-.55-1,4.62,4.62,0,0,1-.18-1.36,4.17,4.17,0,0,1,.19-1.32,2.84,2.84,0,0,1,.55-1,2.5,2.5,0,0,1,.87-.63,2.88,2.88,0,0,1,1.13-.22,2.68,2.68,0,0,1,1.15.22,2.13,2.13,0,0,1,1.22,1.44,3.51,3.51,0,0,1,.15,1Zm-1.06-.31a1.92,1.92,0,0,0-.37-1.3,1.39,1.39,0,0,0-1.14-.47,1.54,1.54,0,0,0-1.18.53,1.82,1.82,0,0,0-.3.57,1.85,1.85,0,0,0-.12.67Z"/><path class="cls-1" d="M161.47,38.4a1.79,1.79,0,0,1-.17.78,1.42,1.42,0,0,1-.46.57,2,2,0,0,1-.71.36,3.23,3.23,0,0,1-.91.12,3.68,3.68,0,0,1-.58,0,2.93,2.93,0,0,1-.49-.12,2.81,2.81,0,0,1-.37-.15.93.93,0,0,1-.22-.14.37.37,0,0,1-.11-.18,1.3,1.3,0,0,1,0-.31c0-.08,0-.15,0-.2a.47.47,0,0,1,0-.14.13.13,0,0,1,.05-.07.11.11,0,0,1,.08,0,.56.56,0,0,1,.21.08l.33.19a3.2,3.2,0,0,0,.48.19,2.33,2.33,0,0,0,.62.08,2.46,2.46,0,0,0,.49,0,1.4,1.4,0,0,0,.37-.17.78.78,0,0,0,.25-.29,1,1,0,0,0,.08-.4.69.69,0,0,0-.12-.41,1.35,1.35,0,0,0-.33-.29,3.94,3.94,0,0,0-.46-.23l-.52-.2a3.65,3.65,0,0,1-.53-.25,2.15,2.15,0,0,1-.46-.33,1.8,1.8,0,0,1-.33-.47,1.75,1.75,0,0,1,0-1.3,1.69,1.69,0,0,1,.39-.54,2.26,2.26,0,0,1,.65-.37,2.81,2.81,0,0,1,.91-.14,3.42,3.42,0,0,1,.46,0,3.52,3.52,0,0,1,.41.1,1.66,1.66,0,0,1,.32.12.78.78,0,0,1,.19.12.19.19,0,0,1,.09.09.11.11,0,0,1,0,.08.37.37,0,0,1,0,.12.86.86,0,0,1,0,.17,1.15,1.15,0,0,1,0,.19.28.28,0,0,1,0,.13.13.13,0,0,1,0,.07.1.1,0,0,1-.07,0,.32.32,0,0,1-.17-.07l-.28-.15-.4-.15a2.09,2.09,0,0,0-.53-.06,1.68,1.68,0,0,0-.47.06.79.79,0,0,0-.33.17.73.73,0,0,0-.2.26.88.88,0,0,0-.07.33.72.72,0,0,0,.13.42,1.32,1.32,0,0,0,.33.29,2.82,2.82,0,0,0,.46.23l.54.21.53.24a2.21,2.21,0,0,1,.46.32,1.39,1.39,0,0,1,.33.46A1.55,1.55,0,0,1,161.47,38.4Z"/><path class="cls-1" d="M175,39.94s0,.07,0,.09a.15.15,0,0,1-.09.06l-.17,0-.27,0-.25,0a.53.53,0,0,1-.17,0,.16.16,0,0,1-.12-.15V32.79h0L171,40a.18.18,0,0,1,0,.07l-.1.06-.16,0h-.45l-.16,0a.19.19,0,0,1-.09-.05.15.15,0,0,1-.05-.07l-2.77-7.19h0v7.15s0,.07,0,.09a.15.15,0,0,1-.09.06l-.17,0-.27,0-.26,0a.61.61,0,0,1-.17,0,.1.1,0,0,1-.08-.06.12.12,0,0,1,0-.09V32.39a.43.43,0,0,1,.46-.49h.67a1.86,1.86,0,0,1,.36,0,1,1,0,0,1,.27.12,1,1,0,0,1,.2.21,2.08,2.08,0,0,1,.13.3l2.35,5.95h0l2.45-5.93a1.19,1.19,0,0,1,.15-.32,1.42,1.42,0,0,1,.18-.22.61.61,0,0,1,.23-.11,1.14,1.14,0,0,1,.28,0h.7l.19,0a.6.6,0,0,1,.15.09.49.49,0,0,1,.1.16.69.69,0,0,1,0,.22Z"/><path class="cls-1" d="M181.91,40a.24.24,0,0,1,0,.09l-.08.06-.15,0h-.46l-.15,0A.22.22,0,0,1,181,40a.24.24,0,0,1,0-.09V39.2a3.46,3.46,0,0,1-1,.78,2,2,0,0,1-1,.25,2.13,2.13,0,0,1-1-.19,1.7,1.7,0,0,1-.63-.52,2.12,2.12,0,0,1-.35-.76,4.59,4.59,0,0,1-.1-1.06V34.24a.13.13,0,0,1,0-.09.18.18,0,0,1,.08-.06l.17,0h.51l.16,0a.18.18,0,0,1,.08.06.14.14,0,0,1,0,.09v3.32a3.52,3.52,0,0,0,.07.81,1.49,1.49,0,0,0,.22.51,1.1,1.1,0,0,0,.38.33,1.12,1.12,0,0,0,.53.12,1.31,1.31,0,0,0,.79-.28,4.53,4.53,0,0,0,.83-.82v-4a.13.13,0,0,1,0-.09.17.17,0,0,1,.09-.06.53.53,0,0,1,.16,0h.51l.16,0,.08.06a.14.14,0,0,1,0,.09Z"/><path class="cls-1" d="M187.43,38.4a1.78,1.78,0,0,1-.16.78,1.51,1.51,0,0,1-.46.57,2,2,0,0,1-.71.36,3.23,3.23,0,0,1-.91.12,3.68,3.68,0,0,1-.58,0,2.93,2.93,0,0,1-.49-.12,2.81,2.81,0,0,1-.37-.15,1,1,0,0,1-.23-.14.45.45,0,0,1-.1-.18,1.3,1.3,0,0,1,0-.31,1.15,1.15,0,0,1,0-.2c0-.06,0-.1,0-.14a.22.22,0,0,1,.06-.07.11.11,0,0,1,.08,0,.53.53,0,0,1,.2.08l.34.19a3.05,3.05,0,0,0,.47.19,2.41,2.41,0,0,0,.63.08,2.28,2.28,0,0,0,.48,0,1.33,1.33,0,0,0,.38-.17.75.75,0,0,0,.24-.29.84.84,0,0,0,.09-.4.69.69,0,0,0-.12-.41,1.56,1.56,0,0,0-.33-.29,3.94,3.94,0,0,0-.46-.23l-.52-.2a3.65,3.65,0,0,1-.53-.25,2.15,2.15,0,0,1-.46-.33,1.8,1.8,0,0,1-.33-.47,1.75,1.75,0,0,1,0-1.3,1.69,1.69,0,0,1,.39-.54,2.13,2.13,0,0,1,.65-.37,2.76,2.76,0,0,1,.91-.14,3.57,3.57,0,0,1,.46,0,3.52,3.52,0,0,1,.41.1,2,2,0,0,1,.32.12.78.78,0,0,1,.19.12.19.19,0,0,1,.09.09.11.11,0,0,1,0,.08.37.37,0,0,1,0,.12.86.86,0,0,1,0,.17,1.15,1.15,0,0,1,0,.19.28.28,0,0,1,0,.13.13.13,0,0,1,0,.07.1.1,0,0,1-.07,0,.32.32,0,0,1-.17-.07l-.28-.15-.4-.15a2.15,2.15,0,0,0-.53-.06,1.63,1.63,0,0,0-.47.06.74.74,0,0,0-.33.17.63.63,0,0,0-.2.26.77.77,0,0,0,.06.75,1,1,0,0,0,.33.29,2.47,2.47,0,0,0,.46.23l.53.21.54.24a2.21,2.21,0,0,1,.46.32,1.39,1.39,0,0,1,.33.46A1.56,1.56,0,0,1,187.43,38.4Z"/><path class="cls-1" d="M193.81,36.85a.4.4,0,0,1-.41.45h-3.76a3.72,3.72,0,0,0,.09.86,1.65,1.65,0,0,0,.32.65,1.3,1.3,0,0,0,.58.42,2.26,2.26,0,0,0,.87.15,3.17,3.17,0,0,0,.73-.07,3.08,3.08,0,0,0,.55-.15,2.68,2.68,0,0,0,.39-.15.66.66,0,0,1,.22-.06l.08,0a.2.2,0,0,1,.06.07,1,1,0,0,1,0,.12c0,.05,0,.12,0,.19s0,.11,0,.15,0,.07,0,.11a.11.11,0,0,1,0,.08.13.13,0,0,1-.06.07.58.58,0,0,1-.2.12,3.36,3.36,0,0,1-.45.15,6.07,6.07,0,0,1-.63.14,4.59,4.59,0,0,1-.76.06,3.4,3.4,0,0,1-1.24-.2,2.26,2.26,0,0,1-.89-.58,2.62,2.62,0,0,1-.55-1,4.62,4.62,0,0,1-.18-1.36,4.17,4.17,0,0,1,.19-1.32,2.84,2.84,0,0,1,.55-1,2.5,2.5,0,0,1,.87-.63,2.88,2.88,0,0,1,1.13-.22,2.68,2.68,0,0,1,1.15.22,2.13,2.13,0,0,1,1.22,1.44,3.51,3.51,0,0,1,.15,1Zm-1.06-.31a1.92,1.92,0,0,0-.36-1.3,1.41,1.41,0,0,0-1.15-.47,1.54,1.54,0,0,0-1.18.53,1.82,1.82,0,0,0-.3.57,1.85,1.85,0,0,0-.12.67Z"/><path class="cls-1" d="M199.7,40s0,.09,0,.11a.26.26,0,0,1-.14.06l-.26,0-.26,0a.23.23,0,0,1-.14-.06.13.13,0,0,1,0-.11v-.57A3.05,3.05,0,0,1,198,40a2.2,2.2,0,0,1-1,.22,2.55,2.55,0,0,1-.81-.12,1.69,1.69,0,0,1-.62-.34,1.41,1.41,0,0,1-.4-.54,1.69,1.69,0,0,1,.61-2.17,3,3,0,0,1,.91-.35,5.41,5.41,0,0,1,1.2-.12h.78v-.44a2.12,2.12,0,0,0-.07-.59,1,1,0,0,0-.22-.42,1.05,1.05,0,0,0-.41-.25,1.75,1.75,0,0,0-.61-.09,2.17,2.17,0,0,0-.69.1,2.79,2.79,0,0,0-.54.2l-.39.2a.52.52,0,0,1-.23.09l-.09,0a.28.28,0,0,1-.06-.08.39.39,0,0,1,0-.13s0-.11,0-.17a1.47,1.47,0,0,1,0-.25.58.58,0,0,1,.11-.18,1.58,1.58,0,0,1,.3-.19,2.66,2.66,0,0,1,.48-.2,3.27,3.27,0,0,1,.6-.16,3.49,3.49,0,0,1,.65-.06,3.56,3.56,0,0,1,1.05.14,1.78,1.78,0,0,1,.7.41,1.63,1.63,0,0,1,.38.67,3.28,3.28,0,0,1,.12.93Zm-1-2.61h-.89a3.3,3.3,0,0,0-.75.07,1.51,1.51,0,0,0-.53.22.91.91,0,0,0-.31.34,1.11,1.11,0,0,0-.09.46.92.92,0,0,0,.28.71,1.14,1.14,0,0,0,.79.26,1.45,1.45,0,0,0,.76-.21,3.17,3.17,0,0,0,.74-.64Z"/><path class="cls-1" d="M202.79,32.31a.71.71,0,0,1-.13.5.78.78,0,0,1-.52.13.71.71,0,0,1-.5-.13.67.67,0,0,1-.14-.49.71.71,0,0,1,.14-.5,1.07,1.07,0,0,1,1,0A.67.67,0,0,1,202.79,32.31ZM202.67,40a.13.13,0,0,1,0,.09l-.08.06-.16,0h-.52l-.16,0a.18.18,0,0,1-.08-.06.13.13,0,0,1,0-.09V34.24a.11.11,0,0,1,0-.08s0,0,.08-.07l.16,0h.52l.16,0a.27.27,0,0,1,.08.07.11.11,0,0,1,0,.08Z"/><path class="cls-1" d="M208.2,38.4a1.79,1.79,0,0,1-.17.78,1.42,1.42,0,0,1-.46.57,1.9,1.9,0,0,1-.71.36,3.16,3.16,0,0,1-.9.12,3.48,3.48,0,0,1-.58,0,3.06,3.06,0,0,1-.5-.12,2.81,2.81,0,0,1-.37-.15.93.93,0,0,1-.22-.14.46.46,0,0,1-.11-.18,1.3,1.3,0,0,1,0-.31,1,1,0,0,1,0-.2.29.29,0,0,1,0-.14.13.13,0,0,1,.05-.07.11.11,0,0,1,.08,0,.51.51,0,0,1,.21.08l.33.19a3.2,3.2,0,0,0,.48.19,2.33,2.33,0,0,0,.62.08,2.46,2.46,0,0,0,.49,0,1.26,1.26,0,0,0,.37-.17.78.78,0,0,0,.25-.29,1,1,0,0,0,.08-.4.69.69,0,0,0-.12-.41,1.18,1.18,0,0,0-.33-.29,3.28,3.28,0,0,0-.46-.23l-.52-.2a4.22,4.22,0,0,1-.53-.25,2.15,2.15,0,0,1-.46-.33,1.56,1.56,0,0,1-.32-.47,1.45,1.45,0,0,1-.13-.65,1.79,1.79,0,0,1,.13-.65,1.69,1.69,0,0,1,.39-.54,2.26,2.26,0,0,1,.65-.37,2.81,2.81,0,0,1,.91-.14,3.42,3.42,0,0,1,.46,0,3.52,3.52,0,0,1,.41.1,1.66,1.66,0,0,1,.32.12.87.87,0,0,1,.2.12.22.22,0,0,1,.08.09.2.2,0,0,1,0,.08s0,.07,0,.12a.86.86,0,0,1,0,.17,1.15,1.15,0,0,1,0,.19.28.28,0,0,1,0,.13.13.13,0,0,1-.05.07.08.08,0,0,1-.07,0,.35.35,0,0,1-.17-.07L207.3,35l-.41-.15a2.09,2.09,0,0,0-.53-.06,1.68,1.68,0,0,0-.47.06.86.86,0,0,0-.33.17.73.73,0,0,0-.2.26.88.88,0,0,0-.06.33.72.72,0,0,0,.12.42,1.32,1.32,0,0,0,.33.29,2.57,2.57,0,0,0,.47.23l.53.21c.18.07.35.15.53.24a2.59,2.59,0,0,1,.47.32,1.52,1.52,0,0,1,.32.46A1.41,1.41,0,0,1,208.2,38.4Z"/><path class="cls-1" d="M34.47,39c.74,3.91.59,4.1-2.91,4.13l-28.31.17c-1,0-2,0-3.08,0V39Z"/><path class="cls-1" d="M13.08,33.73l-12-2L1.86,28c1.47.17,2.81.34,4.15.45,2.54.18,3.74-.88,3.88-3.44s-1.47-3.1-3.54-3.14c-1.19,0-2.38-.08-3.57,0C.51,22-.59,21.25.32,18.54c3.51,0,7.16-.21,10.78.06a3.74,3.74,0,0,1,3.69,4.54c-.43,3.43-1.09,6.83-1.71,10.59"/><path class="cls-1" d="M34.69,18.29v3.57a55.25,55.25,0,0,1-6,.22c-2.73-.17-3.58,1.09-3.49,3.61.1,2.91,0,5.83,0,9H20.45c0-4.09-.16-8.11.06-12.1a4.23,4.23,0,0,1,4.29-4.23c3.17-.16,6.37,0,9.89,0"/><path class="cls-1" d="M14.68,14.27H5.1V10.44c4.83-.83,4.83-.83,4.83-5.86V.17C11,.1,11.66,0,12.37,0s1.43.1,2.31.16Z"/><path class="cls-1" d="M25.75,13.75H21.16c0-2.42-.15-4.78.05-7.11a4.72,4.72,0,0,1,4-4.28c2.92-.68,5.89-1.15,8.89-1.71,1.1,2.53.31,3.65-2.12,3.78-.46,0-.92.08-1.36.15-4.65.79-4.9,1.09-4.91,5.81v3.36"/></svg>