<?xml version="1.0" encoding="utf-8"?>
<!-- Generator: Adobe Illustrator 22.0.1, SVG Export Plug-In . SVG Version: 6.00 Build 0)  -->
<svg version="1.1" baseProfile="tiny" id="Camada_1"
	 xmlns="http://www.w3.org/2000/svg" xmlns:xlink="http://www.w3.org/1999/xlink" x="0px" y="0px" viewBox="0 0 552 121"
	 xml:space="preserve">
<g>
	<g>
		<path fill="#A01C2C" d="M142.5,93.7c-0.9,0-1.6-0.7-1.6-1.6V75c0-0.9,0.7-1.6,1.6-1.6s1.6,0.7,1.6,1.6v17
			C144.1,93,143.4,93.7,142.5,93.7z"/>
	</g>
	<g>
		<path fill="#A01C2C" d="M257.5,104.9c-0.8,0-1.4-0.6-1.4-1.4V45.6c0-0.8,0.6-1.4,1.4-1.4c0.8,0,1.4,0.6,1.4,1.4v57.9
			C258.9,104.2,258.3,104.9,257.5,104.9z"/>
	</g>
	<g>
		<path fill="#A01C2C" d="M14,105.2c-0.1,0-0.2,0-0.3,0c-0.8-0.2-1.2-1-1-1.7l6-24.1c0.2-0.6,0.7-1.1,1.4-1.1c0.7,0,1.2,0.5,1.4,1.1
			l5,23.8c0.2,0.8-0.3,1.5-1.1,1.7c-0.8,0.2-1.5-0.3-1.7-1.1L19.9,86l-4.5,18.1C15.2,104.8,14.7,105.2,14,105.2z"/>
	</g>
	<g>
		<path fill="#A01C2C" d="M279.8,105.2c-0.1,0-0.2,0-0.3,0c-0.8-0.2-1.2-1-1-1.7l6-24.1c0.2-0.6,0.7-1.1,1.4-1.1
			c0.7,0,1.2,0.5,1.4,1.1l5,23.8c0.2,0.8-0.3,1.5-1.1,1.7c-0.8,0.2-1.5-0.3-1.7-1.1L285.7,86l-4.5,18.1
			C281,104.8,280.5,105.2,279.8,105.2z"/>
	</g>
	<g>
		<path fill="#A01C2C" d="M211.5,105.2c-0.1,0-0.2,0-0.3,0c-0.8-0.2-1.2-1-1-1.7l6-24.1c0.2-0.6,0.7-1.1,1.4-1.1
			c0.7,0,1.2,0.5,1.4,1.1l4.9,23.8c0.2,0.8-0.3,1.5-1.1,1.7c-0.8,0.2-1.5-0.3-1.7-1.1L217.4,86l-4.5,18.1
			C212.7,104.8,212.1,105.2,211.5,105.2z"/>
	</g>
	<g>
		<path fill="#A01C2C" d="M95.1,105.2c-0.1,0-0.2,0-0.3,0c-0.8-0.2-1.2-1-1-1.7l6-24.1c0.2-0.6,0.7-1.1,1.4-1.1
			c0.7,0,1.2,0.5,1.4,1.1l5,23.8c0.2,0.8-0.3,1.5-1.1,1.7c-0.8,0.2-1.5-0.3-1.7-1.1L101,86l-4.5,18.1
			C96.3,104.8,95.7,105.2,95.1,105.2z"/>
	</g>
	<g>
		<path fill="#A01C2C" d="M178.2,92.1c-0.8,0-1.4-0.6-1.4-1.4V46.3c0-0.8,0.6-1.4,1.4-1.4c0.8,0,1.4,0.6,1.4,1.4v44.4
			C179.7,91.4,179,92.1,178.2,92.1z"/>
	</g>
	<g>
		<path fill="#A01C2C" d="M67.8,69.7c-0.8,0-1.4-0.6-1.4-1.4V53.7c0-0.8,0.6-1.4,1.4-1.4c0.8,0,1.4,0.6,1.4,1.4v14.6
			C69.2,69.1,68.6,69.7,67.8,69.7z"/>
	</g>
</g>
<g>
	<g>
		<path d="M331.3,73.1c-0.2-0.2-0.3-0.5-0.3-0.9V56.3c0-0.4,0.1-0.6,0.3-0.8c0.2-0.2,0.5-0.3,0.8-0.3c0.3,0,0.6,0.1,0.8,0.3
			c0.2,0.2,0.3,0.5,0.3,0.8v15.9c0,0.4-0.1,0.6-0.4,0.9c-0.2,0.2-0.5,0.3-0.8,0.3C331.7,73.4,331.5,73.3,331.3,73.1"/>
	</g>
	<g>
		<path d="M338.2,72.4c-0.8-0.8-1.2-2-1.2-3.7v-6.9c0-0.3,0.1-0.6,0.3-0.8c0.2-0.2,0.5-0.3,0.8-0.3c0.3,0,0.6,0.1,0.8,0.3
			c0.2,0.2,0.3,0.5,0.3,0.8v6.9c0,1.1,0.3,1.9,0.7,2.5c0.5,0.6,1.2,0.9,2.1,0.9c1,0,1.8-0.3,2.5-1c0.7-0.7,1-1.6,1.1-2.8v-6.3
			c0-0.3,0.1-0.6,0.3-0.8c0.2-0.2,0.5-0.3,0.8-0.3c0.3,0,0.6,0.1,0.8,0.3s0.3,0.5,0.3,0.8v10.5c0,0.3-0.1,0.6-0.3,0.8
			c-0.2,0.2-0.5,0.3-0.8,0.3c-0.3,0-0.6-0.1-0.8-0.3c-0.2-0.2-0.3-0.4-0.3-0.8v-1.1c-0.3,0.8-0.9,1.4-1.6,1.8
			c-0.7,0.4-1.6,0.6-2.6,0.6C340.1,73.6,339,73.2,338.2,72.4"/>
	</g>
	<g>
		<path d="M352.7,77.8c-0.3-0.2-0.5-0.4-0.5-0.7c0-0.2,0.1-0.4,0.2-0.5c0.1-0.2,0.3-0.2,0.5-0.2c0.1,0,0.2,0,0.3,0
			c0,0,0.1,0.1,0.3,0.1c0.2,0.1,0.3,0.1,0.4,0.1c0.1,0,0.2,0.1,0.4,0.1c0.2,0.1,0.3,0.1,0.4,0.1c0.1,0,0.3,0.1,0.5,0.1
			c0.2,0,0.4,0.1,0.5,0.1c0.2,0,0.3,0,0.5,0.1c0.2,0,0.4,0,0.6,0c1.3,0,2.3-0.3,3-1c0.7-0.6,1-1.6,1-2.8v-2.5
			c-0.4,0.8-0.9,1.4-1.6,1.8c-0.7,0.5-1.5,0.7-2.5,0.7c-0.9,0-1.7-0.2-2.5-0.5c-0.7-0.3-1.3-0.8-1.8-1.3c-0.5-0.6-0.8-1.2-1.1-2
			c-0.3-0.8-0.4-1.6-0.4-2.4c0-1.2,0.2-2.4,0.7-3.3c0.4-1,1.1-1.8,2-2.4c0.9-0.6,1.9-0.9,3.1-0.9c2,0,3.4,0.8,4.2,2.5v-1.3
			c0-0.3,0.1-0.5,0.3-0.7c0.2-0.2,0.4-0.2,0.7-0.2c0.3,0,0.5,0.1,0.8,0.3c0.2,0.2,0.3,0.5,0.3,0.8v11.5c0,1.8-0.5,3.2-1.6,4.1
			c-1.1,0.9-2.6,1.4-4.4,1.4C355.3,78.7,353.8,78.4,352.7,77.8 M359.8,70.6c0.7-0.9,1-2.1,1-3.6c0-0.5,0-1-0.1-1.5
			c-0.1-0.5-0.2-0.9-0.4-1.3c-0.2-0.4-0.4-0.8-0.7-1.1c-0.3-0.3-0.6-0.6-1.1-0.7c-0.4-0.2-0.9-0.3-1.5-0.3c-0.9,0-1.6,0.2-2.2,0.7
			c-0.6,0.5-1,1.1-1.3,1.8c-0.3,0.7-0.4,1.6-0.4,2.5c0,1.6,0.4,2.8,1.1,3.6c0.7,0.8,1.6,1.2,2.8,1.2
			C358.2,71.8,359.1,71.4,359.8,70.6"/>
	</g>
	<g>
		<path d="M367,72.6c-0.8-0.6-1.2-1.5-1.2-2.7c0-0.5,0.1-0.9,0.2-1.3c0.1-0.4,0.2-0.7,0.4-1c0.2-0.3,0.4-0.5,0.8-0.7
			c0.3-0.2,0.7-0.4,1.1-0.5c0.4-0.1,0.9-0.2,1.5-0.3c0.6-0.1,1.3-0.1,1.9-0.1c0.7,0,1.5,0,2.4,0v-1.4c0-0.9-0.2-1.6-0.7-2
			c-0.5-0.4-1.2-0.7-2-0.7c-0.5,0-1,0.1-1.5,0.2c-0.5,0.1-0.9,0.2-1.2,0.3c-0.3,0.1-0.7,0.3-1.1,0.5c-0.1,0-0.2,0.1-0.3,0.1
			c-0.2,0-0.4-0.1-0.6-0.3c-0.2-0.2-0.2-0.4-0.2-0.6c0-0.3,0.1-0.5,0.4-0.6c1.3-0.7,2.9-1.1,4.7-1.1c1.6,0,2.8,0.4,3.6,1.1
			c0.9,0.7,1.3,1.8,1.3,3.3v7.4c0,0.3-0.1,0.6-0.3,0.8c-0.2,0.2-0.5,0.3-0.8,0.3c-0.3,0-0.6-0.1-0.8-0.3c-0.2-0.2-0.3-0.4-0.3-0.8
			v-1.2c-0.8,1.7-2.1,2.5-3.9,2.5C368.9,73.6,367.8,73.3,367,72.6 M373,70.9c0.7-0.8,1.1-1.8,1.1-3.1v-0.4c-1,0-1.9,0-2.6,0.1
			c-0.7,0-1.2,0.1-1.8,0.2c-0.5,0.1-0.9,0.2-1.1,0.4c-0.3,0.2-0.4,0.4-0.6,0.7c-0.1,0.3-0.2,0.6-0.2,1c0,0.8,0.2,1.3,0.7,1.7
			c0.5,0.4,1.1,0.5,1.9,0.5C371.4,72.1,372.3,71.7,373,70.9"/>
	</g>
	<g>
		<path d="M380.4,73.1c-0.2-0.2-0.3-0.4-0.3-0.8V61.8c0-0.3,0.1-0.6,0.3-0.8c0.2-0.2,0.5-0.3,0.8-0.3c0.3,0,0.6,0.1,0.8,0.3
			c0.2,0.2,0.3,0.4,0.3,0.8l0,1.5c0.2-0.8,0.6-1.5,1.3-2c0.6-0.5,1.4-0.8,2.3-0.8c0.3,0,0.5,0.1,0.6,0.3c0.2,0.2,0.2,0.4,0.2,0.7
			c0,0.3-0.1,0.5-0.2,0.7c-0.1,0.2-0.3,0.3-0.6,0.3c-1.1,0-2,0.3-2.7,0.9c-0.6,0.6-0.9,1.4-0.9,2.4v6.6c0,0.3-0.1,0.6-0.3,0.8
			c-0.2,0.2-0.5,0.3-0.8,0.3C380.9,73.4,380.6,73.3,380.4,73.1"/>
	</g>
	<g>
		<path d="M401.9,73.1c-0.7-0.4-1.3-0.9-1.7-1.5c-0.4-0.6-0.8-1.3-1-2.1c-0.2-0.8-0.3-1.6-0.3-2.5c0-0.9,0.1-1.8,0.4-2.5
			c0.3-0.8,0.6-1.5,1.1-2.1c0.5-0.6,1.1-1.1,1.8-1.4c0.7-0.3,1.5-0.5,2.4-0.5c0.9,0,1.8,0.2,2.5,0.6c0.7,0.4,1.3,1,1.7,1.8v-6.6
			c0-0.3,0.1-0.6,0.3-0.8c0.2-0.2,0.5-0.3,0.8-0.3c0.3,0,0.6,0.1,0.8,0.3c0.2,0.2,0.3,0.5,0.3,0.8v16c0,0.3-0.1,0.6-0.3,0.8
			c-0.2,0.2-0.5,0.3-0.8,0.3c-0.4,0-0.7-0.1-0.9-0.3c-0.2-0.2-0.3-0.5-0.3-0.8v-1.1c-0.4,0.8-1,1.4-1.8,1.8
			c-0.8,0.4-1.6,0.6-2.6,0.6C403.4,73.6,402.6,73.4,401.9,73.1 M408.6,67c0-0.6-0.1-1.2-0.2-1.8c-0.1-0.6-0.4-1.1-0.7-1.6
			c-0.3-0.5-0.7-0.9-1.2-1.1c-0.5-0.3-1.1-0.4-1.8-0.4c-0.7,0-1.2,0.2-1.7,0.4c-0.5,0.3-0.9,0.7-1.1,1.2c-0.3,0.5-0.5,1-0.6,1.6
			c-0.1,0.6-0.2,1.1-0.2,1.8c0,0.6,0.1,1.2,0.2,1.7c0.1,0.5,0.3,1.1,0.6,1.6c0.3,0.5,0.6,0.9,1.1,1.2c0.5,0.3,1.1,0.5,1.7,0.5
			C407.3,72,408.6,70.3,408.6,67"/>
	</g>
	<g>
		<path d="M417.1,72.8c-0.9-0.5-1.7-1.3-2.2-2.3c-0.6-1-0.8-2.2-0.8-3.5c0-1.2,0.2-2.3,0.7-3.2c0.5-1,1.2-1.8,2.1-2.4
			c0.9-0.6,2-0.9,3.3-0.9c1,0,1.9,0.2,2.6,0.5c0.7,0.3,1.3,0.8,1.8,1.4c0.4,0.6,0.8,1.2,1,1.9c0.2,0.7,0.3,1.5,0.4,2.4
			c0,0.3-0.1,0.5-0.2,0.6c-0.1,0.2-0.3,0.2-0.6,0.2h-8.7c0,1.5,0.4,2.6,1.2,3.3c0.8,0.8,1.7,1.1,2.9,1.2c0.8,0,1.4-0.1,2-0.4
			c0.6-0.3,1.2-0.6,1.8-1.1c0.2-0.1,0.3-0.2,0.5-0.2c0.2,0,0.4,0.1,0.5,0.2c0.1,0.2,0.2,0.3,0.2,0.6c0,0.3-0.1,0.5-0.4,0.7
			c-1.3,1.2-3,1.8-4.8,1.8C419.1,73.6,418,73.3,417.1,72.8 M423.8,66.1c-0.1-1.2-0.4-2.2-1-2.9c-0.6-0.8-1.5-1.1-2.6-1.1
			c-0.6,0-1.1,0.1-1.6,0.3s-0.9,0.5-1.2,0.9c-0.3,0.4-0.6,0.8-0.7,1.3c-0.2,0.5-0.3,1-0.3,1.5H423.8z"/>
	</g>
	<g>
		<path d="M436.7,73.1c-0.2-0.2-0.3-0.5-0.3-0.8V61.8c0-0.3,0.1-0.6,0.3-0.8c0.2-0.2,0.5-0.3,0.8-0.3c0.3,0,0.6,0.1,0.8,0.3
			c0.2,0.2,0.3,0.4,0.3,0.7v1.2c0.4-0.8,0.9-1.4,1.6-1.8c0.7-0.4,1.5-0.6,2.5-0.6c1.1,0,1.9,0.3,2.7,0.8c0.7,0.5,1.2,1.2,1.5,2.2
			c0.4-1,0.9-1.7,1.7-2.2c0.8-0.5,1.7-0.8,2.8-0.8c0.6,0,1.2,0.1,1.8,0.3c0.5,0.2,1,0.5,1.5,0.8c0.4,0.4,0.8,0.9,1,1.5
			c0.2,0.6,0.4,1.4,0.4,2.2v7c0,0.3-0.1,0.6-0.4,0.8c-0.2,0.2-0.5,0.3-0.8,0.3c-0.3,0-0.6-0.1-0.8-0.3c-0.2-0.2-0.3-0.5-0.3-0.8v-7
			c0-1.1-0.2-1.9-0.7-2.4c-0.5-0.5-1.2-0.8-2.1-0.8c-1.1,0-1.9,0.3-2.6,1.1c-0.7,0.7-1,1.7-1,3.1v6.1c0,0.3-0.1,0.6-0.3,0.8
			c-0.2,0.2-0.5,0.3-0.8,0.3c-0.3,0-0.6-0.1-0.8-0.3c-0.2-0.2-0.3-0.5-0.3-0.8v-6.7c0-2.3-0.9-3.5-2.8-3.5c-1.1,0-2,0.4-2.6,1.1
			c-0.7,0.7-1,1.7-1,3v6.2c0,0.3-0.1,0.6-0.3,0.8c-0.2,0.2-0.5,0.3-0.8,0.3C437.2,73.4,436.9,73.3,436.7,73.1"/>
	</g>
	<g>
		<path d="M462.1,72.8c-0.9-0.5-1.7-1.3-2.2-2.3c-0.6-1-0.8-2.2-0.8-3.5c0-1.2,0.2-2.3,0.7-3.2c0.5-1,1.2-1.8,2.1-2.4
			c0.9-0.6,2-0.9,3.3-0.9c1,0,1.9,0.2,2.6,0.5c0.7,0.3,1.3,0.8,1.8,1.4c0.4,0.6,0.8,1.2,1,1.9c0.2,0.7,0.3,1.5,0.4,2.4
			c0,0.3-0.1,0.5-0.2,0.6c-0.1,0.2-0.3,0.2-0.6,0.2h-8.7c0,1.5,0.4,2.6,1.2,3.3c0.8,0.8,1.7,1.1,2.9,1.2c0.8,0,1.4-0.1,2-0.4
			c0.6-0.3,1.2-0.6,1.8-1.1c0.2-0.1,0.3-0.2,0.5-0.2c0.2,0,0.4,0.1,0.5,0.2c0.1,0.2,0.2,0.3,0.2,0.6c0,0.3-0.1,0.5-0.4,0.7
			c-1.3,1.2-3,1.8-4.8,1.8C464.1,73.6,463,73.3,462.1,72.8 M468.8,66.1c-0.1-1.2-0.4-2.2-1-2.9c-0.6-0.8-1.5-1.1-2.6-1.1
			c-0.6,0-1.1,0.1-1.6,0.3c-0.5,0.2-0.9,0.5-1.2,0.9c-0.3,0.4-0.6,0.8-0.7,1.3c-0.2,0.5-0.3,1-0.3,1.5H468.8z"/>
	</g>
	<g>
		<path d="M474.3,73.1c-0.2-0.2-0.3-0.5-0.3-0.8V61.8c0-0.3,0.1-0.6,0.3-0.8s0.5-0.3,0.8-0.3c0.3,0,0.6,0.1,0.8,0.3
			c0.2,0.2,0.3,0.4,0.3,0.7v1.2c0.4-0.8,0.9-1.4,1.6-1.8c0.7-0.4,1.5-0.6,2.5-0.6c1,0,1.9,0.3,2.7,0.8c0.7,0.5,1.2,1.2,1.5,2.2
			c0.4-1,0.9-1.7,1.7-2.2c0.8-0.5,1.7-0.8,2.8-0.8c0.6,0,1.2,0.1,1.8,0.3c0.5,0.2,1,0.5,1.5,0.8c0.4,0.4,0.8,0.9,1,1.5
			c0.2,0.6,0.4,1.4,0.4,2.2v7c0,0.3-0.1,0.6-0.4,0.8c-0.2,0.2-0.5,0.3-0.8,0.3c-0.3,0-0.6-0.1-0.8-0.3c-0.2-0.2-0.3-0.5-0.3-0.8v-7
			c0-1.1-0.2-1.9-0.7-2.4c-0.5-0.5-1.2-0.8-2.1-0.8c-1.1,0-1.9,0.3-2.6,1.1c-0.7,0.7-1,1.7-1,3.1v6.1c0,0.3-0.1,0.6-0.3,0.8
			c-0.2,0.2-0.5,0.3-0.8,0.3c-0.3,0-0.6-0.1-0.8-0.3c-0.2-0.2-0.3-0.5-0.3-0.8v-6.7c0-2.3-0.9-3.5-2.8-3.5c-1.1,0-2,0.4-2.6,1.1
			c-0.7,0.7-1,1.7-1,3v6.2c0,0.3-0.1,0.6-0.3,0.8c-0.2,0.2-0.5,0.3-0.8,0.3C474.8,73.4,474.5,73.3,474.3,73.1"/>
	</g>
	<g>
		<path d="M498.3,71.7c-1.1-1.2-1.7-2.8-1.7-4.7c0-1.9,0.6-3.5,1.7-4.7c1.1-1.2,2.7-1.8,4.6-1.8c1.9,0,3.5,0.6,4.6,1.8
			c1.1,1.2,1.7,2.8,1.7,4.7c0,1.9-0.6,3.5-1.7,4.7c-1.1,1.2-2.7,1.8-4.6,1.8C501,73.6,499.4,73,498.3,71.7 M505.9,70.7
			c0.7-0.9,1.1-2.1,1.1-3.7c0-1.5-0.4-2.8-1.1-3.7c-0.7-0.9-1.7-1.4-3-1.4c-1.3,0-2.3,0.4-3,1.3c-0.7,0.9-1.1,2.1-1.1,3.7
			c0,1.5,0.4,2.7,1.1,3.6c0.7,0.9,1.7,1.3,3,1.3C504.2,72,505.2,71.6,505.9,70.7 M502.2,58.4c-0.1-0.1-0.2-0.2-0.2-0.4
			c0-0.2,0.1-0.3,0.2-0.4l3.3-3.8c0.2-0.3,0.5-0.4,0.8-0.4c0.3,0,0.6,0.1,0.8,0.4c0.3,0.3,0.4,0.5,0.4,0.8c0,0.3-0.1,0.5-0.3,0.6
			l-4,3.2c-0.2,0.2-0.4,0.2-0.5,0.2C502.4,58.6,502.3,58.5,502.2,58.4"/>
	</g>
	<g>
		<path d="M512.5,73.1c-0.2-0.2-0.3-0.4-0.3-0.8V61.8c0-0.3,0.1-0.6,0.3-0.8c0.2-0.2,0.5-0.3,0.8-0.3c0.3,0,0.6,0.1,0.8,0.3
			c0.2,0.2,0.3,0.4,0.3,0.8l0,1.5c0.2-0.8,0.6-1.5,1.3-2c0.6-0.5,1.4-0.8,2.3-0.8c0.3,0,0.5,0.1,0.6,0.3c0.2,0.2,0.2,0.4,0.2,0.7
			c0,0.3-0.1,0.5-0.2,0.7c-0.1,0.2-0.3,0.3-0.6,0.3c-1.1,0-2,0.3-2.7,0.9c-0.6,0.6-0.9,1.4-0.9,2.4v6.6c0,0.3-0.1,0.6-0.4,0.8
			c-0.2,0.2-0.5,0.3-0.8,0.3C513,73.4,512.7,73.3,512.5,73.1"/>
	</g>
	<g>
		<path d="M521.6,57.4c-0.3-0.3-0.4-0.6-0.4-1c0-0.4,0.1-0.8,0.4-1c0.3-0.3,0.6-0.4,1.1-0.4c0.4,0,0.8,0.1,1.1,0.4
			c0.3,0.3,0.4,0.6,0.4,1c0,0.4-0.1,0.8-0.4,1c-0.3,0.3-0.6,0.4-1.1,0.4C522.2,57.8,521.9,57.6,521.6,57.4 M521.9,73.1
			c-0.2-0.2-0.3-0.5-0.3-0.9V61.8c0-0.4,0.1-0.6,0.3-0.8c0.2-0.2,0.5-0.3,0.8-0.3c0.3,0,0.6,0.1,0.8,0.3c0.2,0.2,0.3,0.5,0.3,0.8
			v10.4c0,0.4-0.1,0.6-0.3,0.9c-0.2,0.2-0.5,0.3-0.8,0.3C522.3,73.4,522.1,73.3,521.9,73.1"/>
	</g>
	<g>
		<path d="M527.8,72.6c-0.8-0.6-1.2-1.5-1.2-2.7c0-0.5,0-0.9,0.2-1.3c0.1-0.4,0.2-0.7,0.4-1c0.2-0.3,0.5-0.5,0.8-0.7
			c0.3-0.2,0.7-0.4,1.1-0.5c0.4-0.1,0.9-0.2,1.6-0.3c0.6-0.1,1.3-0.1,1.9-0.1c0.7,0,1.5,0,2.4,0v-1.4c0-0.9-0.2-1.6-0.7-2
			c-0.5-0.4-1.2-0.7-2-0.7c-0.5,0-1,0.1-1.5,0.2c-0.5,0.1-0.9,0.2-1.2,0.3c-0.3,0.1-0.7,0.3-1.1,0.5c-0.1,0-0.2,0.1-0.3,0.1
			c-0.2,0-0.4-0.1-0.6-0.3c-0.2-0.2-0.2-0.4-0.2-0.6c0-0.3,0.1-0.5,0.4-0.6c1.3-0.7,2.9-1.1,4.7-1.1c1.5,0,2.8,0.4,3.6,1.1
			c0.9,0.7,1.3,1.8,1.3,3.3v7.4c0,0.3-0.1,0.6-0.3,0.8c-0.2,0.2-0.5,0.3-0.8,0.3c-0.3,0-0.6-0.1-0.8-0.3c-0.2-0.2-0.3-0.4-0.3-0.8
			v-1.2c-0.8,1.7-2.1,2.5-3.9,2.5C529.7,73.6,528.6,73.3,527.8,72.6 M533.8,70.9c0.7-0.8,1.1-1.8,1.1-3.1v-0.4c-1.1,0-1.9,0-2.6,0.1
			c-0.7,0-1.2,0.1-1.8,0.2c-0.5,0.1-0.9,0.2-1.1,0.4c-0.2,0.2-0.4,0.4-0.6,0.7c-0.1,0.3-0.2,0.6-0.2,1c0,0.8,0.2,1.3,0.7,1.7
			c0.5,0.4,1.1,0.5,1.9,0.5C532.3,72.1,533.1,71.7,533.8,70.9"/>
	</g>
	<g>
		<path d="M540.5,71.5c0-0.2,0.1-0.4,0.2-0.5c0.1-0.2,0.3-0.2,0.6-0.2c0.2,0,0.4,0.1,0.6,0.2c1.2,0.7,2.4,1.1,3.7,1.1
			c0.9,0,1.7-0.2,2.3-0.6c0.6-0.4,0.9-0.9,0.9-1.6c0-0.5-0.2-0.9-0.5-1.2c-0.3-0.3-0.9-0.6-1.6-0.7l-2.3-0.6
			c-0.5-0.1-0.8-0.2-1.1-0.3c-0.3-0.1-0.6-0.2-0.9-0.3c-0.3-0.1-0.6-0.3-0.8-0.4c-0.2-0.2-0.4-0.3-0.5-0.6c-0.2-0.2-0.3-0.5-0.4-0.8
			c-0.1-0.3-0.1-0.6-0.1-1c0-0.6,0.1-1.1,0.4-1.6c0.3-0.5,0.6-0.8,1.1-1.1c0.5-0.3,1-0.5,1.6-0.6c0.6-0.1,1.2-0.2,1.9-0.2
			c0.8,0,1.6,0.1,2.3,0.3c0.7,0.2,1.3,0.4,1.8,0.7c0.3,0.2,0.5,0.4,0.5,0.8c0,0.2-0.1,0.4-0.2,0.5c-0.1,0.1-0.3,0.2-0.5,0.2
			c-0.1,0-0.3,0-0.4-0.1c0,0-0.2-0.1-0.4-0.2c-0.3-0.1-0.4-0.2-0.6-0.2c-0.2,0-0.4-0.1-0.6-0.2c-0.3-0.1-0.5-0.1-0.8-0.2
			c-0.3,0-0.6-0.1-0.9-0.1c-0.9,0-1.6,0.1-2.2,0.4c-0.5,0.3-0.8,0.8-0.8,1.4c0,0.5,0.1,0.9,0.4,1.1s0.9,0.4,1.8,0.7l2.2,0.5
			c1.3,0.3,2.2,0.8,2.7,1.4c0.5,0.6,0.8,1.3,0.8,2.3c0,0.9-0.2,1.6-0.7,2.2c-0.5,0.6-1,1-1.8,1.3c-0.7,0.3-1.6,0.4-2.6,0.4
			c-0.9,0-1.8-0.1-2.6-0.4c-0.9-0.3-1.5-0.6-2-1C540.6,72,540.5,71.8,540.5,71.5"/>
	</g>
	<g>
		<path d="M333,104.4c-0.9-0.5-1.7-1.3-2.2-2.3c-0.6-1-0.8-2.2-0.8-3.5c0-1.2,0.2-2.3,0.7-3.2c0.5-1,1.2-1.8,2.1-2.4
			c0.9-0.6,2-0.9,3.3-0.9c1,0,1.9,0.2,2.6,0.5c0.7,0.3,1.3,0.8,1.8,1.4c0.4,0.6,0.8,1.2,1,1.9c0.2,0.7,0.3,1.5,0.4,2.4
			c0,0.2-0.1,0.5-0.2,0.6c-0.1,0.2-0.3,0.2-0.6,0.2h-8.7c0,1.5,0.4,2.6,1.2,3.3c0.8,0.8,1.7,1.1,2.9,1.2c0.8,0,1.4-0.1,2-0.4
			c0.6-0.3,1.2-0.6,1.8-1.1c0.1-0.1,0.3-0.2,0.5-0.2c0.2,0,0.4,0.1,0.5,0.2c0.1,0.2,0.2,0.3,0.2,0.6c0,0.3-0.1,0.5-0.4,0.7
			c-1.3,1.2-3,1.8-4.9,1.8C335,105.2,334,104.9,333,104.4 M339.8,97.7c-0.1-1.2-0.4-2.2-1-2.9c-0.6-0.8-1.5-1.1-2.6-1.1
			c-0.6,0-1.1,0.1-1.6,0.3c-0.5,0.2-0.9,0.5-1.2,0.9c-0.3,0.4-0.6,0.8-0.7,1.3c-0.2,0.5-0.3,1-0.3,1.5H339.8z"/>
	</g>
	<g>
		<path d="M352.5,89c-0.3-0.3-0.4-0.6-0.4-1s0.1-0.8,0.4-1c0.3-0.3,0.6-0.4,1.1-0.4c0.4,0,0.8,0.1,1.1,0.4c0.3,0.3,0.4,0.6,0.4,1
			c0,0.4-0.1,0.8-0.4,1c-0.3,0.3-0.6,0.4-1.1,0.4C353.2,89.4,352.8,89.2,352.5,89 M352.8,104.7c-0.2-0.2-0.3-0.5-0.3-0.9V93.5
			c0-0.3,0.1-0.6,0.3-0.8c0.2-0.2,0.5-0.3,0.8-0.3c0.3,0,0.6,0.1,0.8,0.3c0.2,0.2,0.3,0.5,0.3,0.8v10.4c0,0.4-0.1,0.6-0.3,0.8
			c-0.2,0.2-0.5,0.3-0.8,0.3C353.3,105,353,104.9,352.8,104.7"/>
	</g>
	<g>
		<path d="M360.8,104.7c-0.7-0.4-1.3-0.8-1.7-1.5c-0.4-0.6-0.8-1.3-1-2.1c-0.2-0.8-0.3-1.6-0.3-2.5c0-0.9,0.1-1.7,0.4-2.5
			c0.3-0.8,0.6-1.5,1.1-2.1c0.5-0.6,1.1-1,1.8-1.4c0.7-0.3,1.5-0.5,2.4-0.5c0.9,0,1.8,0.2,2.5,0.6c0.7,0.4,1.3,1,1.7,1.8v-6.6
			c0-0.3,0.1-0.6,0.3-0.8c0.2-0.2,0.5-0.3,0.8-0.3c0.3,0,0.6,0.1,0.8,0.3c0.2,0.2,0.3,0.4,0.3,0.8v16c0,0.3-0.1,0.6-0.3,0.8
			c-0.2,0.2-0.5,0.3-0.8,0.3c-0.4,0-0.7-0.1-0.9-0.3c-0.2-0.2-0.3-0.5-0.3-0.8v-1.1c-0.4,0.8-1,1.4-1.7,1.8
			c-0.8,0.4-1.6,0.6-2.6,0.6C362.3,105.2,361.5,105,360.8,104.7 M367.5,98.6c0-0.6-0.1-1.2-0.2-1.8c-0.1-0.6-0.4-1.1-0.7-1.6
			c-0.3-0.5-0.7-0.9-1.2-1.1c-0.5-0.3-1.1-0.4-1.8-0.4c-0.7,0-1.2,0.1-1.7,0.4c-0.5,0.3-0.9,0.7-1.1,1.2c-0.3,0.5-0.5,1-0.6,1.6
			c-0.1,0.6-0.2,1.1-0.2,1.8c0,0.6,0.1,1.2,0.2,1.7c0.1,0.5,0.3,1.1,0.6,1.6c0.3,0.5,0.6,0.9,1.1,1.2c0.5,0.3,1.1,0.5,1.7,0.5
			C366.2,103.6,367.5,101.9,367.5,98.6"/>
	</g>
	<g>
		<path d="M376,104.4c-0.9-0.5-1.7-1.3-2.2-2.3c-0.6-1-0.8-2.2-0.8-3.5c0-1.2,0.2-2.3,0.7-3.2c0.5-1,1.2-1.8,2.1-2.4
			c0.9-0.6,2-0.9,3.3-0.9c1,0,1.9,0.2,2.6,0.5c0.7,0.3,1.3,0.8,1.8,1.4c0.4,0.6,0.8,1.2,1,1.9c0.2,0.7,0.3,1.5,0.4,2.4
			c0,0.2-0.1,0.5-0.2,0.6c-0.1,0.2-0.3,0.2-0.6,0.2h-8.7c0,1.5,0.4,2.6,1.2,3.3c0.8,0.8,1.7,1.1,2.9,1.2c0.8,0,1.4-0.1,2-0.4
			c0.6-0.3,1.2-0.6,1.8-1.1c0.1-0.1,0.3-0.2,0.5-0.2c0.2,0,0.4,0.1,0.5,0.2c0.1,0.2,0.2,0.3,0.2,0.6c0,0.3-0.1,0.5-0.4,0.7
			c-1.3,1.2-3,1.8-4.9,1.8C378,105.2,376.9,104.9,376,104.4 M382.7,97.7c-0.1-1.2-0.4-2.2-1-2.9c-0.6-0.8-1.5-1.1-2.6-1.1
			c-0.6,0-1.1,0.1-1.6,0.3c-0.5,0.2-0.9,0.5-1.2,0.9c-0.3,0.4-0.6,0.8-0.7,1.3c-0.2,0.5-0.3,1-0.3,1.5H382.7z"/>
	</g>
	<g>
		<path d="M388.2,104.7c-0.2-0.2-0.3-0.5-0.3-0.8V93.4c0-0.3,0.1-0.6,0.3-0.8c0.2-0.2,0.5-0.3,0.8-0.3c0.3,0,0.6,0.1,0.8,0.3
			c0.2,0.2,0.3,0.4,0.3,0.8v1.1c0.3-0.8,0.8-1.4,1.6-1.8c0.7-0.4,1.6-0.6,2.6-0.6c1.4,0,2.5,0.4,3.3,1.2c0.8,0.8,1.2,2.1,1.2,3.7
			v6.9c0,0.3-0.1,0.6-0.3,0.8c-0.2,0.2-0.5,0.3-0.8,0.3c-0.3,0-0.6-0.1-0.8-0.3c-0.2-0.2-0.3-0.5-0.3-0.8V97c0-1.1-0.3-1.9-0.8-2.5
			c-0.5-0.6-1.2-0.9-2.1-0.9c-1,0-1.8,0.3-2.5,1c-0.7,0.7-1,1.6-1.1,2.8v6.3c0,0.3-0.1,0.6-0.4,0.8c-0.2,0.2-0.5,0.3-0.8,0.3
			C388.7,105,388.4,104.9,388.2,104.7"/>
	</g>
	<g>
		<path d="M404.4,104.2c-0.6-0.6-0.9-1.6-0.9-2.9v-7.3H402c-0.3,0-0.5-0.1-0.6-0.2c-0.2-0.1-0.2-0.3-0.2-0.5c0-0.2,0.1-0.4,0.2-0.5
			c0.1-0.1,0.4-0.2,0.6-0.2h1.6l0.3-3.6c0-0.3,0.1-0.5,0.4-0.7c0.2-0.2,0.5-0.3,0.7-0.3c0.3,0,0.5,0.1,0.6,0.2
			c0.2,0.2,0.3,0.4,0.3,0.7v3.7h2.3c0.3,0,0.5,0.1,0.6,0.2c0.1,0.1,0.2,0.3,0.2,0.6c0,0.5-0.3,0.7-0.8,0.7h-2.3v6.9
			c0,0.9,0.1,1.5,0.4,1.9c0.2,0.4,0.6,0.6,1.2,0.6h0.1l0.9,0h0.1c0.3,0,0.5,0.1,0.7,0.3c0.2,0.2,0.2,0.4,0.2,0.6
			c0,0.2,0,0.4-0.1,0.5c-0.1,0.1-0.2,0.2-0.4,0.3c-0.2,0.1-0.4,0.1-0.6,0.1c-0.2,0-0.4,0-0.7,0h-0.7
			C405.7,105.2,405,104.8,404.4,104.2"/>
	</g>
	<g>
		<path d="M412.2,89c-0.3-0.3-0.4-0.6-0.4-1s0.1-0.8,0.4-1c0.3-0.3,0.6-0.4,1.1-0.4c0.4,0,0.8,0.1,1.1,0.4c0.3,0.3,0.4,0.6,0.4,1
			c0,0.4-0.1,0.8-0.4,1c-0.3,0.3-0.6,0.4-1.1,0.4C412.8,89.4,412.5,89.2,412.2,89 M412.5,104.7c-0.2-0.2-0.3-0.5-0.3-0.9V93.5
			c0-0.3,0.1-0.6,0.4-0.8c0.2-0.2,0.5-0.3,0.8-0.3c0.3,0,0.6,0.1,0.8,0.3c0.2,0.2,0.3,0.5,0.3,0.8v10.4c0,0.4-0.1,0.6-0.4,0.8
			c-0.2,0.2-0.5,0.3-0.8,0.3C413,105,412.7,104.9,412.5,104.7"/>
	</g>
	<g>
		<path d="M420.5,104.7c-0.7-0.4-1.3-0.8-1.7-1.5c-0.4-0.6-0.8-1.3-1-2.1c-0.2-0.8-0.3-1.6-0.3-2.5c0-0.9,0.1-1.7,0.4-2.5
			c0.3-0.8,0.6-1.5,1.1-2.1c0.5-0.6,1.1-1,1.8-1.4c0.7-0.3,1.5-0.5,2.4-0.5c0.9,0,1.8,0.2,2.5,0.6c0.7,0.4,1.3,1,1.7,1.8v-6.6
			c0-0.3,0.1-0.6,0.3-0.8c0.2-0.2,0.5-0.3,0.8-0.3c0.3,0,0.6,0.1,0.8,0.3c0.2,0.2,0.3,0.4,0.3,0.8v16c0,0.3-0.1,0.6-0.3,0.8
			c-0.2,0.2-0.5,0.3-0.8,0.3c-0.4,0-0.7-0.1-0.9-0.3c-0.2-0.2-0.3-0.5-0.3-0.8v-1.1c-0.4,0.8-1,1.4-1.7,1.8
			c-0.8,0.4-1.6,0.6-2.6,0.6C422,105.2,421.2,105,420.5,104.7 M427.2,98.6c0-0.6-0.1-1.2-0.2-1.8c-0.1-0.6-0.4-1.1-0.7-1.6
			c-0.3-0.5-0.7-0.9-1.2-1.1c-0.5-0.3-1.1-0.4-1.8-0.4c-0.7,0-1.2,0.1-1.7,0.4c-0.5,0.3-0.9,0.7-1.1,1.2c-0.3,0.5-0.5,1-0.6,1.6
			c-0.1,0.6-0.2,1.1-0.2,1.8c0,0.6,0.1,1.2,0.2,1.7c0.1,0.5,0.3,1.1,0.6,1.6c0.3,0.5,0.6,0.9,1.1,1.2c0.5,0.3,1.1,0.5,1.7,0.5
			C425.9,103.6,427.2,101.9,427.2,98.6"/>
	</g>
	<g>
		<path d="M433.5,104.2c-0.8-0.6-1.2-1.5-1.2-2.7c0-0.5,0.1-0.9,0.2-1.3c0.1-0.4,0.2-0.7,0.4-1c0.2-0.3,0.5-0.5,0.8-0.7
			c0.3-0.2,0.7-0.3,1.1-0.5c0.4-0.1,0.9-0.2,1.5-0.3c0.6-0.1,1.3-0.1,1.9-0.1c0.7,0,1.5,0,2.4,0v-1.4c0-0.9-0.2-1.6-0.7-2
			c-0.5-0.4-1.2-0.6-2-0.6c-0.5,0-1,0.1-1.5,0.2c-0.5,0.1-0.9,0.2-1.2,0.3c-0.3,0.1-0.7,0.3-1.1,0.5c-0.1,0-0.2,0.1-0.3,0.1
			c-0.2,0-0.4-0.1-0.6-0.3c-0.2-0.2-0.2-0.4-0.2-0.6c0-0.3,0.1-0.5,0.4-0.6c1.3-0.7,2.9-1.1,4.7-1.1c1.6,0,2.8,0.4,3.6,1.1
			c0.9,0.7,1.3,1.8,1.3,3.3v7.4c0,0.3-0.1,0.6-0.3,0.8c-0.2,0.2-0.5,0.3-0.8,0.3c-0.3,0-0.6-0.1-0.8-0.3c-0.2-0.2-0.3-0.4-0.3-0.8
			v-1.2c-0.8,1.7-2.1,2.5-3.9,2.5C435.4,105.2,434.3,104.9,433.5,104.2 M439.6,102.5c0.7-0.8,1.1-1.8,1.1-3.1V99c-1,0-1.9,0-2.6,0.1
			c-0.7,0-1.2,0.1-1.8,0.2c-0.5,0.1-0.9,0.2-1.1,0.4c-0.2,0.2-0.4,0.4-0.6,0.7c-0.1,0.3-0.2,0.6-0.2,1c0,0.8,0.2,1.3,0.7,1.7
			c0.5,0.4,1.1,0.5,1.9,0.5C438,103.7,438.8,103.3,439.6,102.5"/>
	</g>
	<g>
		<path d="M448.9,104.7c-0.7-0.4-1.3-0.8-1.7-1.5c-0.4-0.6-0.8-1.3-1-2.1c-0.2-0.8-0.3-1.6-0.3-2.5c0-0.9,0.1-1.7,0.4-2.5
			c0.3-0.8,0.6-1.5,1.1-2.1c0.5-0.6,1.1-1,1.8-1.4c0.7-0.3,1.5-0.5,2.4-0.5c0.9,0,1.8,0.2,2.5,0.6c0.7,0.4,1.3,1,1.7,1.8v-6.6
			c0-0.3,0.1-0.6,0.3-0.8c0.2-0.2,0.5-0.3,0.8-0.3c0.3,0,0.6,0.1,0.8,0.3c0.2,0.2,0.3,0.4,0.3,0.8v16c0,0.3-0.1,0.6-0.3,0.8
			c-0.2,0.2-0.5,0.3-0.8,0.3c-0.4,0-0.7-0.1-0.9-0.3c-0.2-0.2-0.3-0.5-0.3-0.8v-1.1c-0.4,0.8-1,1.4-1.7,1.8
			c-0.8,0.4-1.6,0.6-2.6,0.6C450.4,105.2,449.6,105,448.9,104.7 M455.6,98.6c0-0.6-0.1-1.2-0.2-1.8c-0.1-0.6-0.4-1.1-0.6-1.6
			c-0.3-0.5-0.7-0.9-1.2-1.1c-0.5-0.3-1.1-0.4-1.8-0.4c-0.7,0-1.2,0.1-1.7,0.4c-0.5,0.3-0.9,0.7-1.2,1.2c-0.3,0.5-0.5,1-0.6,1.6
			c-0.1,0.6-0.2,1.1-0.2,1.8c0,0.6,0.1,1.2,0.2,1.7c0.1,0.5,0.3,1.1,0.6,1.6c0.3,0.5,0.6,0.9,1.1,1.2c0.5,0.3,1.1,0.5,1.7,0.5
			C454.3,103.6,455.6,101.9,455.6,98.6"/>
	</g>
	<g>
		<path d="M464,104.4c-0.9-0.5-1.7-1.3-2.2-2.3c-0.6-1-0.8-2.2-0.8-3.5c0-1.2,0.2-2.3,0.7-3.2c0.5-1,1.2-1.8,2.1-2.4
			c0.9-0.6,2-0.9,3.3-0.9c1,0,1.9,0.2,2.6,0.5c0.7,0.3,1.3,0.8,1.8,1.4c0.4,0.6,0.8,1.2,1,1.9c0.2,0.7,0.3,1.5,0.4,2.4
			c0,0.2-0.1,0.5-0.2,0.6c-0.1,0.2-0.3,0.2-0.6,0.2h-8.7c0,1.5,0.4,2.6,1.2,3.3c0.8,0.8,1.7,1.1,2.9,1.2c0.8,0,1.4-0.1,2-0.4
			c0.6-0.3,1.2-0.6,1.8-1.1c0.1-0.1,0.3-0.2,0.5-0.2c0.2,0,0.4,0.1,0.5,0.2c0.1,0.2,0.2,0.3,0.2,0.6c0,0.3-0.1,0.5-0.4,0.7
			c-1.3,1.2-3,1.8-4.8,1.8C466,105.2,465,104.9,464,104.4 M470.8,97.7c-0.1-1.2-0.4-2.2-1-2.9c-0.6-0.8-1.5-1.1-2.6-1.1
			c-0.6,0-1.1,0.1-1.6,0.3c-0.5,0.2-0.9,0.5-1.2,0.9c-0.3,0.4-0.6,0.8-0.7,1.3c-0.2,0.5-0.3,1-0.3,1.5H470.8z"/>
	</g>
	<g>
		<path d="M475.5,103.1c0-0.2,0.1-0.4,0.2-0.5c0.1-0.1,0.3-0.2,0.5-0.2c0.2,0,0.4,0.1,0.6,0.2c1.2,0.7,2.4,1.1,3.7,1.1
			c0.9,0,1.7-0.2,2.3-0.5c0.6-0.4,0.9-0.9,0.9-1.6c0-0.5-0.2-0.9-0.5-1.2c-0.3-0.3-0.9-0.5-1.6-0.7l-2.2-0.6
			c-0.5-0.1-0.8-0.2-1.1-0.3c-0.3-0.1-0.6-0.2-0.9-0.3c-0.3-0.1-0.6-0.3-0.8-0.4c-0.2-0.2-0.4-0.3-0.5-0.6c-0.2-0.2-0.3-0.5-0.4-0.8
			c-0.1-0.3-0.1-0.6-0.1-1c0-0.6,0.1-1.1,0.4-1.6c0.3-0.5,0.6-0.8,1.1-1.1c0.5-0.3,1-0.5,1.6-0.6c0.6-0.1,1.2-0.2,1.9-0.2
			c0.8,0,1.6,0.1,2.3,0.3c0.7,0.2,1.3,0.4,1.8,0.7c0.3,0.2,0.5,0.4,0.5,0.8c0,0.2-0.1,0.4-0.2,0.5c-0.1,0.1-0.3,0.2-0.5,0.2
			c-0.1,0-0.3,0-0.4-0.1c0,0-0.2-0.1-0.4-0.2c-0.3-0.1-0.5-0.2-0.6-0.2c-0.2-0.1-0.4-0.1-0.6-0.2c-0.3-0.1-0.5-0.1-0.8-0.2
			c-0.3,0-0.6-0.1-0.8-0.1c-0.9,0-1.6,0.1-2.2,0.4c-0.5,0.3-0.8,0.8-0.8,1.4c0,0.5,0.1,0.9,0.4,1.1c0.3,0.2,0.9,0.4,1.8,0.6l2.2,0.5
			c1.3,0.3,2.2,0.8,2.7,1.4c0.5,0.6,0.8,1.3,0.8,2.3c0,0.9-0.2,1.6-0.7,2.2c-0.5,0.6-1,1-1.8,1.3c-0.7,0.3-1.6,0.4-2.6,0.4
			c-0.9,0-1.8-0.1-2.6-0.4c-0.9-0.3-1.5-0.6-2-1C475.6,103.7,475.5,103.4,475.5,103.1"/>
	</g>
</g>
<g>
	<path fill="#191919" d="M245.5,105.2c-1,0-1.8-0.8-1.8-1.8V45.6c0-1,0.8-1.8,1.8-1.8c1,0,1.8,0.8,1.8,1.8v57.9
		C247.3,104.4,246.5,105.2,245.5,105.2z"/>
</g>
<g>
	<path fill="#191919" d="M303.6,105.8c-0.8,0-1.5-0.5-1.7-1.3l-15-56.4h-2.1l-15,56.4c-0.2,0.9-1.2,1.5-2.2,1.3
		c-0.9-0.3-1.5-1.2-1.3-2.2l15.4-57.7c0.2-0.8,0.9-1.3,1.7-1.3h4.8c0.8,0,1.5,0.5,1.7,1.3l15.4,57.7c0.2,0.9-0.3,1.9-1.3,2.2
		C303.9,105.8,303.7,105.8,303.6,105.8z"/>
</g>
<g>
	<path fill="#191919" d="M235.2,105.8c-0.8,0-1.5-0.5-1.7-1.3l-15-56.4h-2.1l-15,56.4c-0.3,0.9-1.2,1.5-2.2,1.3
		c-0.9-0.3-1.5-1.2-1.3-2.2l15.4-57.7c0.2-0.8,0.9-1.3,1.7-1.3h4.8c0.8,0,1.5,0.5,1.7,1.3l15.4,57.7c0.3,0.9-0.3,1.9-1.3,2.2
		C235.6,105.8,235.4,105.8,235.2,105.8z"/>
</g>
<g>
	<path fill="#191919" d="M118.8,105.8c-0.8,0-1.5-0.5-1.7-1.3l-15-56.4H100l-15,56.4c-0.2,0.9-1.2,1.5-2.2,1.3
		c-0.9-0.3-1.5-1.2-1.3-2.2l15.4-57.7c0.2-0.8,0.9-1.3,1.7-1.3h4.8c0.8,0,1.5,0.5,1.7,1.3l15.3,57.7c0.3,0.9-0.3,1.9-1.2,2.2
		C119.1,105.8,119,105.8,118.8,105.8z"/>
</g>
<path fill="#191919" d="M155.2,73.4h-12.4c-1,0-1.8,0.8-1.8,1.8c0,1,0.8,1.8,1.8,1.8h10.6v16.6c0,5.1-4.1,9.2-9.1,9.2H141
	c-5,0-9.1-4.1-9.1-9.2V47.3h16.3v11.1c0,1,0.8,1.8,1.8,1.8c1,0,1.8-0.8,1.8-1.8V45.6c0-0.5-0.2-1-0.6-1.3c-0.3-0.3-0.8-0.5-1.3-0.5
	h-19.8c-1,0-1.8,0.8-1.8,1.8v48c0,7,5.7,12.7,12.7,12.7h3.3c7,0,12.7-5.7,12.7-12.7V75.1C157,74.2,156.2,73.4,155.2,73.4z"/>
<g>
	<path fill="#191919" d="M180,105.2h-3.8c-6.8,0-12.4-5.6-12.4-12.5V45.6c0-1,0.8-1.8,1.8-1.8c1,0,1.8,0.8,1.8,1.8v47.2
		c0,4.9,4,8.9,8.9,8.9h3.8c4.9,0,8.9-4,8.9-8.9v-47c0-1,0.8-1.8,1.8-1.8c1,0,1.8,0.8,1.8,1.8v47C192.4,99.6,186.8,105.2,180,105.2z"
		/>
</g>
<g>
	<path fill="#191919" d="M258.6,37.4h-14.2c-1,0-1.8-0.8-1.8-1.8c0-1,0.8-1.8,1.8-1.8h14.2c1,0,1.8,0.8,1.8,1.8
		C260.4,36.6,259.6,37.4,258.6,37.4z"/>
</g>
<g>
	<path fill="#191919" d="M253.6,1.3H249c-3.8,0-6.9,3.1-6.9,6.9v10c0,3.8,3.1,6.9,6.9,6.9h4.6c3.8,0,6.9-3.1,6.9-6.9V8.3
		C260.5,4.4,257.4,1.3,253.6,1.3 M257.8,18.1c0,2.7-2.2,4.8-4.8,4.8h-3.3c-2.7,0-4.8-2.2-4.8-4.8V8.3c0-2.7,2.2-4.8,4.8-4.8h3.3
		c2.7,0,4.8,2.2,4.8,4.8V18.1z"/>
</g>
<g>
	<path fill="#191919" d="M233.7,25.1h-0.9c-0.5,0-1-0.4-1-1V2.3c0-0.5,0.4-1,1-1h0.9c0.5,0,1,0.4,1,1v21.9
		C234.7,24.7,234.3,25.1,233.7,25.1"/>
</g>
<path fill="#191919" d="M224.8,2.1c-2.1-0.8-5.8-0.5-7.5,1.3c-0.2,0.2-0.5,0.5-0.7,0.7V2.3c0-0.5-0.4-1-1-1h-0.9c-0.5,0-1,0.4-1,1
	v21.9c0,0.5,0.4,1,1,1h0.9c0.5,0,1-0.4,1-1v-8.3c0-8.8,0.9-9.7,2.2-11c1.1-1.1,3.8-1.4,5.2-0.8c0.5,0.2,1.2,0,1.4-0.6
	C225.6,3,225.4,2.3,224.8,2.1z"/>
<g>
	<path fill="#191919" d="M37.6,105.8c-0.8,0-1.5-0.5-1.7-1.3L20.8,48h-2.1l-15,56.4c-0.2,0.9-1.2,1.5-2.2,1.3
		c-0.9-0.3-1.5-1.2-1.3-2.2l15.4-57.7c0.2-0.8,0.9-1.3,1.7-1.3h4.8c0.8,0,1.5,0.5,1.7,1.3l15.4,57.7c0.2,0.9-0.3,1.9-1.3,2.2
		C37.9,105.8,37.7,105.8,37.6,105.8z"/>
</g>
<path fill="#191919" d="M75.9,117L75.9,117L65.9,79.3h1.6c7.2,0,13.1-5.9,13.1-13.2v-9.5c0-7.3-5.9-13.2-13.1-13.2h-17
	c-1,0-1.8,0.8-1.8,1.8c0,0.1,0,0.1,0,0.2c0,0.1,0,0.1,0,0.2l0,57.8c0,0.9,0.6,1.7,1.5,1.8c1.1,0.2,2.1-0.7,2.1-1.8V47h15.2
	c5.3,0,9.6,4.3,9.6,9.6v9.5c0,5.3-4.3,9.6-9.6,9.6h-9.1c-0.9,0-1.7,0.6-1.8,1.5c-0.2,1.1,0.7,2.1,1.7,2.1h3.9l10.8,40
	c0.2,0.8,0.8,1.5,1.8,1.3c0.5-0.1,1.2-0.5,1.2-1.5C75.9,118.6,75.9,117,75.9,117z"/>
</svg>
