<?xml version="1.0" encoding="utf-8"?>
<!-- Generator: Adobe Illustrator 16.0.4, SVG Export Plug-In . SVG Version: 6.00 Build 0)  -->
<!DOCTYPE svg PUBLIC "-//W3C//DTD SVG 1.1//EN" "http://www.w3.org/Graphics/SVG/1.1/DTD/svg11.dtd">
<svg version="1.1" id="Layer_1" xmlns="http://www.w3.org/2000/svg" xmlns:xlink="http://www.w3.org/1999/xlink" x="0px" y="0px"
	 width="261.478px" height="134.288px" viewBox="0 0 261.478 134.288" enable-background="new 0 0 261.478 134.288"
	 xml:space="preserve">
<polygon fill-rule="evenodd" clip-rule="evenodd" fill="#F1DBAF" points="20.694,50.542 31.041,56.521 41.388,62.501 41.388,74.461 
	41.388,86.421 31.041,92.4 20.694,98.381 10.347,92.4 0,86.421 0,74.461 0,62.501 10.347,56.521 "/>
<polygon fill-rule="evenodd" clip-rule="evenodd" fill="#F1DBAF" points="91.175,86.408 101.534,92.393 111.892,98.378 
	111.892,110.348 111.892,122.318 101.534,128.303 91.175,134.288 80.817,128.303 70.458,122.318 70.458,110.348 70.458,98.378 
	80.817,92.393 "/>
<polygon fill-rule="evenodd" clip-rule="evenodd" fill="#F1DBAF" points="90.751,0 103.188,7.175 115.625,14.35 115.625,28.699 
	115.625,43.049 103.188,50.224 90.751,57.398 78.314,50.224 65.876,43.049 65.876,28.699 65.876,14.35 78.314,7.175 "/>
<polygon fill-rule="evenodd" clip-rule="evenodd" fill="#F1DBAF" points="107.785,52.963 116.089,57.739 124.393,62.516 
	124.393,72.069 124.393,81.623 116.089,86.4 107.785,91.177 99.481,86.4 91.177,81.623 91.177,72.069 91.177,62.516 99.481,57.739 
	"/>
<polygon fill-rule="evenodd" clip-rule="evenodd" fill="#F1DBAF" points="53.894,93.644 60.128,97.223 66.363,100.803 
	66.363,107.962 66.363,115.121 60.128,118.701 53.894,122.28 47.659,118.701 41.424,115.121 41.424,107.962 41.424,100.803 
	47.659,97.223 "/>
<polygon fill-rule="evenodd" clip-rule="evenodd" fill="#F1DBAF" points="41.427,19.454 49.707,24.231 57.985,29.01 57.985,38.565 
	57.985,48.12 49.707,52.898 41.427,57.676 33.148,52.898 24.869,48.12 24.869,38.565 24.869,29.01 33.148,24.231 "/>
<path fill="#F1DBAF" d="M148.361,27.17v24.424c0,7.384,2.84,11.107,7.699,11.107c5.049,0,7.826-3.534,7.826-11.107V27.17h9.592
	v23.855c0,13.127-6.626,19.375-17.733,19.375c-10.729,0-16.977-5.995-16.977-19.501V27.17H148.361z"/>
<path fill="#F1DBAF" d="M187.727,27.17h25.938v7.889h-16.346v9.719h15.273v7.826h-15.273v17.103h-9.592V27.17z"/>
<path fill="#F1DBAF" d="M261.043,67.75c-2.966,1.01-8.583,2.397-14.199,2.397c-7.764,0-13.38-1.956-17.293-5.68
	c-3.85-3.724-5.995-9.277-5.995-15.525c0.063-14.137,10.351-22.215,24.298-22.215c5.49,0,9.719,1.073,11.801,2.02l-2.02,7.763
	c-2.335-1.072-5.175-1.83-9.845-1.83c-8.015,0-14.137,4.544-14.137,13.758c0,8.836,5.554,13.948,13.442,13.948
	c2.146,0,3.913-0.253,4.67-0.568v-8.962h-6.563v-7.51h15.841V67.75z"/>
<path fill-rule="evenodd" clip-rule="evenodd" fill="#F1DBAF" d="M260.92,87.927h-3.545v-2.002h3.76v-1.787h-5.934v9.638h6.134
	v-1.788h-3.96V89.7h3.545V87.927z M244.996,85.825c0.187-0.043,0.516-0.086,0.987-0.086c1.888,0,3.06,0.986,3.06,3.06
	c0,2.303-1.301,3.39-3.288,3.375c-0.258,0-0.572,0-0.759-0.043V85.825z M242.823,93.732c0.529,0.073,1.345,0.145,2.474,0.145
	c1.888,0,3.446-0.402,4.461-1.246c0.916-0.786,1.588-2.059,1.588-3.903c0-1.716-0.629-2.917-1.631-3.66
	c-0.914-0.701-2.115-1.001-3.96-1.001c-1.087,0-2.131,0.071-2.932,0.214V93.732z M233.577,89.672l0.587-2.046
	c0.143-0.557,0.3-1.286,0.428-1.858h0.044c0.143,0.558,0.313,1.287,0.472,1.858l0.601,2.046H233.577z M236.037,91.302l0.743,2.474
	h2.345l-3.002-9.638h-2.846l-2.945,9.638h2.259l0.672-2.474H236.037z M220.842,85.825c0.187-0.043,0.516-0.086,0.986-0.086
	c1.889,0,3.061,0.986,3.061,3.06c0,2.303-1.301,3.39-3.289,3.375c-0.257,0-0.571,0-0.758-0.043V85.825z M218.669,93.732
	c0.529,0.073,1.345,0.145,2.474,0.145c1.888,0,3.446-0.402,4.461-1.246c0.916-0.786,1.588-2.059,1.588-3.903
	c0-1.716-0.629-2.917-1.631-3.66c-0.914-0.701-2.115-1.001-3.961-1.001c-1.086,0-2.13,0.071-2.931,0.214V93.732z M212.197,84.138
	v9.638h2.173v-9.638H212.197z M201.678,93.332c0.544,0.3,1.631,0.603,2.731,0.603c2.646,0,3.875-1.375,3.875-2.991
	c0-1.372-0.786-2.259-2.487-2.888c-1.259-0.486-1.788-0.758-1.788-1.373c0-0.486,0.458-0.93,1.401-0.93
	c0.93,0,1.63,0.272,2.002,0.458l0.486-1.744c-0.572-0.272-1.359-0.486-2.46-0.486c-2.259,0-3.646,1.244-3.646,2.889
	c0,1.415,1.058,2.302,2.659,2.874c1.158,0.399,1.616,0.758,1.616,1.344c0,0.644-0.529,1.058-1.53,1.058
	c-0.93,0-1.845-0.3-2.417-0.601L201.678,93.332z M193.318,85.768c0.158-0.043,0.458-0.071,0.986-0.071
	c1.002,0,1.602,0.455,1.602,1.322c0,0.839-0.643,1.38-1.729,1.38h-0.858V85.768z M191.16,93.775h2.158v-3.804h0.644
	c0.901,0.014,1.315,0.329,1.587,1.549c0.271,1.191,0.516,1.983,0.658,2.255h2.23c-0.186-0.374-0.472-1.638-0.771-2.741
	c-0.244-0.892-0.615-1.521-1.287-1.792v-0.043c0.828-0.3,1.701-1.142,1.701-2.352c0-0.883-0.314-1.552-0.9-2.01
	c-0.688-0.558-1.688-0.771-3.117-0.771c-1.173,0-2.202,0.086-2.902,0.214V93.775z M186.847,87.927h-3.546v-2.002h3.76v-1.787h-5.934
	v9.638h6.135v-1.788h-3.961V89.7h3.546V87.927z M174.426,93.775l3.246-9.638h-2.316l-1.23,4.118
	c-0.328,1.101-0.629,2.245-0.871,3.403h-0.043c-0.229-1.201-0.529-2.288-0.858-3.446l-1.173-4.075h-2.387l3.088,9.638H174.426z
	 M163.135,84.138v9.638h2.174v-9.638H163.135z M152.846,93.775v-2.903c0-1.572-0.029-2.931-0.101-4.218h0.058
	c0.457,1.13,1.102,2.359,1.673,3.403l2.06,3.718h2.287v-9.638h-2.002v2.803c0,1.458,0.043,2.76,0.172,4.032h-0.029
	c-0.443-1.087-1-2.288-1.572-3.303l-2.002-3.532h-2.545v9.638H152.846z M138.681,84.138v5.376c0,3.061,1.416,4.421,3.846,4.421
	c2.517,0,4.018-1.418,4.018-4.392v-5.405h-2.174v5.534c0,1.716-0.629,2.517-1.773,2.517c-1.101,0-1.744-0.845-1.744-2.517v-5.534
	H138.681z"/>
<path fill-rule="evenodd" clip-rule="evenodd" fill="#F1DBAF" d="M254.871,107.604c0.543,0.301,1.631,0.604,2.731,0.604
	c2.646,0,3.875-1.375,3.875-2.991c0-1.373-0.786-2.26-2.488-2.889c-1.259-0.485-1.787-0.758-1.787-1.372
	c0-0.486,0.458-0.93,1.401-0.93c0.93,0,1.63,0.271,2.002,0.458l0.486-1.745c-0.572-0.271-1.359-0.486-2.46-0.486
	c-2.259,0-3.646,1.244-3.646,2.889c0,1.416,1.059,2.302,2.659,2.874c1.158,0.4,1.616,0.758,1.616,1.345
	c0,0.643-0.528,1.058-1.53,1.058c-0.929,0-1.844-0.3-2.416-0.601L254.871,107.604z M249.881,96.093l-1.244,1.803h1.717l1.787-1.803
	H249.881z M248.408,103.943l0.586-2.045c0.144-0.558,0.301-1.287,0.43-1.858h0.043c0.143,0.558,0.314,1.286,0.471,1.858l0.602,2.045
	H248.408z M250.867,105.573l0.744,2.474h2.345l-3.003-9.637h-2.846l-2.945,9.637h2.26l0.672-2.474H250.867z M241.802,98.41v9.637
	h2.174V98.41H241.802z M235.711,106.475c-1.459,0-2.331-1.416-2.331-3.232c0-1.801,0.843-3.26,2.345-3.26s2.316,1.487,2.316,3.218
	c0,1.887-0.844,3.274-2.316,3.274H235.711z M235.639,108.207c2.817,0,4.719-1.904,4.719-5.079c0-2.659-1.615-4.876-4.575-4.876
	c-2.831,0-4.69,2.159-4.69,5.048c0,2.745,1.688,4.907,4.533,4.907H235.639z M229.834,102.542h-3.59v1.701h1.488v2.017
	c-0.172,0.071-0.572,0.129-1.059,0.129c-1.787,0-3.046-1.151-3.046-3.146c0-2.097,1.387-3.131,3.203-3.131
	c1.058,0,1.702,0.171,2.23,0.417l0.458-1.775c-0.473-0.2-1.43-0.443-2.674-0.443c-3.16,0-5.491,1.83-5.506,5.048
	c0,1.41,0.486,2.661,1.359,3.503c0.886,0.844,2.158,1.289,3.917,1.289c1.272,0,2.546-0.317,3.218-0.546V102.542z M215.126,102.199
	h-3.546v-2.002h3.76V98.41h-5.934v9.637h6.135v-1.787h-3.961v-2.288h3.546V102.199z M201.613,100.097
	c0.186-0.043,0.515-0.086,0.986-0.086c1.888,0,3.061,0.987,3.061,3.061c0,2.302-1.302,3.389-3.289,3.374
	c-0.258,0-0.572,0-0.758-0.043V100.097z M199.439,108.004c0.529,0.074,1.344,0.146,2.475,0.146c1.887,0,3.445-0.402,4.461-1.246
	c0.915-0.786,1.587-2.06,1.587-3.903c0-1.716-0.629-2.918-1.63-3.661c-0.916-0.7-2.117-1.001-3.961-1.001
	c-1.086,0-2.131,0.072-2.932,0.215V108.004z M188.846,108.047h6.005v-1.83h-3.832V98.41h-2.173V108.047z M182.139,103.943
	l0.586-2.045c0.159-0.553,0.301-1.287,0.43-1.858h0.043c0.143,0.558,0.305,1.289,0.472,1.858l0.601,2.045H182.139z M184.598,105.573
	l0.744,2.474h2.345l-3.003-9.637h-2.846l-2.945,9.637h2.26l0.672-2.474H184.598z M173.145,100.04
	c0.157-0.043,0.458-0.072,0.986-0.072c1.002,0,1.602,0.456,1.602,1.323c0,0.839-0.643,1.38-1.729,1.38h-0.858V100.04z
	 M170.986,108.047h2.158v-3.804h0.644c0.901,0,1.312,0.33,1.587,1.55c0.27,1.191,0.516,1.982,0.658,2.254h2.23
	c-0.186-0.374-0.472-1.637-0.771-2.74c-0.243-0.892-0.615-1.521-1.287-1.792v-0.043c0.829-0.301,1.701-1.142,1.701-2.353
	c0-0.882-0.319-1.545-0.9-2.009c-0.691-0.552-1.688-0.772-3.117-0.772c-1.173,0-2.203,0.086-2.902,0.215V108.047z M169.084,102.199
	h-3.547v-2.002h3.762V98.41h-5.935v9.637h6.134v-1.787h-3.961v-2.288h3.547V102.199z M155.571,100.097
	c0.187-0.043,0.515-0.086,0.987-0.086c1.887,0,3.06,0.987,3.06,3.061c0,2.302-1.302,3.387-3.289,3.374
	c-0.257-0.001-0.571,0-0.758-0.043V100.097z M153.398,108.004c0.528,0.074,1.344,0.146,2.473,0.146c1.889,0,3.453-0.395,4.462-1.246
	c0.922-0.778,1.587-2.06,1.587-3.903c0-1.716-0.635-2.911-1.63-3.661c-0.921-0.693-2.116-1.001-3.961-1.001
	c-1.087,0-2.13,0.072-2.931,0.215V108.004z M151.496,102.199h-3.546v-2.002h3.761V98.41h-5.934v9.637h6.134v-1.787h-3.961v-2.288
	h3.546V102.199z M138.646,108.047h2.173v-3.875h3.46v-1.773h-3.46v-2.201h3.704V98.41h-5.877V108.047z"/>
</svg>
