<?xml version="1.0" encoding="utf-8"?>
<!-- Generator: Adobe Illustrator 22.0.1, SVG Export Plug-In . SVG Version: 6.00 Build 0)  -->
<svg version="1.1" id="Camada_1" xmlns="http://www.w3.org/2000/svg" xmlns:xlink="http://www.w3.org/1999/xlink" x="0px" y="0px"
	 viewBox="0 0 405 280" style="enable-background:new 0 0 405 280;" xml:space="preserve">
<style type="text/css">
	.st0{fill:#191919;}
	.st1{fill:#A01C2C;}
	.st2{fill:#4E9B7F;}
	.st3{display:none;}
	.st4{display:inline;fill:#191919;}
	.st5{display:inline;}
	.st6{fill:#6EC7A9;}
</style>
<path class="st0" d="M368.4,53.5l1-1c0.1,0,0.2-0.1,0.3-0.2c0.1-0.1,0.1-0.2,0.2-0.3l4.1-4.1c0.1,0,0.2-0.1,0.3-0.2
	c0.1-0.1,0.1-0.2,0.2-0.3l4.1-4.1c0.1,0,0.2-0.1,0.3-0.2c0.1-0.1,0.1-0.2,0.2-0.3l4.1-4.1c0.1,0,0.2-0.1,0.3-0.2
	c0.1-0.1,0.1-0.2,0.2-0.3l4.1-4.1c0.1,0,0.2-0.1,0.3-0.2c0.1-0.1,0.1-0.2,0.2-0.3l4.1-4.1c0.1,0,0.2-0.1,0.3-0.2
	c0.1-0.1,0.1-0.2,0.2-0.3l3.7-3.7c0.3-0.3,0.4-0.7,0.4-1c0-0.4-0.2-0.8-0.4-1l-13.2-13.2c-0.6-0.6-1.5-0.6-2.1,0l-27.8,27.8
	l-27.8-27.8c-0.6-0.6-1.5-0.6-2.1,0L310,23.6c-0.3,0.3-0.4,0.7-0.4,1c0,0.4,0.2,0.8,0.4,1l27.8,27.8l-17.2,17.2l-16.2-16.2
	c-0.6-0.6-1.5-0.6-2.1,0l-16.4,16.4l-17.4-17.4l27.8-27.8c0.3-0.3,0.4-0.7,0.4-1c0-0.4-0.2-0.8-0.4-1l-13.2-13.2
	c-0.6-0.6-1.5-0.6-2.1,0l-27.8,27.8l-27.8-27.8c-0.6-0.6-1.5-0.6-2.1,0l-13.2,13.2c-0.3,0.3-0.4,0.7-0.4,1c0,0.4,0.2,0.8,0.4,1
	L238,53.5l-17.2,17.2l-16.2-16.2c-0.6-0.6-1.5-0.6-2.1,0l-16.4,16.4l-17.4-17.4l27.8-27.8c0.3-0.3,0.4-0.7,0.4-1
	c0-0.4-0.2-0.8-0.4-1l-13.2-13.2c-0.6-0.6-1.5-0.6-2.1,0l-27.8,27.8l-27.8-27.8c-0.6-0.6-1.5-0.6-2.1,0l-13.2,13.2
	c-0.3,0.3-0.4,0.7-0.4,1c0,0.4,0.2,0.8,0.4,1l27.8,27.8l-17.2,17.2l-16.2-16.2c-0.6-0.6-1.5-0.6-2.1,0L86.2,70.9L68.8,53.5
	l27.8-27.8c0.3-0.3,0.4-0.7,0.4-1c0-0.4-0.2-0.8-0.4-1L83.4,10.4c-0.6-0.6-1.5-0.6-2.1,0L53.5,38.2L25.7,10.4
	c-0.6-0.6-1.5-0.6-2.1,0L10.4,23.6c-0.3,0.3-0.4,0.7-0.4,1c0,0.4,0.2,0.8,0.4,1l27.8,27.8L10.4,81.3c-0.6,0.6-0.6,1.5,0,2.1
	l13.2,13.2c0.6,0.6,1.5,0.6,2.1,0l27.8-27.8l28,27.6c0.6,0.6,1.5,0.6,2.1,0l20-19.6l19.8,19.8c0.2,0.2,0.5,0.4,0.8,0.4
	c0.5,0.1,1,0,1.4-0.4l27.8-27.8l28,27.6c0.6,0.6,1.5,0.6,2.1,0l20-19.6l19.8,19.8c0.2,0.2,0.5,0.3,0.7,0.4c0.1,0,0.3,0.1,0.4,0.1
	c0.4,0,0.8-0.1,1-0.4l27.8-27.8l28,27.6c0.6,0.6,1.5,0.6,2.1,0l20-19.6l19.8,19.8c0.2,0.2,0.4,0.3,0.7,0.4c0.5,0.1,1,0,1.4-0.4
	L353,68.9l27.8,27.8c0.6,0.6,1.5,0.6,2.1,0l13.2-13.2c0.3-0.3,0.4-0.7,0.4-1c0-0.4-0.2-0.8-0.4-1L368.4,53.5z M374.9,86.5l11.2-11.1
	l3.5,3.5L378.4,90L374.9,86.5z M370.4,81.9l11.2-11.1l3.5,3.5l-11.2,11.1L370.4,81.9z M365.8,77.4L377,66.3l3.5,3.5l-11.2,11.1
	L365.8,77.4z M361.3,72.9l11.2-11.1l3.5,3.5l-11.2,11.1L361.3,72.9z M356.8,68.3L368,57.2l3.5,3.5l-11.2,11.1L356.8,68.3z
	 M360.3,35.1l11.2,11.1l-3.5,3.5l-11.2-11.1L360.3,35.1z M364.9,30.6L376,41.7l-3.5,3.5l-11.2-11.1L364.9,30.6z M369.4,26.1
	l11.2,11.1l-3.5,3.5l-11.2-11.1L369.4,26.1z M373.9,21.5l11.2,11.1l-3.5,3.5L370.5,25L373.9,21.5z M378.5,17l11.2,11.1l-3.5,3.5
	L375,20.5L378.5,17z M381.9,13.6L393,24.7l-2.3,2.3l-11.2-11.1L381.9,13.6z M335,46.6l11.2-11.1l3.5,3.5l-11.2,11L335,46.6z
	 M330.5,42l11.1-11l3.5,3.5l-11.2,11.1L330.5,42z M325.9,37.5l11.2-11.1l3.5,3.5L329.4,41L325.9,37.5z M321.4,33l11.2-11.1l3.5,3.5
	l-11.2,11.1L321.4,33z M316.9,28.4l11.1-11l3.5,3.5L320.3,32L316.9,28.4z M324.2,13.6l2.8,2.8l-11.2,11.1l-2.7-2.7L324.2,13.6z
	 M338.9,56.5l11.2,11.1l-3.5,3.5L335.4,60L338.9,56.5z M342.1,75.6l-11.2-11.1l3.5-3.5l11.2,11.1L342.1,75.6z M337.5,80.2
	l-11.2-11.1l3.5-3.5L341,76.7L337.5,80.2z M333,84.7l-11.2-11.1l3.5-3.5l11.2,11.1L333,84.7z M270.3,81.4l11.1-11l3.5,3.5l-11,10.9
	L270.3,81.4z M265.7,76.9l11.1-11l3.5,3.5l-11.1,11L265.7,76.9z M261.1,72.4l11.1-11l3.5,3.5l-11.1,11L261.1,72.4z M256.6,67.9
	l11.2-11.1l3.5,3.5l-11.1,11L256.6,67.9z M260.5,35.2l11.2,11.1l-3.5,3.5L257,38.7L260.5,35.2z M265,30.6l11.2,11.1l-3.5,3.5
	l-11.2-11.1L265,30.6z M269.5,26.1l11.2,11.1l-3.5,3.5L266,29.6L269.5,26.1z M274.1,21.6l11.2,11.1l-3.5,3.5l-11.2-11.1L274.1,21.6z
	 M278.6,17l11.2,11.1l-3.5,3.5l-11.2-11.1L278.6,17z M282.1,13.6l11.1,11.1l-2.4,2.4L279.7,16L282.1,13.6z M234.7,46.1L245.9,35
	l3.5,3.5l-11.2,11.1L234.7,46.1z M230.2,41.6l11.2-11.1l3.5,3.5l-11.2,11.1L230.2,41.6z M225.7,37.1L236.9,26l3.5,3.5l-11.2,11.1
	L225.7,37.1z M221.1,32.5l11.2-11.1l3.5,3.5L224.6,36L221.1,32.5z M216.6,28l11.2-11.1l3.5,3.5l-11.2,11.1L216.6,28z M224.4,13.6
	l2.3,2.3L215.6,27l-2.3-2.3L224.4,13.6z M239,56.6l11.2,11.1l-3.5,3.5l-11.2-11.1L239,56.6z M242.2,75.7L231,64.6l3.5-3.5l11.2,11.1
	L242.2,75.7z M237.7,80.2l-11.2-11.1l3.5-3.5l11.2,11.1L237.7,80.2z M233.1,84.8L222,73.7l3.5-3.5l11.2,11.1L233.1,84.8z
	 M170.4,81.4l11.1-11l3.5,3.5l-11,10.9L170.4,81.4z M165.8,76.9l11.1-11l3.5,3.5l-11.1,11L165.8,76.9z M161.2,72.4l11.1-11l3.5,3.5
	l-11.1,11L161.2,72.4z M156.7,67.9l11.2-11.1l3.5,3.5l-11.1,11L156.7,67.9z M160.6,35.2l11.2,11.1l-3.5,3.5l-11.2-11.1L160.6,35.2z
	 M165.1,30.7l11.2,11.1l-3.5,3.5l-11.2-11.1L165.1,30.7z M169.6,26.1l11.2,11.1l-3.5,3.5l-11.2-11.1L169.6,26.1z M174.2,21.6
	l11.2,11.1l-3.5,3.5l-11.2-11.1L174.2,21.6z M178.7,17.1l11.2,11.1l-3.5,3.5l-11.2-11.1L178.7,17.1z M182.2,13.6l11.1,11.1l-2.4,2.4
	L179.8,16L182.2,13.6z M134.9,46.1L146,35l3.5,3.5l-11.2,11.1L134.9,46.1z M130.3,41.6l11.2-11.1L145,34l-11.2,11.1L130.3,41.6z
	 M125.8,37L137,26l3.5,3.5l-11.2,11.1L125.8,37z M121.3,32.5l11.2-11.1l3.5,3.5L124.7,36L121.3,32.5z M116.7,28l11.2-11.1l3.5,3.5
	l-11.2,11.1L116.7,28z M124.5,13.6l2.3,2.3L115.6,27l-2.3-2.3L124.5,13.6z M139.2,56.6l11.2,11.1l-3.5,3.5l-11.2-11.1L139.2,56.6z
	 M142.3,75.7l-11.2-11.1l3.5-3.5l11.2,11.1L142.3,75.7z M137.8,80.3l-11.2-11.1l3.5-3.5l11.2,11.1L137.8,80.3z M133.2,84.8L122,73.7
	l3.5-3.5l11.2,11.1L133.2,84.8z M70.5,81.4l11.1-11l3.5,3.5L74,84.8L70.5,81.4z M65.9,76.9l11.1-11l3.5,3.5l-11.1,11L65.9,76.9z
	 M61.3,72.4l11.1-11l3.5,3.5l-11.1,11L61.3,72.4z M71.4,60.3l-11.1,11l-3.5-3.5L68,56.7L71.4,60.3z M60.7,35.2l11.2,11.1l-3.5,3.5
	L57.2,38.7L60.7,35.2z M65.2,30.7l11.2,11.1l-3.5,3.5L61.7,34.2L65.2,30.7z M69.8,26.2L81,37.3l-3.5,3.5L66.3,29.7L69.8,26.2z
	 M74.3,21.6l11.2,11.1L82,36.2L70.8,25.1L74.3,21.6z M78.8,17.1L90,28.2l-3.5,3.5L75.3,20.6L78.8,17.1z M82.4,13.6l11.1,11.1
	L91,27.1l-11.1-11L82.4,13.6z M46.6,71.6L35.4,60.5l3.5-3.5l11.2,11.1L46.6,71.6z M42,76.1l-11.1-11l3.5-3.5l11.2,11.1L42,76.1z
	 M37.5,80.6l-11.2-11l3.5-3.5L41,77.2L37.5,80.6z M33,85.2L21.8,74.1l3.5-3.5l11.2,11.1L33,85.2z M28.4,89.7L17.3,78.6l3.5-3.5
	L32,86.2L28.4,89.7z M35.3,46.4l11.2-11.1l3.5,3.5L38.8,49.9L35.3,46.4z M30.8,41.9L42,30.8l3.5,3.5L34.3,45.4L30.8,41.9z
	 M26.3,37.4l11.2-11.1l3.5,3.5L29.8,40.9L26.3,37.4z M21.7,32.8l11.2-11.1l3.5,3.5L25.2,36.3L21.7,32.8z M17.2,28.3l11.2-11.1
	l3.5,3.5L20.7,31.8L17.2,28.3z M24.7,13.6l2.6,2.6L16.2,27.3l-2.6-2.6L24.7,13.6z M24.7,93.5L13.6,82.4l2.7-2.7l11.2,11.1L24.7,93.5
	z M52.5,65.7l-1.4,1.4L39.9,56l1.4-1.4c0.6-0.6,0.6-1.5,0-2.1L39.9,51L51,39.9l1.4,1.4c0.6,0.6,1.5,0.6,2.1,0l1.6-1.6l11.2,11.1
	l-1.6,1.6c-0.6,0.6-0.6,1.5,0,2.1l1.2,1.2L55.7,66.8l-1.2-1.1C54,65.1,53.1,65.1,52.5,65.7z M124.5,93.5l-19.9-19.9
	c-0.3-0.3-0.7-0.4-1-0.4c-0.4,0-0.7,0.1-1,0.4l-20,19.6L75,85.9l11.6-11.5c0.2-0.1,0.5-0.2,0.7-0.4l16.4-16.4l16.2,16.2
	c0.2,0.2,0.4,0.3,0.7,0.4l11.7,11.6L124.5,93.5z M152.3,65.7l-1,1l-11.2-11.1l1-1c0.3-0.3,0.4-0.7,0.4-1c0-0.4-0.2-0.8-0.4-1
	l-1.8-1.8l11.2-11.1l1.8,1.8c0.6,0.6,1.5,0.6,2.1,0l1.6-1.6L167.2,51l-1.7,1.7c-0.6,0.6-0.6,1.5,0,2.1l1.2,1.2l-11.2,11.1l-1.2-1.2
	C153.8,65.1,152.9,65.1,152.3,65.7z M224.4,93.5l-19.9-19.9c-0.6-0.6-1.5-0.6-2.1,0l-20,19.6l-7.5-7.4l11.6-11.5
	c0.2-0.1,0.4-0.2,0.6-0.3l16.4-16.4l16.2,16.2c0.2,0.2,0.5,0.3,0.8,0.4l11.6,11.5L224.4,93.5z M252.2,65.7l-0.9,0.9l-11.2-11.1l1-1
	c0.3-0.3,0.4-0.7,0.4-1c0-0.4-0.2-0.8-0.4-1l-1.8-1.8l11.2-11.1l1.8,1.8c0.6,0.6,1.5,0.6,2.1,0l1.6-1.6l11.2,11.1l-1.7,1.7
	c-0.6,0.6-0.6,1.5,0,2.1l1.3,1.3l-11.2,11.1l-1.2-1.2C253.7,65.1,252.8,65.1,252.2,65.7z M324.2,93.5l-19.8-19.8
	c-0.6-0.6-1.5-0.6-2.1,0l-20,19.6l-7.5-7.4l11.6-11.5c0.2-0.1,0.4-0.2,0.5-0.3l16.4-16.4l16.2,16.2c0.2,0.2,0.6,0.4,0.9,0.4
	c0,0,0,0.1,0.1,0.1L332,85.8L324.2,93.5z M352,65.7l-0.9,0.9L340,55.5l0.9-0.9c0.6-0.6,0.6-1.5,0-2.1l-1.4-1.4L350.7,40l1.3,1.3
	c0.6,0.6,1.5,0.6,2.1,0l1.7-1.7L367,50.7l-1.8,1.8c-0.3,0.3-0.4,0.7-0.4,1c0,0.4,0.2,0.8,0.4,1l1.7,1.7l-11.2,11.1l-1.6-1.6
	C353.6,65.1,352.6,65.1,352,65.7z M381.9,93.5l-2.5-2.5l11.2-11.1l2.4,2.4L381.9,93.5z"/>
<g>
	<path class="st0" d="M41,160.9c0.1,0.1,0.1,0.2,0.2,0.2c0,0.1,0.1,0.1,0.2,0.1l0.1,0.1c0.2,0.1,0.4,0.2,0.7,0.2l0,0l0,0
		c0.2,0,0.5-0.1,0.7-0.2c0.1,0,0.1-0.1,0.1-0.1c0.1,0,0.1-0.1,0.2-0.1c0.1-0.1,0.1-0.1,0.2-0.2l0,0l26.2-45.4l26.2,45.4l0,0
		c0,0.1,0.1,0.2,0.2,0.2c0,0.1,0.1,0.1,0.2,0.1c0,0,0.1-0.4,0.1-0.3c0.2,0.1,0.4-0.3,0.7-0.3l0,0l0,0c0.2,0,0.5,0.4,0.7,0.3
		c0.1,0,0.1,0.1,0.1,0.1c0.1,0,0.1,0,0.2,0c0.1-0.1,0.1-0.1,0.2-0.2l0,0l26.2-45.4l26.2,45.4l0,0c0.1,0.1,0.1,0.2,0.2,0.2
		c0,0.1,0.1,0.1,0.2,0.1c0,0,0.1,0.1,0.1,0.2c0.2,0.1,0.4,0.2,0.7,0.2l0,0l0,0c0.2,0,0.5-0.1,0.7-0.2c0.1,0,0.1-0.1,0.1-0.1
		c0.1,0,0.1-0.1,0.2-0.1c0.1-0.1,0.1-0.2,0.2-0.2l0,0l26.2-45.4l26.2,45.4l0,0c0.1,0.1,0.1,0.2,0.2,0.2c0,0,0.1,0.1,0.2,0.1l0.1,0.1
		c0.2,0.1,0.4,0.2,0.7,0.2l0,0l0,0c0.2,0,0.5-0.1,0.7-0.2c0.1,0,0.1-0.1,0.1-0.1c0.1,0,0.1-0.1,0.2-0.1c0.1-0.1,0.1-0.1,0.2-0.2l0,0
		l25.1-43.4l24.8,43l0,0c0.1,0.1,0.1,0.2,0.2,0.2l0.1,0.1l0.1,0.1c0.2,0.1,0.4,0.2,0.7,0.2l0,0l0,0c0.2,0,0.5-0.1,0.7-0.2
		c0.1,0,0.1-0.1,0.1-0.1c0.1,0,0.1-0.1,0.1-0.1c0.1-0.1,0.1-0.1,0.2-0.2l0,0l30.8-53.4c0.4-0.6,0.2-1.5-0.5-1.9
		c-0.6-0.4-1.5-0.2-1.9,0.5L258.5,157l-24.4-42.3l4.2-7.2c0.4-0.6,0.2-1.5-0.5-1.9s-1.5-0.2-1.9,0.5l-3.4,5.9l-3.7-6.3
		c-0.4-0.7-1.2-0.9-1.9-0.5s-0.9,1.2-0.5,1.9l4.4,7.7l-24.7,42.7l-25.8-44.7l3-5.3c0.4-0.6,0.2-1.5-0.5-1.9
		c-0.6-0.4-1.5-0.2-1.9,0.5L179,110l-2.3-3.9c-0.4-0.7-1.2-0.9-1.9-0.5s-0.9,1.2-0.5,1.9l3,5.3l-25.8,44.7l-25.8-44.7l3-5.3
		c0.4-0.6,0.2-1.5-0.5-1.9c-0.6-0.4-1.5-0.2-1.9,0.5L124,110l-2.3-3.9c-0.4-0.7-1.2-0.9-1.9-0.5c-0.7,0.4-0.9,1.2-0.5,1.9l3,5.3
		l-25.8,44.7l-25.8-44.7l3-5.3c0.4-0.6,0.2-1.5-0.5-1.9c-0.6-0.4-1.5-0.2-1.9,0.5L69,110l-2.3-3.9c-0.4-0.7-1.2-0.9-1.9-0.5
		c-0.7,0.4-0.9,1.2-0.5,1.9l3,5.3l-25.8,44.7l-29.6-51.3c-0.4-0.6-1.2-0.9-1.9-0.5c-0.6,0.4-0.9,1.2-0.5,1.9L41,160.9L41,160.9z"/>
	<path class="st0" d="M290.5,144.1c-0.6-0.4-1.5-0.2-1.9,0.5L259,195.9l-24.4-42.3l4.2-7.2c0.4-0.6,0.2-1.5-0.5-1.9
		c-0.6-0.4-1.5-0.2-1.9,0.5l-3.4,6l-3.7-6.3c-0.4-0.7-1.2-0.9-1.9-0.5c-0.6,0.4-0.9,1.2-0.5,1.9l4.4,7.7l-24.7,42.7L181,151.7l3-5.3
		c0.4-0.6,0.2-1.5-0.5-1.9c-0.6-0.4-1.5-0.2-1.9,0.5l-2.3,3.9L177,145c-0.4-0.6-1.2-0.9-1.9-0.5s-0.9,1.2-0.5,1.9l3,5.3l-25.8,44.7
		L126,151.7l3-5.3c0.4-0.6,0.2-1.5-0.5-1.9c-0.6-0.4-1.5-0.2-1.9,0.5l-2.3,3.9L122,145c-0.4-0.6-1.2-0.9-1.9-0.5
		c-0.7,0.4-0.9,1.2-0.5,1.9l3,5.3l-25.8,44.7L71,151.7l3-5.3c0.4-0.6,0.2-1.5-0.5-1.9c-0.6-0.4-1.5-0.2-1.9,0.5l-1.6,4l-2.3-3.9
		c-0.4-0.6-1.2-0.9-1.9-0.5c-0.7,0.4-0.9,1.2-0.5,1.9l3,5.3l-25.8,44.7L13,145.1c-0.4-0.6-1.2-0.9-1.9-0.5c-0.6,0.4-0.9,1.2-0.5,1.9
		l30.8,53.4l0,0c0.1,0.1,0.1,0.2,0.2,0.2c0,0.1,0.1,0.1,0.2,0.1l0.1,0.2c0.2,0.1,0.4,0.3,0.7,0.3l0,0l0,0c0.2,0,0.5-0.1,0.7-0.3
		c0.1,0,0.1-0.1,0.1-0.2c0.1,0,0.1-0.1,0.2-0.2c0.1-0.1,0.1-0.2,0.2-0.2l0,0L70,154.4l26.2,45.4l0,0c0,0.1,0.1,0.2,0.2,0.2
		c0,0.1,0.1,0.1,0.2,0.1l0.1,0.2c0.2,0.1,0.4,0.3,0.7,0.3l0,0l0,0c0.2,0,0.5-0.1,0.7-0.3c0.1,0,0.1-0.1,0.1-0.2
		c0.1,0,0.1-0.1,0.2-0.2c0.1-0.1,0.1-0.2,0.2-0.2l0,0l26.2-45.4l26.2,45.4l0,0c0.1,0.1,0.1,0.2,0.2,0.2c0,0.1,0.1,0.1,0.2,0.1
		l0.1,0.2c0.2,0.1,0.4,0.3,0.7,0.3l0,0l0,0c0.2,0,0.5-0.1,0.7-0.3c0.1,0,0.1-0.1,0.1-0.2c0.1,0,0.1-0.1,0.2-0.2
		c0.1-0.1,0.1-0.2,0.2-0.2l0,0l26.2-45.4l26.2,45.4l0,0c0.1,0.1,0.1,0.2,0.2,0.2c0,0.1,0.1,0.1,0.2,0.1l0.1,0.2
		c0.2,0.1,0.4,0.3,0.7,0.3l0,0l0,0c0.2,0,0.5-0.1,0.7-0.3c0.1,0,0.1-0.1,0.1-0.2c0.1,0,0.1-0.1,0.2-0.2c0.1-0.1,0.1-0.2,0.2-0.2l0,0
		l25.1-43.4l24.8,43l0,0c0.1,0.1,0.1,0.2,0.2,0.2l0.1,0.1l0.1,0.1c0.2,0.1,0.4,0.2,0.7,0.2l0,0l0,0c0.2,0,0.5-0.1,0.7-0.2
		c0.1,0,0.1-0.1,0.1-0.1c0.1,0,0.1-0.1,0.1-0.1c0.1-0.1,0.1-0.1,0.2-0.2l0,0L291,146C291.3,145.4,291.1,144.5,290.5,144.1z"/>
	<g>
		<path class="st1" d="M69.4,142.4C69.5,142.4,69.5,142.4,69.4,142.4c0.1,0,0.1,0,0.2,0c0.3,0,0.6-0.2,0.8-0.5l15-25.7
			c0.3-0.4,0.1-1-0.3-1.2c-0.4-0.3-1-0.1-1.2,0.3l-14.3,24.5l-14.3-24.5c-0.2-0.4-0.8-0.6-1.2-0.3c-0.4,0.3-0.6,0.8-0.3,1.2l15,25.7
			C68.8,142.2,69.1,142.4,69.4,142.4z"/>
		<path class="st1" d="M124.2,142.4L124.2,142.4c0.1,0,0.1,0,0.2,0c0.3,0,0.6-0.2,0.8-0.5l15-25.7c0.3-0.4,0.1-1-0.3-1.2
			c-0.4-0.3-1-0.1-1.2,0.3l-14.3,24.5L110,115.3c-0.3-0.4-0.8-0.6-1.2-0.3c-0.4,0.3-0.6,0.8-0.3,1.2l15,25.7
			C123.6,142.2,123.9,142.4,124.2,142.4z"/>
		<path class="st1" d="M178.9,142.4C178.9,142.4,179,142.4,178.9,142.4c0.1,0,0.1,0,0.2,0c0.3,0,0.6-0.2,0.8-0.5l15-25.7
			c0.3-0.4,0.1-1-0.3-1.2c-0.4-0.3-1-0.1-1.2,0.3L179,139.8l-14.3-24.5c-0.2-0.4-0.8-0.6-1.2-0.3c-0.4,0.3-0.6,0.8-0.3,1.2l15,25.7
			C178.3,142.2,178.6,142.4,178.9,142.4z"/>
		<path class="st1" d="M233.6,142.4C233.7,142.4,233.7,142.4,233.6,142.4c0.1,0,0.1,0,0.2,0c0.3,0,0.6-0.2,0.8-0.5l15-25.7
			c0.3-0.4,0.1-1-0.3-1.2c-0.4-0.3-1-0.1-1.2,0.3l-14.3,24.5l-14.3-24.5c-0.3-0.4-0.8-0.6-1.2-0.3c-0.4,0.3-0.6,0.8-0.3,1.2l15,25.7
			C233,142.2,233.3,142.4,233.6,142.4z"/>
		<path class="st1" d="M85.5,153.9c-0.4-0.3-1-0.1-1.2,0.3L70,178.8l-14.3-24.5c-0.3-0.4-0.8-0.6-1.2-0.3s-0.6,0.8-0.3,1.2l15,25.7
			c0.2,0.3,0.5,0.5,0.8,0.5h0.1h0.1c0.3,0,0.6-0.2,0.8-0.5l15-25.7C86.1,154.7,85.9,154.2,85.5,153.9z"/>
		<path class="st1" d="M140.2,153.9c-0.4-0.3-1-0.1-1.2,0.3l-14.3,24.5l-14.3-24.5c-0.3-0.4-0.8-0.6-1.2-0.3
			c-0.4,0.3-0.6,0.8-0.3,1.2l15,25.7c0.2,0.3,0.5,0.5,0.8,0.5h0.1h0.1c0.3,0,0.6-0.2,0.8-0.5l15-25.7
			C140.8,154.7,140.7,154.2,140.2,153.9z"/>
		<path class="st1" d="M194.9,153.9c-0.4-0.3-1-0.1-1.2,0.3l-14.3,24.5l-14.3-24.5c-0.3-0.4-0.8-0.6-1.2-0.3s-0.6,0.8-0.3,1.2
			l15,25.7c0.2,0.3,0.5,0.5,0.8,0.5h0.1h0.1c0.3,0,0.6-0.2,0.8-0.5l15-25.7C195.5,154.7,195.4,154.2,194.9,153.9z"/>
		<path class="st1" d="M249.7,153.9c-0.4-0.3-1-0.1-1.2,0.3l-14.3,24.5l-14.3-24.5c-0.3-0.4-0.8-0.6-1.2-0.3s-0.6,0.8-0.3,1.2
			l15,25.7c0.2,0.3,0.5,0.5,0.8,0.5h0.1h0.1c0.3,0,0.6-0.2,0.8-0.5l15-25.7C250.3,154.7,250.1,154.2,249.7,153.9z"/>
	</g>
</g>
<g id="grafismo_1">
	<g>
		<path class="st2" d="M310.7,126.1c-0.1,0-0.3,0-0.4-0.1c-0.2-0.2-0.2-0.5,0-0.7l15-14.9c0.2-0.2,0.5-0.2,0.7,0s0.2,0.5,0,0.7
			L311,126C311,126,310.8,126.1,310.7,126.1z"/>
	</g>
	<g>
		<path class="st1" d="M305.5,120.9c-0.1,0-0.3,0-0.4-0.1c-0.2-0.2-0.2-0.5,0-0.7l15-14.9c0.2-0.2,0.5-0.2,0.7,0s0.2,0.5,0,0.7
			l-15,14.9C305.8,120.8,305.6,120.9,305.5,120.9z"/>
	</g>
	<g>
		<path class="st2" d="M321.1,136.5c-0.1,0-0.3,0-0.4-0.1c-0.2-0.2-0.2-0.5,0-0.7l15-14.9c0.2-0.2,0.5-0.2,0.7,0s0.2,0.5,0,0.7
			l-15,14.9C321.4,136.5,321.2,136.5,321.1,136.5z"/>
	</g>
	<g>
		<path class="st1" d="M315.9,131.3c-0.1,0-0.3,0-0.4-0.1c-0.2-0.2-0.2-0.5,0-0.7l15-14.9c0.2-0.2,0.5-0.2,0.7,0s0.2,0.5,0,0.7
			l-15,14.9C316.2,131.3,316,131.3,315.9,131.3z"/>
	</g>
	<g>
		<path class="st2" d="M331.5,147c-0.1,0-0.3,0-0.4-0.1c-0.2-0.2-0.2-0.5,0-0.7l15-14.9c0.2-0.2,0.5-0.2,0.7,0s0.2,0.5,0,0.7
			l-15,14.9C331.8,147,331.7,147,331.5,147z"/>
	</g>
	<g>
		<path class="st1" d="M326.3,141.8c-0.1,0-0.3,0-0.4-0.1c-0.2-0.2-0.2-0.5,0-0.7l15-14.9c0.2-0.2,0.5-0.2,0.7,0s0.2,0.5,0,0.7
			l-15,14.9C326.6,141.7,326.5,141.8,326.3,141.8z"/>
	</g>
</g>
<path class="st0" d="M301.5,206c-0.1,0-0.3,0-0.4-0.1c-0.8-0.2-1.2-1.1-1-1.9l5-17c0.2-0.8,1.1-1.2,1.9-1s1.2,1.1,1,1.9l-5,17
	C302.7,205.6,302.1,206,301.5,206z"/>
<g>
	<g>
		<path class="st0" d="M259,272.3h-51.9c-0.5,0-0.9-0.4-0.9-0.9v-13.2c0-0.5,0.4-0.9,0.9-0.9h12.6v-3h-45v7.1h25.5
			c0.5,0,0.9,0.4,0.9,0.9v9.1c0,0.5-0.4,0.9-0.9,0.9h-57.6c-0.5,0-0.9-0.4-0.9-0.9v-9.1c0-0.5,0.4-0.9,0.9-0.9h11.8V242h-45v15.3
			h18.9c0.5,0,0.9,0.4,0.9,0.9v13.2c0,0.5-0.4,0.9-0.9,0.9h-52c-0.5,0-0.9-0.4-0.9-0.9v-13.2c0-0.5,0.4-0.9,0.9-0.9h12.6v-3h-45v7.1
			h25.5c0.5,0,0.9,0.4,0.9,0.9v9.1c0,0.5-0.4,0.9-0.9,0.9H11.7c-0.5,0-0.9-0.4-0.9-0.9v-9.1c0-0.5,0.4-0.9,0.9-0.9h11.8V225H10.9
			c-0.5,0-0.9-0.4-0.9-0.9v-13.2c0-0.5,0.4-0.9,0.9-0.9h51.9c0.5,0,0.9,0.4,0.9,0.9v13.3c0,0.5-0.4,0.9-0.9,0.9h-19v15.3h45V221
			H77.1c-0.5,0-0.9-0.4-0.9-0.9V211c0-0.5,0.4-0.9,0.9-0.9h57.6c0.5,0,0.9,0.4,0.9,0.9v9.1c0,0.5-0.4,0.9-0.9,0.9h-25.5v7.1h45v-3
			h-12.6c-0.5,0-0.9-0.4-0.9-0.9V211c0-0.5,0.4-0.9,0.9-0.9h51.9c0.5,0,0.9,0.4,0.9,0.9v13.2c0,0.5-0.4,0.9-0.9,0.9h-18.9v15.3h45
			V221h-11.8c-0.5,0-0.9-0.4-0.9-0.9V211c0-0.5,0.4-0.9,0.9-0.9h57.6c0.5,0,0.9,0.4,0.9,0.9v9.1c0,0.5-0.4,0.9-0.9,0.9h-25.5v7.1
			H286c0.5,0,0.9,0.4,0.9,0.9v12.2c0,0.5-0.4,0.9-0.9,0.9h-46.1v15.3H259c0.5,0,0.9,0.4,0.9,0.9v13.2
			C259.8,271.9,259.4,272.3,259,272.3z M208,270.6h50.2v-11.5h-18.9c-0.5,0-0.9-0.4-0.9-0.9v-17c0-0.5,0.4-0.9,0.9-0.9h46.1v-10.6
			h-46.1c-0.5,0-0.9-0.4-0.9-0.9V220c0-0.5,0.4-0.9,0.9-0.9h25.5v-7.3h-55.9v7.3h11.8c0.5,0,0.9,0.4,0.9,0.9v21.2
			c0,0.5-0.4,0.9-0.9,0.9h-46.8c-0.5,0-0.9-0.4-0.9-0.9v-17c0-0.5,0.4-0.9,0.9-0.9h18.9v-11.5h-50.2v11.5h12.6
			c0.5,0,0.9,0.4,0.9,0.9v4.7c0,0.5-0.4,0.9-0.9,0.9h-46.8c-0.5,0-0.9-0.4-0.9-0.9v-8.8c0-0.5,0.4-0.9,0.9-0.9h25.5v-7.3h-56v7.3
			h11.8c0.5,0,0.9,0.4,0.9,0.9v21.1c0,0.5-0.4,0.9-0.9,0.9H43c-0.5,0-0.9-0.4-0.9-0.9v-17c0-0.5,0.4-0.9,0.9-0.9h18.9v-11.5H11.7
			v11.5h12.6c0.5,0,0.9,0.4,0.9,0.9v38.2c0,0.5-0.4,0.9-0.9,0.9H12.5v7.3h55.9v-7.4H43c-0.5,0-0.9-0.4-0.9-0.9v-8.8
			c0-0.5,0.4-0.9,0.9-0.9h46.7c0.5,0,0.9,0.4,0.9,0.9v4.7c0,0.5-0.4,0.9-0.9,0.9H77.1v11.5h50.2v-11.5h-18.9c-0.5,0-0.9-0.4-0.9-0.9
			v-17c0-0.5,0.4-0.9,0.9-0.9h46.8c0.5,0,0.9,0.4,0.9,0.9v21.1c0,0.5-0.4,0.9-0.9,0.9h-11.8v7.3h55.9v-7.3h-25.5
			c-0.5,0-0.9-0.4-0.9-0.9v-8.8c0-0.5,0.4-0.9,0.9-0.9h46.8c0.5,0,0.9,0.4,0.9,0.9v4.7c0,0.5-0.4,0.9-0.9,0.9H208V270.6z"/>
	</g>
	<g>
		<g>
			<g>
				<path class="st1" d="M211.4,265.7c0-1,1.3-1,1.3-1s1.3,0,1.3,1s-1.3,1-1.3,1S211.4,266.6,211.4,265.7z"/>
			</g>
			<g>
				<path class="st1" d="M216.7,265.7c0-1,1.3-1,1.3-1s1.3,0,1.3,1s-1.3,1-1.3,1S216.7,266.6,216.7,265.7z"/>
			</g>
			<g>
				<path class="st1" d="M222.1,265.7c0-1,1.3-1,1.3-1s1.3,0,1.3,1s-1.3,1-1.3,1S222.1,266.6,222.1,265.7z"/>
			</g>
			<g>
				<path class="st1" d="M227.4,265.7c0-1,1.3-1,1.3-1s1.3,0,1.3,1s-1.3,1-1.3,1S227.4,266.6,227.4,265.7z"/>
			</g>
			<g>
				<path class="st1" d="M232.7,265.7c0-1,1.3-1,1.3-1s1.3,0,1.3,1s-1.3,1-1.3,1S232.7,266.6,232.7,265.7z"/>
			</g>
			<g>
				<path class="st1" d="M238.1,265.7c0-1,1.3-1,1.3-1s1.3,0,1.3,1s-1.3,1-1.3,1S238.1,266.6,238.1,265.7z"/>
			</g>
			<g>
				<path class="st1" d="M243.4,265.7c0-1,1.3-1,1.3-1s1.3,0,1.3,1s-1.3,1-1.3,1S243.4,266.6,243.4,265.7z"/>
			</g>
			<g>
				<path class="st1" d="M248.8,265.7c0-1,1.3-1,1.3-1s1.3,0,1.3,1s-1.3,1-1.3,1S248.8,266.6,248.8,265.7z"/>
			</g>
			<g>
				<path class="st1" d="M254.1,265.7c0-1,1.3-1,1.3-1s1.3,0,1.3,1s-1.3,1-1.3,1S254.1,266.6,254.1,265.7z"/>
			</g>
		</g>
		<g>
			<g>
				<path class="st1" d="M211,215.5c0-1,1.3-1,1.3-1s1.3,0,1.3,1s-1.3,1-1.3,1S211,216.4,211,215.5z"/>
			</g>
			<g>
				<path class="st1" d="M216.4,215.5c0-1,1.3-1,1.3-1s1.3,0,1.3,1s-1.3,1-1.3,1S216.4,216.4,216.4,215.5z"/>
			</g>
			<g>
				<path class="st1" d="M221.7,215.5c0-1,1.3-1,1.3-1s1.3,0,1.3,1s-1.3,1-1.3,1S221.7,216.4,221.7,215.5z"/>
			</g>
			<g>
				<path class="st1" d="M227.1,215.5c0-1,1.3-1,1.3-1s1.3,0,1.3,1s-1.3,1-1.3,1S227.1,216.4,227.1,215.5z"/>
			</g>
			<g>
				<path class="st1" d="M232.4,215.5c0-1,1.3-1,1.3-1s1.3,0,1.3,1s-1.3,1-1.3,1S232.4,216.4,232.4,215.5z"/>
			</g>
			<g>
				<path class="st1" d="M237.8,215.5c0-1,1.3-1,1.3-1s1.3,0,1.3,1s-1.3,1-1.3,1S237.8,216.4,237.8,215.5z"/>
			</g>
			<g>
				<path class="st1" d="M243.1,215.5c0-1,1.3-1,1.3-1s1.3,0,1.3,1s-1.3,1-1.3,1S243.1,216.4,243.1,215.5z"/>
			</g>
			<g>
				<path class="st1" d="M248.4,215.5c0-1,1.3-1,1.3-1s1.3,0,1.3,1s-1.3,1-1.3,1S248.4,216.4,248.4,215.5z"/>
			</g>
			<g>
				<path class="st1" d="M253.8,215.5c0-1,1.3-1,1.3-1s1.3,0,1.3,1s-1.3,1-1.3,1S253.8,216.4,253.8,215.5z"/>
			</g>
			<g>
				<path class="st1" d="M259.1,215.5c0-1,1.3-1,1.3-1s1.3,0,1.3,1s-1.3,1-1.3,1S259.1,216.4,259.1,215.5z"/>
			</g>
		</g>
		<g>
			<g>
				<path class="st1" d="M231.8,233.7c0-1,1.3-1,1.3-1s1.3,0,1.3,1s-1.3,1-1.3,1S231.8,234.7,231.8,233.7z"/>
			</g>
			<g>
				<path class="st1" d="M237.1,233.7c0-1,1.3-1,1.3-1s1.3,0,1.3,1s-1.3,1-1.3,1S237.1,234.7,237.1,233.7z"/>
			</g>
			<g>
				<path class="st1" d="M242.5,233.7c0-1,1.3-1,1.3-1s1.3,0,1.3,1s-1.3,1-1.3,1S242.5,234.7,242.5,233.7z"/>
			</g>
			<g>
				<path class="st1" d="M247.8,233.7c0-1,1.3-1,1.3-1s1.3,0,1.3,1s-1.3,1-1.3,1S247.8,234.7,247.8,233.7z"/>
			</g>
			<g>
				<path class="st1" d="M253.1,233.7c0-1,1.3-1,1.3-1s1.3,0,1.3,1s-1.3,1-1.3,1S253.1,234.7,253.1,233.7z"/>
			</g>
			<g>
				<path class="st1" d="M258.5,233.7c0-1,1.3-1,1.3-1s1.3,0,1.3,1s-1.3,1-1.3,1S258.5,234.7,258.5,233.7z"/>
			</g>
			<g>
				<path class="st1" d="M263.8,233.7c0-1,1.3-1,1.3-1s1.3,0,1.3,1s-1.3,1-1.3,1S263.8,234.7,263.8,233.7z"/>
			</g>
			<g>
				<path class="st1" d="M269.2,233.7c0-1,1.3-1,1.3-1s1.3,0,1.3,1s-1.3,1-1.3,1S269.2,234.7,269.2,233.7z"/>
			</g>
			<g>
				<path class="st1" d="M274.5,233.7c0-1,1.3-1,1.3-1s1.3,0,1.3,1s-1.3,1-1.3,1S274.5,234.7,274.5,233.7z"/>
			</g>
			<g>
				<path class="st1" d="M279.8,233.7c0-1,1.3-1,1.3-1s1.3,0,1.3,1s-1.3,1-1.3,1S279.8,234.7,279.8,233.7z"/>
			</g>
		</g>
		<g>
			<g>
				<path class="st1" d="M230,219.3c0-1-1.3-1-1.3-1s-1.3,0-1.3,1s1.3,1,1.3,1S230,220.2,230,219.3z"/>
			</g>
			<g>
				<path class="st1" d="M230,224c0-1-1.3-1-1.3-1s-1.3,0-1.3,1s1.3,1,1.3,1S230,225,230,224z"/>
			</g>
			<g>
				<path class="st1" d="M230,228.8c0-1-1.3-1-1.3-1s-1.3,0-1.3,1s1.3,1,1.3,1S230,229.7,230,228.8z"/>
			</g>
			<g>
				<path class="st1" d="M230,233.5c0-1-1.3-1-1.3-1s-1.3,0-1.3,1s1.3,1,1.3,1S230,234.4,230,233.5z"/>
			</g>
			<g>
				<path class="st1" d="M230,238.2c0-1-1.3-1-1.3-1s-1.3,0-1.3,1s1.3,1,1.3,1S230,239.2,230,238.2z"/>
			</g>
			<g>
				<path class="st1" d="M230,242.9c0-1-1.3-1-1.3-1s-1.3,0-1.3,1s1.3,1,1.3,1S230,243.9,230,242.9z"/>
			</g>
			<g>
				<path class="st1" d="M230,252.4c0-1-1.3-1-1.3-1s-1.3,0-1.3,1s1.3,1,1.3,1S230,253.3,230,252.4z"/>
			</g>
			<g>
				<path class="st1" d="M230,257.1c0-1-1.3-1-1.3-1s-1.3,0-1.3,1s1.3,1,1.3,1S230,258.1,230,257.1z"/>
			</g>
			<g>
				<path class="st1" d="M230,261.9c0-1-1.3-1-1.3-1s-1.3,0-1.3,1s1.3,1,1.3,1S230,262.8,230,261.9z"/>
			</g>
		</g>
		<g>
			<g>
				<path class="st1" d="M184.7,247.4c0-1,1.3-1,1.3-1s1.3,0,1.3,1s-1.3,1-1.3,1S184.7,248.3,184.7,247.4z"/>
			</g>
			<g>
				<path class="st1" d="M190,247.4c0-1,1.3-1,1.3-1s1.3,0,1.3,1s-1.3,1-1.3,1S190,248.3,190,247.4z"/>
			</g>
			<g>
				<path class="st1" d="M195.4,247.4c0-1,1.3-1,1.3-1s1.3,0,1.3,1s-1.3,1-1.3,1S195.4,248.3,195.4,247.4z"/>
			</g>
			<g>
				<path class="st1" d="M200.7,247.4c0-1,1.3-1,1.3-1s1.3,0,1.3,1s-1.3,1-1.3,1S200.7,248.3,200.7,247.4z"/>
			</g>
			<g>
				<path class="st1" d="M206,247.4c0-1,1.3-1,1.3-1s1.3,0,1.3,1s-1.3,1-1.3,1S206,248.3,206,247.4z"/>
			</g>
			<g>
				<path class="st1" d="M211.4,247.4c0-1,1.3-1,1.3-1s1.3,0,1.3,1s-1.3,1-1.3,1S211.4,248.3,211.4,247.4z"/>
			</g>
			<g>
				<path class="st1" d="M216.7,247.4c0-1,1.3-1,1.3-1s1.3,0,1.3,1s-1.3,1-1.3,1S216.7,248.3,216.7,247.4z"/>
			</g>
			<g>
				<path class="st1" d="M222.1,247.4c0-1,1.3-1,1.3-1s1.3,0,1.3,1s-1.3,1-1.3,1S222.1,248.3,222.1,247.4z"/>
			</g>
			<g>
				<path class="st1" d="M227.4,247.4c0-1,1.3-1,1.3-1s1.3,0,1.3,1s-1.3,1-1.3,1S227.4,248.3,227.4,247.4z"/>
			</g>
			<g>
				<path class="st1" d="M232.7,247.4c0-1,1.3-1,1.3-1s1.3,0,1.3,1s-1.3,1-1.3,1S232.7,248.3,232.7,247.4z"/>
			</g>
		</g>
		<g>
			<g>
				<path class="st1" d="M79.6,265.8c0-1,1.3-1,1.3-1s1.3,0,1.3,1s-1.3,1-1.3,1S79.6,266.7,79.6,265.8z"/>
			</g>
			<g>
				<path class="st1" d="M84.9,265.8c0-1,1.3-1,1.3-1s1.3,0,1.3,1s-1.3,1-1.3,1S84.9,266.7,84.9,265.8z"/>
			</g>
			<g>
				<path class="st1" d="M90.3,265.8c0-1,1.3-1,1.3-1s1.3,0,1.3,1s-1.3,1-1.3,1S90.3,266.7,90.3,265.8z"/>
			</g>
			<g>
				<path class="st1" d="M95.6,265.8c0-1,1.3-1,1.3-1s1.3,0,1.3,1s-1.3,1-1.3,1S95.6,266.7,95.6,265.8z"/>
			</g>
			<g>
				<path class="st1" d="M100.9,265.8c0-1,1.3-1,1.3-1s1.3,0,1.3,1s-1.3,1-1.3,1S100.9,266.7,100.9,265.8z"/>
			</g>
			<g>
				<path class="st1" d="M106.3,265.8c0-1,1.3-1,1.3-1s1.3,0,1.3,1s-1.3,1-1.3,1S106.3,266.7,106.3,265.8z"/>
			</g>
			<g>
				<path class="st1" d="M111.6,265.8c0-1,1.3-1,1.3-1s1.3,0,1.3,1s-1.3,1-1.3,1S111.6,266.7,111.6,265.8z"/>
			</g>
			<g>
				<path class="st1" d="M117,265.8c0-1,1.3-1,1.3-1s1.3,0,1.3,1s-1.3,1-1.3,1S117,266.7,117,265.8z"/>
			</g>
			<g>
				<path class="st1" d="M122.3,265.8c0-1,1.3-1,1.3-1s1.3,0,1.3,1s-1.3,1-1.3,1S122.3,266.7,122.3,265.8z"/>
			</g>
		</g>
		<g>
			<g>
				<path class="st1" d="M79.2,215.6c0-1,1.3-1,1.3-1s1.3,0,1.3,1s-1.3,1-1.3,1S79.2,216.5,79.2,215.6z"/>
			</g>
			<g>
				<path class="st1" d="M84.6,215.6c0-1,1.3-1,1.3-1s1.3,0,1.3,1s-1.3,1-1.3,1S84.6,216.5,84.6,215.6z"/>
			</g>
			<g>
				<path class="st1" d="M89.9,215.6c0-1,1.3-1,1.3-1s1.3,0,1.3,1s-1.3,1-1.3,1S89.9,216.5,89.9,215.6z"/>
			</g>
			<g>
				<path class="st1" d="M95.3,215.6c0-1,1.3-1,1.3-1s1.3,0,1.3,1s-1.3,1-1.3,1S95.3,216.5,95.3,215.6z"/>
			</g>
			<g>
				<path class="st1" d="M100.6,215.6c0-1,1.3-1,1.3-1s1.3,0,1.3,1s-1.3,1-1.3,1S100.6,216.5,100.6,215.6z"/>
			</g>
			<g>
				<path class="st1" d="M106,215.6c0-1,1.3-1,1.3-1s1.3,0,1.3,1s-1.3,1-1.3,1S106,216.5,106,215.6z"/>
			</g>
			<g>
				<path class="st1" d="M111.3,215.6c0-1,1.3-1,1.3-1s1.3,0,1.3,1s-1.3,1-1.3,1S111.3,216.5,111.3,215.6z"/>
			</g>
			<g>
				<path class="st1" d="M116.6,215.6c0-1,1.3-1,1.3-1s1.3,0,1.3,1s-1.3,1-1.3,1S116.6,216.5,116.6,215.6z"/>
			</g>
			<g>
				<path class="st1" d="M122,215.6c0-1,1.3-1,1.3-1s1.3,0,1.3,1s-1.3,1-1.3,1S122,216.5,122,215.6z"/>
			</g>
			<g>
				<path class="st1" d="M127.3,215.6c0-1,1.3-1,1.3-1s1.3,0,1.3,1s-1.3,1-1.3,1S127.3,216.5,127.3,215.6z"/>
			</g>
		</g>
		<g>
			<g>
				<path class="st1" d="M100,233.8c0-1,1.3-1,1.3-1s1.3,0,1.3,1s-1.3,1-1.3,1S100,234.8,100,233.8z"/>
			</g>
			<g>
				<path class="st1" d="M105.3,233.8c0-1,1.3-1,1.3-1s1.3,0,1.3,1s-1.3,1-1.3,1S105.3,234.8,105.3,233.8z"/>
			</g>
			<g>
				<path class="st1" d="M110.7,233.8c0-1,1.3-1,1.3-1s1.3,0,1.3,1s-1.3,1-1.3,1S110.7,234.8,110.7,233.8z"/>
			</g>
			<g>
				<path class="st1" d="M116,233.8c0-1,1.3-1,1.3-1s1.3,0,1.3,1s-1.3,1-1.3,1S116,234.8,116,233.8z"/>
			</g>
			<g>
				<path class="st1" d="M121.3,233.8c0-1,1.3-1,1.3-1s1.3,0,1.3,1s-1.3,1-1.3,1S121.3,234.8,121.3,233.8z"/>
			</g>
			<g>
				<path class="st1" d="M126.7,233.8c0-1,1.3-1,1.3-1s1.3,0,1.3,1s-1.3,1-1.3,1S126.7,234.8,126.7,233.8z"/>
			</g>
			<g>
				<path class="st1" d="M132,233.8c0-1,1.3-1,1.3-1s1.3,0,1.3,1s-1.3,1-1.3,1S132,234.8,132,233.8z"/>
			</g>
			<g>
				<path class="st1" d="M137.4,233.8c0-1,1.3-1,1.3-1s1.3,0,1.3,1s-1.3,1-1.3,1S137.4,234.8,137.4,233.8z"/>
			</g>
			<g>
				<path class="st1" d="M142.7,233.8c0-1,1.3-1,1.3-1s1.3,0,1.3,1s-1.3,1-1.3,1S142.7,234.8,142.7,233.8z"/>
			</g>
			<g>
				<path class="st1" d="M148,233.8c0-1,1.3-1,1.3-1s1.3,0,1.3,1s-1.3,1-1.3,1S148,234.8,148,233.8z"/>
			</g>
		</g>
		<g>
			<g>
				<path class="st1" d="M98.2,219.4c0-1-1.3-1-1.3-1s-1.3,0-1.3,1s1.3,1,1.3,1S98.2,220.4,98.2,219.4z"/>
			</g>
			<g>
				<path class="st1" d="M98.2,224.1c0-1-1.3-1-1.3-1s-1.3,0-1.3,1s1.3,1,1.3,1S98.2,225.1,98.2,224.1z"/>
			</g>
			<g>
				<path class="st1" d="M98.2,228.9c0-1-1.3-1-1.3-1s-1.3,0-1.3,1s1.3,1,1.3,1S98.2,229.8,98.2,228.9z"/>
			</g>
			<g>
				<path class="st1" d="M98.2,233.6c0-1-1.3-1-1.3-1s-1.3,0-1.3,1s1.3,1,1.3,1S98.2,234.5,98.2,233.6z"/>
			</g>
			<g>
				<path class="st1" d="M98.2,238.3c0-1-1.3-1-1.3-1s-1.3,0-1.3,1s1.3,1,1.3,1S98.2,239.3,98.2,238.3z"/>
			</g>
			<g>
				<path class="st1" d="M98.2,243c0-1-1.3-1-1.3-1s-1.3,0-1.3,1s1.3,1,1.3,1S98.2,244,98.2,243z"/>
			</g>
			<g>
				<path class="st1" d="M98.2,252.5c0-1-1.3-1-1.3-1s-1.3,0-1.3,1s1.3,1,1.3,1S98.2,253.5,98.2,252.5z"/>
			</g>
			<g>
				<path class="st1" d="M98.2,257.2c0-1-1.3-1-1.3-1s-1.3,0-1.3,1s1.3,1,1.3,1S98.2,258.2,98.2,257.2z"/>
			</g>
			<g>
				<path class="st1" d="M98.2,262c0-1-1.3-1-1.3-1s-1.3,0-1.3,1s1.3,1,1.3,1S98.2,262.9,98.2,262z"/>
			</g>
		</g>
		<g>
			<g>
				<path class="st1" d="M52.9,247.5c0-1,1.3-1,1.3-1s1.3,0,1.3,1s-1.3,1-1.3,1S52.9,248.4,52.9,247.5z"/>
			</g>
			<g>
				<path class="st1" d="M58.2,247.5c0-1,1.3-1,1.3-1s1.3,0,1.3,1s-1.3,1-1.3,1S58.2,248.4,58.2,247.5z"/>
			</g>
			<g>
				<path class="st1" d="M63.5,247.5c0-1,1.3-1,1.3-1s1.3,0,1.3,1s-1.3,1-1.3,1S63.5,248.4,63.5,247.5z"/>
			</g>
			<g>
				<path class="st1" d="M68.9,247.5c0-1,1.3-1,1.3-1s1.3,0,1.3,1s-1.3,1-1.3,1S68.9,248.4,68.9,247.5z"/>
			</g>
			<g>
				<path class="st1" d="M74.2,247.5c0-1,1.3-1,1.3-1s1.3,0,1.3,1s-1.3,1-1.3,1S74.2,248.4,74.2,247.5z"/>
			</g>
			<g>
				<path class="st1" d="M79.6,247.5c0-1,1.3-1,1.3-1s1.3,0,1.3,1s-1.3,1-1.3,1S79.6,248.4,79.6,247.5z"/>
			</g>
			<g>
				<path class="st1" d="M84.9,247.5c0-1,1.3-1,1.3-1s1.3,0,1.3,1s-1.3,1-1.3,1S84.9,248.4,84.9,247.5z"/>
			</g>
			<g>
				<path class="st1" d="M90.3,247.5c0-1,1.3-1,1.3-1s1.3,0,1.3,1s-1.3,1-1.3,1S90.3,248.4,90.3,247.5z"/>
			</g>
			<g>
				<path class="st1" d="M95.6,247.5c0-1,1.3-1,1.3-1s1.3,0,1.3,1s-1.3,1-1.3,1S95.6,248.4,95.6,247.5z"/>
			</g>
			<g>
				<path class="st1" d="M100.9,247.5c0-1,1.3-1,1.3-1s1.3,0,1.3,1s-1.3,1-1.3,1S100.9,248.4,100.9,247.5z"/>
			</g>
		</g>
		<g>
			<g>
				<path class="st1" d="M148,215.5c0,1,1.3,1,1.3,1s1.3,0,1.3-1s-1.3-1-1.3-1S148,214.5,148,215.5z"/>
			</g>
			<g>
				<path class="st1" d="M153.4,215.5c0,1,1.3,1,1.3,1s1.3,0,1.3-1s-1.3-1-1.3-1S153.4,214.5,153.4,215.5z"/>
			</g>
			<g>
				<path class="st1" d="M158.7,215.5c0,1,1.3,1,1.3,1s1.3,0,1.3-1s-1.3-1-1.3-1S158.7,214.5,158.7,215.5z"/>
			</g>
			<g>
				<path class="st1" d="M164.1,215.5c0,1,1.3,1,1.3,1s1.3,0,1.3-1s-1.3-1-1.3-1S164.1,214.5,164.1,215.5z"/>
			</g>
			<g>
				<path class="st1" d="M169.4,215.5c0,1,1.3,1,1.3,1s1.3,0,1.3-1s-1.3-1-1.3-1S169.4,214.5,169.4,215.5z"/>
			</g>
			<g>
				<path class="st1" d="M174.7,215.5c0,1,1.3,1,1.3,1s1.3,0,1.3-1s-1.3-1-1.3-1S174.7,214.5,174.7,215.5z"/>
			</g>
			<g>
				<path class="st1" d="M180.1,215.5c0,1,1.3,1,1.3,1s1.3,0,1.3-1s-1.3-1-1.3-1S180.1,214.5,180.1,215.5z"/>
			</g>
			<g>
				<path class="st1" d="M185.4,215.5c0,1,1.3,1,1.3,1s1.3,0,1.3-1s-1.3-1-1.3-1S185.4,214.5,185.4,215.5z"/>
			</g>
		</g>
		<g>
			<g>
				<path class="st1" d="M147.7,265.7c0,1,1.3,1,1.3,1s1.3,0,1.3-1s-1.3-1-1.3-1S147.7,264.7,147.7,265.7z"/>
			</g>
			<g>
				<path class="st1" d="M153.1,265.7c0,1,1.3,1,1.3,1s1.3,0,1.3-1s-1.3-1-1.3-1S153.1,264.7,153.1,265.7z"/>
			</g>
			<g>
				<path class="st1" d="M158.4,265.7c0,1,1.3,1,1.3,1s1.3,0,1.3-1s-1.3-1-1.3-1S158.4,264.7,158.4,265.7z"/>
			</g>
			<g>
				<path class="st1" d="M163.7,265.7c0,1,1.3,1,1.3,1s1.3,0,1.3-1s-1.3-1-1.3-1S163.7,264.7,163.7,265.7z"/>
			</g>
			<g>
				<path class="st1" d="M169.1,265.7c0,1,1.3,1,1.3,1s1.3,0,1.3-1s-1.3-1-1.3-1S169.1,264.7,169.1,265.7z"/>
			</g>
			<g>
				<path class="st1" d="M174.4,265.7c0,1,1.3,1,1.3,1s1.3,0,1.3-1s-1.3-1-1.3-1S174.4,264.7,174.4,265.7z"/>
			</g>
			<g>
				<path class="st1" d="M179.8,265.7c0,1,1.3,1,1.3,1s1.3,0,1.3-1s-1.3-1-1.3-1S179.8,264.7,179.8,265.7z"/>
			</g>
			<g>
				<path class="st1" d="M185.1,265.7c0,1,1.3,1,1.3,1s1.3,0,1.3-1s-1.3-1-1.3-1S185.1,264.7,185.1,265.7z"/>
			</g>
			<g>
				<path class="st1" d="M190.4,265.7c0,1,1.3,1,1.3,1s1.3,0,1.3-1s-1.3-1-1.3-1S190.4,264.7,190.4,265.7z"/>
			</g>
			<g>
				<path class="st1" d="M195.8,265.7c0,1,1.3,1,1.3,1s1.3,0,1.3-1s-1.3-1-1.3-1S195.8,264.7,195.8,265.7z"/>
			</g>
		</g>
		<g>
			<g>
				<path class="st1" d="M168.4,247.4c0,1,1.3,1,1.3,1s1.3,0,1.3-1s-1.3-1-1.3-1S168.4,246.5,168.4,247.4z"/>
			</g>
			<g>
				<path class="st1" d="M173.8,247.4c0,1,1.3,1,1.3,1s1.3,0,1.3-1s-1.3-1-1.3-1S173.8,246.5,173.8,247.4z"/>
			</g>
			<g>
				<path class="st1" d="M179.1,247.4c0,1,1.3,1,1.3,1s1.3,0,1.3-1s-1.3-1-1.3-1S179.1,246.5,179.1,247.4z"/>
			</g>
			<g>
				<path class="st1" d="M184.5,247.4c0,1,1.3,1,1.3,1s1.3,0,1.3-1s-1.3-1-1.3-1S184.5,246.5,184.5,247.4z"/>
			</g>
			<g>
				<path class="st1" d="M189.8,247.4c0,1,1.3,1,1.3,1s1.3,0,1.3-1s-1.3-1-1.3-1S189.8,246.5,189.8,247.4z"/>
			</g>
			<g>
				<path class="st1" d="M195.1,247.4c0,1,1.3,1,1.3,1s1.3,0,1.3-1s-1.3-1-1.3-1S195.1,246.5,195.1,247.4z"/>
			</g>
			<g>
				<path class="st1" d="M200.5,247.4c0,1,1.3,1,1.3,1s1.3,0,1.3-1s-1.3-1-1.3-1S200.5,246.5,200.5,247.4z"/>
			</g>
			<g>
				<path class="st1" d="M205.8,247.4c0,1,1.3,1,1.3,1s1.3,0,1.3-1s-1.3-1-1.3-1S205.8,246.5,205.8,247.4z"/>
			</g>
			<g>
				<path class="st1" d="M211.2,247.4c0,1,1.3,1,1.3,1s1.3,0,1.3-1s-1.3-1-1.3-1S211.2,246.5,211.2,247.4z"/>
			</g>
			<g>
				<path class="st1" d="M216.5,247.4c0,1,1.3,1,1.3,1s1.3,0,1.3-1s-1.3-1-1.3-1S216.5,246.5,216.5,247.4z"/>
			</g>
		</g>
		<g>
			<g>
				<path class="st1" d="M166.7,261.8c0,1-1.3,1-1.3,1s-1.3,0-1.3-1s1.3-1,1.3-1S166.7,260.9,166.7,261.8z"/>
			</g>
			<g>
				<path class="st1" d="M166.7,257.1c0,1-1.3,1-1.3,1s-1.3,0-1.3-1s1.3-1,1.3-1S166.7,256.2,166.7,257.1z"/>
			</g>
			<g>
				<path class="st1" d="M166.7,252.4c0,1-1.3,1-1.3,1s-1.3,0-1.3-1s1.3-1,1.3-1S166.7,251.4,166.7,252.4z"/>
			</g>
			<g>
				<path class="st1" d="M166.7,247.7c0,1-1.3,1-1.3,1s-1.3,0-1.3-1s1.3-1,1.3-1S166.7,246.7,166.7,247.7z"/>
			</g>
			<g>
				<path class="st1" d="M166.7,242.9c0,1-1.3,1-1.3,1s-1.3,0-1.3-1s1.3-1,1.3-1S166.7,242,166.7,242.9z"/>
			</g>
			<g>
				<path class="st1" d="M166.7,238.2c0,1-1.3,1-1.3,1s-1.3,0-1.3-1s1.3-1,1.3-1S166.7,237.3,166.7,238.2z"/>
			</g>
			<g>
				<path class="st1" d="M166.7,228.7c0,1-1.3,1-1.3,1s-1.3,0-1.3-1s1.3-1,1.3-1S166.7,227.8,166.7,228.7z"/>
			</g>
			<g>
				<path class="st1" d="M166.7,224c0,1-1.3,1-1.3,1s-1.3,0-1.3-1s1.3-1,1.3-1S166.7,223.1,166.7,224z"/>
			</g>
			<g>
				<path class="st1" d="M166.7,219.3c0,1-1.3,1-1.3,1s-1.3,0-1.3-1s1.3-1,1.3-1S166.7,218.3,166.7,219.3z"/>
			</g>
		</g>
		<g>
			<g>
				<path class="st1" d="M121.3,233.8c0,1,1.3,1,1.3,1s1.3,0,1.3-1s-1.3-1-1.3-1S121.3,232.8,121.3,233.8z"/>
			</g>
			<g>
				<path class="st1" d="M126.7,233.8c0,1,1.3,1,1.3,1s1.3,0,1.3-1s-1.3-1-1.3-1S126.7,232.8,126.7,233.8z"/>
			</g>
			<g>
				<path class="st1" d="M132,233.8c0,1,1.3,1,1.3,1s1.3,0,1.3-1s-1.3-1-1.3-1S132,232.8,132,233.8z"/>
			</g>
			<g>
				<path class="st1" d="M137.4,233.8c0,1,1.3,1,1.3,1s1.3,0,1.3-1s-1.3-1-1.3-1S137.4,232.8,137.4,233.8z"/>
			</g>
			<g>
				<path class="st1" d="M142.7,233.8c0,1,1.3,1,1.3,1s1.3,0,1.3-1s-1.3-1-1.3-1S142.7,232.8,142.7,233.8z"/>
			</g>
			<g>
				<path class="st1" d="M148,233.8c0,1,1.3,1,1.3,1s1.3,0,1.3-1s-1.3-1-1.3-1S148,232.8,148,233.8z"/>
			</g>
			<g>
				<path class="st1" d="M153.4,233.8c0,1,1.3,1,1.3,1s1.3,0,1.3-1s-1.3-1-1.3-1S153.4,232.8,153.4,233.8z"/>
			</g>
			<g>
				<path class="st1" d="M158.7,233.8c0,1,1.3,1,1.3,1s1.3,0,1.3-1s-1.3-1-1.3-1S158.7,232.8,158.7,233.8z"/>
			</g>
			<g>
				<path class="st1" d="M164.1,233.8c0,1,1.3,1,1.3,1s1.3,0,1.3-1s-1.3-1-1.3-1S164.1,232.8,164.1,233.8z"/>
			</g>
			<g>
				<path class="st1" d="M169.4,233.8c0,1,1.3,1,1.3,1s1.3,0,1.3-1s-1.3-1-1.3-1S169.4,232.8,169.4,233.8z"/>
			</g>
		</g>
		<g>
			<path class="st1" d="M16.4,215.5c0,1,1.3,1,1.3,1s1.3,0,1.3-1s-1.3-1-1.3-1S16.4,214.5,16.4,215.5z"/>
		</g>
		<g>
			<path class="st1" d="M21.8,215.5c0,1,1.3,1,1.3,1s1.3,0,1.3-1s-1.3-1-1.3-1S21.8,214.5,21.8,215.5z"/>
		</g>
		<g>
			<path class="st1" d="M27.1,215.5c0,1,1.3,1,1.3,1s1.3,0,1.3-1s-1.3-1-1.3-1S27.1,214.5,27.1,215.5z"/>
		</g>
		<g>
			<path class="st1" d="M32.5,215.5c0,1,1.3,1,1.3,1s1.3,0,1.3-1s-1.3-1-1.3-1S32.5,214.5,32.5,215.5z"/>
		</g>
		<g>
			<path class="st1" d="M37.8,215.5c0,1,1.3,1,1.3,1s1.3,0,1.3-1s-1.3-1-1.3-1S37.8,214.5,37.8,215.5z"/>
		</g>
		<g>
			<path class="st1" d="M43.2,215.5c0,1,1.3,1,1.3,1s1.3,0,1.3-1s-1.3-1-1.3-1S43.2,214.5,43.2,215.5z"/>
		</g>
		<g>
			<path class="st1" d="M48.5,215.5c0,1,1.3,1,1.3,1s1.3,0,1.3-1s-1.3-1-1.3-1S48.5,214.5,48.5,215.5z"/>
		</g>
		<g>
			<path class="st1" d="M53.8,215.5c0,1,1.3,1,1.3,1s1.3,0,1.3-1s-1.3-1-1.3-1S53.8,214.5,53.8,215.5z"/>
		</g>
		<g>
			<path class="st1" d="M16.1,265.7c0,1,1.3,1,1.3,1s1.3,0,1.3-1s-1.3-1-1.3-1S16.1,264.7,16.1,265.7z"/>
		</g>
		<g>
			<path class="st1" d="M21.5,265.7c0,1,1.3,1,1.3,1s1.3,0,1.3-1s-1.3-1-1.3-1S21.5,264.7,21.5,265.7z"/>
		</g>
		<g>
			<path class="st1" d="M26.8,265.7c0,1,1.3,1,1.3,1s1.3,0,1.3-1s-1.3-1-1.3-1S26.8,264.7,26.8,265.7z"/>
		</g>
		<g>
			<path class="st1" d="M32.2,265.7c0,1,1.3,1,1.3,1s1.3,0,1.3-1s-1.3-1-1.3-1S32.2,264.7,32.2,265.7z"/>
		</g>
		<g>
			<path class="st1" d="M37.5,265.7c0,1,1.3,1,1.3,1s1.3,0,1.3-1s-1.3-1-1.3-1S37.5,264.7,37.5,265.7z"/>
		</g>
		<g>
			<path class="st1" d="M42.8,265.7c0,1,1.3,1,1.3,1s1.3,0,1.3-1s-1.3-1-1.3-1S42.8,264.7,42.8,265.7z"/>
		</g>
		<g>
			<path class="st1" d="M48.2,265.7c0,1,1.3,1,1.3,1s1.3,0,1.3-1s-1.3-1-1.3-1S48.2,264.7,48.2,265.7z"/>
		</g>
		<g>
			<path class="st1" d="M53.5,265.7c0,1,1.3,1,1.3,1s1.3,0,1.3-1s-1.3-1-1.3-1S53.5,264.7,53.5,265.7z"/>
		</g>
		<g>
			<path class="st1" d="M58.9,265.7c0,1,1.3,1,1.3,1s1.3,0,1.3-1s-1.3-1-1.3-1S58.9,264.7,58.9,265.7z"/>
		</g>
		<g>
			<path class="st1" d="M64.2,265.7c0,1,1.3,1,1.3,1s1.3,0,1.3-1s-1.3-1-1.3-1S64.2,264.7,64.2,265.7z"/>
		</g>
		<g>
			<path class="st1" d="M36.8,247.4c0,1,1.3,1,1.3,1s1.3,0,1.3-1s-1.3-1-1.3-1S36.8,246.5,36.8,247.4z"/>
		</g>
		<g>
			<path class="st1" d="M42.2,247.4c0,1,1.3,1,1.3,1s1.3,0,1.3-1s-1.3-1-1.3-1S42.2,246.5,42.2,247.4z"/>
		</g>
		<g>
			<path class="st1" d="M47.5,247.4c0,1,1.3,1,1.3,1s1.3,0,1.3-1s-1.3-1-1.3-1S47.5,246.5,47.5,247.4z"/>
		</g>
		<g>
			<path class="st1" d="M52.9,247.4c0,1,1.3,1,1.3,1s1.3,0,1.3-1s-1.3-1-1.3-1S52.9,246.5,52.9,247.4z"/>
		</g>
		<g>
			<path class="st1" d="M58.2,247.4c0,1,1.3,1,1.3,1s1.3,0,1.3-1s-1.3-1-1.3-1S58.2,246.5,58.2,247.4z"/>
		</g>
		<g>
			<path class="st1" d="M63.6,247.4c0,1,1.3,1,1.3,1s1.3,0,1.3-1s-1.3-1-1.3-1S63.6,246.5,63.6,247.4z"/>
		</g>
		<g>
			<path class="st1" d="M68.9,247.4c0,1,1.3,1,1.3,1s1.3,0,1.3-1s-1.3-1-1.3-1S68.9,246.5,68.9,247.4z"/>
		</g>
		<g>
			<path class="st1" d="M74.2,247.4c0,1,1.3,1,1.3,1s1.3,0,1.3-1s-1.3-1-1.3-1S74.2,246.5,74.2,247.4z"/>
		</g>
		<g>
			<path class="st1" d="M79.6,247.4c0,1,1.3,1,1.3,1s1.3,0,1.3-1s-1.3-1-1.3-1S79.6,246.5,79.6,247.4z"/>
		</g>
		<g>
			<path class="st1" d="M84.9,247.4c0,1,1.3,1,1.3,1s1.3,0,1.3-1s-1.3-1-1.3-1S84.9,246.5,84.9,247.4z"/>
		</g>
		<g>
			<path class="st1" d="M35.1,261.8c0,1-1.3,1-1.3,1s-1.3,0-1.3-1s1.3-1,1.3-1S35.1,260.9,35.1,261.8z"/>
		</g>
		<g>
			<path class="st1" d="M35.1,257.1c0,1-1.3,1-1.3,1s-1.3,0-1.3-1s1.3-1,1.3-1S35.1,256.2,35.1,257.1z"/>
		</g>
		<g>
			<path class="st1" d="M35.1,252.4c0,1-1.3,1-1.3,1s-1.3,0-1.3-1s1.3-1,1.3-1S35.1,251.4,35.1,252.4z"/>
		</g>
		<g>
			<path class="st1" d="M35.1,247.7c0,1-1.3,1-1.3,1s-1.3,0-1.3-1s1.3-1,1.3-1S35.1,246.7,35.1,247.7z"/>
		</g>
		<g>
			<path class="st1" d="M35.1,242.9c0,1-1.3,1-1.3,1s-1.3,0-1.3-1s1.3-1,1.3-1S35.1,242,35.1,242.9z"/>
		</g>
		<g>
			<path class="st1" d="M35.1,238.2c0,1-1.3,1-1.3,1s-1.3,0-1.3-1s1.3-1,1.3-1S35.1,237.3,35.1,238.2z"/>
		</g>
		<g>
			<path class="st1" d="M35.1,228.7c0,1-1.3,1-1.3,1s-1.3,0-1.3-1s1.3-1,1.3-1S35.1,227.8,35.1,228.7z"/>
		</g>
		<g>
			<path class="st1" d="M35.1,224c0,1-1.3,1-1.3,1s-1.3,0-1.3-1s1.3-1,1.3-1S35.1,223.1,35.1,224z"/>
		</g>
		<g>
			<path class="st1" d="M35.1,219.3c0,1-1.3,1-1.3,1s-1.3,0-1.3-1s1.3-1,1.3-1S35.1,218.3,35.1,219.3z"/>
		</g>
		<g>
			<path class="st1" d="M32.5,233.8c0,1,1.3,1,1.3,1s1.3,0,1.3-1s-1.3-1-1.3-1S32.5,232.8,32.5,233.8z"/>
		</g>
		<g>
			<path class="st1" d="M37.8,233.8c0,1,1.3,1,1.3,1s1.3,0,1.3-1s-1.3-1-1.3-1S37.8,232.8,37.8,233.8z"/>
		</g>
	</g>
</g>
<g class="st3">
	<path class="st4" d="M384.4,175l-9.5-16.5l0,0l0,0l0,0l0,0l0,0l0,0l0,0l0,0l0,0v-0.1v-0.1l0,0l0,0v0.1v0.1l0,0l0,0l0,0l0,0l0,0l0,0
		l0,0l0,0l0,0l-9.1,15.8l-9.1-15.8l0,0l0,0l0,0l0,0l0,0l0,0l0,0l0,0l0,0v-0.1v-0.1l0,0l0,0v0.1v0.1l0,0l0,0l0,0l0,0l0,0l0,0l0,0l0,0
		l0,0l-9.2,15.9l-9.2-15.9l0,0c0,0,0,0-0.1-0.1c0,0,0,0-0.1-0.1l0,0c0,0,0,0-0.1,0h-0.1h-0.1h-0.1h-0.1l0,0l0,0c0,0,0,0-0.1,0.1
		c0,0,0,0-0.1,0.1l0,0l-9.2,15.9l-9.2-15.9l0,0l0,0l0,0l0,0l0,0l0,0l0,0l0,0l0,0v-0.1v-0.1l0,0l0,0v0.1v0.1l0,0l0,0l0,0l0,0l0,0l0,0
		l0,0l0,0l0,0l-9.5,16.5c-0.1,0.2,0,0.5,0.2,0.6c0.1,0,0.1,0.1,0.2,0.1s0.3-0.1,0.4-0.2l9.2-15.9l9.2,15.9c0.1,0.1,0.2,0.2,0.4,0.2
		l0,0l0,0c0.2,0,0.3-0.1,0.4-0.2l9.2-15.9l9.2,15.9l0,0c0,0,0,0,0,0.1l0,0c0,0,0,0,0.1,0.1l0,0h0.1h0.1h0.1h0.1l0,0
		c0,0,0.1,0,0.1-0.1l0,0c0,0,0,0,0-0.1l0,0l9.2-15.9l9.1,15.7c0,0.1,0.1,0.2,0.2,0.3c0.1,0,0.1,0.1,0.2,0.1l0,0l0,0
		c0.1,0,0.1,0,0.2-0.1s0.2-0.2,0.2-0.3l9.1-15.7l9.2,15.9c0.1,0.1,0.2,0.2,0.4,0.2c0.1,0,0.1,0,0.2-0.1
		C384.5,175.4,384.6,175.2,384.4,175z"/>
	<g class="st5">
		<g>
			<path class="st6" d="M305.3,175.4h-0.1c-0.1-0.1-0.2-0.2-0.1-0.4l9.5-16.5c0.1-0.1,0.2-0.2,0.4-0.1c0.1,0.1,0.2,0.2,0.1,0.4
				l-9.5,16.5C305.5,175.4,305.4,175.4,305.3,175.4z"/>
		</g>
		<g>
			<path class="st6" d="M324.2,175.4c-0.1,0-0.2,0-0.2-0.1l-7.2-12.4c-0.1-0.1,0-0.3,0.1-0.4c0.1-0.1,0.3,0,0.4,0.1l7.2,12.4
				c0.1,0.1,0,0.3-0.1,0.4C324.3,175.4,324.3,175.4,324.2,175.4z"/>
		</g>
		<g>
			<path class="st6" d="M343.3,175.4c-0.1,0-0.2-0.1-0.2-0.1l-7.2-12.4c-0.1-0.1,0-0.3,0.1-0.4c0.1-0.1,0.3,0,0.4,0.1l7.2,12.4
				c0.1,0.1,0,0.3-0.1,0.4C343.4,175.4,343.4,175.4,343.3,175.4z"/>
		</g>
		<g>
			<path class="st6" d="M362.4,175.4c-0.1,0-0.2-0.1-0.2-0.1l-7.2-12.4c-0.1-0.1,0-0.3,0.1-0.4c0.1-0.1,0.3,0,0.4,0.1l7.2,12.4
				c0.1,0.1,0,0.3-0.1,0.4C362.5,175.4,362.4,175.4,362.4,175.4z"/>
		</g>
		<g>
			<path class="st6" d="M381.4,175.4c-0.1,0-0.2,0-0.2-0.1l-7.2-12.4c-0.1-0.1,0-0.3,0.1-0.4c0.1-0.1,0.3,0,0.4,0.1l7.2,12.4
				c0.1,0.1,0,0.3-0.1,0.4C381.5,175.4,381.4,175.4,381.4,175.4z"/>
		</g>
		<g>
			<path class="st6" d="M326.8,171.3h-0.1c-0.1-0.1-0.2-0.2-0.1-0.4l7.2-12.4c0.1-0.1,0.2-0.2,0.4-0.1c0.1,0.1,0.2,0.2,0.1,0.4
				l-7.2,12.4C326.9,171.3,326.8,171.3,326.8,171.3z"/>
		</g>
		<g>
			<path class="st6" d="M345.6,171.3h-0.1c-0.1-0.1-0.2-0.2-0.1-0.4l7.2-12.4c0.1-0.1,0.2-0.2,0.4-0.1c0.1,0.1,0.2,0.2,0.1,0.4
				l-7.2,12.4C345.8,171.3,345.7,171.3,345.6,171.3z"/>
		</g>
		<g>
			<path class="st6" d="M365.1,171.3H365c-0.1-0.1-0.2-0.2-0.1-0.4l7.2-12.4c0.1-0.1,0.2-0.2,0.4-0.1c0.1,0.1,0.2,0.2,0.1,0.4
				l-7.2,12.4C365.3,171.3,365.2,171.3,365.1,171.3z"/>
		</g>
	</g>
</g>
<g>
	<g>
		<g>
			<g>
				<path class="st6" d="M305.2,175.7h-0.1c-0.1-0.1-0.2-0.2-0.1-0.4l9.5-16.5c0.1-0.1,0.2-0.2,0.4-0.1c0.1,0.1,0.2,0.2,0.1,0.4
					l-9.5,16.5C305.4,175.7,305.3,175.7,305.2,175.7z"/>
			</g>
			<g>
				<path class="st6" d="M324.2,175.7c-0.1,0-0.2,0-0.2-0.1l-7.2-12.4c-0.1-0.1,0-0.3,0.1-0.4c0.1-0.1,0.3,0,0.4,0.1l7.2,12.4
					c0.1,0.1,0,0.3-0.1,0.4C324.3,175.6,324.2,175.7,324.2,175.7z"/>
			</g>
			<g>
				<path class="st6" d="M343.3,175.7c-0.1,0-0.2-0.1-0.2-0.1l-7.2-12.4c-0.1-0.1,0-0.3,0.1-0.4c0.1-0.1,0.3,0,0.4,0.1l7.2,12.4
					c0.1,0.1,0,0.3-0.1,0.4C343.4,175.7,343.3,175.7,343.3,175.7z"/>
			</g>
			<g>
				<path class="st6" d="M362.3,175.7c-0.1,0-0.2-0.1-0.2-0.1l-7.2-12.4c-0.1-0.1,0-0.3,0.1-0.4c0.1-0.1,0.3,0,0.4,0.1l7.2,12.4
					c0.1,0.1,0,0.3-0.1,0.4C362.4,175.7,362.4,175.7,362.3,175.7z"/>
			</g>
			<g>
				<path class="st6" d="M381.3,175.7c-0.1,0-0.2,0-0.2-0.1l-7.2-12.4c-0.1-0.1,0-0.3,0.1-0.4c0.1-0.1,0.3,0,0.4,0.1l7.2,12.4
					c0.1,0.1,0,0.3-0.1,0.4C381.4,175.7,381.4,175.7,381.3,175.7z"/>
			</g>
			<g>
				<path class="st6" d="M326.7,171.6h-0.1c-0.1-0.1-0.2-0.2-0.1-0.4l7.2-12.4c0.1-0.1,0.2-0.2,0.4-0.1c0.1,0.1,0.2,0.2,0.1,0.4
					l-7.2,12.4C326.9,171.5,326.8,171.6,326.7,171.6z"/>
			</g>
			<g>
				<path class="st6" d="M345.6,171.6h-0.1c-0.1-0.1-0.2-0.2-0.1-0.4l7.2-12.4c0.1-0.1,0.2-0.2,0.4-0.1c0.1,0.1,0.2,0.2,0.1,0.4
					l-7.2,12.4C345.8,171.5,345.7,171.6,345.6,171.6z"/>
			</g>
			<g>
				<path class="st6" d="M365.1,171.6H365c-0.1-0.1-0.2-0.2-0.1-0.4l7.2-12.4c0.1-0.1,0.2-0.2,0.4-0.1c0.1,0.1,0.2,0.2,0.1,0.4
					l-7.2,12.4C365.3,171.5,365.2,171.6,365.1,171.6z"/>
			</g>
		</g>
	</g>
	<g>
		<path class="st0" d="M326.9,176.4L326.9,176.4c-0.2,0-0.4-0.1-0.4-0.3l-9-16.5l-9.4,16.5c-0.1,0.2-0.4,0.3-0.7,0.2
			c-0.2-0.1-0.3-0.4-0.2-0.7l9.9-17.3c0.1-0.2,0.3-0.3,0.4-0.3c0.2,0,0.3,0.1,0.4,0.3l9,16.5l9.2-16.5c0.1-0.2,0.3-0.3,0.4-0.3
			c0.2,0,0.4,0.1,0.4,0.3l8.9,16.3l9.2-16.3c0.1-0.2,0.3-0.3,0.4-0.3l0,0c0.2,0,0.3,0.1,0.4,0.3l9.2,16.5l9-16.5
			c0.1-0.2,0.3-0.3,0.4-0.3l0,0c0.2,0,0.3,0.1,0.4,0.3l9.6,17.3c0.1,0.2,0,0.5-0.2,0.7c-0.2,0.1-0.5,0-0.7-0.2l-9.2-16.5l-9,16.5
			c-0.1,0.2-0.3,0.3-0.4,0.3l0,0c-0.2,0-0.3-0.1-0.4-0.3l-9.2-16.5l-9.2,16.3c-0.1,0.2-0.2,0.3-0.4,0.3c-0.2,0-0.3-0.1-0.4-0.3
			l-8.9-16.3l-9.2,16.5C327.3,176.3,327.1,176.4,326.9,176.4z"/>
	</g>
</g>
</svg>
